/* XPM */
static char *result[] = {
/* columns rows colors chars-per-pixel */
"64 65 246 2 ",
"   c #020202",
".  c #0C0001",
"X  c #000A02",
"o  c #01010B",
"O  c #0C030D",
"+  c #030C0B",
"@  c #0A0908",
"#  c #140100",
"$  c #170507",
"%  c #1B0001",
"&  c #0B100F",
"*  c #030113",
"=  c #070318",
"-  c #230002",
";  c #3D2F11",
":  c #311E20",
">  c #392826",
",  c #39382C",
"<  c #3A2D35",
"1  c #283638",
"2  c #383437",
"3  c #3C3932",
"4  c #46191F",
"5  c #6C1E1F",
"6  c #472D1D",
"7  c #57271D",
"8  c #411C2B",
"9  c #492724",
"0  c #4B2E26",
"q  c #422B2D",
"w  c #4B2B2D",
"e  c #552A26",
"r  c #43322D",
"t  c #48372A",
"y  c #57342B",
"u  c #482A33",
"i  c #592F31",
"p  c #423433",
"a  c #4A3738",
"s  c #543638",
"d  c #672729",
"f  c #75312E",
"g  c #693738",
"h  c #374E0C",
"j  c #334329",
"k  c #364834",
"l  c #454A1C",
"z  c #454229",
"x  c #46443C",
"c  c #574F30",
"v  c #5A4738",
"b  c #72532F",
"n  c #694639",
"m  c #78473A",
"M  c #696337",
"N  c #3B2B46",
"B  c #2F3745",
"V  c #373A45",
"C  c #462B47",
"Z  c #483945",
"A  c #54344A",
"S  c #743D4A",
"D  c #693E51",
"F  c #5A3B63",
"G  c #35454F",
"H  c #39685D",
"J  c #3D4760",
"K  c #387070",
"L  c #494444",
"P  c #5D4348",
"I  c #524D4F",
"U  c #684847",
"Y  c #774747",
"T  c #665C48",
"R  c #775547",
"E  c #674D5B",
"W  c #774F52",
"Q  c #685559",
"!  c #7A5553",
"~  c #456157",
"^  c #6F635A",
"/  c #5A5E69",
"(  c #655760",
")  c #765668",
"_  c #4C6B6A",
"`  c #586667",
"'  c #43726A",
"]  c #746672",
"[  c #8F393C",
"{  c #AC3034",
"}  c #B83939",
"|  c #86531E",
" . c #AF4C16",
".. c #8B4B2F",
"X. c #A9452A",
"o. c #AA483C",
"O. c #BB4B39",
"+. c #B7513C",
"@. c #C4433E",
"#. c #833442",
"$. c #A83C46",
"%. c #BD3E42",
"&. c #894C4E",
"*. c #99484C",
"=. c #964856",
"-. c #875659",
";. c #975658",
":. c #AA4847",
">. c #B74948",
",. c #A8514F",
"<. c #B75548",
"1. c #A54757",
"2. c #B34C51",
"3. c #A75657",
"4. c #B55357",
"5. c #91615C",
"6. c #955D64",
"7. c #885474",
"8. c #9B5C75",
"9. c #A55969",
"0. c #B45062",
"q. c #996163",
"w. c #AC6B72",
"e. c #C3544A",
"r. c #C3524F",
"t. c #CE685B",
"y. c #DC6D57",
"u. c #DD755D",
"i. c #E8655B",
"p. c #E46B5C",
"a. c #EB6C5C",
"s. c #F0685D",
"d. c #E3735C",
"f. c #E7745C",
"g. c #DA6B6A",
"h. c #CA7469",
"j. c #D97768",
"k. c #DC746B",
"l. c #D36F71",
"z. c #C97976",
"x. c #D67975",
"c. c #E66A66",
"v. c #EE6D65",
"b. c #F46866",
"n. c #F46C64",
"m. c #E27464",
"M. c #E2746C",
"N. c #EB746B",
"B. c #E87968",
"V. c #F47367",
"C. c #F26C71",
"Z. c #E67574",
"A. c #A9931A",
"S. c #B29035",
"D. c #ABA031",
"F. c #CB912D",
"G. c #CBA43D",
"H. c #B99D5E",
"J. c #B68D77",
"K. c #C69769",
"L. c #CD8874",
"P. c #C7987A",
"I. c #D59D79",
"U. c #C9A779",
"Y. c #D5A378",
"T. c #EAA37E",
"R. c #387281",
"E. c #996C88",
"W. c #BA7F81",
"Q. c #CC7E85",
"!. c #BB9385",
"~. c #BDA38A",
"^. c #BAA199",
"/. c #AC9DAA",
"(. c #B5A3AC",
"). c #B8A9B7",
"_. c #CB8483",
"`. c #C89A8B",
"'. c #D59D88",
"]. c #E89A9C",
"[. c #C8A487",
"{. c #D6A787",
"}. c #D6B38C",
"|. c #C8A896",
" X c #D2AA94",
".X c #D5A8A7",
"XX c #C9A7B9",
"oX c #D2A7B7",
"OX c #DCB1B9",
"+X c #E9A9B6",
"@X c #F4B1B1",
"#X c #E7CAA4",
"$X c #EAC9A9",
"%X c #F5CAAA",
"&X c #EFD2AE",
"*X c #F2D4AA",
"=X c #EECCB6",
"-X c #FDCBB5",
";X c #FACBB9",
":X c #EDD3B9",
">X c #F8D6B6",
",X c #FFE1B9",
"<X c #BCABC7",
"1X c #A9BACD",
"2X c #B8B4C9",
"3X c #A6B9D8",
"4X c #B8B7D8",
"5X c #B4BDE5",
"6X c #CAA9C5",
"7X c #D5ACC2",
"8X c #C4B5CA",
"9X c #D5B7CA",
"0X c #C2B8D8",
"qX c #D6B5D5",
"wX c #E7B0C2",
"eX c #BBC0D8",
"rX c #ADC4E3",
"tX c #B4C2E8",
"yX c #C8C5D1",
"uX c #FBCBC3",
"iX c #F8D5C6",
"pX c #F1CFD2",
"aX c #FEDDD3",
"sX c #FBDEDA",
"dX c #FFE9C3",
"fX c #FFE5D7",
"gX c #EFDBEC",
"hX c #D9EDFA",
"jX c #ECE9EB",
"kX c #F9E8E7",
"lX c #E8F8EB",
"zX c #F6F7EA",
"xX c #FDF3EC",
"cX c #FCFEEC",
"vX c #EBEAFA",
"bX c #F9ECF7",
"nX c #EBF9F8",
"mX c #EDFEFE",
"MX c #F5F5F5",
"NX c #FCF4F3",
"BX c #F4FEF5",
"VX c #FDFDF5",
"CX c #F5F5FD",
"ZX c #FEF5FD",
"AX c #F4FDFD",
"SX c #FFFEFFFF",
/* pixels */
"SXSXSXSXSXSXSXSXSXSXSXSXSXSXSXSXSXSXSXSXSXSXSXSXSXSXSXSXSXSXSXSXSXSXSXSXSXSXSXSXSXSXSXSXSXSXSXSXSXSXSXSXSXSXSXSXSXSXSXSXSXSXSXSX",
"SXSXSXSXSXSXSXSXSXSXSXSXSXSXSXSXSXSXSXSXSXSXSXSXSXSXSXSXSXSXSXSXSXSXSXSXSXSXSXSXSXSXSXSXSXSXSXSXSXSXSXSXSXSXSXSXSXSXSXSXSXSXSXSX",
"SXSXSXSXSXSXSXSXSXSXSXSXSXSXSXSXSXSXSXSXSXSXSXSXSXSXSXSXSXSXSXSXSXSXSXSXSXSXSXSXSXSXSXSXSXSXSXSXSXSXSXSXSXSXSXSXSXSXSXSXSXSXSXSX",
"SXSXSXSXSXSXSXSXSXSXSXSXSXSXSXSXSXSXSXSXSXSXSXSXSXSXSXSXSXSXSXSXSXSXSXSXSXSXSXSXSXSXSXSXSXSXSXSXSXSXSXSXSXSXSXSXSXSXSXSXSXSXSXSX",
"SXSXSXSXSXSXSXSXSXSXSXSXSXSXSXSXSXSXSXSXSXSXSXSXSXSXSXSXSXSXSXSXSXSXSXSXSXSXSXSXSXSXSXSXSXSXSXSXSXSXSXSXSXSXSXSXSXSXSXSXSXSXSXSX",
"SXSXSXSXSXSXSXSXSXSXSXSXSXSXSXSXSXSXSXSXSXSXSXSXSXSXSXSXSXSXSXSXSXSXSXSXSXSXSXSXSXSXSXSXSXSXSXSXSXSXSXSXSXSXSXSXSXSXSXSXSXSXSXSX",
"SXSXSXSXSXSXSXSXSXSXSXSXSXSXSXSXSXSXSXSXSXSXSXSXSXSXSXSXSXSXSXSXSXSXSXSXSXSXSXSXSXSXSXSXSXSXSXSXSXSXSXSXSXSXSXSXSXSXSXSXSXSXSXSX",
"SXSXSXSXSXSXSXSXSXSXSXSXSXSXSXSXSXSXSXSXSXSXSXSXSXSXSXSXSXSXSXSXSXSXSXSXSXSXSXSXSXSXSXSXSXSXSXSXSXSXSXSXSXSXSXSXSXSXSXSXSXSXSXSX",
"SXSXSXSXSXSXSXSXSXSXSXSXSXSXSXSXSXSXSXSXSXSXSXSXSXSXSXSXSXSXSXSXSXSXSXSXSXSXSXSXSXSXSXSXSXSXSXSXSXSXSXSXSXSXSXSXSXSXSXSXSXSXSXSX",
"SXSXSXSXSXSXSXSXSXSXSXSXSXSXSXSXSXSXSXSXSXSXSXSXSXSXSXSXSXSXSXSXSXSXSXSXSXSXSXSXSXSXSXSXSXSXSXSXSXSXSXSXSXSXSXSXSXSXSXSXSXSXSXSX",
"SXSXSXSXSXSXSXSXSXSXSXSXSXSXSXSXSXSXSXSXSXSXSXSXSXSXSXSXSXSXSXSXSXSXSXSXSXSXSXSXSXSXSXSXSXSXSXSXSXSXSXSXSXSXSXSXSXSXSXSXSXSXSXSX",
"SXSXSXSXSXSXSXSXSXSXSXSXSXSXSXSXSXSXSXSXSXSXSXSX3 3 3 3 3 p 3 t t r r < 3 > SXSXSXSXSXSXSXSXSXSXSXSXSXSXSXSXSXSXSXSXSXSXSXSXSXSX",
"SXSXSXSXSXSXSXSXSXSXSXSXSXSXSXSXSXSXSXSXSXSXSXSXr q 0 e e 7 7 7 7 7 e e 9 9 SXSXSXSXSXSXSXSXSXSXSXSXSXSXSXSXSXSXSXSXSXSXSXSXSXSX",
"SXSXSXSXSXSXSXSXSXSXSXSXSXSXSXSXSXSXSXSXZ q 9 i !.z.z.l.x.k.k.k.k.x.x.L._.W.e w q Z SXSXSXSXSXSXSXSXSXSXSXSXSXSXSXSXSXSXSXSXSXSX",
"SXSXSXSXSXSXSXSXSXSXSXSXSXSXSXSXSXSXSXSX8 g d 5 x.k.x.M.V.v.v.v.V.p.Z.g.l.x.d d i w SXSXSXSXSXSXSXSXSXSXSXSXSXSXSXSXSXSXSXSXSXSX",
"SXSXSXSXSXSXSXSXSXSXSXSXSXSXSXSXSXSXr w 5.*.Z.m.m.L.t.u.a.V.y.u.p.a.v.N.M.M.m.k.2.;.s V SXSXSXSXSXSXSXSXSXSXSXSXSXSXSXSXSXSXSXSX",
"SXSXSXSXSXSXSXSXSXSXSXSXSXSXSXSXSXSXu e ;.<.c.i.p.f.u.f.a.s.y.d.f.a.i.p.d.f.f.a.r.1.u 2 SXSXSXSXSXSXSXSXSXSXSXSXSXSXSXSXSXSXSXSX",
"SXSXSXSXSXSXSXSXSXSXSXSXSXSXSXSXSXSX< e 3.4.c.V.a.a.a.V.s.V.V.N.V.V.b.b.m.m.a.d.r.,.u V SXSXSXSXSXSXSXSXSXSXSXSXSXSXSXSXSXSXSXSX",
"SXSXSXSXSXSXSXSXSXSXSXSXSXSXSXSXSXSXp i z.M.c.n.n.s.s.s.a.v.b.i.p.p.b.b.m.u.f.f.c.z.s 2 SXSXSXSXSXSXSXSXSXSXSXSXSXSXSXSXSXSXSXSX",
"SXSXSXSXSXSXSXSXSXSXSXSXSXSXSXSXSXSX> e x.Z.c.v.s.s.b.c.m.N.C.C.M.N.b.v.u.u.f.f.u.x.y < SXSXSXSXSXSXSXSXSXSXSXSXSXSXSXSXSXSXSXSX",
"SXSXSXSXSXSXSXSXSXSXSXSXSXSXSXSXSXSXs d x.C.m.p.p.v.V.g.h.h.g.Z.j.j.C.C.M.j.d.y.B.h.7 A SXSXSXSXSXSXSXSXSXSXSXSXSXSXSXSXSXSXSXSX",
"SXSXSXSXSXSXSXSXSXSXSXSXSXSXSXSXV C 4 f t.C.B.m.v.B.j.h.`.J.z.Q.L.z.g.c.k.B.f.f.d.j.f 4 u Z SXSXSXSXSXSXSXSXSXSXSXSXSXSXSXSXSXSX",
"SXSXSXSXSXSXSXSXSXSXSXSXSXSXSXSX2 q q.3.o.e.y.d.a.B.z.L.iXaXiXaXkX@X].g.g.M.f.p.O.e.*.q.s < SXSXSXSXSXSXSXSXSXSXSXSXSXSXSXSXSXSX",
"SXSXSXSXSXSXSXSXSXSXSXSXSXSXSXSX2 u 3.2.<.O.d.u.L.h.w.J.aXfXaXaXfXpXQ.Q.l.Z.d.y.O.>.4.q.p 2 SXSXSXSXSXSXSXSXSXSXSXSXSXSXSXSXSXSX",
"SXSXSXSXSXSXSXSXSXSXSXSXSXSXSXSXo % =.2.<.+.+.+.o.3.+X.XbXsX;.;.aXkXOX].0.>.>.<.O.e.>.*.. X SXSXSXSXSXSXSXSXSXSXSXSXSXSXSXSXSXSX",
"SXSXSXSXSXSXSXSXSXSXSXSXSXSXSXSX@ # ;.:.:.<.O.e.r.3.wXOXpXsX6.6.kXpXyXoX9.0.2.o.>.e.2.9.  X SXSXSXSXSXSXSXSXSXSXSXSXSXSXSXSXSXSX",
"SXSXSXSXSXSXSXSXSXSXSXSXSXSXSXSXX # q.,.<.<.>.0.=.=.OX9X8.8.=.-.5.] 2X9X8.0.3.3.:.>.:.q.  X SXSXSXSXSXSXSXSXSXSXSXSXSXSXSXSXSXSX",
"SXSXSXSXSXSXSXSXSXSXSXSXSXSXSXSXX @ -.&.3.*.2.$.8.E.6X0X7.7.8.8.) ] 8X8X7.7.-.3.3.4.3.-.X   SXSXSXSXSXSXSXSXSXSXSXSXSXSXSXSXSXSX",
"SXSXSXSXSXSXSXSXSXSXSXSXSXSXSXSX  . r i ;.4.+XwX6X<X5X4X<XqXXXOXqX).0X0X<XqXwX+X3.*.d 9   X SXSXSXSXSXSXSXSXSXSXSXSXSXSXSXSXSXSX",
"SXSXSXSXSXSXSXSXSXSXSXSXSXSXL < O O a 0 ;.3.].6X2XtX5X5X5X0X<X9X9X6X0X4X4X4XXXoX;.;.y t     n 0 SXSXSXSXSXSXSXSXSXSXSXSXSXSXSXSX",
"SXSXSXSXSXSXSXSXSXSXSXSXSXSX, p # . p t -.q.wXqX4XrX3X5X5X3XeX8XoX9X4X4XtX4X8X9X6.5.9 r . # 0 q SXSXSXSXSXSXSXSXSXSXSXSXSXSXSXSX",
"SXSXSXSXSXSXSXSXSXSXSXSXSXSX  . {.K.! E y i A C 2XeXvXvXhXhXhXbXkXbXvXvX2X4XC A 0 e ! m I.U.  @ SXSXSXSXSXSXSXSXSXSXSXSXSXSXSXSX",
"SXSXSXSXSXSXSXSXSXSXSXSXSXSX  # K.I.W E s > C Z 8X8XgXbXhXhXnXgXbXpXvXCX2X2XF N , t U b T.T.    SXSXSXSXSXSXSXSXSXSXSXSXSXSXSXSX",
"SXSXSXSXSXSXSXSXSXSXSXSXSXSX  $ Y.P.Z N Q ^ I Q E ) -.n z > < Z 2 V ( ( E ) F ) I T t 7 K.P.O * SXSXSXSXSXSXSXSXSXSXSXSXSXSXSXSX",
"SXSXSXSXSXSXSXSXSXSXSXSXSXSX@   `.|.Z N Q c T Q E Y m R 0 6 s q p 2 E E E E ) U M M , 0 '.`.  o SXSXSXSXSXSXSXSXSXSXSXSXSXSXSXSX",
"SXSXSXSXSXSXSXSXSXSXSXSXSXSXSXSX. O N a [.[.T U |.|.e i [.}.{.`.|.^.Z a )./.W Y [.[.; a # # SXSXSXSXSXSXSXSXSXSXSXSXSXSXSXSXSXSX",
"SXSXSXSXSXSXSXSXSXSXSXSXSXSXSXSXo = < q Y.Y.b M [.~.> 0 `.`.{.'.`..Xw 2 /./.U b U.H.a <   O SXSXSXSXSXSXSXSXSXSXSXSXSXSXSXSXSXSX",
"SXSXSXSXSXSXSXSXSXSXSXSXSXSXSXSXSXSX# - I.K.}.U.fXsX$ # >X-X-X-X-X-X% . jXMX[.{.Y.}.. * SXSXSXSXSXSXSXSXSXSXSXSXSXSXSXSXSXSXSXSX",
"SXSXSXSXSXSXSXSXSXSXSXSXSXSXSXSXSXSX. % '.{.H.U.fXkX$ # >X*X;XuX-X%X- # gXsX[.P.Y.~.O * SXSXSXSXSXSXSXSXSXSXSXSXSXSXSXSXSXSXSXSX",
"SXSXSXSXSXSXSXSXSXSXSXSXSXSXSXSXSXSXSXSX# # [.[.pXiX:X*X*X&XiX;X>X*X*X%XiXuX X|.# . SXSXSXSXSXSXSXSXSXSXSXSXSXSXSXSXSXSXSXSXSXSX",
"SXSXSXSXSXSXSXSXSXSXSXSXSXSXSXSXSXSXSXSXO . |. XiX:X>X>X%X,X=XiX$XdX#X%X-X-X'. X#   SXSXSXSXSXSXSXSXSXSXSXSXSXSXSXSXSXSXSXSXSXSX",
"SXSXSXSXSXSXSXSXSXSXSXSXSXSXSXSXSXSXSXSX*   Y m P. X$X=X>X>XP.{.:X$X*X*X].].b m . o SXSXSXSXSXSXSXSXSXSXSXSXSXSXSXSXSXSXSXSXSXSX",
"SXSXSXSXSXSXSXSXSXSXSXSXSXSXSXSXSXSXSXSX*   ....{.[.iXiX*X*XY.Y.>X&X,X>X`.'.| | .   SXSXSXSXSXSXSXSXSXSXSXSXSXSXSXSXSXSXSXSXSXSX",
"SXSXSXSXSXSXSXSXSXSXSXSXSXSXSXSXSXSXSX& 1 , H.F...Y > , ~.}.Y.Y.P. X> p -...S.D.c 2 * * SXSXSXSXSXSXSXSXSXSXSXSXSXSXSXSXSXSXSXSX",
"SXSXSXSXSXSXSXSXSXSXSXSXSXSXSXSXSXSXo = 1 l G.F.X.&.C a ^.|.[.U.{.~.A C Y [ G.A.; k = = SXSXSXSXSXSXSXSXSXSXSXSXSXSXSXSXSXSXSXSX",
"SXSXSXSXSXSXSXSXSXSXSXSXSXSXSXSXU -.p k k l A.F. ...XX2X2 : v ; 6 p /.6X=.X.F.A.h j B Z P P SXSXSXSXSXSXSXSXSXSXSXSXSXSXSXSXSXSX",
"SXSXSXSXSXSXSXSXSXSXSXSXSXSXSXSXg m t z j l S.F. .X.+X6XC 2 2 , 1 a XXwX:.X.F.D.h k x v U Y SXSXSXSXSXSXSXSXSXSXSXSXSXSXSXSXSXSX",
"SXSXSXSXSXSXSXSXSXSXSXSXSXSXU U uXuX[.|.z l b b X.} $.3.oX).I B 1X2X=.2.} X.| b z t [.[.&XuXS D SXSXSXSXSXSXSXSXSXSXSXSXSXSXSXSX",
"SXSXSXSXSXSXSXSXSXSXSXSXSXSXU U =X>X X`.a t v -.o.%.%.$..X).V J 3X6X1.{ @.:.m Q p 6 [.Y.$X;X&.Y SXSXSXSXSXSXSXSXSXSXSXSXSXSXSXSX",
"SXSXSXSXSXSXSXSXSXSXSXSXSXSXP U iX>X;XuX# .   # ..[ $.*.OX9XB B 2X7X$.%.{ ...   @ # iX=X*X>Xg Y SXSXSXSXSXSXSXSXSXSXSXSXSXSXSXSX",
"SXSXSXSXSXSXSXSXSXSXSXSXSXSXQ P =X%XuXpX#   @   S #.*.=.(.).G V <XXX;.,.f n * * * . =XiX>X$X-.s SXSXSXSXSXSXSXSXSXSXSXSXSXSXSXSX",
"SXSXSXSXSXSXSXSXSXSXSXSXSXSXSXSXn m [ g $ o _ ` O % - # . & o O O O # # # . / ] = $ U Y f n SXSXSXSXSXSXSXSXSXSXSXSXSXSXSXSXSXSX",
"SXSXSXSXSXSXSXSXSXSXSXSXSXSXSXSXn m m U o = _ _ o o . X   X o * = *   X X   ` / = O D Y Y R SXSXSXSXSXSXSXSXSXSXSXSXSXSXSXSXSXSX",
"SXSXSXSXSXSXSXSXSXSXSXSXSXSXSXSXSXSXSXSX+ & G G G 2 ~ ' K ' ~ B R.R.H _ j , L k o + SXSXSXSXSXSXSXSXSXSXSXSXSXSXSXSXSXSXSXSXSXSX",
"SXSXSXSXSXSXSXSXSXSXSXSXSXSXSXSXSXSXSXSXX + < Z s Z _ ' H K G G R.K ' ~ x w s s   X SXSXSXSXSXSXSXSXSXSXSXSXSXSXSXSXSXSXSXSXSXSX",
"SXSXSXSXSXSXSXSXSXSXSXSXSXSXSXSXSXSXSXSXO - =.1.$.=.% o X + o * = * o X -.*.=.=.#   SXSXSXSXSXSXSXSXSXSXSXSXSXSXSXSXSXSXSXSXSXSX",
"SXSXSXSXSXSXSXSXSXSXSXSXSXSXSXSXSXSXSXSX# - =.1.1.=.% .   o = = = = o # ;.=.1.=.# & SXSXSXSXSXSXSXSXSXSXSXSXSXSXSXSXSXSXSXSXSXSX",
"SXSXSXSXSXSXSXSXSXSXSXSXSXSXSXSXSXSXSXSXSXSX. . # # SXSXSXSXSXSXSXSXSXSX. # % O SXSXSXSXSXSXSXSXSXSXSXSXSXSXSXSXSXSXSXSXSXSXSXSX",
"SXSXSXSXSXSXSXSXSXSXSXSXSXSXSXSXSXSXSXSXSXSXX X X X SXSXSXSXSXSXSXSXSXSX      o SXSXSXSXSXSXSXSXSXSXSXSXSXSXSXSXSXSXSXSXSXSXSXSX",
"SXSXSXSXSXSXSXSXSXSXSXSXSXSXSXSXSXSXSXSXSXSXSXSXSXSXSXSXSXSXSXSXSXSXSXSXSXSXSXSXSXSXSXSXSXSXSXSXSXSXSXSXSXSXSXSXSXSXSXSXSXSXSXSX",
"SXSXSXSXSXSXSXSXSXSXSXSXSXSXSXSXSXSXSXSXSXSXSXSXSXSXSXSXSXSXSXSXSXSXSXSXSXSXSXSXSXSXSXSXSXSXSXSXSXSXSXSXSXSXSXSXSXSXSXSXSXSXSXSX",
"SXSXSXSXSXSXSXSXSXSXSXSXSXSXSXSXSXSXSXSXSXSXSXSXSXSXSXSXSXSXSXSXSXSXSXSXSXSXSXSXSXSXSXSXSXSXSXSXSXSXSXSXSXSXSXSXSXSXSXSXSXSXSXSX",
"SXSXSXSXSXSXSXSXSXSXSXSXSXSXSXSXSXSXSXSXSXSXSXSXSXSXSXSXSXSXSXSXSXSXSXSXSXSXSXSXSXSXSXSXSXSXSXSXSXSXSXSXSXSXSXSXSXSXSXSXSXSXSXSX",
"SXSXSXSXSXSXSXSXSXSXSXSXSXSXSXSXSXSXSXSXSXSXSXSXSXSXSXSXSXSXSXSXSXSXSXSXSXSXSXSXSXSXSXSXSXSXSXSXSXSXSXSXSXSXSXSXSXSXSXSXSXSXSXSX",
"SXSXSXSXSXSXSXSXSXSXSXSXSXSXSXSXSXSXSXSXSXSXSXSXSXSXSXSXSXSXSXSXSXSXSXSXSXSXSXSXSXSXSXSXSXSXSXSXSXSXSXSXSXSXSXSXSXSXSXSXSXSXSXSX",
};
