/* XPM */
static char *result[] = {
/* columns rows colors chars-per-pixel */
"64 65 245 2 ",
"   c #020202",
".  c #0C0001",
"X  c #000A02",
"o  c #01010B",
"O  c #0C030D",
"+  c #030C0B",
"@  c #0A0908",
"#  c #140101",
"$  c #170507",
"%  c #1B0001",
"&  c #030113",
"*  c #0D0F10",
"=  c #070318",
"-  c #230002",
";  c #3D2F11",
":  c #311E20",
">  c #392A27",
",  c #39382C",
"<  c #382D37",
"1  c #2A3236",
"2  c #383537",
"3  c #3C3932",
"4  c #4F191B",
"5  c #6C1E1F",
"6  c #472D1D",
"7  c #58281C",
"8  c #401E30",
"9  c #472624",
"0  c #4B2E26",
"q  c #422C2D",
"w  c #4B2B2D",
"e  c #562A27",
"r  c #43322D",
"t  c #48372A",
"y  c #57342B",
"u  c #472B33",
"i  c #592F31",
"p  c #423333",
"a  c #493738",
"s  c #543537",
"d  c #702D2C",
"f  c #693738",
"g  c #374E0C",
"h  c #334329",
"j  c #364834",
"k  c #454A1C",
"l  c #454229",
"z  c #46443C",
"x  c #574F30",
"c  c #5A4738",
"v  c #72532F",
"b  c #694639",
"n  c #78473A",
"m  c #696337",
"M  c #3B2B46",
"N  c #2F3745",
"B  c #373A45",
"V  c #462B47",
"C  c #473A45",
"Z  c #54344A",
"A  c #743D4A",
"S  c #693E51",
"D  c #5A3B63",
"F  c #35454F",
"G  c #39685D",
"H  c #3D4760",
"J  c #387070",
"K  c #494444",
"L  c #5D4449",
"P  c #524D4F",
"I  c #684848",
"U  c #774747",
"Y  c #665C48",
"T  c #775547",
"R  c #674D5B",
"E  c #774F52",
"W  c #685559",
"Q  c #7A5553",
"!  c #456157",
"~  c #6F635A",
"^  c #5A5E69",
"/  c #655760",
"(  c #765668",
")  c #4C6B6A",
"_  c #586667",
"`  c #43726A",
"'  c #746672",
"]  c #8F393C",
"[  c #AC3034",
"{  c #B83939",
"}  c #86531E",
"|  c #AF4C16",
" . c #8B4B2F",
".. c #A9452A",
"X. c #AA483C",
"o. c #BB4A3A",
"O. c #B7513C",
"+. c #C4433E",
"@. c #833442",
"#. c #A83C46",
"$. c #BD3E42",
"%. c #894C4E",
"&. c #9A454C",
"*. c #964856",
"=. c #895659",
"-. c #975557",
";. c #AA4747",
":. c #B64A49",
">. c #AA514E",
",. c #B75648",
"<. c #A54857",
"1. c #B44B51",
"2. c #A75657",
"3. c #B55357",
"4. c #91615C",
"5. c #975C63",
"6. c #885474",
"7. c #9B5C75",
"8. c #A55969",
"9. c #B45463",
"0. c #8D696C",
"q. c #AC6B72",
"w. c #C24C49",
"e. c #C3544C",
"r. c #CF6F56",
"t. c #DC6957",
"y. c #DD755D",
"u. c #E7665A",
"i. c #E46B5C",
"p. c #EB6C5C",
"a. c #F0685D",
"s. c #E3735C",
"d. c #E7745C",
"f. c #D26E6D",
"g. c #D86B6B",
"h. c #C8746A",
"j. c #DC746B",
"k. c #DA7868",
"l. c #C97977",
"z. c #D67875",
"x. c #E66A67",
"c. c #EE6C65",
"v. c #F46866",
"b. c #F46C64",
"n. c #E27463",
"m. c #E77967",
"M. c #E2736B",
"N. c #EC736B",
"B. c #F47367",
"V. c #F26C71",
"C. c #E57373",
"Z. c #A9931A",
"A. c #B29035",
"S. c #ABA031",
"D. c #CB912D",
"F. c #CBA43D",
"G. c #B99D5E",
"H. c #B68D77",
"J. c #CA8B6F",
"K. c #C69769",
"L. c #D5827B",
"P. c #C7987A",
"I. c #D59D79",
"U. c #F39378",
"Y. c #C9A779",
"T. c #D5A378",
"R. c #387281",
"E. c #996C88",
"W. c #BA7F81",
"Q. c #CC7E85",
"!. c #BB9385",
"~. c #BDA38A",
"^. c #BAA199",
"/. c #AC9DAA",
"(. c #B5A3AC",
"). c #B8A9B7",
"_. c #D38584",
"`. c #C89A8B",
"'. c #D59D88",
"]. c #E89A9C",
"[. c #C8A487",
"{. c #D6A787",
"}. c #C5B488",
"|. c #D6B38C",
" X c #C8A896",
".X c #D7A798",
"XX c #D5A8A7",
"oX c #C9A7B9",
"OX c #D2A7B7",
"+X c #DCB1B9",
"@X c #F4B1B1",
"#X c #E7CAA4",
"$X c #EAC9A9",
"%X c #F5CAAA",
"&X c #EFD2AE",
"*X c #F2D4AA",
"=X c #EECCB6",
"-X c #FDCBB5",
";X c #FACBB9",
":X c #EDD3B9",
">X c #F8D6B6",
",X c #FFE1B9",
"<X c #BCABC7",
"1X c #A9BACD",
"2X c #B8B4C9",
"3X c #A6B9D8",
"4X c #B8B7D8",
"5X c #B4BDE5",
"6X c #CAA9C5",
"7X c #D5ACC2",
"8X c #C4B5CA",
"9X c #D5B7CA",
"0X c #C2B8D8",
"qX c #D6B5D5",
"wX c #E7B0C2",
"eX c #BBC0D8",
"rX c #ADC4E3",
"tX c #B4C2E8",
"yX c #C8C5D1",
"uX c #FBCBC3",
"iX c #F8D5C6",
"pX c #F1CFD2",
"aX c #FEDDD3",
"sX c #FBDEDA",
"dX c #FFE5D7",
"fX c #EFDBEC",
"gX c #D9EDFA",
"hX c #ECE9EB",
"jX c #FAE8E6",
"kX c #EAF7EC",
"lX c #F6F7EA",
"zX c #FDF3EC",
"xX c #FCFEEC",
"cX c #EBEAFA",
"vX c #F9ECF7",
"bX c #EBF9F7",
"nX c #EDFEFE",
"mX c #F5F5F5",
"MX c #FCF4F4",
"NX c #F4FEF5",
"BX c #FDFDF5",
"VX c #F5F5FD",
"CX c #FEF5FD",
"ZX c #F4FDFD",
"AX c #FFFEFFFF",
/* pixels */
"AXAXAXAXAXAXAXAXAXAXAXAXAXAXAXAXAXAXAXAXAXAXAXAXAXAXBXAXBXNXNXNXNXNXNXNXNXNXNXZXNXZXZXAXZXAXAXAXAXAXAXAXAXAXAXAXAXAXAXAXAXAXAXAX",
"AXAXAXAXAXAXAXAXAXAXAXAXAXAXAXAXAXAXAXAXAXAXAXAXAXAXAXAXAXAXAXAXAXAXAXAXAXAXAXAXAXAXAXAXAXAXAXAXAXAXAXAXAXAXAXAXAXAXAXAXAXAXAXAX",
"AXAXAXAXAXAXAXAXAXAXAXAXAXAXAXAXAXAXAXAXAXAXAXAXAXAXAXAXAXAXAXAXAXAXAXAXAXAXAXAXAXAXAXAXAXAXAXAXAXAXAXAXAXAXAXAXAXAXAXAXAXAXAXAX",
"AXAXAXAXAXAXAXAXAXAXAXAXAXAXAXAXAXAXAXAXAXAXAXAXAXAXAXAXAXAXAXAXAXAXAXAXAXAXAXAXAXAXAXAXAXAXAXAXAXAXAXAXAXAXAXAXAXAXAXAXAXAXAXAX",
"AXAXAXAXAXAXAXAXAXAXAXAXAXAXAXAXAXAXAXAXAXAXAXAXAXAXAXAXAXAXAXAXAXAXAXAXAXAXAXAXAXAXAXAXAXAXAXAXAXAXAXAXAXAXAXAXAXAXAXAXAXAXAXAX",
"AXAXAXAXAXAXAXAXAXAXAXAXAXAXAXAXAXAXAXAXAXAXAXAXAXAXAXAXAXAXAXAXAXAXAXAXAXAXAXAXAXAXAXAXAXAXAXAXAXAXAXAXAXAXAXAXAXAXAXAXAXAXAXAX",
"AXAXAXAXAXAXAXAXAXAXAXAXAXAXAXAXAXAXAXAXAXAXAXAXAXAXAXAXAXAXAXAXAXAXAXAXAXAXAXAXAXAXAXAXAXAXAXAXAXAXAXAXAXAXAXAXAXAXAXAXAXAXAXAX",
"AXAXAXAXAXAXAXAXAXAXAXAXAXAXAXAXAXAXAXAXAXAXAXAXAXAXAXAXAXAXAXAXAXAXAXAXAXAXAXAXAXAXAXAXAXAXAXAXAXAXAXAXAXAXAXAXAXAXAXAXAXAXAXAX",
"AXAXAXAXAXAXAXAXAXAXAXAXAXAXAXAXAXAXAXAXAXAXAXAXAXAXAXAXAXAXAXAXAXAXAXAXAXAXAXAXAXAXAXAXAXAXAXAXAXAXAXAXAXAXAXAXAXAXAXAXAXAXAXAX",
"AXAXAXAXAXAXAXAXAXAXAXAXAXAXAXAXAXAXAXAXAXAXAXAXAXAX3 3 3 3 3 t 3 r t r r q a > AXAXAXAXAXAXAXAXAXAXAXAXAXAXAXAXAXAXAXAXAXAXAXAX",
"AXAXAXAXAXAXAXAXAXAXAXAXAXAXAXAXAXAXAXAXAXAXAXAXAXAXq w 0 e e 7 7 7 7 7 7 e 9 9 AXAXAXAXAXAXAXAXAXAXAXAXAXAXAXAXAXAXAXAXAXAXAXAX",
"AXAXAXAXAXAXAXAXAXAXAXAXAXAXAXAXAXAXAXAXAXAXC q 9 i W.J.l.l.z.j.M.j.j.z.z.Q.Q.!.i w q K AXAXAXAXAXAXAXAXAXAXAXAXAXAXAXAXAXAXAXAX",
"AXAXAXAXAXAXAXAXAXAXAXAXAXAXAXAXAXAXAXAXAXAX9 i 5 5 l.z.k.M.m.c.b.c.c.x.m.g.z.l.5 5 i w AXAXAXAXAXAXAXAXAXAXAXAXAXAXAXAXAXAXAXAX",
"AXAXAXAXAXAXAXAXAXAXAXAXAXAXAXAXAXAXAXAXp w =.>.z.g.M.M.r.s.p.B.t.y.d.p.N.N.m.j.M.j.1.5.u 2 AXAXAXAXAXAXAXAXAXAXAXAXAXAXAXAXAXAX",
"AXAXAXAXAXAXAXAXAXAXAXAXAXAXAXAXAXAXAXAXr i -.>.N.b.d.d.s.d.u.a.s.s.d.p.p.c.t.d.c.c.w.9.u < AXAXAXAXAXAXAXAXAXAXAXAXAXAXAXAXAXAX",
"AXAXAXAXAXAXAXAXAXAXAXAXAXAXAXAXAXAXAXAX> i -.:.x.c.p.p.p.B.a.b.B.B.B.c.b.b.n.n.d.i.:.;.s 1 AXAXAXAXAXAXAXAXAXAXAXAXAXAXAXAXAXAX",
"AXAXAXAXAXAXAXAXAXAXAXAXAXAXAXAXAXAXAXAX< i l.x.c.v.b.a.a.v.u.v.v.x.i.i.v.v.k.y.d.d.N._.9 C AXAXAXAXAXAXAXAXAXAXAXAXAXAXAXAXAXAX",
"AXAXAXAXAXAXAXAXAXAXAXAXAXAXAXAXAXAXAXAXq e Q.C.u.u.b.a.v.c.M.x.V.N.M.m.v.v.y.y.d.d.d.h.w p AXAXAXAXAXAXAXAXAXAXAXAXAXAXAXAXAXAX",
"AXAXAXAXAXAXAXAXAXAXAXAXAXAXAXAXAXAXAXAXI 5 M.V.n.U.i.c.c.g.h.h.g.g.f.k.V.V.M.k.s.t.n.L.i w AXAXAXAXAXAXAXAXAXAXAXAXAXAXAXAXAXAX",
"AXAXAXAXAXAXAXAXAXAXAXAXAXAXAXAXAXAXo $ : d j.x.i.t.d.m.j.h.`.H.l.Q.l.f.g.x.M.j.d.d.d.g.4 i % O AXAXAXAXAXAXAXAXAXAXAXAXAXAXAXAX",
"AXAXAXAXAXAXAXAXAXAXAXAXAXAXAXAXAXAXB u 5.<.:.o.m.s.y.n.l.J.aXaXiXaXdX@X].g.g.x.s.s.o.O.2.-.s 2 AXAXAXAXAXAXAXAXAXAXAXAXAXAXAXAX",
"AXAXAXAXAXAXAXAXAXAXAXAXAXAXAXAXAXAX< a 2.3.,.o.s.d.L.k.q.H.aXsXsXaXdXaXQ.Q.Q.V.n.t.o.o.3.5.p 2 AXAXAXAXAXAXAXAXAXAXAXAXAXAXAXAX",
"AXAXAXAXAXAXAXAXAXAXAXAXAXAXAXAXAXAX  % -.>.,.O.O.o.O.>.@XXXjXsX4.4.dXdX+X].9.:.O.e.o.e.;.*.. X AXAXAXAXAXAXAXAXAXAXAXAXAXAXAXAX",
"AXAXAXAXAXAXAXAXAXAXAXAXAXAXAXAXAXAX@ # 2.;.X.,.:.e.3.-.wX+XpXfX-.5.jXpX7XOX8.9.1.X.w.e.1.8.. X AXAXAXAXAXAXAXAXAXAXAXAXAXAXAXAX",
"AXAXAXAXAXAXAXAXAXAXAXAXAXAXAXAXAXAX  . 4.>.,.,.X.1.&.=.7X7X7.7.*.5.' 0.2X9X7.8.8.>.,.:.>.5.  X AXAXAXAXAXAXAXAXAXAXAXAXAXAXAXAX",
"AXAXAXAXAXAXAXAXAXAXAXAXAXAXAXAXAXAX  $ =.%.2.;.2.2.7.E.6XqX6.6.7.7.( 0.2X8X6.6.=.-.>.>.2.=.X X AXAXAXAXAXAXAXAXAXAXAXAXAXAXAXAX",
"AXAXAXAXAXAXAXAXAXAXAXAXAXAXAXAXAXAX    a i -.2.@XwX7X<X5X4X<XqXoX7XyX).0X0X<XqXwX@X2.%.d 9   X AXAXAXAXAXAXAXAXAXAXAXAXAXAXAXAX",
"AXAXAXAXAXAXAXAXAXAXAXAXAXAXAXAXz < O . p y *.-.].OX4XtXtX5X5X4X<X9X9X7X0X4X4X4XoXOX-.-.e a     b 0 AXAXAXAXAXAXAXAXAXAXAXAXAXAX",
"AXAXAXAXAXAXAXAXAXAXAXAXAXAXAXAX2 3 # # p r =.q.wXqXeXrX3X5XrX3XyX<XoX8X0X4X5X4X6X9X5.-.9 t # % 0 q AXAXAXAXAXAXAXAXAXAXAXAXAXAX",
"AXAXAXAXAXAXAXAXAXAXAXAXAXAXAXAX  . {.K.Q E y i Z M 2X4XcXgXgXgXgXvXjXvXfXcX3X4XM Z w 0 Q n I.I.  + AXAXAXAXAXAXAXAXAXAXAXAXAXAX",
"AXAXAXAXAXAXAXAXAXAXAXAXAXAXAXAX  . K.T.E R t > V V 0X8XfXvXgXbXVXfXjXfXcXcX2X2XD 8 q t I n T.{.  o AXAXAXAXAXAXAXAXAXAXAXAXAXAX",
"AXAXAXAXAXAXAXAXAXAXAXAXAXAXAXAX  % T.P.V M W ~ D R R ( =.S t > < C 2 C / / / ( D ( Y m l 7 J.J.. + AXAXAXAXAXAXAXAXAXAXAXAXAXAX",
"AXAXAXAXAXAXAXAXAXAXAXAXAXAXAXAX*   `. XC M W x Y W I E n n 6 ; a q < < R / R R R E x m , 0 '.`.  o AXAXAXAXAXAXAXAXAXAXAXAXAXAX",
"AXAXAXAXAXAXAXAXAXAXAXAXAXAXAXAXAXAX. # M a [.{.Y Y  X[.0 f [..X{.`. X^.s p ).(.E T }.}.> a # # AXAXAXAXAXAXAXAXAXAXAXAXAXAXAXAX",
"AXAXAXAXAXAXAXAXAXAXAXAXAXAXAXAXAXAX& = 2 0 T.T.v Y ~.~.6 0 `.`.{.'.'.XXw < /./.T v Y.G.s <   O AXAXAXAXAXAXAXAXAXAXAXAXAXAXAXAX",
"AXAXAXAXAXAXAXAXAXAXAXAXAXAXAXAXAXAXAXAX. - I.K.|.H.dXdX$ . >X-X-X-X-X-X#   hXvX~.{.I.|.. o AXAXAXAXAXAXAXAXAXAXAXAXAXAXAXAXAXAX",
"AXAXAXAXAXAXAXAXAXAXAXAXAXAXAXAXAXAXAXAX. % '.T.Y.}.dXsX% # ,X&X;XuX>X%X- # jXdX[.`.T.~.. o AXAXAXAXAXAXAXAXAXAXAXAXAXAXAXAXAXAX",
"AXAXAXAXAXAXAXAXAXAXAXAXAXAXAXAXAXAXAXAXAXAX# % Y.[.iXpX=X*X*X&XiXiX>X*X*X%XiXuX.X`.# # AXAXAXAXAXAXAXAXAXAXAXAXAXAXAXAXAXAXAXAX",
"AXAXAXAXAXAXAXAXAXAXAXAXAXAXAXAXAXAXAXAXAXAXO .  X.XiX=X>X>X*X,X;XiX$X,X%X*X;X@X`..X#   AXAXAXAXAXAXAXAXAXAXAXAXAXAXAXAXAXAXAXAX",
"AXAXAXAXAXAXAXAXAXAXAXAXAXAXAXAXAXAXAXAXAXAXo   U n P.}.$X&X>X*XH.{.*X#X*X-X'.@Xn v . o AXAXAXAXAXAXAXAXAXAXAXAXAXAXAXAXAXAXAXAX",
"AXAXAXAXAXAXAXAXAXAXAXAXAXAXAXAXAXAXAXAXAXAX= X  . .|.{.iXiX:X*XT.T.>X*X:XiX`.'.} v #   AXAXAXAXAXAXAXAXAXAXAXAXAXAXAXAXAXAXAXAX",
"AXAXAXAXAXAXAXAXAXAXAXAXAXAXAXAXAXAXAXAXo * 1 , A.r. .U q , ~.|.T.T.P.{.> p %. .A.G.l 3 = = AXAXAXAXAXAXAXAXAXAXAXAXAXAXAXAXAXAX",
"AXAXAXAXAXAXAXAXAXAXAXAXAXAXAXAXAXAXAXAXo + 1 k F.D. .%.a C ^.^.Y.Y.|.`.Z C A } D.S.6 l = = AXAXAXAXAXAXAXAXAXAXAXAXAXAXAXAXAXAX",
"AXAXAXAXAXAXAXAXAXAXAXAXAXAXAXAXAXAXI =.3 j j k Z.D.| ..oX<X2 : b 6 > 3 /.6X<...D.Z.g h N C L L AXAXAXAXAXAXAXAXAXAXAXAXAXAXAXAX",
"AXAXAXAXAXAXAXAXAXAXAXAXAXAXAXAXAXAXU n y l j k S.D.| ..XX6XV p , , , C oXwX#...D.S.g h z s I U AXAXAXAXAXAXAXAXAXAXAXAXAXAXAXAX",
"AXAXAXAXAXAXAXAXAXAXAXAXAXAXAXAXI I ;X;X[. Xl h m v ..{ #.2.+X).K N 1X2X*.$.{ [ } m l l  X[.=X;XA S AXAXAXAXAXAXAXAXAXAXAXAXAXAX",
"AXAXAXAXAXAXAXAXAXAXAXAXAXAXAXAXL I =X>X.X`.t l x =.[ $.$.#.XX(.B H 3X<X<.[ +.X.v ~ t 6 [.Y.*X>X%.U AXAXAXAXAXAXAXAXAXAXAXAXAXAX",
"AXAXAXAXAXAXAXAXAXAXAXAXAXAXAXAXL I iX>XuXuX# .   . @.#.#.&.+XyXN N 4X6X#.#.#.] $ X @ # iX&X&X>Xf U AXAXAXAXAXAXAXAXAXAXAXAXAXAX",
"AXAXAXAXAXAXAXAXAXAXAXAXAXAXAXAXW c :X%X;XpX#   + . A @.&.*.(.).K B 2XoX*.>.] f o & & O uXiX>X$XQ s AXAXAXAXAXAXAXAXAXAXAXAXAXAX",
"AXAXAXAXAXAXAXAXAXAXAXAXAXAXAXAXAXAXn n ] f $ o ) _ O % - % . + & = O O # # . @ ^ ' & $ S n f b AXAXAXAXAXAXAXAXAXAXAXAXAXAXAXAX",
"AXAXAXAXAXAXAXAXAXAXAXAXAXAXAXAXAXAXb n U I o + ) ) o   @ X   X & & = = X X X   _ ^ & O Z T U T AXAXAXAXAXAXAXAXAXAXAXAXAXAXAXAX",
"AXAXAXAXAXAXAXAXAXAXAXAXAXAXAXAXAXAXAXAXAXAX+ + F F B B ! ` G ` P B J J G ) h , P 2 o @ AXAXAXAXAXAXAXAXAXAXAXAXAXAXAXAXAXAXAXAX",
"AXAXAXAXAXAXAXAXAXAXAXAXAXAXAXAXAXAXAXAXAXAX  + 2 C Z a ) ! J J N F R.R.` ! z t s s     AXAXAXAXAXAXAXAXAXAXAXAXAXAXAXAXAXAXAXAX",
"AXAXAXAXAXAXAXAXAXAXAXAXAXAXAXAXAXAXAXAXAXAX# - *.<.<.*.% X X + & = = = o   %.*.*.*.#   AXAXAXAXAXAXAXAXAXAXAXAXAXAXAXAXAXAXAXAX",
"AXAXAXAXAXAXAXAXAXAXAXAXAXAXAXAXAXAXAXAXAXAX# - *.<.<.*.% . X o = & = &   . 5.*.*.*.# * AXAXAXAXAXAXAXAXAXAXAXAXAXAXAXAXAXAXAXAX",
"AXAXAXAXAXAXAXAXAXAXAXAXAXAXAXAXAXAXAXAXAXAXAXAXo . # # AXAXAXAXAXAXAXAXAXAX. % $ $ AXAXAXAXAXAXAXAXAXAXAXAXAXAXAXAXAXAXAXAXAXAX",
"AXAXAXAXAXAXAXAXAXAXAXAXAXAXAXAXAXAXAXAXAXAXAXAX  X X X AXAXAXAXAXAXAXAXAXAX      o AXAXAXAXAXAXAXAXAXAXAXAXAXAXAXAXAXAXAXAXAXAX",
"AXAXAXAXAXAXAXAXAXAXAXAXAXAXAXAXAXAXAXAXAXAXAXAXAXAXAXAXAXAXAXAXAXAXAXAXAXAXAXAXAXAXAXAXAXAXAXAXAXAXAXAXAXAXAXAXAXAXAXAXAXAXAXAX",
"AXAXAXAXAXAXAXAXAXAXAXAXAXAXAXAXAXAXAXAXAXAXAXAXAXAXAXAXAXAXAXAXAXAXAXAXAXAXAXAXAXAXAXAXAXAXAXAXAXAXAXAXAXAXAXAXAXAXAXAXAXAXAXAX",
"AXAXAXAXAXAXAXAXAXAXAXAXAXAXAXAXAXAXAXAXAXAXAXAXAXAXAXAXAXAXAXAXAXAXAXAXAXAXAXAXAXAXAXAXAXAXAXAXAXAXAXAXAXAXAXAXAXAXAXAXAXAXAXAX",
"AXAXAXAXAXAXAXAXAXAXAXAXAXAXAXAXAXAXAXAXAXAXAXAXAXAXAXAXAXAXAXAXAXAXAXAXAXAXAXAXAXAXAXAXAXAXAXAXAXAXAXAXAXAXAXAXAXAXAXAXAXAXAXAX",
"AXAXAXAXAXAXAXAXAXAXAXAXAXAXAXAXAXAXAXAXAXAXAXAXAXAXAXAXAXAXAXAXAXAXAXAXAXAXAXAXAXAXAXAXAXAXAXAXAXAXAXAXAXAXAXAXAXAXAXAXAXAXAXAX",
"AXAXAXAXAXAXAXAXAXAXAXAXAXAXAXAXAXAXAXAXAXAXAXAXAXAXAXAXAXAXAXAXAXAXAXAXAXAXAXAXAXAXAXAXAXAXAXAXAXAXAXAXAXAXAXAXAXAXAXAXAXAXAXAX",
"AXAXAXAXAXAXAXAXAXAXAXAXAXAXAXAXAXAXAXAXAXAXAXAXAXAXAXAXAXAXAXAXAXAXAXAXAXAXAXAXAXAXAXAXAXAXAXAXAXAXAXAXAXAXAXAXAXAXAXAXAXAXAXAX",
"AXAXAXAXAXAXAXAXAXAXAXAXAXAXAXAXAXAXAXAXAXAXAXAXAXAXAXAXAXAXAXAXAXAXAXAXAXAXAXAXAXAXAXAXAXAXAXAXAXAXAXAXAXAXAXAXAXAXAXAXAXAXAXAX",
};
