/* XPM */
static char *result[] = {
/* columns rows colors chars-per-pixel */
"64 65 246 2 ",
"   c #020201",
".  c #0B0101",
"X  c #000A00",
"o  c #02030C",
"O  c #090209",
"+  c #080B08",
"@  c #130100",
"#  c #1B0201",
"$  c #170905",
"%  c #11100B",
"&  c #010413",
"*  c #060A16",
"=  c #00121A",
"-  c #240005",
";  c #3D2F14",
":  c #3E1F2D",
">  c #381E36",
",  c #372829",
"<  c #383728",
"1  c #2C2C32",
"2  c #3A2934",
"3  c #2E3B39",
"4  c #373938",
"5  c #4C1A1C",
"6  c #463413",
"7  c #69221F",
"8  c #461F23",
"9  c #462728",
"0  c #5A2825",
"q  c #552929",
"w  c #473728",
"e  c #43332E",
"r  c #553529",
"t  c #482A38",
"y  c #572C32",
"u  c #413331",
"i  c #4A3535",
"p  c #45343B",
"a  c #4B3A3D",
"s  c #543537",
"d  c #642825",
"f  c #623938",
"g  c #763232",
"h  c #2F423E",
"j  c #3B4234",
"k  c #554B0E",
"l  c #534C22",
"z  c #434137",
"x  c #57423C",
"c  c #73462B",
"v  c #66463B",
"b  c #784735",
"n  c #735332",
"m  c #382E41",
"M  c #2E3A48",
"N  c #3B3946",
"B  c #353856",
"V  c #463846",
"C  c #4D304E",
"Z  c #533746",
"A  c #493854",
"S  c #693D41",
"D  c #2F4545",
"F  c #374544",
"G  c #3D5D72",
"H  c #454947",
"J  c #5C4445",
"K  c #42435C",
"L  c #564B56",
"P  c #495350",
"I  c #664947",
"U  c #754947",
"Y  c #6B5148",
"T  c #775648",
"R  c #654C53",
"E  c #754A54",
"W  c #695758",
"Q  c #755657",
"!  c #77605A",
"~  c #745B6B",
"^  c #566B6B",
"/  c #4A6776",
"(  c #796275",
")  c #90382F",
"_  c #AA3526",
"`  c #8E4E14",
"'  c #8E4E30",
"]  c #AB4237",
"[  c #B3463B",
"{  c #A0533C",
"}  c #C44D36",
"|  c #9B3C44",
" . c #884847",
".. c #984948",
"X. c #88574A",
"o. c #93554F",
"O. c #864A57",
"+. c #984B57",
"@. c #8C5655",
"#. c #975958",
"$. c #A84948",
"%. c #B84948",
"&. c #A75649",
"*. c #B6554A",
"=. c #A94D58",
"-. c #BA4956",
";. c #AA5657",
":. c #B85557",
">. c #996352",
",. c #B3614D",
"<. c #895A69",
"1. c #945867",
"2. c #935271",
"3. c #A65A65",
"4. c #826764",
"5. c #996467",
"6. c #896875",
"7. c #B87470",
"8. c #C44C4C",
"9. c #CF685F",
"0. c #D86B5B",
"q. c #E86758",
"w. c #E36B5D",
"e. c #F66A5B",
"r. c #E47354",
"t. c #E4725D",
"y. c #EA735B",
"u. c #C56D6B",
"i. c #DC6B64",
"p. c #D86D69",
"a. c #CC746F",
"s. c #DA756C",
"d. c #C57B77",
"f. c #DB7475",
"g. c #D87777",
"h. c #E76C66",
"j. c #F56A66",
"k. c #E57364",
"l. c #EB7263",
"z. c #E4736B",
"x. c #E9796A",
"c. c #F47568",
"v. c #E67774",
"b. c #EF7075",
"n. c #B58F31",
"m. c #AB9738",
"M. c #B7A133",
"N. c #CB8D2B",
"B. c #AB9F4A",
"V. c #AC946C",
"C. c #BC9877",
"Z. c #C18F48",
"A. c #C9966D",
"S. c #C8847B",
"D. c #D8817C",
"F. c #C99B78",
"G. c #D79B79",
"H. c #E2817B",
"J. c #D5A06D",
"K. c #CBA57D",
"L. c #D4A37C",
"P. c #D6A878",
"I. c #E0A47B",
"U. c #3A5B84",
"Y. c #466785",
"T. c #516E8F",
"R. c #876587",
"E. c #CD7E82",
"W. c #B9958D",
"Q. c #BCA287",
"!. c #A7A491",
"~. c #BAA699",
"^. c #9C95A5",
"/. c #B3A8AB",
"(. c #B7ACB8",
"). c #D88285",
"_. c #CA9A87",
"`. c #D99E8A",
"'. c #E68885",
"]. c #C8A688",
"[. c #D5A888",
"{. c #C6A99B",
"}. c #D4A99A",
"|. c #E6AC91",
" X c #D099B3",
".X c #C8A9A8",
"XX c #DAA5AC",
"oX c #D9B2AA",
"OX c #C7ACBA",
"+X c #D5ABB8",
"@X c #C8B3BC",
"#X c #D3B1BC",
"$X c #F1B1B7",
"%X c #EDCAA7",
"&X c #F8C8A9",
"*X c #ECD2AE",
"=X c #EBCBBB",
"-X c #FBC8B8",
";X c #FFD3BB",
":X c #FBD7B8",
">X c #B1AFC5",
",X c #B4B5C5",
"<X c #BAB6C8",
"1X c #ACB5D5",
"2X c #B9BBD5",
"3X c #B7B9E0",
"4X c #C8ABC6",
"5X c #C6B8CA",
"6X c #D4B2C5",
"7X c #C4BCD4",
"8X c #FFBEC4",
"9X c #C9C1CB",
"0X c #C5C3D9",
"qX c #FDC8C8",
"wX c #EBD5C7",
"eX c #FED4C4",
"rX c #F0D2CA",
"tX c #FAD8C8",
"yX c #FFD2D4",
"uX c #FCD8D6",
"iX c #DEEDDE",
"pX c #F1F5D7",
"aX c #C6C4E6",
"sX c #FED8E6",
"dX c #E8DEFB",
"fX c #F4DAF9",
"gX c #DEE1EB",
"hX c #E9E9E7",
"jX c #FCE8E7",
"kX c #ECF3E3",
"lX c #F6F9E9",
"zX c #FFFDED",
"xX c #E8E8F9",
"cX c #FFEDF3",
"vX c #F9E8FB",
"bX c #EDFEF5",
"nX c #EAF7F8",
"mX c #EDFDFD",
"MX c #F4F4F5",
"NX c #FEF3F4",
"BX c #F4FBF4",
"VX c #FEFDF5",
"CX c #F5F4F9",
"ZX c #FEF5FC",
"AX c #F5FEFD",
"SX c #FFFFFEFF",
/* pixels */
"SXSXSXSXSXSXSXSXSXSXSXSXSXSXSXSXSXSXSXSXSXSXSXSXSXSXSXSXSXSXSXSXSXSXSXSXSXSXSXSXSXSXSXSXSXSXSXSXSXSXSXSXSXSXSXSXSXSXSXSXSXSXSXSX",
"SXSXSXSXSXSXSXSXSXSXSXSXSXSXSXSXSXSXSXSXSXSXSXSXSXSXSXSXSXSXSXSXSXSXSXSXSXSXSXSXSXSXSXSXSXSXSXSXSXSXSXSXSXSXSXSXSXSXSXSXSXSXSXSX",
"SXSXSXSXSXSXSXSXSXSXSXSXSXSXSXSXSXSXSXSXSXSXSXSXSXSXSXSXSXSXSXSXSXSXSXSXSXSXSXSXSXSXSXSXSXSXSXSXSXSXSXSXSXSXSXSXSXSXSXSXSXSXSXSX",
"SXSXSXSXSXSXSXSXSXSXSXSXSXSXSXSXSXSXSXSXSXSXSXSXSXSXSXSXSXSXSXSXSXSXSXSXSXSXSXSXSXSXSXSXSXSXSXSXSXSXSXSXSXSXSXSXSXSXSXSXSXSXSXSX",
"SXSXSXSXSXSXSXSXSXSXSXSXSXSXSXSXSXSXSXSXSXSXSXSXSXSXSXSXSXSXSXSXSXSXSXSXSXSXSXSXSXSXSXSXSXSXSXSXSXSXSXSXSXSXSXSXSXSXSXSXSXSXSXSX",
"SXSXSXSXSXSXSXSXSXSXSXSXSXSXSXSXSXSXSXSXSXSXSXSXSXSXSXSXSXSXSXSXSXSXSXSXSXSXSXSXSXSXSXSXSXSXSXSXSXSXSXSXSXSXSXSXSXSXSXSXSXSXSXSX",
"SXSXSXSXSXSXSXSXSXSXSXSXSXSXSXSXSXSXSXSXSXSXSXSXSXSXSXSXSXSXSXSXSXSXSXSXSXSXSXSXSXSXSXSXSXSXSXSXSXSXSXSXSXSXSXSXSXSXSXSXSXSXSXSX",
"SXSXSXSXSXSXSXSXSXSXSXSXSXSXSXSXSXSXSXSXSXSXSXSXSXSXSXSXSXSXSXSXSXSXSXSXSXSXSXSXSXSXSXSXSXSXSXSXSXSXSXSXSXSXSXSXSXSXSXSXSXSXSXSX",
"SXSXSXSXSXSXSXSXSXSXSXSXSXSXSXSXSXSXSXSXSXSXSXSXSXu u u u u u u u Z p p , p 2 SXSXSXSXSXSXSXSXSXSXSXSXSXSXSXSXSXSXSXSXSXSXSXSXSX",
"SXSXSXSXSXSXSXSXSXSXSXSXSXSXSXSXSXSXSXSXSXSXSXSXSXq q q 0 0 0 0 q 8 8 y y Z i SXSXSXSXSXSXSXSXSXSXSXSXSXSXSXSXSXSXSXSXSXSXSXSXSX",
"SXSXSXSXSXSXSXSXSXSXSXSXSXSXSXSXSXSXSXSXSX, i 8 0 d.d.g.g.f.f.f.g.).E.d.S.7.7.0 q s i SXSXSXSXSXSXSXSXSXSXSXSXSXSXSXSXSXSXSXSXSX",
"SXSXSXSXSXSXSXSXSXSXSXSXSXSXSXSXSXSXSXSXSXe r d 7 a.p.i.i.h.h.h.h.x.i.i.a.a.).7 d y q SXSXSXSXSXSXSXSXSXSXSXSXSXSXSXSXSXSXSXSXSX",
"SXSXSXSXSXSXSXSXSXSXSXSXSXSXSXSXSXSXSXZ 9 @.#.7.H.s.z.l.l.l.y.l.l.e.e.c.c.l.9.D.d. .5.s a SXSXSXSXSXSXSXSXSXSXSXSXSXSXSXSXSXSXSX",
"SXSXSXSXSXSXSXSXSXSXSXSXSXSXSXSXSXSXSX, y #.-.v.k.h.h.y.y.y.t.t.h.e.e.e.q.l.z.0.s.;.1.8 a SXSXSXSXSXSXSXSXSXSXSXSXSXSXSXSXSXSXSX",
"SXSXSXSXSXSXSXSXSXSXSXSXSXSXSXSXSXSXSX3 p 3.$.v.w.w.l.r.r.r.r.l.j.j.j.q.e.t.x.q.c.*.#.i 1 SXSXSXSXSXSXSXSXSXSXSXSXSXSXSXSXSXSXSX",
"SXSXSXSXSXSXSXSXSXSXSXSXSXSXSXSXSXSXSX3 t d.v.h.l.c.l.t.r.r.l.h.b.h.b.j.y.t.t.q.l.i.a.t p SXSXSXSXSXSXSXSXSXSXSXSXSXSXSXSXSXSXSX",
"SXSXSXSXSXSXSXSXSXSXSXSXSXSXSXSXSXSXSX8 y E.E.e.q.q.q.j.q.y.l.i.z.f.v.k.r.l.l.e.c.z.E.8 Z SXSXSXSXSXSXSXSXSXSXSXSXSXSXSXSXSXSXSX",
"SXSXSXSXSXSXSXSXSXSXSXSXSXSXSXSXSXSXSXf g p.j.j.l.l.c.c.q.l.0.a.E.g.g.i.0.l.y.q.w.p.a.d i SXSXSXSXSXSXSXSXSXSXSXSXSXSXSXSXSXSXSX",
"SXSXSXSXSXSXSXSXSXSXSXSXSXSXSXSXSXO $ 5 7 u.h.h.l.0.k.i.i.'.a.S.a.d.).f.z.c.y.x.x.v.g.d 5 .   SXSXSXSXSXSXSXSXSXSXSXSXSXSXSXSXSX",
"SXSXSXSXSXSXSXSXSXSXSXSXSXSXSXSXSXN C ;.$.,.$.i.y.H.s.a.).yXyXtXeXuXqXE.g.h.w.t.9.%.*.;.>.V H SXSXSXSXSXSXSXSXSXSXSXSXSXSXSXSXSX",
"SXSXSXSXSXSXSXSXSXSXSXSXSXSXSXSXSX1 t #.*.&.{ x.h.x.9.E.W.uXNXuXuXjXyXW.).9.k.x.z.:.[ &.#., N SXSXSXSXSXSXSXSXSXSXSXSXSXSXSXSXSX",
"SXSXSXSXSXSXSXSXSXSXSXSXSXSXSXSXSX& $ #.{ { ,.] 8.%.;.oXOXvXuX3.o.yXjXXXXX,.[ [ *.%.&.&.>.. o SXSXSXSXSXSXSXSXSXSXSXSXSXSXSXSXSX",
"SXSXSXSXSXSXSXSXSXSXSXSXSXSXSXSXSXo . #.$.*.] 8.-.%.3..X6XvXfX3.+.sXsX5X@X#.:.-.8.*.$.&.X.@ O SXSXSXSXSXSXSXSXSXSXSXSXSXSXSXSXSX",
"SXSXSXSXSXSXSXSXSXSXSXSXSXSXSXSXSXo . X.&.*.*.:.=.-.1.4X/.R.2.1.3.1.6.,X9XT ..-.-.;.;.>.>.# . SXSXSXSXSXSXSXSXSXSXSXSXSXSXSXSXSX",
"SXSXSXSXSXSXSXSXSXSXSXSXSXSXSXSXSXX + X...:.$.3.+.1.<.5X7XR.2.2.1.<.( <X<X6.<.3.=.:.=.#.n O   SXSXSXSXSXSXSXSXSXSXSXSXSXSXSXSXSX",
"SXSXSXSXSXSXSXSXSXSXSXSXSXSXSXSXSX    r 7 =.3.XX+X6X4X5X<X4X4X6X6X7X4X7X,X5X@XXXXX=.3.d r     SXSXSXSXSXSXSXSXSXSXSXSXSXSXSXSXSX",
"SXSXSXSXSXSXSXSXSXSXSXSXSXSXSXH j     w 9 1.1.#X9X2X0X1X<X0X7X<X<X,X2X<X<X0X2X5X+X3...0 9 X   s 9 SXSXSXSXSXSXSXSXSXSXSXSXSXSXSX",
"SXSXSXSXSXSXSXSXSXSXSXSXSXSXSX1 < @ $ , s 6.6.OX<X,X1X2X7X,X<X2X7XaX<X5X0X>X2X5X6X2.5.r ; . . , a SXSXSXSXSXSXSXSXSXSXSXSXSXSXSX",
"SXSXSXSXSXSXSXSXSXSXSXSXSXSXSX  . _.S.Q L p > Z C aX3XfXvXgXxXnXxXxXdXxXAX1X1XA : t 9 R 4.W.].$   SXSXSXSXSXSXSXSXSXSXSXSXSXSXSX",
"SXSXSXSXSXSXSXSXSXSXSXSXSXSXSX+ @ G.G.U ~ 2 V V V 5X7XfXvXhXxXxXdXxXxXxXxX1XaX> Z a 2 W U _._.@   SXSXSXSXSXSXSXSXSXSXSXSXSXSXSX",
"SXSXSXSXSXSXSXSXSXSXSXSXSXSXSXo @ A.P.9 A R W Y I E Q R W 4 1 A C C t W W R R ~ R W E t q G.[.    SXSXSXSXSXSXSXSXSXSXSXSXSXSXSX",
"SXSXSXSXSXSXSXSXSXSXSXSXSXSXSX% . C.[.y , ! Y v T b T Q J e w 8 C t a R W W Q U Y v 4.t t F.V.  * SXSXSXSXSXSXSXSXSXSXSXSXSXSXSX",
"SXSXSXSXSXSXSXSXSXSXSXSXSXSXSXSXSXX   2 a C._.<.E ~.~.r f `.L.{.{._.Q.A A ^./.I T ].W., a . $ SXSXSXSXSXSXSXSXSXSXSXSXSXSXSXSXSX",
"SXSXSXSXSXSXSXSXSXSXSXSXSXSXSXSXSXo o 1 r L.G.O.E ~.!.9 0 G.L.}._.K.].1 B (./.T n [.Q.H V     SXSXSXSXSXSXSXSXSXSXSXSXSXSXSXSXSX",
"SXSXSXSXSXSXSXSXSXSXSXSXSXSXSXSXSXSXSX+ . K.P.`..XkXiX$ # $X&X&X;X&X-X.   xXhXC.L.C.oXO o SXSXSXSXSXSXSXSXSXSXSXSXSXSXSXSXSXSXSX",
"SXSXSXSXSXSXSXSXSXSXSXSXSXSXSXSXSXSXSX  . ].[.F._.iXkX  # &X&X:X;XtXeX@ . hXkXK.P.}..XO & SXSXSXSXSXSXSXSXSXSXSXSXSXSXSXSXSXSXSX",
"SXSXSXSXSXSXSXSXSXSXSXSXSXSXSXSXSXSXSXSXSX@ # K.K.tX=XwXwX=XeX:X&X-X-X*X*XtX=XP.F.# @ SXSXSXSXSXSXSXSXSXSXSXSXSXSXSXSXSXSXSXSXSX",
"SXSXSXSXSXSXSXSXSXSXSXSXSXSXSXSXSXSXSXSXSX. @ [.L.&X;X=XrX=XtX%X;X-X-X:X*X&X:XA.[.# @ SXSXSXSXSXSXSXSXSXSXSXSXSXSXSXSXSXSXSXSXSX",
"SXSXSXSXSXSXSXSXSXSXSXSXSXSXSXSXSXSXSX= X     n ' [.G.eX-X-X&XP.L.;X;XtX*X].[.c n $ . SXSXSXSXSXSXSXSXSXSXSXSXSXSXSXSXSXSXSXSXSX",
"SXSXSXSXSXSXSXSXSXSXSXSXSXSXSXSXSXSXSX& o X $ n ' A.|.$XeX:X&XJ.J.&X%XwXwX].[.' c $   SXSXSXSXSXSXSXSXSXSXSXSXSXSXSXSXSXSXSXSXSX",
"SXSXSXSXSXSXSXSXSXSXSXSXSXSXSXSXSXI R A M j ; m.Z.' @.t 9 {.].G.I.P.].< a R T M.m.X   SXSXSXSXSXSXSXSXSXSXSXSXSXSXSXSXSXSXSXSXSX",
"SXSXSXSXSXSXSXSXSXSXSXSXSXSXSXSXSXc f N G , l n.N.' O.t V ~.{.[.A.K.Q.i i v n m.B.+ o SXSXSXSXSXSXSXSXSXSXSXSXSXSXSXSXSXSXSXSXSX",
"SXSXSXSXSXSXSXSXSXSXSXSXSXSXSXW v A.|.u N j 6 N.N.) +. X<X1 3 i w 4 4 OXoXm.M.k < V A 4 < SXSXSXSXSXSXSXSXSXSXSXSXSXSXSXSXSXSXSX",
"SXSXSXSXSXSXSXSXSXSXSXSXSXSXSXJ v P.J.r p j k M.r.] -.$X+X3 D 1 p N t  X|.n.M.; 4 Z Z w l SXSXSXSXSXSXSXSXSXSXSXSXSXSXSXSXSXSXSX",
"SXSXSXSXSXSXSXSXSXSXSXSXSXSXSXZ U _.`.[.}.  X X # [ _ ]  .(.>XL N >X<X=._ ` ` j H ~.}.c n SXSXSXSXSXSXSXSXSXSXSXSXSXSXSXSXSXSXSX",
"SXSXSXSXSXSXSXSXSXSXSXSXSXSXSXR S }.`.[.Q.  X X @ ' } _ ..@X,Xm F ,X4X| %.] ' z 4 {.}.g b SXSXSXSXSXSXSXSXSXSXSXSXSXSXSXSXSXSXSX",
"SXSXSXSXSXSXSXSXSXSXSXSXSXSXSXSXSXS U g I VXbXX   ) ) [ ...X<X4 A (.+X+.+.) v @ . wXeX$XqXS E SXSXSXSXSXSXSXSXSXSXSXSXSXSXSXSXSX",
"SXSXSXSXSXSXSXSXSXSXSXSXSXSXSXSXSXI E S Q kXBXX   U )  .5./.(.L V @X#XE O.U f $ . =XrXqX8X .f SXSXSXSXSXSXSXSXSXSXSXSXSXSXSXSXSX",
"SXSXSXSXSXSXSXSXSXSXSXSXSXSXSXSXSXSXSXSXSX+   P 4   O O O       O . . # - s x . . wXyX$XqXS Y SXSXSXSXSXSXSXSXSXSXSXSXSXSXSXSXSX",
"SXSXSXSXSXSXSXSXSXSXSXSXSXSXSXSXSXSXSXSXSX  o F M & * & & o o     O % @ . J z     wXrXyXqXf I SXSXSXSXSXSXSXSXSXSXSXSXSXSXSXSXSX",
"SXSXSXSXSXSXSXSXSXSXSXSXSXSXSXSXSXSXSXSXSX  & / T.U.T.T.T.^ ^ 3 j 4 3 F z     SXSXx x I E SXSXSXSXSXSXSXSXSXSXSXSXSXSXSXSXSXSXSX",
"SXSXSXSXSXSXSXSXSXSXSXSXSXSXSXSXSXSXSXSXSXo o / Y.T.U.U.G G ^ j j P 3 P 3 X X SXSW J Y Q QSXSXSXSXSXSXSXSXSXSXSXSXSXSXSXSXSXSXSX",
"SXSXSXSXSXSXSXSXSXSXSXSXSXSXSXSXSXSXSXSXSXO * B B Y.Y.T.Y.= +           X SXSXSXSXSXSXSXSXSXSXSXSXSXSXSXSXSXSXSXSXSXSXSXSXSXSXSX",
"SXSXSXSXSXSXSXSXSXSXSXSXSXSXSXSXSXSXSXSXSXO O K B T.G / / =   + .   o + X SXSXSXSXSXSXSXSXSXSXSXSXSXSXSXSXSXSXSXSXSXSXSXSXSXSXSX",
"SXSXSXSXSXSXSXSXSXSXSXSXSXSXSXSXSXSXSXSXSXSXSX& o N F 3 D F h SXSXSXSXSXSXSXSXSXSXSXSXSXSXSXSXSXSXSXSXSXSXSXSXSXSXSXSXSXSXSXSXSX",
"SXSXSXSXSXSXSXSXSXSXSXSXSXSXSXSXSXSXSXSXSXSXSX    s s I , F h SXSXSXSXSXSXSXSXSXSXSXSXSXSXSXSXSXSXSXSXSXSXSXSXSXSXSXSXSXSXSXSXSX",
"SXSXSXSXSXSXSXSXSXSXSXSXSXSXSXSXSXSXSXSXSXSXSX  # ..| ..o..   SXSXSXSXSXSXSXSXSXSXSXSXSXSXSXSXSXSXSXSXSXSXSXSXSXSXSXSXSXSXSXSXSX",
"SXSXSXSXSXSXSXSXSXSXSXSXSXSXSXSXSXSXSXSXSXSXSXX @ +.$.$. .@   SXSXSXSXSXSXSXSXSXSXSXSXSXSXSXSXSXSXSXSXSXSXSXSXSXSXSXSXSXSXSXSXSX",
"SXSXSXSXSXSXSXSXSXSXSXSXSXSXSXSXSXSXSXSXSXSXSXSXSX@ # # . SXSXSXSXSXSXSXSXSXSXSXSXSXSXSXSXSXSXSXSXSXSXSXSXSXSXSXSXSXSXSXSXSXSXSX",
"SXSXSXSXSXSXSXSXSXSXSXSXSXSXSXSXSXSXSXSXSXSXSXSXSX    .   SXSXSXSXSXSXSXSXSXSXSXSXSXSXSXSXSXSXSXSXSXSXSXSXSXSXSXSXSXSXSXSXSXSXSX",
"SXSXSXSXSXSXSXSXSXSXSXSXSXSXSXSXSXSXSXSXSXSXSXSXSXSXSXSXSXSXSXSXSXSXSXSXSXSXSXSXSXSXSXSXSXSXSXSXSXSXSXSXSXSXSXSXSXSXSXSXSXSXSXSX",
"SXSXSXSXSXSXSXSXSXSXSXSXSXSXSXSXSXSXSXSXSXSXSXSXSXSXSXSXSXSXSXSXSXSXSXSXSXSXSXSXSXSXSXSXSXSXSXSXSXSXSXSXSXSXSXSXSXSXSXSXSXSXSXSX",
"SXSXSXSXSXSXSXSXSXSXSXSXSXSXSXSXSXSXSXSXSXSXSXSXSXSXSXSXSXSXSXSXSXSXSXSXSXSXSXSXSXSXSXSXSXSXSXSXSXSXSXSXSXSXSXSXSXSXSXSXSXSXSXSX",
"SXSXSXSXSXSXSXSXSXSXSXSXSXSXSXSXSXSXSXSXSXSXSXSXSXSXSXSXSXSXSXSXSXSXSXSXSXSXSXSXSXSXSXSXSXSXSXSXSXSXSXSXSXSXSXSXSXSXSXSXSXSXSXSX",
"SXSXSXSXSXSXSXSXSXSXSXSXSXSXSXSXSXSXSXSXSXSXSXSXSXSXSXSXSXSXSXSXSXSXSXSXSXSXSXSXSXSXSXSXSXSXSXSXSXSXSXSXSXSXSXSXSXSXSXSXSXSXSXSX",
};
