/* XPM */
static char *result[] = {
/* columns rows colors chars-per-pixel */
"64 65 251 2 ",
"   c #020202",
".  c #0B0001",
"X  c #060807",
"o  c #03020A",
"O  c #140101",
"+  c #1A0100",
"@  c #1A0508",
"#  c #030214",
"$  c #040818",
"%  c #110D12",
"&  c #210301",
"*  c #352B1B",
"=  c #000121",
"-  c #391D38",
";  c #1F3D29",
":  c #2E2C2D",
">  c #3A2829",
",  c #38382A",
"<  c #242E32",
"1  c #392A34",
"2  c #293839",
"3  c #393839",
"4  c #4C1A1C",
"5  c #681D18",
"6  c #46351A",
"7  c #69221F",
"8  c #461F23",
"9  c #452927",
"0  c #5A2825",
"q  c #562A28",
"w  c #45372C",
"e  c #54352A",
"r  c #482B34",
"t  c #562B35",
"y  c #413433",
"u  c #4C3332",
"i  c #48353A",
"p  c #4B393C",
"a  c #553736",
"s  c #642825",
"d  c #6F3134",
"f  c #37490D",
"g  c #304836",
"h  c #36433A",
"j  c #464612",
"k  c #48422C",
"l  c #4C4936",
"z  c #574438",
"x  c #6A4938",
"c  c #764637",
"v  c #6D5637",
"b  c #7F602A",
"n  c #393A42",
"m  c #343449",
"M  c #4C2C41",
"N  c #483844",
"B  c #553945",
"V  c #483753",
"C  c #643A42",
"Z  c #773A4B",
"A  c #354443",
"S  c #3A4947",
"D  c #374B4B",
"F  c #3D5B72",
"G  c #386574",
"H  c #464547",
"J  c #5C5449",
"K  c #544C51",
"L  c #5A5D5E",
"P  c #664A49",
"I  c #764846",
"U  c #69554A",
"Y  c #755548",
"T  c #6D4658",
"R  c #7A4A5D",
"E  c #675855",
"W  c #785A58",
"Q  c #794964",
"!  c #7F5D7D",
"~  c #486B69",
"^  c #4A6678",
"/  c #586878",
"(  c #75646B",
")  c #8E3D22",
"_  c #843638",
"`  c #9C3737",
"'  c #AB3E2E",
"]  c #8C4D1D",
"[  c #8B4F32",
"{  c #874838",
"}  c #B94C29",
"|  c #AE443C",
" . c #A0533C",
".. c #C67D15",
"X. c #873F43",
"o. c #B83E48",
"O. c #984648",
"+. c #8B564A",
"@. c #91504D",
"#. c #854956",
"$. c #9B4854",
"%. c #895657",
"&. c #985958",
"*. c #A84748",
"=. c #B84948",
"-. c #A75649",
";. c #B6554A",
":. c #A74956",
">. c #BC4B55",
",. c #AA5657",
"<. c #B85557",
"1. c #996352",
"2. c #B3614D",
"3. c #85596D",
"4. c #945966",
"5. c #905570",
"6. c #A34D63",
"7. c #A65A65",
"8. c #816763",
"9. c #996467",
"0. c #896875",
"q. c #B87470",
"w. c #C44C4C",
"e. c #CF685F",
"r. c #D86B5B",
"t. c #E86758",
"y. c #E36B5D",
"u. c #F66A5B",
"i. c #E47354",
"p. c #E4725D",
"a. c #EA735B",
"s. c #C56D6B",
"d. c #DC6B64",
"f. c #D86D69",
"g. c #CC746F",
"h. c #DA756C",
"j. c #C57B77",
"k. c #DB7475",
"l. c #D87777",
"z. c #E76C66",
"x. c #F56A66",
"c. c #E57364",
"v. c #EB7263",
"b. c #E4736B",
"n. c #E9796A",
"m. c #F47568",
"M. c #E67774",
"N. c #EF7075",
"B. c #B49018",
"V. c #B6903D",
"C. c #CB9A1E",
"Z. c #CF8F31",
"A. c #B9974A",
"S. c #B19174",
"D. c #C4944E",
"F. c #D0956A",
"G. c #C8847B",
"H. c #D8817C",
"J. c #C79A7A",
"K. c #D59C7A",
"L. c #E18E78",
"P. c #C7A577",
"I. c #D6A177",
"U. c #D1AA74",
"Y. c #E3A67A",
"T. c #396B86",
"R. c #476683",
"E. c #45738B",
"W. c #876587",
"Q. c #BD7E88",
"!. c #CD7E82",
"~. c #B99A87",
"^. c #B9A889",
"/. c #BAA796",
"(. c #9699A3",
"). c #A7A6B7",
"_. c #B5AFB5",
"`. c #D88285",
"'. c #C79C88",
"]. c #D49B88",
"[. c #CA8F93",
"{. c #C79A97",
"}. c #D79898",
"|. c #C7A688",
" X c #D6A687",
".X c #CCB38F",
"XX c #C8A698",
"oX c #D5AA94",
"OX c #E2A892",
"+X c #DC9EBB",
"@X c #D9A7A8",
"#X c #C6AAB6",
"$X c #D6A7BA",
"%X c #CEB1B5",
"&X c #D5B4BB",
"*X c #EBD59C",
"=X c #E6E197",
"-X c #D8DBBF",
";X c #F2C8A8",
":X c #E6D6A8",
">X c #F8D4A8",
",X c #E8CAB9",
"<X c #F9CAB8",
"1X c #E8D4BA",
"2X c #FAD5B7",
"3X c #F2E1AE",
"4X c #BBADC5",
"5X c #A9B1CA",
"6X c #B8B4C7",
"7X c #BCBACA",
"8X c #ACB5D5",
"9X c #BBBCD5",
"0X c #B7B9E0",
"qX c #CE9FC0",
"wX c #C6A8C7",
"eX c #C6B9CA",
"rX c #D6B3C5",
"tX c #C8ADD1",
"yX c #C5BDD4",
"uX c #C9C1CB",
"iX c #C5C3D9",
"pX c #EBCCC4",
"aX c #FDC9C3",
"sX c #E4D9C7",
"dX c #F9D7C6",
"fX c #FFCED1",
"gX c #FDD7D5",
"hX c #F8E8DB",
"jX c #C6C4E5",
"kX c #FED8E6",
"lX c #E8DEFB",
"zX c #FBDCFC",
"xX c #DEE1EB",
"cX c #EAE9E9",
"vX c #F9E4E3",
"bX c #FFEDEE",
"nX c #ECF8ED",
"mX c #F8F9ED",
"MX c #E8E8F8",
"NX c #FFECF3",
"BX c #FDEAFB",
"VX c #E9F5FC",
"CX c #ECFCFE",
"ZX c #F4F5F5",
"AX c #FFF5F5",
"SX c #F4FDF6",
"DX c #FDFDF5",
"FX c #F6F4FA",
"GX c #FEF5FD",
"HX c #F5FEFD",
"JX c #FFFFFFFF",
/* pixels */
"JXJXJXJXJXJXJXJXJXJXJXJXJXJXJXJXJXJXJXJXJXJXJXJXJXJXJXJXJXJXJXJXJXJXJXJXJXJXJXJXJXJXJXJXJXJXJXJXJXJXJXJXJXJXJXJXJXJXJXJXJXJXJXJX",
"JXJXJXJXJXJXJXJXJXJXJXJXJXJXJXJXJXJXJXJXJXJXJXJXJXJXJXJXJXJXJXJXJXJXJXJXJXJXJXJXJXJXJXJXJXJXJXJXJXJXJXJXJXJXJXJXJXJXJXJXJXJXJXJX",
"JXJXJXJXJXJXJXJXJXJXJXJXJXJXJXJXJXJXJXJXJXJXJXJXJXJXJXJXJXJXJXJXJXJXJXJXJXJXJXJXJXJXJXJXJXJXJXJXJXJXJXJXJXJXJXJXJXJXJXJXJXJXJXJX",
"JXJXJXJXJXJXJXJXJXJXJXJXJXJXJXJXJXJXJXJXJXJXJXJXJXJXJXJXJXJXJXJXJXJXJXJXJXJXJXJXJXJXJXJXJXJXJXJXJXJXJXJXJXJXJXJXJXJXJXJXJXJXJXJX",
"JXJXJXJXJXJXJXJXJXJXJXJXJXJXJXJXJXJXJXJXJXJXJXJXJXJXJXJXJXJXJXJXJXJXJXJXJXJXJXJXJXJXJXJXJXJXJXJXJXJXJXJXJXJXJXJXJXJXJXJXJXJXJXJX",
"JXJXJXJXJXJXJXJXJXJXJXJXJXJXJXJXJXJXJXJXJXJXJXJXJXJXJXJXJXJXJXJXJXJXJXJXJXJXJXJXJXJXJXJXJXJXJXJXJXJXJXJXJXJXJXJXJXJXJXJXJXJXJXJX",
"JXJXJXJXJXJXJXJXJXJXJXJXJXJXJXJXJXJXJXJXJXJXJXJXJXJXJXJXJXJXJXJXJXJXJXJXJXJXJXJXJXJXJXJXJXJXJXJXJXJXJXJXJXJXJXJXJXJXJXJXJXJXJXJX",
"JXJXJXJXJXJXJXJXJXJXJXJXJXJXJXJXJXJXJXJXJXJXJXJXJXJXJXJXJXJXJXJXJXJXJXJXJXJXJXJXJXJXJXJXJXJXJXJXJXJXJXJXJXJXJXJXJXJXJXJXJXJXJXJX",
"JXJXJXJXJXJXJXJXJXJXJXJXJXJXJXJXJXJXJXJXJXJXJXJXJX, y y y y y y y i i 3 > i : JXJXJXJXJXJXJXJXJXJXJXJXJXJXJXJXJXJXJXJXJXJXJXJXJX",
"JXJXJXJXJXJXJXJXJXJXJXJXJXJXJXJXJXJXJXJXJXJXJXJXJXq q q 0 0 0 0 q q 8 t t B r JXJXJXJXJXJXJXJXJXJXJXJXJXJXJXJXJXJXJXJXJXJXJXJXJX",
"JXJXJXJXJXJXJXJXJXJXJXJXJXJXJXJXJXJXJXJXJX, u 8 0 G.j.l.f.l.k.k.k.`.!.j.j.q.q.0 q a u JXJXJXJXJXJXJXJXJXJXJXJXJXJXJXJXJXJXJXJXJX",
"JXJXJXJXJXJXJXJXJXJXJXJXJXJXJXJXJXJXJXJXJXu q s 5 g.f.f.z.z.z.z.z.b.z.f.h.g.`.7 s s 9 JXJXJXJXJXJXJXJXJXJXJXJXJXJXJXJXJXJXJXJXJX",
"JXJXJXJXJXJXJXJXJXJXJXJXJXJXJXJXJXJXJXB 9 %.,.q.H.b.b.v.v.v.v.v.v.u.u.m.m.v.e.H.j.+.9.a B JXJXJXJXJXJXJXJXJXJXJXJXJXJXJXJXJXJXJX",
"JXJXJXJXJXJXJXJXJXJXJXJXJXJXJXJXJXJXJX> t &.,.k.z.v.v.y.a.i.y.p.z.u.u.u.t.m.c.r.h.,.&.9 p JXJXJXJXJXJXJXJXJXJXJXJXJXJXJXJXJXJXJX",
"JXJXJXJXJXJXJXJXJXJXJXJXJXJXJXJXJXJXJX2 i 7.*.M.y.y.v.i.i.i.i.v.x.x.x.t.t.p.L.t.v.;.&.r 1 JXJXJXJXJXJXJXJXJXJXJXJXJXJXJXJXJXJXJX",
"JXJXJXJXJXJXJXJXJXJXJXJXJXJXJXJXJXJXJXn i s.M.z.v.m.v.p.i.i.v.c.N.z.N.x.a.p.t.t.x.d.j.r 3 JXJXJXJXJXJXJXJXJXJXJXJXJXJXJXJXJXJXJX",
"JXJXJXJXJXJXJXJXJXJXJXJXJXJXJXJXJXJXJX9 t !.!.x.t.t.r.u.u.a.p.d.k.M.b.c.i.c.v.u.m.M.!.9 H JXJXJXJXJXJXJXJXJXJXJXJXJXJXJXJXJXJXJX",
"JXJXJXJXJXJXJXJXJXJXJXJXJXJXJXJXJXJXJXd 7 f.x.x.v.v.m.m.t.v.r.h.l.l.k.f.r.v.t.a.y.f.g.s t JXJXJXJXJXJXJXJXJXJXJXJXJXJXJXJXJXJXJX",
"JXJXJXJXJXJXJXJXJXJXJXJXJXJXJXJXJXo @ 4 7 s.b.z.v.r.c.d.d.`.l.G.q.G.`.k.b.m.a.v.n.b.l.s 4 .   JXJXJXJXJXJXJXJXJXJXJXJXJXJXJXJXJX",
"JXJXJXJXJXJXJXJXJXJXJXJXJXJXJXJXJXn M 7.*.;.;.d.a.n.H.g.!.fXgXgXdXgXaX`.l.z.y.p.e.=.-.,.&.z S JXJXJXJXJXJXJXJXJXJXJXJXJXJXJXJXJX",
"JXJXJXJXJXJXJXJXJXJXJXJXJXJXJXJXJX< r &.-.2. .c.z.M.s.`.Q.kXNXgXgXhXgXQ.`.e.c.n.n.w.*.-.&.> n JXJXJXJXJXJXJXJXJXJXJXJXJXJXJXJXJX",
"JXJXJXJXJXJXJXJXJXJXJXJXJXJXJXJXJX$ @ &. . .2.| w.=.-.@X#XNXkX9.&.fXbX$X@X2.=.| =.;.-.-.1.. o JXJXJXJXJXJXJXJXJXJXJXJXJXJXJXJXJX",
"JXJXJXJXJXJXJXJXJXJXJXJXJXJXJXJXJXo . &. .;.| ;.>.=.,.%XeXBXkX7.$.bXkXeX%X&.<.>.>.<.*.-.+.. . JXJXJXJXJXJXJXJXJXJXJXJXJXJXJXJXJX",
"JXJXJXJXJXJXJXJXJXJXJXJXJXJXJXJXJXo . @.-.;.=.<.:.<.6.eX).3.5.6.7.5.0._.uXY O.>.>.-.,.1.1.@ . JXJXJXJXJXJXJXJXJXJXJXJXJXJXJXJXJX",
"JXJXJXJXJXJXJXJXJXJXJXJXJXJXJXJXJXX X +.O.<.*.7.$.4.3.uXiXW.3.5.5.3.! 6X7X0.9.7.<.<.$.1.x .   JXJXJXJXJXJXJXJXJXJXJXJXJXJXJXJXJX",
"JXJXJXJXJXJXJXJXJXJXJXJXJXJXJXJXJX    e 7 :.7.@X&XrXwX7X7XwXtXrXrXeXeXyX6X_.%X$X+X6.,.s e     JXJXJXJXJXJXJXJXJXJXJXJXJXJXJXJXJX",
"JXJXJXJXJXJXJXJXJXJXJXJXJXJXJXH h X   w 9 4.4.$XeX7XiX7X6XiXyX4XeX6X9X4X6XiX9XeX$X7.O.0 9     a 9 JXJXJXJXJXJXJXJXJXJXJXJXJXJXJX",
"JXJXJXJXJXJXJXJXJXJXJXJXJXJXJX: , O @ * a 0.0.wX6X8X8X9X9X6X6X9X9XiX7X6XiX5X9XyXrX4.9.t w . . * a JXJXJXJXJXJXJXJXJXJXJXJXJXJXJX",
"JXJXJXJXJXJXJXJXJXJXJXJXJXJXJX  . ].J.E K r 1 B V jX0XlXBXcXMXVXMXlXxXVXHX8X8XV - r 9 J 8.~.|.&   JXJXJXJXJXJXJXJXJXJXJXJXJXJXJX",
"JXJXJXJXJXJXJXJXJXJXJXJXJXJXJXX . K.].P ( 1 N M M 7X9XzXzXlXVXxXMXMXMXMXxX8XjXm B N 1 E Y '.'..   JXJXJXJXJXJXJXJXJXJXJXJXJXJXJX",
"JXJXJXJXJXJXJXJXJXJXJXJXJXJXJX  O J.|.1 m J E P U J L T Q M 1 l 1 n 1 E E J P 3.Q E E 3 9 K..X    JXJXJXJXJXJXJXJXJXJXJXJXJXJXJX",
"JXJXJXJXJXJXJXJXJXJXJXJXJXJXJX% . J.XX3 1 W Y x Y v v W Z M u * w r p U U E W Z R P W 1 9 '.S.  $ JXJXJXJXJXJXJXJXJXJXJXJXJXJXJX",
"JXJXJXJXJXJXJXJXJXJXJXJXJXJXJXJXJXO O > a [.}.%.x ^.XXr C {.}.oXXX|.'.u N (.).T %. XJ.9 N + @ JXJXJXJXJXJXJXJXJXJXJXJXJXJXJXJXJX",
"JXJXJXJXJXJXJXJXJXJXJXJXJXJXJXJXJX. . w a }.].{ c ^./.r r }. X].'. X X9 n ).).W c OXP.p V . . JXJXJXJXJXJXJXJXJXJXJXJXJXJXJXJXJX",
"JXJXJXJXJXJXJXJXJXJXJXJXJXJXJXJXJXJXJX+ + |.P.I. XhXcX@ + ;X>X;X2X;X<XO . cXvX'.I.D..X. = JXJXJXJXJXJXJXJXJXJXJXJXJXJXJXJXJXJXJX",
"JXJXJXJXJXJXJXJXJXJXJXJXJXJXJXJXJXJXJX. O /..XP.P.hXcX. + ;X>X2X2XdXdX+ . vXhXK.Y.U..X$ = JXJXJXJXJXJXJXJXJXJXJXJXJXJXJXJXJXJXJX",
"JXJXJXJXJXJXJXJXJXJXJXJXJXJXJXJXJXJXJXJXJX  . P.P.gXsX:X=X;X2X>X,X,X,X1X1XdX;X XJ.O . JXJXJXJXJXJXJXJXJXJXJXJXJXJXJXJXJXJXJXJXJX",
"JXJXJXJXJXJXJXJXJXJXJXJXJXJXJXJXJXJXJXJXJXo . |.P.<X1X=X=X:X2X<X2XpX1X2X>X<XdXJ.oXO   JXJXJXJXJXJXJXJXJXJXJXJXJXJXJXJXJXJXJXJXJX",
"JXJXJXJXJXJXJXJXJXJXJXJXJXJXJXJXJXJXJXJXJXo . v [ L.I.*X3X2X<XOXI.>X:X>X2XXXXXI U . . o   JXJXJXJXJXJXJXJXJXJXJXJXJXJXJXJXJXJXJX",
"JXJXJXJXJXJXJXJXJXJXJXJXJXJXJXJXJXJXJXJXJXo . [ ] Y.Y.:XdXaX<XOXF.>X*X2X1X{.{.v v . . . X JXJXJXJXJXJXJXJXJXJXJXJXJXJXJXJXJXJXJX",
"JXJXJXJXJXJXJXJXJXJXJXJXJXJXJXJXJXJXJXJXJX  . V.Z.c d a 9 /.|.K.Y.I.P.y m Q O.Z.A.j g 2 m J z JXJXJXJXJXJXJXJXJXJXJXJXJXJXJXJXJX",
"JXJXJXJXJXJXJXJXJXJXJXJXJXJXJXJXJXJXJXJXJX. . A.V.[ I B p /./.|.K. X~.V M #.) Z.B.f ; L K a I JXJXJXJXJXJXJXJXJXJXJXJXJXJXJXJXJX",
"JXJXJXJXJXJXJXJXJXJXJXJXJXJXJXJXJXJXJXh 6 k z k 6 A.A.XX_.M i * e q p tX$X$.} ..C.f A 2 1 oX].I T JXJXJXJXJXJXJXJXJXJXJXJXJXJXJX",
"JXJXJXJXJXJXJXJXJXJXJXJXJXJXJXJXJXJXJXl j k w : l A.D.OXqXV N * w > M tX+Xo.} ..V.f D S e OX].d I JXJXJXJXJXJXJXJXJXJXJXJXJXJXJX",
"JXJXJXJXJXJXJXJXJXJXJXJXJXJXJXJXJXJXJXa x .X^.l , b ] ` :.qX4XH h 7X#X@.*.o.` 4 X X . @X].P. Xc I JXJXJXJXJXJXJXJXJXJXJXJXJXJXJX",
"JXJXJXJXJXJXJXJXJXJXJXJXJXJXJXJXJXJXJXc x |.^.g k c [ =.o.qX6X3 D _.%X{ ' o.X.+   X + ].K. XJ.c x JXJXJXJXJXJXJXJXJXJXJXJXJXJXJX",
"JXJXJXJXJXJXJXJXJXJXJXJXJXJXJXJXJXX.O.<X2X-X-X  O c _ $.6.qX_.S 2 _.,X{ ` ` X.. X SXDXc { d c JXJXJXJXJXJXJXJXJXJXJXJXJXJXJXJXJX",
"JXJXJXJXJXJXJXJXJXJXJXJXJXJXJXJXJXd _ aXpXsXsX  O C #.$.R rX_.A D _._.&.&.X.a @   HXDXP I I x JXJXJXJXJXJXJXJXJXJXJXJXJXJXJXJXJX",
"JXJXJXJXJXJXJXJXJXJXJXJXJXJXJXJXJXI c aXdXdXdX@ O a u O O O       o . @ . X X A A   . JXJXJXJXJXJXJXJXJXJXJXJXJXJXJXJXJXJXJXJXJX",
"JXJXJXJXJXJXJXJXJXJXJXJXJXJXJXJXJXU a gXpXpXpXO O p H . .   .   o o # = $ $ $ D A     JXJXJXJXJXJXJXJXJXJXJXJXJXJXJXJXJXJXJXJXJX",
"JXJXJXJXJXJXJXJXJXJXJXJXJXJXJXJXJXJXJXp P I T JXJX    S ; h h 1 H / R.R.T.G G ~ ~ X   JXJXJXJXJXJXJXJXJXJXJXJXJXJXJXJXJXJXJXJXJX",
"JXJXJXJXJXJXJXJXJXJXJXJXJXJXJXJXJXJXJXz P P a JXJX    g S 2 H N N / F E.T.T.T.G ~   % JXJXJXJXJXJXJXJXJXJXJXJXJXJXJXJXJXJXJXJXJX",
"JXJXJXJXJXJXJXJXJXJXJXJXJXJXJXJXJXJXJXJXJXJXJXJXJXJXJX          . # = R.R.R.^ D S     JXJXJXJXJXJXJXJXJXJXJXJXJXJXJXJXJXJXJXJXJX",
"JXJXJXJXJXJXJXJXJXJXJXJXJXJXJXJXJXJXJXJXJXJXJXJXJXJXJX  X X     o # % R.^ ^ ^ H n   X JXJXJXJXJXJXJXJXJXJXJXJXJXJXJXJXJXJXJXJXJX",
"JXJXJXJXJXJXJXJXJXJXJXJXJXJXJXJXJXJXJXJXJXJXJXJXJXJXJXJXJXJXJXJXJXA m S 2 S A o o JXJXJXJXJXJXJXJXJXJXJXJXJXJXJXJXJXJXJXJXJXJXJX",
"JXJXJXJXJXJXJXJXJXJXJXJXJXJXJXJXJXJXJXJXJXJXJXJXJXJXJXJXJXJXJXJXJXh 3 K w a u . o JXJXJXJXJXJXJXJXJXJXJXJXJXJXJXJXJXJXJXJXJXJXJX",
"JXJXJXJXJXJXJXJXJXJXJXJXJXJXJXJXJXJXJXJXJXJXJXJXJXJXJXJXJXJXJXJXJX. + @.X.:.$.+ . JXJXJXJXJXJXJXJXJXJXJXJXJXJXJXJXJXJXJXJXJXJXJX",
"JXJXJXJXJXJXJXJXJXJXJXJXJXJXJXJXJXJXJXJXJXJXJXJXJXJXJXJXJXJXJXJXJX. + @.o.*.$.+ O JXJXJXJXJXJXJXJXJXJXJXJXJXJXJXJXJXJXJXJXJXJXJX",
"JXJXJXJXJXJXJXJXJXJXJXJXJXJXJXJXJXJXJXJXJXJXJXJXJXJXJXJXJXJXJXJXJXJXJX+ + + & JXJXJXJXJXJXJXJXJXJXJXJXJXJXJXJXJXJXJXJXJXJXJXJXJX",
"JXJXJXJXJXJXJXJXJXJXJXJXJXJXJXJXJXJXJXJXJXJXJXJXJXJXJXJXJXJXJXJXJXJXJX  . . . JXJXJXJXJXJXJXJXJXJXJXJXJXJXJXJXJXJXJXJXJXJXJXJXJX",
"JXJXJXJXJXJXJXJXJXJXJXJXJXJXJXJXJXJXJXJXJXJXJXJXJXJXJXJXJXJXJXJXJXJXJXJXJXJXJXJXJXJXJXJXJXJXJXJXJXJXJXJXJXJXJXJXJXJXJXJXJXJXJXJX",
"JXJXJXJXJXJXJXJXJXJXJXJXJXJXJXJXJXJXJXJXJXJXJXJXJXJXJXJXJXJXJXJXJXJXJXJXJXJXJXJXJXJXJXJXJXJXJXJXJXJXJXJXJXJXJXJXJXJXJXJXJXJXJXJX",
"JXJXJXJXJXJXJXJXJXJXJXJXJXJXJXJXJXJXJXJXJXJXJXJXJXJXJXJXJXJXJXJXJXJXJXJXJXJXJXJXJXJXJXJXJXJXJXJXJXJXJXJXJXJXJXJXJXJXJXJXJXJXJXJX",
"JXJXJXJXJXJXJXJXJXJXJXJXJXJXJXJXJXJXJXJXJXJXJXJXJXJXJXJXJXJXJXJXJXJXJXJXJXJXJXJXJXJXJXJXJXJXJXJXJXJXJXJXJXJXJXJXJXJXJXJXJXJXJXJX",
"JXJXJXJXJXJXJXJXJXJXJXJXJXJXJXJXJXJXJXJXJXJXJXJXJXJXJXJXJXJXJXJXJXJXJXJXJXJXJXJXJXJXJXJXJXJXJXJXJXJXJXJXJXJXJXJXJXJXJXJXJXJXJXJX",
};
