/* XPM */
static char *result[] = {
/* columns rows colors chars-per-pixel */
"64 65 245 2 ",
"   c #030200",
".  c #0B0101",
"X  c #02010A",
"o  c #050909",
"O  c #130101",
"+  c #1A0000",
"@  c #120009",
"#  c #010412",
"$  c #030317",
"%  c #130014",
"&  c #161719",
"*  c #260004",
"=  c #31000E",
"-  c #353008",
";  c #120A29",
":  c #3C2A2B",
">  c #3B3A2D",
",  c #2E2C35",
"<  c #362B37",
"1  c #2F3B39",
"2  c #373637",
"3  c #3C3532",
"4  c #3C3933",
"5  c #4E1E05",
"6  c #691E1D",
"7  c #572708",
"8  c #423809",
"9  c #5A3709",
"0  c #482F12",
"q  c #492A14",
"w  c #5A2718",
"e  c #5C331E",
"r  c #64300C",
"t  c #612E17",
"y  c #65371A",
"u  c #4D1D2B",
"i  c #472829",
"p  c #4A2B2B",
"a  c #542A27",
"s  c #473629",
"d  c #573629",
"f  c #452A36",
"g  c #4A2C33",
"h  c #582D37",
"j  c #433333",
"k  c #4C3232",
"l  c #463B39",
"z  c #583537",
"x  c #662826",
"c  c #643328",
"v  c #642B35",
"b  c #7C2A37",
"n  c #6B3838",
"m  c #78323A",
"M  c #3F421D",
"N  c #3B4825",
"B  c #3A4439",
"V  c #524500",
"C  c #7B5D00",
"Z  c #78531B",
"A  c #7F6010",
"S  c #49423F",
"D  c #745428",
"F  c #694537",
"G  c #774839",
"H  c #6D503F",
"J  c #775534",
"K  c #72632E",
"L  c #2E344A",
"P  c #333A43",
"I  c #4B2C44",
"U  c #532A44",
"Y  c #483745",
"T  c #523F41",
"R  c #4C3554",
"E  c #683A44",
"W  c #783048",
"Q  c #693A53",
"!  c #3C4444",
"~  c #394F52",
"^  c #3E637A",
"/  c #454445",
"(  c #4E484E",
")  c #6B4A43",
"_  c #6A4549",
"`  c #764747",
"'  c #7C514D",
"]  c #7D4F59",
"[  c #655774",
"{  c #4F6871",
"}  c #87252C",
"|  c #85393A",
" . c #AC3D33",
".. c #854F06",
"X. c #844F12",
"o. c #85600E",
"O. c #844A26",
"+. c #904F27",
"@. c #865428",
"#. c #844B36",
"$. c #865536",
"%. c #985438",
"&. c #A8493B",
"*. c #B7473B",
"=. c #AD513A",
"-. c #B1523E",
";. c #CB4B35",
":. c #9A3754",
">. c #B63B49",
",. c #AB3955",
"<. c #864549",
"1. c #934A4A",
"2. c #865C44",
"3. c #995749",
"4. c #8A4C56",
"5. c #9A4A54",
"6. c #865859",
"7. c #985857",
"8. c #AB4946",
"9. c #B44C43",
"0. c #BA4D42",
"q. c #B24C4A",
"w. c #B9494C",
"e. c #AB5044",
"r. c #A8554B",
"t. c #B45345",
"y. c #B95244",
"u. c #B3534B",
"i. c #BB534B",
"p. c #A64854",
"a. c #BF465A",
"s. c #A35455",
"d. c #A85759",
"f. c #B75656",
"g. c #955563",
"h. c #A55963",
"j. c #B85F63",
"k. c #C9564E",
"l. c #C85759",
"z. c #CD695A",
"x. c #DB6C59",
"c. c #DE755D",
"v. c #E56A57",
"b. c #E36C5E",
"n. c #EB6E5E",
"m. c #F16C5F",
"M. c #E97057",
"N. c #E5725E",
"B. c #EA715D",
"V. c #CF6868",
"C. c #DB6B63",
"Z. c #DD7364",
"A. c #DC726C",
"S. c #D77969",
"D. c #C97876",
"F. c #D97974",
"G. c #E66B65",
"H. c #EC6E62",
"J. c #E47262",
"K. c #EA7263",
"L. c #E4746B",
"P. c #E8796B",
"I. c #F3736E",
"U. c #E57874",
"Y. c #B8970F",
"T. c #B4A30C",
"R. c #B1932F",
"E. c #B58C39",
"W. c #A99C3E",
"Q. c #CB9706",
"!. c #C89802",
"~. c #C6991A",
"^. c #C99735",
"/. c #A79049",
"(. c #BB9646",
"). c #A9A442",
"_. c #C19E51",
"`. c #CF9475",
"'. c #D49576",
"]. c #EC8476",
"[. c #D4A26F",
"{. c #CCA27A",
"}. c #D9A474",
"|. c #E5A17B",
" X c #4A5D8F",
".X c #526895",
"XX c #C87D82",
"oX c #B59189",
"OX c #BCA38F",
"+X c #9E91A4",
"@X c #A795A2",
"#X c #B8ACA2",
"$X c #B7A7B7",
"%X c #B7B1B3",
"&X c #C79B89",
"*X c #D19F97",
"=X c #C6A78A",
"-X c #D7A986",
";X c #C5AC99",
":X c #D8A495",
">X c #E6A689",
",X c #CC9DB5",
"<X c #CAAFB0",
"1X c #C8AAB8",
"2X c #D4B5B9",
"3X c #F5D0AD",
"4X c #FAC9BC",
"5X c #EBD5B8",
"6X c #B9AFCA",
"7X c #CCB8D3",
"8X c #DDCECB",
"9X c #EAC9C8",
"0X c #FECEC2",
"qX c #FACECC",
"wX c #E7D4CA",
"eX c #F6D6C3",
"rX c #EBDBD4",
"tX c #F8D7D4",
"yX c #F9E9D8",
"uX c #E4D8EC",
"iX c #F3DCF0",
"pX c #DEE8FF",
"aX c #DDF4F2",
"sX c #E5E8E6",
"dX c #FDE5E6",
"fX c #FEEDED",
"gX c #EBF9E9",
"hX c #FDF4ED",
"jX c #F8FBE8",
"kX c #FEFDED",
"lX c #EDECF5",
"zX c #F3EBF6",
"xX c #FFEEF3",
"cX c #F4E3FC",
"vX c #FDEDFF",
"bX c #EAF8F5",
"nX c #ECFEFE",
"mX c #F3F4F3",
"MX c #FCF4F4",
"NX c #F5FCF5",
"BX c #FDFEF5",
"VX c #F5F5FE",
"CX c #FDF5FD",
"ZX c #F5FEFD",
"AX c #FFFFFFFF",
/* pixels */
"AXAXAXAXAXAXAXAXAXAXAXAXAXAXAXAXAXAXAXAXAXAXAXAXAXAXAXAXAXAXAXAXAXAXAXAXAXAXAXAXAXAXAXAXAXAXAXAXAXAXAXAXAXAXAXAXAXAXAXAXAXAXAXAX",
"AXAXAXAXAXAXAXAXAXAXAXAXAXAXAXAXAXAXAXAXAXAXAXAXAXAXAXAXAXAXAXAXAXAXAXAXAXAXAXAXAXAXAXAXAXAXAXAXAXAXAXAXAXAXAXAXAXAXAXAXAXAXAXAX",
"AXAXAXAXAXAXAXAXAXAXAXAXAXAXAXAXAXAXAXAXAXAXAXAXAXAXAXAXAXAXAXAXAXAXAXAXAXAXAXAXAXAXAXAXAXAXAXAXAXAXAXAXAXAXAXAXAXAXAXAXAXAXAXAX",
"AXAXAXAXAXAXAXAXAXAXAXAXAXAXAXAXAXAXAXAXAXAXAXAXAXAXAXAXAXAXAXAXAXAXAXAXAXAXAXAXAXAXAXAXAXAXAXAXAXAXAXAXAXAXAXAXAXAXAXAXAXAXAXAX",
"AXAXAXAXAXAXAXAXAXAXAXAXAXAXAXAXAXAXAXAXAXAXAXAXAXAXAXAXAXAXAXAXAXAXAXAXAXAXAXAXAXAXAXAXAXAXAXAXAXAXAXAXAXAXAXAXAXAXAXAXAXAXAXAX",
"AXAXAXAXAXAXAXAXAXAXAXAXAXAXAXAXAXAXAXAXAXAXAXAXAXAXAXAXAXAXAXAXAXAXAXAXAXAXAXAXAXAXAXAXAXAXAXAXAXAXAXAXAXAXAXAXAXAXAXAXAXAXAXAX",
"AXAXAXAXAXAXAXAXAXAXAXAXAXAXAXAXAXAXAXAXAXAXAXAXAXAXAXAXAXAXAXAXAXAXAXAXAXAXAXAXAXAXAXAXAXAXAXAXAXAXAXAXAXAXAXAXAXAXAXAXAXAXAXAX",
"AXAXAXAXAXAXAXAXAXAXAXAXAXAXAXAXAXAXAXAXAXAXAXAXAXAXAXAXAXAXAXAXAXAXAXAXAXAXAXAXAXAXAXAXAXAXAXAXAXAXAXAXAXAXAXAXAXAXAXAXAXAXAXAX",
"AXAXAXAXAXAXAXAXAXAXAXAXAXAXAXAXAXAXAXAXAXAXAXAXAXAXAXAXAXAXAXAXAXAXAXAXAXAXAXAXAXAXAXAXAXAXAXAXAXAXAXAXAXAXAXAXAXAXAXAXAXAXAXAX",
"AXAXAXAXAXAXAXAXAXAXAXAXAXAXAXAXAXAXAXAXAXAXAXAXAX: j j p i p j 3 s 4 4 4 4 2 AXAXAXAXAXAXAXAXAXAXAXAXAXAXAXAXAXAXAXAXAXAXAXAXAX",
"AXAXAXAXAXAXAXAXAXAXAXAXAXAXAXAXAXAXAXAXAXAXAXAXAX_ a v x w x w a w a a i p p AXAXAXAXAXAXAXAXAXAXAXAXAXAXAXAXAXAXAXAXAXAXAXAXAX",
"AXAXAXAXAXAXAXAXAXAXAXAXAXAXAXAXAXAXAXAXAXAXAXl i 6.<.D.D.F.A.A.A.A.S.D.D.D.oXv i f Y AXAXAXAXAXAXAXAXAXAXAXAXAXAXAXAXAXAXAXAXAX",
"AXAXAXAXAXAXAXAXAXAXAXAXAXAXAXAXAXAXAXAXAXAXAXa a d.r.F.A.C.P.H.H.I.H.U.A.F.D.t x v u AXAXAXAXAXAXAXAXAXAXAXAXAXAXAXAXAXAXAXAXAX",
"AXAXAXAXAXAXAXAXAXAXAXAXAXAXAXAXAXAXAXAXAXf h d.q.U.Z.c.N.K.K.K.G.H.H.H.G.A.S.P.A.9.p.p l AXAXAXAXAXAXAXAXAXAXAXAXAXAXAXAXAXAXAX",
"AXAXAXAXAXAXAXAXAXAXAXAXAXAXAXAXAXAXAXAXAX: x ,. .G.C.B.M.K.J.J.N.n.H.m.n.c.c.x.I.k.w.v : AXAXAXAXAXAXAXAXAXAXAXAXAXAXAXAXAXAXAX",
"AXAXAXAXAXAXAXAXAXAXAXAXAXAXAXAXAXAXAXAXAXU v &XA.].P.B.M.n.G.J.N.N.n.m.n.N.c.N.v.b.V.x i AXAXAXAXAXAXAXAXAXAXAXAXAXAXAXAXAXAXAX",
"AXAXAXAXAXAXAXAXAXAXAXAXAXAXAXAXAXAXAXAXAXf h D.V.A.C.x.M.B.K.K.N.n.n.H.B.N.N.M.G.I.XX6 z AXAXAXAXAXAXAXAXAXAXAXAXAXAXAXAXAXAXAX",
"AXAXAXAXAXAXAXAXAXAXAXAXAXAXAXAXAXAXAXP Y %X1XD.L.S.P.P.B.v.v.K.N.K.H.n.n.B.B.n.G.G.I.f.4.S , AXAXAXAXAXAXAXAXAXAXAXAXAXAXAXAXAX",
"AXAXAXAXAXAXAXAXAXAXAXAXAXAXAXAXAXAXAX, < 7X2XXX].z.x.b.K.H.H.N.N.H.H.B.B.n.n.n.K.L.A.p.d.: 2 AXAXAXAXAXAXAXAXAXAXAXAXAXAXAXAXAX",
"AXAXAXAXAXAXAXAXAXAXAXAXAXAXAXAXAX, 1 [ [ g.5.tXqX].B.H.H.G.N.J.N.H.n.J.N.m.m.I.x.L.U.w.h.g 2 AXAXAXAXAXAXAXAXAXAXAXAXAXAXAXAXAX",
"AXAXAXAXAXAXAXAXAXAXAXAXAXAXAXAXAX1 L { [ h.5.xXtX].v.m.I.J.c.N.J.H.J.N.J.m.m.v.P.J.V.l.p.i 4 AXAXAXAXAXAXAXAXAXAXAXAXAXAXAXAXAX",
"AXAXAXAXAXAXAXAXAXAXAXAXAXAXAXf Y sXaXpXcXg.s.iXdX=.;.H.G.L.x.J.K.K.K.Z.J.H.K.K.G.0.i.a.p.z , AXAXAXAXAXAXAXAXAXAXAXAXAXAXAXAXAX",
"AXAXAXAXAXAXAXAXAXAXAXAXAXAXAXl < zXlXpXcXg.g.dXtXu.*.G.A.U.P.J.J.G.Z.Z.J.G.H.P.Z.i.w.q.5.z 3 AXAXAXAXAXAXAXAXAXAXAXAXAXAXAXAXAX",
"AXAXAXAXAXAXAXAXAXAXAXAXAXAXAX, Y uXuXvXcX$X2X7.j.&.t.k.0.*. .0.*.0.0.9.y.0.*.*.0.0.q.a.d.a 3 AXAXAXAXAXAXAXAXAXAXAXAXAXAXAXAXAX",
"AXAXAXAXAXAXAXAXAXAXAXAXAXAXAX/ 2 vXcXiXcX6X1X5.q.d.e.&.=.i.z.9.y.0.0.9.t.t.t.y.0.w.8.r.7.i 3 AXAXAXAXAXAXAXAXAXAXAXAXAXAXAXAXAX",
"AXAXAXAXAXAXAXAXAXAXAXAXAXAXAX, < 6X6XCXcXQ Q h.8.f.u.-.t.9.&.*.9.9.9.9.8.e.e.i.9.k.8.p.g.p j AXAXAXAXAXAXAXAXAXAXAXAXAXAXAXAXAX",
"AXAXAXAXAXAXAXAXAXAXAXAXAXAXAX/ , 7X6XuXcXR Q 5.&.f.q.&.=.e.e.u.u.i.i.i.u.r.r.&.&.w.f.3.6.k j AXAXAXAXAXAXAXAXAXAXAXAXAXAXAXAXAX",
"AXAXAXAXAXAXAXAXAXAXAXAXAXAXAXAXAXL R 7X7X7X,Xb } f.u.e.=.u.u.e.e.q.q.q.r.3.3.u.i.w.8.d s p j AXAXAXAXAXAXAXAXAXAXAXAXAXAXAXAXAX",
"AXAXAXAXAXAXAXAXAXAXAXAXAXAXAXAXAXL L ,X7X$X7Xb W 7.p.d.s.7.3.s.s.s.s.d.7.7.7.3.p.q.s.e - s s AXAXAXAXAXAXAXAXAXAXAXAXAXAXAXAXAX",
"AXAXAXAXAXAXAXAXAXAXAXAXAXAXAXAXAXAXAXi h f f Y I I U u h i s i h g h g k j f l h a e D K V - AXAXAXAXAXAXAXAXAXAXAXAXAXAXAXAXAX",
"AXAXAXAXAXAXAXAXAXAXAXAXAXAXAXAXAXAXAXp p p Y P ( L I U f > s s p p g j : T f f g a q K K - s AXAXAXAXAXAXAXAXAXAXAXAXAXAXAXAXAX",
"AXAXAXAXAXAXAXAXAXAXAXAXAXAXAXAXAXAXAX_ _ E _ @ # +X+XQ _ s s J #.e q 2.J G #.#.%.#.$.e a AXAXAXAXAXAXAXAXAXAXAXAXAXAXAXAXAXAXAX",
"AXAXAXAXAXAXAXAXAXAXAXAXAXAXAXAXAXAXAXF F ] _ .   @X@X` ) 0 7 D @.y 7 $.@.O.%.+.+.O.#.a f AXAXAXAXAXAXAXAXAXAXAXAXAXAXAXAXAXAXAX",
"AXAXAXAXAXAXAXAXAXAXAXAXAXAXAXAXAXAXAXF G &X*X+ O rXyX;XoXc 9 -X{.{.&Xw t O.X.O.O.c z + @ AXAXAXAXAXAXAXAXAXAXAXAXAXAXAXAXAXAXAX",
"AXAXAXAXAXAXAXAXAXAXAXAXAXAXAXAXAXAXAXH ` :X:X+ O yXyX=X-Xr 7 [.{.-X:X7 t @.@.@.J 0 i . X AXAXAXAXAXAXAXAXAXAXAXAXAXAXAXAXAXAXAX",
"AXAXAXAXAXAXAXAXAXAXAXAXAXAXAXAXAXAXAXAX&X0X4X0XeX5X5X3X3X}.|.[.{.{.{.e w Z @.Z Z 9 d AXAXAXAXAXAXAXAXAXAXAXAXAXAXAXAXAXAXAXAXAX",
"AXAXAXAXAXAXAXAXAXAXAXAXAXAXAXAXAXAXAXAX*X4X0X0X5X5X5X5X3X|.|.}.[.}.-Xw w 2.J D K 8 - AXAXAXAXAXAXAXAXAXAXAXAXAXAXAXAXAXAXAXAXAX",
"AXAXAXAXAXAXAXAXAXAXAXAXAXAXAXAXAXAXAXAXAXG G 4X4XeX5X{.:X`.|.}.[.7 y J ' * @ . . AXAXAXAXAXAXAXAXAXAXAXAXAXAXAXAXAXAXAXAXAXAXAX",
"AXAXAXAXAXAXAXAXAXAXAXAXAXAXAXAXAXAXAXAXAX` F tX4XeX5XOX&X>X'.[.{.t 5 2.F + + O   AXAXAXAXAXAXAXAXAXAXAXAXAXAXAXAXAXAXAXAXAXAXAX",
"AXAXAXAXAXAXAXAXAXAXAXAXAXAXAXAXAXAXAXAXAXAXAXv ` G F H G &X:Xc w c c 7 9 W.W.- > AXAXAXAXAXAXAXAXAXAXAXAXAXAXAXAXAXAXAXAXAXAXAX",
"AXAXAXAXAXAXAXAXAXAXAXAXAXAXAXAXAXAXAXAXAXAXAX` 4.n ` H z ;X=X9 5 w 7 7 9 T.T.V 8 AXAXAXAXAXAXAXAXAXAXAXAXAXAXAXAXAXAXAXAXAXAXAX",
"AXAXAXAXAXAXAXAXAXAXAXAXAXAXAXAXAXAXAXAXAXAXAXAXAXW W <X<X2X=X).R.%.O.^.Q.!.!.Y.(.d f AXAXAXAXAXAXAXAXAXAXAXAXAXAXAXAXAXAXAXAXAX",
"AXAXAXAXAXAXAXAXAXAXAXAXAXAXAXAXAXAXAXAXAXAXAXAXAX<.W <X2X%X#X).R.D O.~.Q.Q.Q.~.E.d f AXAXAXAXAXAXAXAXAXAXAXAXAXAXAXAXAXAXAXAXAX",
"AXAXAXAXAXAXAXAXAXAXAXAXAXAXAXAXAXAXAXAXAXAXAXz n 4.6.+   / B N M O + R.Q.Q.Q.C 2.+ @ AXAXAXAXAXAXAXAXAXAXAXAXAXAXAXAXAXAXAXAXAX",
"AXAXAXAXAXAXAXAXAXAXAXAXAXAXAXAXAXAXAXAXAXAXAX4 h 6.] +   ! ! B B . O (.~.!.~...#.+ . AXAXAXAXAXAXAXAXAXAXAXAXAXAXAXAXAXAXAXAXAX",
"AXAXAXAXAXAXAXAXAXAXAXAXAXAXAXAXAXAXAXAXAXAXAX! S     / 2 Y 1 N B   O %...o.C R.(.+ . AXAXAXAXAXAXAXAXAXAXAXAXAXAXAXAXAXAXAXAXAX",
"AXAXAXAXAXAXAXAXAXAXAXAXAXAXAXAXAXAXAXAXAXAXAX! 2     4 l S l B B o . J J Z A ^.(.O . AXAXAXAXAXAXAXAXAXAXAXAXAXAXAXAXAXAXAXAXAX",
"AXAXAXAXAXAXAXAXAXAXAXAXAXAXAXAXAXAXAXAXAX/ S   o 8XwXwX8X> N     o   O + _.R...@.. o AXAXAXAXAXAXAXAXAXAXAXAXAXAXAXAXAXAXAXAXAX",
"AXAXAXAXAXAXAXAXAXAXAXAXAXAXAXAXAXAXAXAXAXi s . . wXtX9XrXB B o # # # X   /.(.@.$.+ . AXAXAXAXAXAXAXAXAXAXAXAXAXAXAXAXAXAXAXAXAX",
"AXAXAXAXAXAXAXAXAXAXAXAXAXAXAXAXAXAXAX+ + _ ` * * qX9X#X#X    { ^ .X.X~ (   . + + E Q AXAXAXAXAXAXAXAXAXAXAXAXAXAXAXAXAXAXAXAXAX",
"AXAXAXAXAXAXAXAXAXAXAXAXAXAXAXAXAXAXAX+ + E v * * 9XwX#X#X  o { ^  X.XL ~   . + * | W AXAXAXAXAXAXAXAXAXAXAXAXAXAXAXAXAXAXAXAXAX",
"AXAXAXAXAXAXAXAXAXAXAXAXAXAXAXAXAXAXAXO * E m W v * O . .     X ; $ $ { { B d c m ,.,.= + AXAXAXAXAXAXAXAXAXAXAXAXAXAXAXAXAXAXAX",
"AXAXAXAXAXAXAXAXAXAXAXAXAXAXAXAXAXAXAX. @ E E E E + O     .   % # @ X { { z t | } >.,.= = AXAXAXAXAXAXAXAXAXAXAXAXAXAXAXAXAXAXAX",
"AXAXAXAXAXAXAXAXAXAXAXAXAXAXAXAXAXAXAXAXAX. . . . AXAXAXAXAXAXAXAXAXAX# % 1.>.,.,.>.p.= X AXAXAXAXAXAXAXAXAXAXAXAXAXAXAXAXAXAXAX",
"AXAXAXAXAXAXAXAXAXAXAXAXAXAXAXAXAXAXAXAXAX&     & AXAXAXAXAXAXAXAXAXAXX @ 1.p.,.:.p.<.O o AXAXAXAXAXAXAXAXAXAXAXAXAXAXAXAXAXAXAX",
"AXAXAXAXAXAXAXAXAXAXAXAXAXAXAXAXAXAXAXAXAXAXAXAXAXAXAXAXAXAXAXAXAXAXAXAXAXO . . . O O AXAXAXAXAXAXAXAXAXAXAXAXAXAXAXAXAXAXAXAXAX",
"AXAXAXAXAXAXAXAXAXAXAXAXAXAXAXAXAXAXAXAXAXAXAXAXAXAXAXAXAXAXAXAXAXAXAXAXAX    o   #   AXAXAXAXAXAXAXAXAXAXAXAXAXAXAXAXAXAXAXAXAX",
"AXAXAXAXAXAXAXAXAXAXAXAXAXAXAXAXAXAXAXAXAXAXAXAXAXAXAXAXAXAXAXAXAXAXAXAXAXAXAXAXAXAXAXAXAXAXAXAXAXAXAXAXAXAXAXAXAXAXAXAXAXAXAXAX",
"AXAXAXAXAXAXAXAXAXAXAXAXAXAXAXAXAXAXAXAXAXAXAXAXAXAXAXAXAXAXAXAXAXAXAXAXAXAXAXAXAXAXAXAXAXAXAXAXAXAXAXAXAXAXAXAXAXAXAXAXAXAXAXAX",
"AXAXAXAXAXAXAXAXAXAXAXAXAXAXAXAXAXAXAXAXAXAXAXAXAXAXAXAXAXAXAXAXAXAXAXAXAXAXAXAXAXAXAXAXAXAXAXAXAXAXAXAXAXAXAXAXAXAXAXAXAXAXAXAX",
"AXAXAXAXAXAXAXAXAXAXAXAXAXAXAXAXAXAXAXAXAXAXAXAXAXAXAXAXAXAXAXAXAXAXAXAXAXAXAXAXAXAXAXAXAXAXAXAXAXAXAXAXAXAXAXAXAXAXAXAXAXAXAXAX",
"AXAXAXAXAXAXAXAXAXAXAXAXAXAXAXAXAXAXAXAXAXAXAXAXAXAXAXAXAXAXAXAXAXAXAXAXAXAXAXAXAXAXAXAXAXAXAXAXAXAXAXAXAXAXAXAXAXAXAXAXAXAXAXAX",
"AXAXAXAXAXAXAXAXAXAXAXAXAXAXAXAXAXAXAXAXAXAXAXAXAXAXAXAXAXAXAXAXAXAXAXAXAXAXAXAXAXAXAXAXAXAXAXAXAXAXAXAXAXAXAXAXAXAXAXAXAXAXAXAX",
"AXAXAXAXAXAXAXAXAXAXAXAXAXAXAXAXAXAXAXAXAXAXAXAXAXAXAXAXAXAXAXAXAXAXAXAXAXAXAXAXAXAXAXAXAXAXAXAXAXAXAXAXAXAXAXAXAXAXAXAXAXAXAXAX",
"AXAXAXAXAXAXAXAXAXAXAXAXAXAXAXAXAXAXAXAXAXAXAXAXAXAXAXAXAXAXAXAXAXAXAXAXAXAXAXAXAXAXAXAXAXAXAXAXAXAXAXAXAXAXAXAXAXAXAXAXAXAXAXAX",
};
