/* XPM */
static char *result[] = {
/* columns rows colors chars-per-pixel */
"64 65 243 2 ",
"   c #040201",
".  c #0C0001",
"X  c #080805",
"o  c #01010A",
"O  c #140201",
"+  c #1B0100",
"@  c #180709",
"#  c #121016",
"$  c #230500",
"%  c #300001",
"&  c #38340D",
"*  c #2E2927",
"=  c #3A292C",
"-  c #3A3828",
";  c #2F2C3C",
":  c #372B38",
">  c #3D3432",
",  c #363837",
"<  c #3B3932",
"1  c #691E1D",
"2  c #4A2E09",
"3  c #582904",
"4  c #5E340A",
"5  c #472A18",
"6  c #5A2919",
"7  c #443719",
"8  c #583615",
"9  c #613408",
"0  c #632F10",
"q  c #67371A",
"w  c #4F1D2B",
"e  c #472828",
"r  c #442B2A",
"t  c #4B2B2C",
"y  c #552927",
"u  c #47362B",
"i  c #5A3428",
"p  c #462B35",
"a  c #5B2D33",
"s  c #562A39",
"d  c #443334",
"f  c #4C3333",
"g  c #49363B",
"h  c #573336",
"j  c #662827",
"k  c #63312D",
"l  c #632D38",
"z  c #772B39",
"x  c #723339",
"c  c #354636",
"v  c #524600",
"b  c #7F560E",
"n  c #7B4C16",
"m  c #494336",
"M  c #64462B",
"N  c #784C2A",
"B  c #79522B",
"V  c #674539",
"C  c #754939",
"Z  c #6B583D",
"A  c #78533A",
"S  c #332C43",
"D  c #363A46",
"F  c #393F52",
"G  c #472B43",
"H  c #473845",
"J  c #4F324F",
"K  c #523D48",
"L  c #6F2F48",
"P  c #693648",
"I  c #693755",
"U  c #3A4746",
"Y  c #3A6759",
"T  c #3B7663",
"R  c #444445",
"E  c #574545",
"W  c #514F4E",
"Q  c #5B5E59",
"!  c #6A4A48",
"~  c #754648",
"^  c #77574B",
"/  c #6C5853",
"(  c #56516F",
")  c #68596D",
"_  c #4D6C64",
"`  c #882E3A",
"'  c #885803",
"]  c #925B01",
"[  c #844D1B",
"{  c #865011",
"}  c #83531D",
"|  c #824828",
" . c #865925",
".. c #855833",
"X. c #905032",
"o. c #A8493B",
"O. c #B7473B",
"+. c #AD513A",
"@. c #B1523E",
"#. c #896430",
"$. c #CB4B35",
"%. c #852A49",
"&. c #903651",
"*. c #A33856",
"=. c #BC3160",
"-. c #854B45",
";. c #845342",
":. c #9A564A",
">. c #8C4F5A",
",. c #994957",
"<. c #8B5654",
"1. c #985859",
"2. c #AB4A46",
"3. c #B44C43",
"4. c #BA4D42",
"5. c #B24C4A",
"6. c #B9494C",
"7. c #AB5044",
"8. c #A9544B",
"9. c #B45345",
"0. c #B95244",
"q. c #B3534B",
"w. c #BB534B",
"e. c #A74758",
"r. c #BF4A55",
"t. c #A35553",
"y. c #A85659",
"u. c #B75656",
"i. c #965162",
"p. c #A84962",
"a. c #B54362",
"s. c #A55963",
"d. c #B85F63",
"f. c #A2626C",
"g. c #C9564E",
"h. c #C85759",
"j. c #CD695A",
"k. c #DB6C59",
"l. c #DE755D",
"z. c #E56A57",
"x. c #E36C5E",
"c. c #EB6E5E",
"v. c #F16C5F",
"b. c #E97057",
"n. c #E5725E",
"m. c #EA715D",
"M. c #CF6868",
"N. c #DB6B63",
"B. c #DD7364",
"V. c #DC726C",
"C. c #D77969",
"Z. c #C97876",
"A. c #D97974",
"S. c #E66B65",
"D. c #EC6E62",
"F. c #E47262",
"G. c #EA7263",
"H. c #E4746B",
"J. c #E8796B",
"K. c #F3736E",
"L. c #E57874",
"P. c #BB9112",
"I. c #B8A613",
"U. c #988820",
"Y. c #B9892D",
"T. c #B59638",
"R. c #A6A037",
"E. c #C89603",
"W. c #CC9400",
"Q. c #C89617",
"!. c #CC9824",
"~. c #A79146",
"^. c #B99743",
"/. c #B9A64A",
"(. c #CB9E4D",
"). c #C99A78",
"_. c #DB9477",
"`. c #E89178",
"'. c #D8A276",
"]. c #E3A07D",
"[. c #636A82",
"{. c #C87D82",
"}. c #B38E8B",
"|. c #BEAB8E",
" X c #9993A4",
".X c #A397A2",
"XX c #B6AFAB",
"oX c #B7A7B7",
"OX c #C99988",
"+X c #D79C86",
"@X c #D39D96",
"#X c #E59F83",
"$X c #CEA485",
"%X c #C6A68A",
"&X c #D6A789",
"*X c #C9A696",
"=X c #D8A99B",
"-X c #CDB799",
";X c #CC9DB5",
":X c #C8AABB",
">X c #D0B2B0",
",X c #EBC7B7",
"<X c #F8CBBC",
"1X c #E5D7B7",
"2X c #F4D1B0",
"3X c #F9E1BD",
"4X c #B9AFCA",
"5X c #CCB8D3",
"6X c #DFDECB",
"7X c #FECDC3",
"8X c #E9D7C2",
"9X c #FDD1C4",
"0X c #FAD8D4",
"qX c #EDE6D6",
"wX c #FEF8DC",
"eX c #E4D8EC",
"rX c #FEDFE1",
"tX c #EEDCF8",
"yX c #DBE9EC",
"uX c #DEE8FF",
"iX c #E6EBE5",
"pX c #FAE5E5",
"aX c #FFEBEC",
"sX c #E9F7EC",
"dX c #FEF2ED",
"fX c #F5FBE9",
"gX c #FEFCEC",
"hX c #EDECF5",
"jX c #F4EBF5",
"kX c #FEEEF4",
"lX c #F4E3FC",
"zX c #FDEDFF",
"xX c #EBF7F7",
"cX c #EDFEF3",
"vX c #EEFEFC",
"bX c #F4F5F2",
"nX c #FDF4F4",
"mX c #F5FDF5",
"MX c #FCFDF5",
"NX c #F5F4FD",
"BX c #FDF5FD",
"VX c #F5FEFD",
"CX c #FFFFFEFF",
/* pixels */
"CXCXCXCXCXCXCXCXCXCXCXCXCXCXCXCXCXCXCXCXCXCXCXCXCXCXCXCXCXCXCXCXCXCXCXCXCXCXCXCXCXCXCXCXCXCXCXCXCXCXCXCXCXCXCXCXCXCXCXCXCXCXCXCX",
"CXCXCXCXCXCXCXCXCXCXCXCXCXCXCXCXCXCXCXCXCXCXCXCXCXCXCXCXCXCXCXCXCXCXCXCXCXCXCXCXCXCXCXCXCXCXCXCXCXCXCXCXCXCXCXCXCXCXCXCXCXCXCXCX",
"CXCXCXCXCXCXCXCXCXCXCXCXCXCXCXCXCXCXCXCXCXCXCXCXCXCXCXCXCXCXCXCXCXCXCXCXCXCXCXCXCXCXCXCXCXCXCXCXCXCXCXCXCXCXCXCXCXCXCXCXCXCXCXCX",
"CXCXCXCXCXCXCXCXCXCXCXCXCXCXCXCXCXCXCXCXCXCXCXCXCXCXCXCXCXCXCXCXCXCXCXCXCXCXCXCXCXCXCXCXCXCXCXCXCXCXCXCXCXCXCXCXCXCXCXCXCXCXCXCX",
"CXCXCXCXCXCXCXCXCXCXCXCXCXCXCXCXCXCXCXCXCXCXCXCXCXCXCXCXCXCXCXCXCXCXCXCXCXCXCXCXCXCXCXCXCXCXCXCXCXCXCXCXCXCXCXCXCXCXCXCXCXCXCXCX",
"CXCXCXCXCXCXCXCXCXCXCXCXCXCXCXCXCXCXCXCXCXCXCXCXCXCXCXCXCXCXCXCXCXCXCXCXCXCXCXCXCXCXCXCXCXCXCXCXCXCXCXCXCXCXCXCXCXCXCXCXCXCXCXCX",
"CXCXCXCXCXCXCXCXCXCXCXCXCXCXCXCXCXCXCXCXCXCXCXCXCXCXCXCXCXCXCXCXCXCXCXCXCXCXCXCXCXCXCXCXCXCXCXCXCXCXCXCXCXCXCXCXCXCXCXCXCXCXCXCX",
"CXCXCXCXCXCXCXCXCXCXCXCXCXCXCXCXCXCXCXCXCXCXCXCXCXCXCXCXCXCXCXCXCXCXCXCXCXCXCXCXCXCXCXCXCXCXCXCXCXCXCXCXCXCXCXCXCXCXCXCXCXCXCXCX",
"CXCXCXCXCXCXCXCXCXCXCXCXCXCXCXCXCXCXCXCXCXCXCXCXCXCXCXCXCXCXCXCXCXCXCXCXCXCXCXCXCXCXCXCXCXCXCXCXCXCXCXCXCXCXCXCXCXCXCXCXCXCXCXCX",
"CXCXCXCXCXCXCXCXCXCXCXCXCXCXCXCXCXCXCXCXCXCXCXCXCXCXCXCXCXCXCXCXCXCXCXCXCXCXCXCXCXCXCXCXCXCXCXCXCXCXCXCXCXCXCXCXCXCXCXCXCXCXCXCX",
"CXCXCXCXCXCXCXCXCXCXCXCXCXCXCXCXCXCXCXCXCXCXCXCXCXCX= d p r e t u < < < < < , , CXCXCXCXCXCXCXCXCXCXCXCXCXCXCXCXCXCXCXCXCXCXCXCX",
"CXCXCXCXCXCXCXCXCXCXCXCXCXCXCXCXCXCXCXCXCXCXCXCXCXCXE y a j 6 j y 6 6 y 6 t e = CXCXCXCXCXCXCXCXCXCXCXCXCXCXCXCXCXCXCXCXCXCXCXCX",
"CXCXCXCXCXCXCXCXCXCXCXCXCXCXCXCXCXCXCXCXCXCXCXCXg e <.<.Z._.M.V.H.V.V.V.Z.Z.).{.a e = g CXCXCXCXCXCXCXCXCXCXCXCXCXCXCXCXCXCXCXCX",
"CXCXCXCXCXCXCXCXCXCXCXCXCXCXCXCXCXCXCXCXCXCXCXCXy j y.8.A.H.N.H.D.D.K.S.H.V.A.Z.1 j k w CXCXCXCXCXCXCXCXCXCXCXCXCXCXCXCXCXCXCXCX",
"CXCXCXCXCXCXCXCXCXCXCXCXCXCXCXCXCXCXCXCXCXCXp s y.5.A.V.F.k.F.G.G.F.D.D.D.S.C.C.L.B.5.e.t m CXCXCXCXCXCXCXCXCXCXCXCXCXCXCXCXCXCX",
"CXCXCXCXCXCXCXCXCXCXCXCXCXCXCXCXCXCXCXCXCXCXp w :.O.N.x.b.m.G.G.F.F.D.D.v.D.n.l.k.K.g.6.k = CXCXCXCXCXCXCXCXCXCXCXCXCXCXCXCXCXCX",
"CXCXCXCXCXCXCXCXCXCXCXCXCXCXCXCXCXCXCXCXCXCXG l A.H.`.L.c.z.c.x.n.F.D.c.D.m.n.n.x.S.S.M.j e CXCXCXCXCXCXCXCXCXCXCXCXCXCXCXCXCXCX",
"CXCXCXCXCXCXCXCXCXCXCXCXCXCXCXCXCXCXCXCXCXCXp s Z.M.S.N.z.b.D.K.F.n.c.D.c.b.n.m.G.S.K.L.j a CXCXCXCXCXCXCXCXCXCXCXCXCXCXCXCXCXCX",
"CXCXCXCXCXCXCXCXCXCXCXCXCXCXCXCXCXCXCXCXg K oX:XZ.V.V.J.G.m.x.x.F.n.F.c.m.D.m.m.c.D.k.V.y.>.K , CXCXCXCXCXCXCXCXCXCXCXCXCXCXCXCX",
"CXCXCXCXCXCXCXCXCXCXCXCXCXCXCXCXCXCXCXCX; S :X>X{.`.j.k.n.G.D.D.n.m.D.D.m.m.c.c.x.G.H.H.e.s.= , CXCXCXCXCXCXCXCXCXCXCXCXCXCXCXCX",
"CXCXCXCXCXCXCXCXCXCXCXCXCXCXCXCXCXCX* D [.) i.>.rX7X`.c.S.S.F.n.F.x.m.D.F.n.c.v.K.k.H.L.5.s.f , CXCXCXCXCXCXCXCXCXCXCXCXCXCXCXCX",
"CXCXCXCXCXCXCXCXCXCXCXCXCXCXCXCXCXCX, , ( ) f.i.aX0XV.z.K.K.F.l.n.G.D.F.F.F.v.v.z.F.V.N.r.e.e d CXCXCXCXCXCXCXCXCXCXCXCXCXCXCXCX",
"CXCXCXCXCXCXCXCXCXCXCXCXCXCXCXCXp H yXyXuXlXi.1.rXpX3.$.K.S.G.k.H.F.G.F.F.F.D.v.G.k.4.w.r.e.h = CXCXCXCXCXCXCXCXCXCXCXCXCXCXCXCX",
"CXCXCXCXCXCXCXCXCXCXCXCXCXCXCXCXH : hXxXuXtXf.i.aX0X3.O.S.S.J.J.B.F.F.F.B.H.S.D.J.B.0.6.6.,.h > CXCXCXCXCXCXCXCXCXCXCXCXCXCXCXCX",
"CXCXCXCXCXCXCXCXCXCXCXCXCXCXCXCX* H eXeXzXlXoX>X,.d.o.q.g.@.O.o.O.O.O.4.4.3.4.4.O.4.3.6.u.s.t < CXCXCXCXCXCXCXCXCXCXCXCXCXCXCXCX",
"CXCXCXCXCXCXCXCXCXCXCXCXCXCXCXCXH D lXlXrXlX4X:X,.6.8.7.o.+.0.h.0.0.4.4.0.0.0.0.0.4.4.2.y.s.e < CXCXCXCXCXCXCXCXCXCXCXCXCXCXCXCX",
"CXCXCXCXCXCXCXCXCXCXCXCXCXCXCXCX* ; 4X4XzXlX( I y.2.u.q.@.0.7.o.3.@.3.6.9.7.7.o.q.4.6.5.t.i.t d CXCXCXCXCXCXCXCXCXCXCXCXCXCXCXCX",
"CXCXCXCXCXCXCXCXCXCXCXCXCXCXCXCXD ; eX4XeXtXJ I s.,.u.5.o.@.9.7.q.q.6.q.q.8.8.8.o.O.6.u.:.^ f d CXCXCXCXCXCXCXCXCXCXCXCXCXCXCXCX",
"CXCXCXCXCXCXCXCXCXCXCXCXCXCXCXCXCXCXS J 5X5X5X;Xz ` u.q.3.o.q.q.7.7.5.5.6.8.:.8.w.w.4.2.j f r r CXCXCXCXCXCXCXCXCXCXCXCXCXCXCXCX",
"CXCXCXCXCXCXCXCXCXCXCXCXCXCXCXCXCXCXS H oXoX:X:Xx z i.,.y.:.:.:.t.t.t.t.y.1.1.<.,.t.y.8.i 7 u - CXCXCXCXCXCXCXCXCXCXCXCXCXCXCXCX",
"CXCXCXCXCXCXCXCXCXCXCXCXCXCXCXCXCXCXCXCX= s G : H G G J s l e u e h e h G G D G G s y k Z Z 7 & CXCXCXCXCXCXCXCXCXCXCXCXCXCXCXCX",
"CXCXCXCXCXCXCXCXCXCXCXCXCXCXCXCXCXCXCXCXt t p H D W S G G w d < i t e d g p K G t t y 5 ^ Z 7 m CXCXCXCXCXCXCXCXCXCXCXCXCXCXCXCX",
"CXCXCXCXCXCXCXCXCXCXCXCXCXCXCXCXCXCXCXCX! ! ! W . o  X.XP ~ f 7 A A 8 3 A B N ..X.X.X.-.a s CXCXCXCXCXCXCXCXCXCXCXCXCXCXCXCXCXCX",
"CXCXCXCXCXCXCXCXCXCXCXCXCXCXCXCXCXCXCXCX! ! ~ ! .   .X}./ ~ 5 2 | ..9 4 } } [ X.[ X.| | y e CXCXCXCXCXCXCXCXCXCXCXCXCXCXCXCXCXCX",
"CXCXCXCXCXCXCXCXCXCXCXCXCXCXCXCXCXCXCXCXk C OX*XO O qXqX*XOXq 0 &X$X).).0 9 } {  .| k q O O CXCXCXCXCXCXCXCXCXCXCXCXCXCXCXCXCXCX",
"CXCXCXCXCXCXCXCXCXCXCXCXCXCXCXCXCXCXCXCX~ -.*X*X+ + qXqX|.+X9 3 $X$X&X&X3 0  . . ...2 5 . X CXCXCXCXCXCXCXCXCXCXCXCXCXCXCXCXCXCX",
"CXCXCXCXCXCXCXCXCXCXCXCXCXCXCXCXCXCXCXCXCXOX9X,X7X9X8X1X2X2X].].+X+X+XOX6 3 n n B C 8 u CXCXCXCXCXCXCXCXCXCXCXCXCXCXCXCXCXCXCXCX",
"CXCXCXCXCXCXCXCXCXCXCXCXCXCXCXCXCXCXCXCXCX@X7X9X7X<X1X1X2X2X].`.&X).=X@X3 3 #.B ^ / r * CXCXCXCXCXCXCXCXCXCXCXCXCXCXCXCXCXCXCXCX",
"CXCXCXCXCXCXCXCXCXCXCXCXCXCXCXCXCXCXCXCXCXCXZ V <X9X,X3X%X$X_.]._.'.y l C A + O O . CXCXCXCXCXCXCXCXCXCXCXCXCXCXCXCXCXCXCXCXCXCX",
"CXCXCXCXCXCXCXCXCXCXCXCXCXCXCXCXCXCXCXCXCXCX! x 7X9X<X,X-X%X+X#X'.'.6 y ;.A $ O O   CXCXCXCXCXCXCXCXCXCXCXCXCXCXCXCXCXCXCXCXCXCX",
"CXCXCXCXCXCXCXCXCXCXCXCXCXCXCXCXCXCXCXCXCXCXCXCX~ k -.x m Z OX@X3 4 6 6 6 4 U.R.& - CXCXCXCXCXCXCXCXCXCXCXCXCXCXCXCXCXCXCXCXCXCX",
"CXCXCXCXCXCXCXCXCXCXCXCXCXCXCXCXCXCXCXCXCXCXCXCXV ~ %...! Z -X&X3 3 9 9 3 v I.I.v 2 CXCXCXCXCXCXCXCXCXCXCXCXCXCXCXCXCXCXCXCXCXCX",
"CXCXCXCXCXCXCXCXCXCXCXCXCXCXCXCXCXCXCXCXCXCXCXCXCXCX` z XXXXXX-XT.T.n { !.E.E.P.P.^.8 u CXCXCXCXCXCXCXCXCXCXCXCXCXCXCXCXCXCXCXCX",
"CXCXCXCXCXCXCXCXCXCXCXCXCXCXCXCXCXCXCXCXCXCXCXCXCXCX` %.XXXXXXXX~./.n [ !.E.W.E.!.T.8 5 CXCXCXCXCXCXCXCXCXCXCXCXCXCXCXCXCXCXCXCX",
"CXCXCXCXCXCXCXCXCXCXCXCXCXCXCXCXCXCXCXCXCXCXCXCX- K *.a.R c U H c 7 O $ n ] Q.E.'  .+ O CXCXCXCXCXCXCXCXCXCXCXCXCXCXCXCXCXCXCXCX",
"CXCXCXCXCXCXCXCXCXCXCXCXCXCXCXCXCXCXCXCXCXCXCXCXR t a.*.G R D U c U o X ^  .P.Q.' B O   CXCXCXCXCXCXCXCXCXCXCXCXCXCXCXCXCXCXCXCX",
"CXCXCXCXCXCXCXCXCXCXCXCXCXCXCXCXCXCXCXCXCXCXCXCXc g =.=.%.L o o U , H H   + b ] Q.T.. o CXCXCXCXCXCXCXCXCXCXCXCXCXCXCXCXCXCXCXCX",
"CXCXCXCXCXCXCXCXCXCXCXCXCXCXCXCXCXCXCXCXCXCXCXCX, D i.*.&.L . o < g R , X . ' ] Q.^.X o CXCXCXCXCXCXCXCXCXCXCXCXCXCXCXCXCXCXCXCX",
"CXCXCXCXCXCXCXCXCXCXCXCXCXCXCXCXCXCXCXCXCXCXCXCX/ ! ) Q _ _ o . pX8X1X6Xo + T.Y.' #.  o CXCXCXCXCXCXCXCXCXCXCXCXCXCXCXCXCXCXCXCX",
"CXCXCXCXCXCXCXCXCXCXCXCXCXCXCXCXCXCXCXCXCXCXCXCXL ~ Q Y T Y o O ,X<X3X8Xo O ~.(.n M X X CXCXCXCXCXCXCXCXCXCXCXCXCXCXCXCXCXCXCXCX",
"CXCXCXCXCXCXCXCXCXCXCXCXCXCXCXCXCXCXCXCXCXCXW h ,.>.E U _ T X . =XOX).%X. . @ + @ O , D CXCXCXCXCXCXCXCXCXCXCXCXCXCXCXCXCXCXCXCX",
"CXCXCXCXCXCXCXCXCXCXCXCXCXCXCXCXCXCXCXCXCXCX< t p.*.a u Q Q X X *X).$X>X. @ O @ + O F F CXCXCXCXCXCXCXCXCXCXCXCXCXCXCXCXCXCXCXCX",
"CXCXCXCXCXCXCXCXCXCXCXCXCXCXCXCXCXCXCXCXCXCXO + *.=.e.e.p.>.d E O O . X - d L %.x a J U CXCXCXCXCXCXCXCXCXCXCXCXCXCXCXCXCXCXCXCX",
"CXCXCXCXCXCXCXCXCXCXCXCXCXCXCXCXCXCXCXCXCXCX@ O ,.e.*.*.*.i.f d   X X X m g I L x ~ F F CXCXCXCXCXCXCXCXCXCXCXCXCXCXCXCXCXCXCXCX",
"CXCXCXCXCXCXCXCXCXCXCXCXCXCXCXCXCXCXCXCXCXCXCXCXO + + $ % $ CXCXCXCXCXCXCXCX. @ O O CXCXCXCXCXCXCXCXCXCXCXCXCXCXCXCXCXCXCXCXCXCX",
"CXCXCXCXCXCXCXCXCXCXCXCXCXCXCXCXCXCXCXCXCXCXCXCX  X   . + @ CXCXCXCXCXCXCXCX#     # CXCXCXCXCXCXCXCXCXCXCXCXCXCXCXCXCXCXCXCXCXCX",
"CXCXCXCXCXCXCXCXCXCXCXCXCXCXCXCXCXCXCXCXCXCXCXCXCXCXCXCXCXCXCXCXCXCXCXCXCXCXCXCXCXCXCXCXCXCXCXCXCXCXCXCXCXCXCXCXCXCXCXCXCXCXCXCX",
"CXCXCXCXCXCXCXCXCXCXCXCXCXCXCXCXCXCXCXCXCXCXCXCXCXCXCXCXCXCXCXCXCXCXCXCXCXCXCXCXCXCXCXCXCXCXCXCXCXCXCXCXCXCXCXCXCXCXCXCXCXCXCXCX",
"CXCXCXCXCXCXCXCXCXCXCXCXCXCXCXCXCXCXCXCXCXCXCXCXCXCXCXCXCXCXCXCXCXCXCXCXCXCXCXCXCXCXCXCXCXCXCXCXCXCXCXCXCXCXCXCXCXCXCXCXCXCXCXCX",
"CXCXCXCXCXCXCXCXCXCXCXCXCXCXCXCXCXCXCXCXCXCXCXCXCXCXCXCXCXCXCXCXCXCXCXCXCXCXCXCXCXCXCXCXCXCXCXCXCXCXCXCXCXCXCXCXCXCXCXCXCXCXCXCX",
"CXCXCXCXCXCXCXCXCXCXCXCXCXCXCXCXCXCXCXCXCXCXCXCXCXCXCXCXCXCXCXCXCXCXCXCXCXCXCXCXCXCXCXCXCXCXCXCXCXCXCXCXCXCXCXCXCXCXCXCXCXCXCXCX",
"CXCXCXCXCXCXCXCXCXCXCXCXCXCXCXCXCXCXCXCXCXCXCXCXCXCXCXCXCXCXCXCXCXCXCXCXCXCXCXCXCXCXCXCXCXCXCXCXCXCXCXCXCXCXCXCXCXCXCXCXCXCXCXCX",
"CXCXCXCXCXCXCXCXCXCXCXCXCXCXCXCXCXCXCXCXCXCXCXCXCXCXCXCXCXCXCXCXCXCXCXCXCXCXCXCXCXCXCXCXCXCXCXCXCXCXCXCXCXCXCXCXCXCXCXCXCXCXCXCX",
"CXCXCXCXCXCXCXCXCXCXCXCXCXCXCXCXCXCXCXCXCXCXCXCXCXCXCXCXCXCXCXCXCXCXCXCXCXCXCXCXCXCXCXCXCXCXCXCXCXCXCXCXCXCXCXCXCXCXCXCXCXCXCXCX",
"CXCXCXCXCXCXCXCXCXCXCXCXCXCXCXCXCXCXCXCXCXCXCXCXCXCXCXCXCXCXCXCXCXCXCXCXCXCXCXCXCXCXCXCXCXCXCXCXCXCXCXCXCXCXCXCXCXCXCXCXCXCXCXCX",
};
