/* XPM */
static char *result[] = {
/* columns rows colors chars-per-pixel */
"64 65 240 2 ",
"   c #030301",
".  c #0C0201",
"X  c #010900",
"o  c #06050A",
"O  c #120101",
"+  c #1C0200",
"@  c #180508",
"#  c #061401",
"$  c #040814",
"%  c #1B0016",
"&  c #210000",
"*  c #382504",
"=  c #352B2D",
"-  c #2D382A",
";  c #382A33",
":  c #353233",
">  c #393235",
",  c #3C323B",
"<  c #38363E",
"1  c #621F17",
"2  c #4D2B08",
"3  c #552A09",
"4  c #4B3407",
"5  c #553703",
"6  c #4A291B",
"7  c #572C19",
"8  c #473316",
"9  c #4D351B",
"0  c #51371E",
"q  c #632D05",
"w  c #66310B",
"e  c #642E1B",
"r  c #623919",
"t  c #471C26",
"y  c #661D26",
"u  c #492728",
"i  c #442B2C",
"p  c #4C2C2B",
"a  c #572929",
"s  c #532C2C",
"d  c #483528",
"f  c #59352A",
"g  c #472936",
"h  c #4A2C33",
"j  c #552B35",
"k  c #4A3536",
"l  c #45343C",
"z  c #563338",
"x  c #672A32",
"c  c #723232",
"v  c #374537",
"b  c #594107",
"n  c #4F431A",
"m  c #7A4F0C",
"M  c #795A15",
"N  c #52472B",
"B  c #45433A",
"V  c #794B29",
"C  c #6E4E32",
"Z  c #764B36",
"A  c #353142",
"S  c #393846",
"D  c #452C42",
"F  c #493A45",
"G  c #563746",
"H  c #55334D",
"J  c #6B3945",
"K  c #6D354D",
"L  c #753F49",
"P  c #3B4747",
"I  c #3C6264",
"U  c #484547",
"Y  c #56454C",
"T  c #494951",
"R  c #69434A",
"E  c #7A4948",
"W  c #795742",
"Q  c #705052",
"!  c #625C68",
"~  c #586473",
"^  c #606677",
"/  c #8E3236",
"(  c #833837",
")  c #8B4E10",
"_  c #8D5218",
"`  c #925417",
"'  c #826300",
"]  c #874929",
"[  c #82532A",
"{  c #8B532B",
"}  c #95502E",
"|  c #864E39",
" . c #825834",
".. c #A9493B",
"X. c #B84C3B",
"o. c #AD533D",
"O. c #B2523D",
"+. c #80643D",
"@. c #C8473B",
"#. c #883D47",
"$. c #A53A46",
"%. c #B23E4A",
"&. c #81444A",
"*. c #9A4544",
"=. c #855644",
"-. c #9A5649",
";. c #894D59",
":. c #8B5757",
">. c #9D5254",
",. c #965759",
"<. c #A94A47",
"1. c #B34E44",
"2. c #B44D4D",
"3. c #B94A48",
"4. c #AA5448",
"5. c #B35344",
"6. c #B5554B",
"7. c #A84B54",
"8. c #B94753",
"9. c #B54B52",
"0. c #A85858",
"q. c #B65756",
"w. c #996443",
"e. c #856057",
"r. c #956259",
"t. c #A76050",
"y. c #8E5962",
"u. c #975961",
"i. c #A65D63",
"p. c #8E6567",
"a. c #A56064",
"s. c #CC544C",
"d. c #EB5C54",
"f. c #DD6A5B",
"g. c #DE7258",
"h. c #E66956",
"j. c #E56C5B",
"k. c #EC6E5E",
"l. c #F66F5A",
"z. c #F36B5D",
"x. c #E67356",
"c. c #E4735B",
"v. c #EA725B",
"b. c #DC6967",
"n. c #CA786B",
"m. c #DB746D",
"M. c #D97869",
"N. c #C87976",
"B. c #D67873",
"V. c #EB6E63",
"C. c #E86A69",
"Z. c #F56863",
"A. c #E37263",
"S. c #EA7164",
"D. c #E3716A",
"F. c #EB7868",
"G. c #F27566",
"H. c #E47373",
"J. c #F27373",
"K. c #BC9B00",
"L. c #B59319",
"P. c #B79334",
"I. c #C69A05",
"U. c #C29418",
"Y. c #C8A20B",
"T. c #D09329",
"R. c #C59537",
"E. c #C3A326",
"W. c #988F46",
"Q. c #A69B4B",
"!. c #B6934E",
"~. c #C3A04E",
"^. c #D59C66",
"/. c #D28F7C",
"(. c #C79D77",
"). c #DAA469",
"_. c #CCA774",
"`. c #D5A57A",
"'. c #E5A966",
"]. c #555E86",
"[. c #446588",
"{. c #5D658A",
"}. c #E17F84",
"|. c #938492",
" X c #BB968B",
".X c #AA97A6",
"XX c #BBAAA7",
"oX c #AAA6B4",
"OX c #B6ABBB",
"+X c #B7B6BD",
"@X c #CA9B89",
"#X c #DC9A8D",
"$X c #CC9796",
"%X c #D49997",
"&X c #C9A489",
"*X c #D9A885",
"=X c #C6AD98",
"-X c #E2A998",
";X c #CDA5AE",
":X c #D4AFA9",
">X c #C9A9B5",
",X c #D1ADB8",
"<X c #F0B7B0",
"1X c #FDDDAE",
"2X c #E9CBB6",
"3X c #FBC9BB",
"4X c #E4D0BE",
"5X c #F9D6B7",
"6X c #B5B1C0",
"7X c #C3B8CA",
"8X c #D2BBCB",
"9X c #DACEC2",
"0X c #FFCCC5",
"qX c #E9D6C9",
"wX c #F9D7C9",
"eX c #FADBD6",
"rX c #FFE9D9",
"tX c #FEF9DA",
"yX c #DEDFF5",
"uX c #E6DAEC",
"iX c #FCDEE7",
"pX c #EBEDEA",
"aX c #FBE3E4",
"sX c #FDFEE4",
"dX c #FEF3EC",
"fX c #F6F9E9",
"gX c #FEFDEC",
"hX c #EBE8F8",
"jX c #F8EAF6",
"kX c #FEEDFD",
"lX c #EBF7F6",
"zX c #EDFEFD",
"xX c #F3F5F5",
"cX c #FBF4F5",
"vX c #F2FCF5",
"bX c #FDFEF5",
"nX c #F4F4FB",
"mX c #FFF5FD",
"MX c #F5FEFE",
"NX c #FFFFFFFF",
/* pixels */
"NXNXNXNXNXNXNXNXNXNXNXNXNXNXNXNXNXNXNXNXNXNXNXNXNXNXNXNXNXMXNXNXNXNXNXNXNXNXNXNXNXNXNXNXNXNXNXNXNXNXNXNXNXNXNXNXNXNXNXNXNXNXNXNX",
"NXNXNXNXNXNXNXNXNXNXNXNXNXNXNXNXNXNXNXNXNXNXNXNXNXNXNXNXNXNXNXNXNXNXNXNXNXNXNXNXNXNXNXNXNXNXNXNXNXNXNXNXNXNXNXNXNXNXNXNXNXNXNXNX",
"NXNXNXNXNXNXNXNXNXNXNXNXNXNXNXNXNXNXNXNXNXNXNXNXNXNXNXNXNXNXNXNXNXNXNXNXNXNXNXNXNXNXNXNXNXNXNXNXNXNXNXNXNXNXNXNXNXNXNXNXNXNXNXNX",
"NXNXNXNXNXNXNXNXNXNXNXNXNXNXNXNXNXNXNXNXNXNXNXNXNXNXNXNXNXNXNXNXNXNXNXNXNXNXNXNXNXNXNXNXNXNXNXNXNXNXNXNXNXNXNXNXNXNXNXNXNXNXNXNX",
"NXNXNXNXNXNXNXNXNXNXNXNXNXNXNXNXNXNXNXNXNXNXNXNXNXNXNXNXNXNXNXNXNXNXNXNXNXNXNXNXNXNXNXNXNXNXNXNXNXNXNXNXNXNXNXNXNXNXNXNXNXNXNXNX",
"NXNXNXNXNXNXNXNXNXNXNXNXNXNXNXNXNXNXNXNXNXNXNXNXNXNXNXNXNXNXNXNXNXNXNXNXNXNXNXNXNXNXNXNXNXNXNXNXNXNXNXNXNXNXNXNXNXNXNXNXNXNXNXNX",
"NXNXNXNXNXNXNXNXNXNXNXNXNXNXNXNXNXNXNXNXNXNXNXNXNXNXNXNXNXNXNXNXNXNXNXNXNXNXNXNXNXNXNXNXNXNXNXNXNXNXNXNXNXNXNXNXNXNXNXNXNXNXNXNX",
"NXNXNXNXNXNXNXNXNXNXNXNXNXNXNXNXNXNXNXNXNXNXNXNXNXNXNXNXNXNXNXNXNXNXNXNXNXNXNXNXNXNXNXNXNXNXNXNXNXNXNXNXNXNXNXNXNXNXNXNXNXNXNXNX",
"NXNXNXNXNXNXNXNXNXNXNXNXNXNXNXNXNXNXNXNXNXNXNXNXNXNXNXNXNXNXNXNXNXNXNXNXNXNXNXNXNXNXNXNXNXNXNXNXNXNXNXNXNXNXNXNXNXNXNXNXNXNXNXNX",
"NXNXNXNXNXNXNXNXNXNXNXNXNXNXNXNXNXNXNXNXNXNXNXNXNXNXNXNXNXNXNXNXNXNXNXNXNXNXNXNXNXNXNXNXNXNXNXNXNXNXNXNXNXNXNXNXNXNXNXNXNXNXNXNX",
"NXNXNXNXNXNXNXNXNXNXNXNXNXNXNXNXNXNXNXNXNXNXNXNXNXNXU : : > : : > > > > > > > > NXNXNXNXNXNXNXNXNXNXNXNXNXNXNXNXNXNXNXNXNXNXNXNX",
"NXNXNXNXNXNXNXNXNXNXNXNXNXNXNXNXNXNXNXNXNXNXNXNXNXNX= i f u j p s p s s s p g i NXNXNXNXNXNXNXNXNXNXNXNXNXNXNXNXNXNXNXNXNXNXNXNX",
"NXNXNXNXNXNXNXNXNXNXNXNXNXNXNXNXNXNXNXNXNXNXNXNXl u r.-.n./.D.m.n.n.B.m.m.m.n./.a f i > NXNXNXNXNXNXNXNXNXNXNXNXNXNXNXNXNXNXNXNX",
"NXNXNXNXNXNXNXNXNXNXNXNXNXNXNXNXNXNXNXNXNXNXNXNXi u -.o.j.j.z.Z.A.A.v.Z.z.V.D.n.1 a j z NXNXNXNXNXNXNXNXNXNXNXNXNXNXNXNXNXNXNXNX",
"NXNXNXNXNXNXNXNXNXNXNXNXNXNXNXNXNXNXNXNXNXNXi j p.r./.C.G.V.h.x.A.c.S.z.z.V.A.M.n.N.:.;.z g NXNXNXNXNXNXNXNXNXNXNXNXNXNXNXNXNXNX",
"NXNXNXNXNXNXNXNXNXNXNXNXNXNXNXNXNXNXNXNXNXNXH j :.4.b.d.S.A.c.c.M.A.z.z.z.z.c.M.n.n.i.a.a g NXNXNXNXNXNXNXNXNXNXNXNXNXNXNXNXNXNX",
"NXNXNXNXNXNXNXNXNXNXNXNXNXNXNXNXNXNXNXNXNXNXA j B.C.J.C.J.c.g.g.A.A.V.z.z.v.x.M.m.B.N.N.x u NXNXNXNXNXNXNXNXNXNXNXNXNXNXNXNXNXNX",
"NXNXNXNXNXNXNXNXNXNXNXNXNXNXNXNXNXNXNXNXNXNXS D H.Z.J.C.C.c.c.x.j.V.V.V.k.v.x.c.j.C.H.}.y j NXNXNXNXNXNXNXNXNXNXNXNXNXNXNXNXNXNX",
"NXNXNXNXNXNXNXNXNXNXNXNXNXNXNXNXNXNXNXNXl l oX,XB.Z.C.D.F.S.v.x.S.V.V.k.v.v.x.x.S.h.C.b.i.y.l : NXNXNXNXNXNXNXNXNXNXNXNXNXNXNXNX",
"NXNXNXNXNXNXNXNXNXNXNXNXNXNXNXNXNXNXNXNX, F OX,XB.H.b.D.A.x.x.x.V.V.V.V.x.x.x.x.h.z.Z.J.7.u.k < NXNXNXNXNXNXNXNXNXNXNXNXNXNXNXNX",
"NXNXNXNXNXNXNXNXNXNXNXNXNXNXNXNXNXNXA A ! ! p.u.eX0XB.F.h.G.S.j.V.V.V.S.c.c.c.x.l.l.z.Z.7.u.h < NXNXNXNXNXNXNXNXNXNXNXNXNXNXNXNX",
"NXNXNXNXNXNXNXNXNXNXNXNXNXNXNXNXNXNXS A ^ T u.,.aXrXn.g.h.h.h.V.S.D.C.D.A.A.c.v.h.l.d.C.9.i.h , NXNXNXNXNXNXNXNXNXNXNXNXNXNXNXNX",
"NXNXNXNXNXNXNXNXNXNXNXNXNXNXNXNX< = hXhXyXmX:.r.aXaX-.O.S.G.V.G.A.A.S.D.m.A.A.c.Z.z.s.s.<.u.i l NXNXNXNXNXNXNXNXNXNXNXNXNXNXNXNX",
"NXNXNXNXNXNXNXNXNXNXNXNXNXNXNXNX< S hXnXhXhXe.r.iXeXt.o.c.c.f.f.A.b.D.D.D.D.M.A.j.h.@.@.<.0.t F NXNXNXNXNXNXNXNXNXNXNXNXNXNXNXNX",
"NXNXNXNXNXNXNXNXNXNXNXNXNXNXNXNXS P yXuXhXkX.X,Xu.i.*...o.5.s.s.X.5.3.3.3.6.3.5.X.s.X.1.6.i.s g NXNXNXNXNXNXNXNXNXNXNXNXNXNXNXNX",
"NXNXNXNXNXNXNXNXNXNXNXNXNXNXNXNX< A hXmXkXkX,X;X7.9.q.q.<.5.....O.O.1.9.3.9.2.5...X.X.X.6.,.s g NXNXNXNXNXNXNXNXNXNXNXNXNXNXNXNX",
"NXNXNXNXNXNXNXNXNXNXNXNXNXNXNXNXS F 6XoXhXiXH K q.8.3.8.2.q.t.4.o.o.5.3.9.9.9.4.6.5.5.4.-.:.a h NXNXNXNXNXNXNXNXNXNXNXNXNXNXNXNX",
"NXNXNXNXNXNXNXNXNXNXNXNXNXNXNXNXA < OX7XhXkXH K 7.s.8.8.q...4.4.o.o.5.9.9.9.9.4.4...6.q.7.,.z i NXNXNXNXNXNXNXNXNXNXNXNXNXNXNXNX",
"NXNXNXNXNXNXNXNXNXNXNXNXNXNXNXNXNXNXl , 7XOX7X>Xc / 7.q.>.7.q.9.5.o.<.9.2.q.1.1.4.q.<.0.x z p > NXNXNXNXNXNXNXNXNXNXNXNXNXNXNXNX",
"NXNXNXNXNXNXNXNXNXNXNXNXNXNXNXNXNXNXl D OX7XoX8XH #.,.i.,.:.7.7.4.-.i.i.>.0.0.0.0.7.u.u.t p d k NXNXNXNXNXNXNXNXNXNXNXNXNXNXNXNX",
"NXNXNXNXNXNXNXNXNXNXNXNXNXNXNXNXNXNXNXNXA ; H ; D j h u p f u a z h j g D D g t j u z z &.| 7 9 NXNXNXNXNXNXNXNXNXNXNXNXNXNXNXNX",
"NXNXNXNXNXNXNXNXNXNXNXNXNXNXNXNXNXNXNXNXl F , F H g F l = k p d g k g i F , l G d u p 6 =.Z r 9 NXNXNXNXNXNXNXNXNXNXNXNXNXNXNXNX",
"NXNXNXNXNXNXNXNXNXNXNXNXNXNXNXNXNXNXNXNXY R H Q o $ |.|.Q R p 6 =.| 7 7 [ [ V V [ V w.| 2 0 NXNXNXNXNXNXNXNXNXNXNXNXNXNXNXNXNXNX",
"NXNXNXNXNXNXNXNXNXNXNXNXNXNXNXNXNXNXNXNXQ E &.R . o .X.XK E a e | | 3 w ) { [ [ { [ m  .8 d NXNXNXNXNXNXNXNXNXNXNXNXNXNXNXNXNXNX",
"NXNXNXNXNXNXNXNXNXNXNXNXNXNXNXNXNXNXNXNXN c $X$XO o uXiX%X%Xe 3 @X-X_.(.r 4 V Z Z Q 8 8 . . NXNXNXNXNXNXNXNXNXNXNXNXNXNXNXNXNXNX",
"NXNXNXNXNXNXNXNXNXNXNXNXNXNXNXNXNXNXNXNXC Z -X$XO O aXaX%X#X3 r @X@X(.*X6 3 +.V W W 8 d . X NXNXNXNXNXNXNXNXNXNXNXNXNXNXNXNXNXNX",
"NXNXNXNXNXNXNXNXNXNXNXNXNXNXNXNXNXNXNXNXNX@X5X2XeX9XqXqX2X1X_._.&X@X*X`.w q ` ] } ] a 6 NXNXNXNXNXNXNXNXNXNXNXNXNXNXNXNXNXNXNXNX",
"NXNXNXNXNXNXNXNXNXNXNXNXNXNXNXNXNXNXNXNXNX@X5X5X2XqX4X4X5X1X~.`._.`.@X`.q w ] o.{ ] f z NXNXNXNXNXNXNXNXNXNXNXNXNXNXNXNXNXNXNXNX",
"NXNXNXNXNXNXNXNXNXNXNXNXNXNXNXNXNXNXNXNXNXNXW f wX3X0X5X(.`.).).'.^.3 r V Z O . O . NXNXNXNXNXNXNXNXNXNXNXNXNXNXNXNXNXNXNXNXNXNX",
"NXNXNXNXNXNXNXNXNXNXNXNXNXNXNXNXNXNXNXNXNXNXN C 3X3X3X<X-X/.`.^.'.^.7 8 W C +   # . NXNXNXNXNXNXNXNXNXNXNXNXNXNXNXNXNXNXNXNXNXNX",
"NXNXNXNXNXNXNXNXNXNXNXNXNXNXNXNXNXNXNXNXNXNXNXNX#.#.*./ c c #X-X2 4 4 0 = d W.Q.4 * NXNXNXNXNXNXNXNXNXNXNXNXNXNXNXNXNXNXNXNXNXNX",
"NXNXNXNXNXNXNXNXNXNXNXNXNXNXNXNXNXNXNXNXNXNXNXNXL ( c #.#.E :X&X5 5 5 2 f 5 L.L.b b NXNXNXNXNXNXNXNXNXNXNXNXNXNXNXNXNXNXNXNXNXNX",
"NXNXNXNXNXNXNXNXNXNXNXNXNXNXNXNXNXNXNXNXNXNXNXNXNXNXQ J ;X>X+XXX!.T.` ) R.U.Y.Y.K.L.4 d NXNXNXNXNXNXNXNXNXNXNXNXNXNXNXNXNXNXNXNX",
"NXNXNXNXNXNXNXNXNXNXNXNXNXNXNXNXNXNXNXNXNXNXNXNXNXNXJ J >X+X+X=X!.R.) ) T.I.I.I.K.E.3 d NXNXNXNXNXNXNXNXNXNXNXNXNXNXNXNXNXNXNXNX",
"NXNXNXNXNXNXNXNXNXNXNXNXNXNXNXNXNXNXNXNXNXNXNXNXl j ;.;.O   B v 9 n O + R.U.I.K.' M O @ NXNXNXNXNXNXNXNXNXNXNXNXNXNXNXNXNXNXNXNX",
"NXNXNXNXNXNXNXNXNXNXNXNXNXNXNXNXNXNXNXNXNXNXNXNXY l ;.;.. X N d v B . + P.P.Y.Y.' M & o NXNXNXNXNXNXNXNXNXNXNXNXNXNXNXNXNXNXNXNX",
"NXNXNXNXNXNXNXNXNXNXNXNXNXNXNXNXNXNXNXNXNXNXNXNXv - @ O qX4X2XwXv v   O V { ` ) U.R.+ O NXNXNXNXNXNXNXNXNXNXNXNXNXNXNXNXNXNXNXNX",
"NXNXNXNXNXNXNXNXNXNXNXNXNXNXNXNXNXNXNXNXNXNXNXNXP v .   wXwX<XwX, T   . =.V _ ) R.P.+ . NXNXNXNXNXNXNXNXNXNXNXNXNXNXNXNXNXNXNXNX",
"NXNXNXNXNXNXNXNXNXNXNXNXNXNXNXNXNXNXNXNXNXNXNXNXP > . O  X@X-X%Xk : F k + & ~.!.M W O . NXNXNXNXNXNXNXNXNXNXNXNXNXNXNXNXNXNXNXNX",
"NXNXNXNXNXNXNXNXNXNXNXNXNXNXNXNXNXNXNXNXNXNXNXNX> B   . :X%X@X Xv T S S @ O Q.Q.N Q .   NXNXNXNXNXNXNXNXNXNXNXNXNXNXNXNXNXNXNXNX",
"NXNXNXNXNXNXNXNXNXNXNXNXNXNXNXNXNXNXNXNXNXNXNXNXNXNXv v . . X # I [.[.[.$ X X X # # NXNXNXNXNXNXNXNXNXNXNXNXNXNXNXNXNXNXNXNXNXNX",
"NXNXNXNXNXNXNXNXNXNXNXNXNXNXNXNXNXNXNXNXNXNXNXNXNXNXv v O O .   ~ ~ ].{.$ $   X X # NXNXNXNXNXNXNXNXNXNXNXNXNXNXNXNXNXNXNXNXNXNX",
"NXNXNXNXNXNXNXNXNXNXNXNXNXNXNXNXNXNXNXNXNXNXNXNXNXNXX X :.$.8.$.*.>.x L % @ NXNXNXNXNXNXNXNXNXNXNXNXNXNXNXNXNXNXNXNXNXNXNXNXNXNX",
"NXNXNXNXNXNXNXNXNXNXNXNXNXNXNXNXNXNXNXNXNXNXNXNXNXNX# X &.9.$.%.4.| / x % % NXNXNXNXNXNXNXNXNXNXNXNXNXNXNXNXNXNXNXNXNXNXNXNXNXNX",
"NXNXNXNXNXNXNXNXNXNXNXNXNXNXNXNXNXNXNXNXNXNXNXNXNXNXNXNXO & & + O . . % NXNXNXNXNXNXNXNXNXNXNXNXNXNXNXNXNXNXNXNXNXNXNXNXNXNXNXNX",
"NXNXNXNXNXNXNXNXNXNXNXNXNXNXNXNXNXNXNXNXNXNXNXNXNXNXNXNX  .   . X   $ o NXNXNXNXNXNXNXNXNXNXNXNXNXNXNXNXNXNXNXNXNXNXNXNXNXNXNXNX",
"NXNXNXNXNXNXNXNXNXNXNXNXNXNXNXNXNXNXNXNXNXNXNXNXNXNXNXNXNXMXNXNXNXNXNXNXNXNXNXNXNXNXNXNXNXNXNXNXNXNXNXNXNXNXNXNXNXNXNXNXNXNXNXNX",
"NXNXNXNXNXNXNXNXNXNXNXNXNXNXNXNXNXNXNXNXNXNXNXNXNXNXNXNXNXNXNXNXNXNXNXNXNXNXNXNXNXNXNXNXNXNXNXNXNXNXNXNXNXNXNXNXNXNXNXNXNXNXNXNX",
"NXNXNXNXNXNXNXNXNXNXNXNXNXNXNXNXNXNXNXNXNXNXNXNXNXNXNXNXNXNXNXNXNXNXNXNXNXNXNXNXNXNXNXNXNXNXNXNXNXNXNXNXNXNXNXNXNXNXNXNXNXNXNXNX",
"NXNXNXNXNXNXNXNXNXNXNXNXNXNXNXNXNXNXNXNXNXNXNXNXNXNXNXNXNXNXNXNXNXNXNXNXNXNXNXNXNXNXNXNXNXNXNXNXNXNXNXNXNXNXNXNXNXNXNXNXNXNXNXNX",
"NXNXNXNXNXNXNXNXNXNXNXNXNXNXNXNXNXNXNXNXNXNXNXNXNXNXNXNXNXNXNXNXNXNXNXNXNXNXNXNXNXNXNXNXNXNXNXNXNXNXNXNXNXNXNXNXNXNXNXNXNXNXNXNX",
"NXNXNXNXNXNXNXNXNXNXNXNXNXNXNXNXNXNXNXNXNXNXNXNXNXNXNXNXNXNXNXNXNXNXNXNXNXNXNXNXNXNXNXNXNXNXNXNXNXNXNXNXNXNXNXNXNXNXNXNXNXNXNXNX",
"NXNXNXNXNXNXNXNXNXNXNXNXNXNXNXNXNXNXNXNXNXNXNXNXNXNXNXNXNXNXNXNXNXNXNXNXNXNXNXNXNXNXNXNXNXNXNXNXNXNXNXNXNXNXNXNXNXNXNXNXNXNXNXNX",
"NXNXNXNXNXNXNXNXNXNXNXNXNXNXNXNXNXNXNXNXNXNXNXNXNXNXNXNXNXNXNXNXNXNXNXNXNXNXNXNXNXNXNXNXNXNXNXNXNXNXNXNXNXNXNXNXNXNXNXNXNXNXNXNX",
"NXNXNXNXNXNXNXNXNXNXNXNXNXNXNXNXNXNXNXNXNXNXNXNXNXNXNXNXNXNXNXNXNXNXNXNXNXNXNXNXNXNXNXNXNXNXNXNXNXNXNXNXNXNXNXNXNXNXNXNXNXNXNXNX",
};
