/* XPM */
static char *result[] = {
/* columns rows colors chars-per-pixel */
"64 65 239 2 ",
"   c #030301",
".  c #0C0201",
"X  c #010900",
"o  c #06050A",
"O  c #120101",
"+  c #1C0200",
"@  c #180508",
"#  c #061401",
"$  c #040814",
"%  c #1B0016",
"&  c #210000",
"*  c #382504",
"=  c #352B2D",
"-  c #2D382A",
";  c #382A33",
":  c #353233",
">  c #393235",
",  c #3C323B",
"<  c #38363E",
"1  c #621F17",
"2  c #4D2B08",
"3  c #552A09",
"4  c #4B3407",
"5  c #553703",
"6  c #4A291B",
"7  c #572C19",
"8  c #473316",
"9  c #4D351B",
"0  c #51371E",
"q  c #632D05",
"w  c #66310B",
"e  c #642E1B",
"r  c #623919",
"t  c #471C26",
"y  c #661D26",
"u  c #492728",
"i  c #442B2C",
"p  c #4C2C2B",
"a  c #572929",
"s  c #532C2C",
"d  c #483528",
"f  c #59352A",
"g  c #472936",
"h  c #4A2C33",
"j  c #552B35",
"k  c #4A3536",
"l  c #45343C",
"z  c #563338",
"x  c #672A32",
"c  c #723232",
"v  c #374537",
"b  c #594107",
"n  c #4F431A",
"m  c #7A4F0C",
"M  c #795A15",
"N  c #52472B",
"B  c #45433A",
"V  c #794B29",
"C  c #6E4E32",
"Z  c #764B36",
"A  c #353142",
"S  c #393846",
"D  c #452C42",
"F  c #493A45",
"G  c #563746",
"H  c #55334D",
"J  c #6B3945",
"K  c #6D354D",
"L  c #753F49",
"P  c #3B4747",
"I  c #3C6264",
"U  c #484547",
"Y  c #56454C",
"T  c #494951",
"R  c #69434A",
"E  c #7A4948",
"W  c #795742",
"Q  c #705052",
"!  c #625C68",
"~  c #586473",
"^  c #606677",
"/  c #8E3236",
"(  c #833837",
")  c #8B4E10",
"_  c #8D5218",
"`  c #925417",
"'  c #826300",
"]  c #874929",
"[  c #82532A",
"{  c #8B532B",
"}  c #95502E",
"|  c #864E39",
" . c #825834",
".. c #A9493B",
"X. c #B84C3B",
"o. c #AD533D",
"O. c #B2523D",
"+. c #80643D",
"@. c #C8473B",
"#. c #883D47",
"$. c #A53A46",
"%. c #B23E4A",
"&. c #81444A",
"*. c #9A4544",
"=. c #855644",
"-. c #9A5649",
";. c #894D59",
":. c #8B5757",
">. c #9D5254",
",. c #965759",
"<. c #A94A47",
"1. c #B34E44",
"2. c #B44D4D",
"3. c #B94A48",
"4. c #AA5448",
"5. c #B35344",
"6. c #B5554B",
"7. c #A84B54",
"8. c #B94753",
"9. c #B54B52",
"0. c #A85858",
"q. c #B65756",
"w. c #856057",
"e. c #956259",
"r. c #A76050",
"t. c #8E5962",
"y. c #975961",
"u. c #A65D63",
"i. c #8E6567",
"p. c #CC544C",
"a. c #EB5C54",
"s. c #DD6A5B",
"d. c #DE7258",
"f. c #E66956",
"g. c #E56C5B",
"h. c #EC6E5E",
"j. c #F66F5A",
"k. c #F36B5D",
"l. c #E67356",
"z. c #E4735B",
"x. c #EA725B",
"c. c #DC6967",
"v. c #CA786B",
"b. c #DB746D",
"n. c #D97869",
"m. c #C87976",
"M. c #D67873",
"N. c #EB6E63",
"B. c #E86A69",
"V. c #F56863",
"C. c #E37263",
"Z. c #EA7164",
"A. c #E3716A",
"S. c #EB7868",
"D. c #F27566",
"F. c #E47373",
"G. c #F27373",
"H. c #BC9B00",
"J. c #B59319",
"K. c #B79334",
"L. c #C69A05",
"P. c #C29418",
"I. c #C8A20B",
"U. c #D09329",
"Y. c #C59537",
"T. c #C3A326",
"R. c #988F46",
"E. c #A69B4B",
"W. c #B6934E",
"Q. c #CF9642",
"!. c #C3A04E",
"~. c #D59C66",
"^. c #D28F7C",
"/. c #C79D77",
"(. c #DAA469",
"). c #CCA774",
"_. c #D5A57A",
"`. c #E5A966",
"'. c #555E86",
"]. c #446588",
"[. c #5D658A",
"{. c #E17F84",
"}. c #938492",
"|. c #BB968B",
" X c #AA97A6",
".X c #BBAAA7",
"XX c #AAA6B4",
"oX c #B6ABBB",
"OX c #B7B6BD",
"+X c #CA9B89",
"@X c #DC9A8D",
"#X c #CC9796",
"$X c #D49997",
"%X c #C9A489",
"&X c #D9A885",
"*X c #C6AD98",
"=X c #D5A299",
"-X c #E2A998",
";X c #CDA5AE",
":X c #D4AFA9",
">X c #C9A9B5",
",X c #D1ADB8",
"<X c #F0B7B0",
"1X c #E9CBB6",
"2X c #FBC9BB",
"3X c #E4D0BE",
"4X c #F9D6B7",
"5X c #B5B1C0",
"6X c #C3B8CA",
"7X c #D2BBCB",
"8X c #DACEC2",
"9X c #FFCCC5",
"0X c #E9D6C9",
"qX c #F9D7C9",
"wX c #FADBD6",
"eX c #FFE9D9",
"rX c #FEF9DA",
"tX c #DEDFF5",
"yX c #E6DAEC",
"uX c #FCDEE7",
"iX c #EBEDEA",
"pX c #FBE3E4",
"aX c #FDFEE4",
"sX c #FEF3EC",
"dX c #F6F9E9",
"fX c #FEFDEC",
"gX c #EBE8F8",
"hX c #F8EAF6",
"jX c #FEEDFD",
"kX c #EBF7F6",
"lX c #EDFEFD",
"zX c #F3F5F5",
"xX c #FBF4F5",
"cX c #F2FCF5",
"vX c #FDFEF5",
"bX c #F4F4FB",
"nX c #FFF5FD",
"mX c #F5FEFE",
"MX c #FFFFFFFF",
/* pixels */
"MXMXMXMXMXMXMXMXMXMXMXMXMXMXMXMXMXMXMXMXMXMXMXMXMXMXMXMXMXMXMXMXMXMXMXMXMXMXMXMXMXMXMXMXMXMXMXMXMXMXMXMXMXMXMXMXMXMXMXMXMXMXMXMX",
"MXMXMXMXMXMXMXMXMXMXMXMXMXMXMXMXMXMXMXMXMXMXMXMXMXMXMXMXMXMXMXMXMXMXMXMXMXMXMXMXMXMXMXMXMXMXMXMXMXMXMXMXMXMXMXMXMXMXMXMXMXMXMXMX",
"MXMXMXMXMXMXMXMXMXMXMXMXMXMXMXMXMXMXMXMXMXMXMXMXMXMXMXMXMXMXMXMXMXMXMXMXMXMXMXMXMXMXMXMXMXMXMXMXMXMXMXMXMXMXMXMXMXMXMXMXMXMXMXMX",
"MXMXMXMXMXMXMXMXMXMXMXMXMXMXMXMXMXMXMXMXMXMXMXMXMXMXMXMXMXMXMXMXMXMXMXMXMXMXMXMXMXMXMXMXMXMXMXMXMXMXMXMXMXMXMXMXMXMXMXMXMXMXMXMX",
"MXMXMXMXMXMXMXMXMXMXMXMXMXMXMXMXMXMXMXMXMXMXMXMXMXMXMXMXMXMXMXMXMXMXMXMXMXMXMXMXMXMXMXMXMXMXMXMXMXMXMXMXMXMXMXMXMXMXMXMXMXMXMXMX",
"MXMXMXMXMXMXMXMXMXMXMXMXMXMXMXMXMXMXMXMXMXMXMXMXMXMXMXMXMXMXMXMXMXMXMXMXMXMXMXMXMXMXMXMXMXMXMXMXMXMXMXMXMXMXMXMXMXMXMXMXMXMXMXMX",
"MXMXMXMXMXMXMXMXMXMXMXMXMXMXMXMXMXMXMXMXMXMXMXMXMXMXMXMXMXMXMXMXMXMXMXMXMXMXMXMXMXMXMXMXMXMXMXMXMXMXMXMXMXMXMXMXMXMXMXMXMXMXMXMX",
"MXMXMXMXMXMXMXMXMXMXMXMXMXMXMXMXMXMXMXMXMXMXMXMXMXMXMXMXMXMXMXMXMXMXMXMXMXMXMXMXMXMXMXMXMXMXMXMXMXMXMXMXMXMXMXMXMXMXMXMXMXMXMXMX",
"MXMXMXMXMXMXMXMXMXMXMXMXMXMXMXMXMXMXMXMXMXMXMXMXMXMXMXMXMXMXMXMXMXMXMXMXMXMXMXMXMXMXMXMXMXMXMXMXMXMXMXMXMXMXMXMXMXMXMXMXMXMXMXMX",
"MXMXMXMXMXMXMXMXMXMXMXMXMXMXMXMXMXMXMXMXMXMXMXMXMXMXMXMXMXMXMXMXMXMXMXMXMXMXMXMXMXMXMXMXMXMXMXMXMXMXMXMXMXMXMXMXMXMXMXMXMXMXMXMX",
"MXMXMXMXMXMXMXMXMXMXMXMXMXMXMXMXMXMXMXMXMXMXMXMXMXU = : : : > > > > > > : > ; MXMXMXMXMXMXMXMXMXMXMXMXMXMXMXMXMXMXMXMXMXMXMXMXMX",
"MXMXMXMXMXMXMXMXMXMXMXMXMXMXMXMXMXMXMXMXMXMXMXMXMXi u f u z p p p s s s s h i MXMXMXMXMXMXMXMXMXMXMXMXMXMXMXMXMXMXMXMXMXMXMXMXMX",
"MXMXMXMXMXMXMXMXMXMXMXMXMXMXMXMXMXMXMXMXMXMXMXl g w.-.^.n.b.b.M.M.n.b.b.b.m.^.a f i i MXMXMXMXMXMXMXMXMXMXMXMXMXMXMXMXMXMXMXMXMX",
"MXMXMXMXMXMXMXMXMXMXMXMXMXMXMXMXMXMXMXMXMXMXMXi u 4.X.s.h.h.N.C.n.N.k.V.N.C.v.1 a s z MXMXMXMXMXMXMXMXMXMXMXMXMXMXMXMXMXMXMXMXMX",
"MXMXMXMXMXMXMXMXMXMXMXMXMXMXMXMXMXMXMXMXMXh j e.e.M.s.D.h.s.d.z.z.h.k.k.N.C.n.v.^.;.;.z ; MXMXMXMXMXMXMXMXMXMXMXMXMXMXMXMXMXMXMX",
"MXMXMXMXMXMXMXMXMXMXMXMXMXMXMXMXMXMXMXMXMXG j :.4.c.B.Z.z.x.S.c.C.h.k.k.k.C.n.v.v.u.y.j h MXMXMXMXMXMXMXMXMXMXMXMXMXMXMXMXMXMXMX",
"MXMXMXMXMXMXMXMXMXMXMXMXMXMXMXMXMXMXMXMXMXA g M.N.G.G.D.C.d.d.z.N.h.h.k.x.z.C.n.b.m.m.y h MXMXMXMXMXMXMXMXMXMXMXMXMXMXMXMXMXMXMX",
"MXMXMXMXMXMXMXMXMXMXMXMXMXMXMXMXMXMXMXMXMXS H F.V.B.B.A.z.l.l.C.N.N.h.h.x.l.z.l.c.F.{.y j MXMXMXMXMXMXMXMXMXMXMXMXMXMXMXMXMXMXMX",
"MXMXMXMXMXMXMXMXMXMXMXMXMXMXMXMXMXMXMXl A  X,XF.V.B.A.A.Z.x.x.z.N.N.h.x.l.l.l.x.g.G.c.u.:.l : MXMXMXMXMXMXMXMXMXMXMXMXMXMXMXMXMX",
"MXMXMXMXMXMXMXMXMXMXMXMXMXMXMXMXMXMXMX> F 6X;Xm.F.c.S.z.l.l.g.Z.N.N.Z.z.x.l.l.f.k.V.G.7.y.l < MXMXMXMXMXMXMXMXMXMXMXMXMXMXMXMXMX",
"MXMXMXMXMXMXMXMXMXMXMXMXMXMXMXMXMXA A ~ ! i.y.pX9Xn.S.f.D.Z.h.N.B.N.Z.C.z.l.l.j.k.k.G.%.y.g < MXMXMXMXMXMXMXMXMXMXMXMXMXMXMXMXMX",
"MXMXMXMXMXMXMXMXMXMXMXMXMXMXMXMXMXA A ^ Y y.,.pXeXv.s.g.f.f.g.Z.A.Z.A.C.C.x.x.f.k.a.B.9.u.h , MXMXMXMXMXMXMXMXMXMXMXMXMXMXMXMXMX",
"MXMXMXMXMXMXMXMXMXMXMXMXMXMXMX< = gXgXtXnX,.e.pXsX-.O.Z.D.N.G.C.C.A.A.C.n.C.z.h.k.p.p.<.u.h l MXMXMXMXMXMXMXMXMXMXMXMXMXMXMXMXMX",
"MXMXMXMXMXMXMXMXMXMXMXMXMXMXMX: S gXbXgXgXw.:.uXwX4.o.d.C.f.s.C.C.A.A.A.A.n.C.g.a.@.@.<.,.u l MXMXMXMXMXMXMXMXMXMXMXMXMXMXMXMXMX",
"MXMXMXMXMXMXMXMXMXMXMXMXMXMXMXA P tXyXgXjX X:Xy.u.<...5.5.p.p.X.1.3.3.3.2.2.5.X.p.X.X.q.u.u l MXMXMXMXMXMXMXMXMXMXMXMXMXMXMXMXMX",
"MXMXMXMXMXMXMXMXMXMXMXMXMXMXMX< S gXjXjXjX6X;X7.8.q.q.1.5.....o.O.1.3.9.9.6.1.X.X.X.O.4.,.a k MXMXMXMXMXMXMXMXMXMXMXMXMXMXMXMXMX",
"MXMXMXMXMXMXMXMXMXMXMXMXMXMXMXA F 5XXXyXhXH K 9.3.3.8.2.4.r.4.o.O.1.3.9.9.7.4.6.o.5.4.*.>.s g MXMXMXMXMXMXMXMXMXMXMXMXMXMXMXMXMX",
"MXMXMXMXMXMXMXMXMXMXMXMXMXMXMX< A oX6XhXjXH K 7.p.8.8.q...4.-.o.O.5.9.9.9.2.2.4.4.6.q.7.,.j i MXMXMXMXMXMXMXMXMXMXMXMXMXMXMXMXMX",
"MXMXMXMXMXMXMXMXMXMXMXMXMXMXMXMXMXD g 6XoX6X>Xx / $.q.0.0.q.2.6.4.4.2.2.q.1.5.<.q.<.0.x z p d MXMXMXMXMXMXMXMXMXMXMXMXMXMXMXMXMX",
"MXMXMXMXMXMXMXMXMXMXMXMXMXMXMXMXMXl D oX6XXX7XJ #.y.,.,.;.>.7.4.-.0.u.>.0.0.0.0.>.u.t.t p d k MXMXMXMXMXMXMXMXMXMXMXMXMXMXMXMXMX",
"MXMXMXMXMXMXMXMXMXMXMXMXMXMXMXMXMXMXMX, A T ; H D h u p s a s z h j g D D g u s u z j W =.7 d MXMXMXMXMXMXMXMXMXMXMXMXMXMXMXMXMX",
"MXMXMXMXMXMXMXMXMXMXMXMXMXMXMXMXMXMXMXl F g D F D F F ; d p k u g h g D , k Y p u u u =.Z r 9 MXMXMXMXMXMXMXMXMXMXMXMXMXMXMXMXMX",
"MXMXMXMXMXMXMXMXMXMXMXMXMXMXMXMXMXMXMXY R K R o $ }.}.Q R d u | =.7 7 [ [ V V V V o.W 4 8 MXMXMXMXMXMXMXMXMXMXMXMXMXMXMXMXMXMXMX",
"MXMXMXMXMXMXMXMXMXMXMXMXMXMXMXMXMXMXMXQ Q Q R o $  X XK &.a r | | 3 e ) { { [ { V m  .n 8 MXMXMXMXMXMXMXMXMXMXMXMXMXMXMXMXMXMXMX",
"MXMXMXMXMXMXMXMXMXMXMXMXMXMXMXMXMXMXMXf c #X#XO @ yXuX$X$Xe 3 +X-X_./.r 4 V W C w.9 8 . X MXMXMXMXMXMXMXMXMXMXMXMXMXMXMXMXMXMXMX",
"MXMXMXMXMXMXMXMXMXMXMXMXMXMXMXMXMXMXMXC Z -X#X. . uXwX$X@X3 w %X+X/._.2 2 +.V =.R 8 9     MXMXMXMXMXMXMXMXMXMXMXMXMXMXMXMXMXMXMX",
"MXMXMXMXMXMXMXMXMXMXMXMXMXMXMXMXMXMXMXMX+X4X1X0X8X0X0X1X4X).).%X%X&X_.q w ] ` } ] a 6 MXMXMXMXMXMXMXMXMXMXMXMXMXMXMXMXMXMXMXMXMX",
"MXMXMXMXMXMXMXMXMXMXMXMXMXMXMXMXMXMXMXMX%X4X4X1XqX8X1X4X4X!._.)._.^._.3 w ] } } ] f z MXMXMXMXMXMXMXMXMXMXMXMXMXMXMXMXMXMXMXMXMX",
"MXMXMXMXMXMXMXMXMXMXMXMXMXMXMXMXMXMXMXMXMXW C qX2X9X4X/._.(.(.`.~.3 r V C + @ . . MXMXMXMXMXMXMXMXMXMXMXMXMXMXMXMXMXMXMXMXMXMXMX",
"MXMXMXMXMXMXMXMXMXMXMXMXMXMXMXMXMXMXMXMXMXC f 2X2X2X<X-X^.&X~.`.(.3 9 W C @ o . . MXMXMXMXMXMXMXMXMXMXMXMXMXMXMXMXMXMXMXMXMXMXMX",
"MXMXMXMXMXMXMXMXMXMXMXMXMXMXMXMXMXMXMXMXMXMXMXE #.$.( ( c @X&X2 4 4 0 = d R.E.4 * MXMXMXMXMXMXMXMXMXMXMXMXMXMXMXMXMXMXMXMXMXMXMX",
"MXMXMXMXMXMXMXMXMXMXMXMXMXMXMXMXMXMXMXMXMXMXMXE c ( #.L L -X#X5 5 2 3 0 n J.J.b b MXMXMXMXMXMXMXMXMXMXMXMXMXMXMXMXMXMXMXMXMXMXMX",
"MXMXMXMXMXMXMXMXMXMXMXMXMXMXMXMXMXMXMXMXMXMXMXMXMXE J >X;X6X*XK.U.` ) Y.P.L.I.H.J.2 d MXMXMXMXMXMXMXMXMXMXMXMXMXMXMXMXMXMXMXMXMX",
"MXMXMXMXMXMXMXMXMXMXMXMXMXMXMXMXMXMXMXMXMXMXMXMXMXJ J >XOXOX.XW.Q.) ) U.L.L.L.H.T.5 d MXMXMXMXMXMXMXMXMXMXMXMXMXMXMXMXMXMXMXMXMX",
"MXMXMXMXMXMXMXMXMXMXMXMXMXMXMXMXMXMXMXMXMXMXMXl j ;.;.. X B N n n + + K.P.I.H.' M + @ MXMXMXMXMXMXMXMXMXMXMXMXMXMXMXMXMXMXMXMXMX",
"MXMXMXMXMXMXMXMXMXMXMXMXMXMXMXMXMXMXMXMXMXMXMXY l ;.:.. . N - : v O + W.K.L.I.m M + . MXMXMXMXMXMXMXMXMXMXMXMXMXMXMXMXMXMXMXMXMX",
"MXMXMXMXMXMXMXMXMXMXMXMXMXMXMXMXMXMXMXMXMXMXMXP : @ O 3X3X1X0XP v   O V ` ` ) P.Y.+ . MXMXMXMXMXMXMXMXMXMXMXMXMXMXMXMXMXMXMXMXMX",
"MXMXMXMXMXMXMXMXMXMXMXMXMXMXMXMXMXMXMXMXMXMXMXv v . . wXqX1XqXS P o . =.V _ ) U.K.+ . MXMXMXMXMXMXMXMXMXMXMXMXMXMXMXMXMXMXMXMXMX",
"MXMXMXMXMXMXMXMXMXMXMXMXMXMXMXMXMXMXMXMXMXMXMXU : . . |.#X-X$Xd : U k O @ !.K._ +.O . MXMXMXMXMXMXMXMXMXMXMXMXMXMXMXMXMXMXMXMXMX",
"MXMXMXMXMXMXMXMXMXMXMXMXMXMXMXMXMXMXMXMXMXMXMX> B   . :X=X+X|.B T S S @ O E.E.N Q   . MXMXMXMXMXMXMXMXMXMXMXMXMXMXMXMXMXMXMXMXMX",
"MXMXMXMXMXMXMXMXMXMXMXMXMXMXMXMXMXMXMXMXMXMXMXMXMXv - . . X # I ].].].$ X # X # X MXMXMXMXMXMXMXMXMXMXMXMXMXMXMXMXMXMXMXMXMXMXMX",
"MXMXMXMXMXMXMXMXMXMXMXMXMXMXMXMXMXMXMXMXMXMXMXMXMXv v O O . X ~ ~ '.[.$ $   X X X MXMXMXMXMXMXMXMXMXMXMXMXMXMXMXMXMXMXMXMXMXMXMX",
"MXMXMXMXMXMXMXMXMXMXMXMXMXMXMXMXMXMXMXMXMXMXMXMXMXX X ,.$.9.$.*.,.c L % o MXMXMXMXMXMXMXMXMXMXMXMXMXMXMXMXMXMXMXMXMXMXMXMXMXMXMX",
"MXMXMXMXMXMXMXMXMXMXMXMXMXMXMXMXMXMXMXMXMXMXMXMXMX#   &.7.$.%.<./ c x & % MXMXMXMXMXMXMXMXMXMXMXMXMXMXMXMXMXMXMXMXMXMXMXMXMXMXMX",
"MXMXMXMXMXMXMXMXMXMXMXMXMXMXMXMXMXMXMXMXMXMXMXMXMXMXMXO & & + + O o % MXMXMXMXMXMXMXMXMXMXMXMXMXMXMXMXMXMXMXMXMXMXMXMXMXMXMXMXMX",
"MXMXMXMXMXMXMXMXMXMXMXMXMXMXMXMXMXMXMXMXMXMXMXMXMXMXMX  O   . X   o $ MXMXMXMXMXMXMXMXMXMXMXMXMXMXMXMXMXMXMXMXMXMXMXMXMXMXMXMXMX",
"MXMXMXMXMXMXMXMXMXMXMXMXMXMXMXMXMXMXMXMXMXMXMXMXMXMXMXMXMXMXMXMXMXMXMXMXMXMXMXMXMXMXMXMXMXMXMXMXMXMXMXMXMXMXMXMXMXMXMXMXMXMXMXMX",
"MXMXMXMXMXMXMXMXMXMXMXMXMXMXMXMXMXMXMXMXMXMXMXMXMXMXMXMXMXMXMXMXMXMXMXMXMXMXMXMXMXMXMXMXMXMXMXMXMXMXMXMXMXMXMXMXMXMXMXMXMXMXMXMX",
"MXMXMXMXMXMXMXMXMXMXMXMXMXMXMXMXMXMXMXMXMXMXMXMXMXMXMXMXMXMXMXMXMXMXMXMXMXMXMXMXMXMXMXMXMXMXMXMXMXMXMXMXMXMXMXMXMXMXMXMXMXMXMXMX",
"MXMXMXMXMXMXMXMXMXMXMXMXMXMXMXMXMXMXMXMXMXMXMXMXMXMXMXMXMXMXMXMXMXMXMXMXMXMXMXMXMXMXMXMXMXMXMXMXMXMXMXMXMXMXMXMXMXMXMXMXMXMXMXMX",
"MXMXMXMXMXMXMXMXMXMXMXMXMXMXMXMXMXMXMXMXMXMXMXMXMXMXMXMXMXMXMXMXMXMXMXMXMXMXMXMXMXMXMXMXMXMXMXMXMXMXMXMXMXMXMXMXMXMXMXMXMXMXMXMX",
"MXMXMXMXMXMXMXMXMXMXMXMXMXMXMXMXMXMXMXMXMXMXMXMXMXMXMXMXMXMXMXMXMXMXMXMXMXMXMXMXMXMXMXMXMXMXMXMXMXMXMXMXMXMXMXMXMXMXMXMXMXMXMXMX",
"MXMXMXMXMXMXMXMXMXMXMXMXMXMXMXMXMXMXMXMXMXMXMXMXMXMXMXMXMXMXMXMXMXMXMXMXMXMXMXMXMXMXMXMXMXMXMXMXMXMXMXMXMXMXMXMXMXMXMXMXMXMXMXMX",
"MXMXMXMXMXMXMXMXMXMXMXMXMXMXMXMXMXMXMXMXMXMXMXMXMXMXMXMXMXMXMXMXMXMXMXMXMXMXMXMXMXMXMXMXMXMXMXMXMXMXMXMXMXMXMXMXMXMXMXMXMXMXMXMX",
"MXMXMXMXMXMXMXMXMXMXMXMXMXMXMXMXMXMXMXMXMXMXMXMXMXMXMXMXMXMXMXMXMXMXMXMXMXMXMXMXMXMXMXMXMXMXMXMXMXMXMXMXMXMXMXMXMXMXMXMXMXMXMXMX",
};
