/* XPM */
static char *result[] = {
/* columns rows colors chars-per-pixel */
"64 65 244 2 ",
"   c #040201",
".  c #0C0001",
"X  c #080805",
"o  c #01010A",
"O  c #140201",
"+  c #1B0100",
"@  c #180709",
"#  c #121016",
"$  c #230500",
"%  c #300001",
"&  c #38340D",
"*  c #2E2927",
"=  c #3A292C",
"-  c #3A3828",
";  c #2F2C3C",
":  c #372B38",
">  c #3D3432",
",  c #363837",
"<  c #3B3932",
"1  c #691E1D",
"2  c #4A2E09",
"3  c #582904",
"4  c #5E340A",
"5  c #472A18",
"6  c #5A2919",
"7  c #443719",
"8  c #583615",
"9  c #613408",
"0  c #632F10",
"q  c #67371A",
"w  c #4F1D2B",
"e  c #472828",
"r  c #442B2A",
"t  c #4B2B2C",
"y  c #552927",
"u  c #47362B",
"i  c #5A3428",
"p  c #462B35",
"a  c #5B2D33",
"s  c #562A39",
"d  c #443334",
"f  c #4C3333",
"g  c #49363B",
"h  c #573336",
"j  c #662827",
"k  c #63312D",
"l  c #632D38",
"z  c #772B39",
"x  c #723339",
"c  c #354636",
"v  c #524600",
"b  c #7F560E",
"n  c #7B4C16",
"m  c #494336",
"M  c #64462B",
"N  c #784C2A",
"B  c #79522B",
"V  c #674539",
"C  c #754939",
"Z  c #6B583D",
"A  c #78533A",
"S  c #332C43",
"D  c #363A46",
"F  c #393F52",
"G  c #472B43",
"H  c #473845",
"J  c #4F324F",
"K  c #523D48",
"L  c #6F2F48",
"P  c #693648",
"I  c #693755",
"U  c #3A4746",
"Y  c #3A6759",
"T  c #3B7663",
"R  c #444445",
"E  c #574545",
"W  c #514F4E",
"Q  c #5B5E59",
"!  c #6A4A48",
"~  c #754648",
"^  c #77574B",
"/  c #6C5853",
"(  c #56516F",
")  c #68596D",
"_  c #4D6C64",
"`  c #882E3A",
"'  c #AC3D33",
"]  c #885803",
"[  c #925B01",
"{  c #844D1B",
"}  c #865011",
"|  c #83531D",
" . c #824828",
".. c #865925",
"X. c #855833",
"o. c #905032",
"O. c #A8493B",
"+. c #B7473B",
"@. c #AD513A",
"#. c #B1523E",
"$. c #896430",
"%. c #CB4B35",
"&. c #852A49",
"*. c #903651",
"=. c #A33856",
"-. c #BC3160",
";. c #854B45",
":. c #845342",
">. c #9A564A",
",. c #8C4F5A",
"<. c #994957",
"1. c #8B5654",
"2. c #985859",
"3. c #AB4A46",
"4. c #B44C43",
"5. c #BA4D42",
"6. c #B24C4A",
"7. c #B9494C",
"8. c #AB5044",
"9. c #A9544B",
"0. c #B45345",
"q. c #B95244",
"w. c #B3534B",
"e. c #BB534B",
"r. c #A74758",
"t. c #BF4A55",
"y. c #A35553",
"u. c #A85659",
"i. c #B75656",
"p. c #965162",
"a. c #A84962",
"s. c #B54362",
"d. c #A55963",
"f. c #B85F63",
"g. c #A2626C",
"h. c #C9564E",
"j. c #C85759",
"k. c #CD695A",
"l. c #DB6C59",
"z. c #DE755D",
"x. c #E56A57",
"c. c #E36C5E",
"v. c #EB6E5E",
"b. c #F16C5F",
"n. c #E97057",
"m. c #E5725E",
"M. c #EA715D",
"N. c #CF6868",
"B. c #DB6B63",
"V. c #DD7364",
"C. c #DC726C",
"Z. c #D77969",
"A. c #C97876",
"S. c #D97974",
"D. c #E66B65",
"F. c #EC6E62",
"G. c #E47262",
"H. c #EA7263",
"J. c #E4746B",
"K. c #E8796B",
"L. c #F3736E",
"P. c #E57874",
"I. c #BB9112",
"U. c #B8A613",
"Y. c #988820",
"T. c #B59638",
"R. c #A6A037",
"E. c #C89603",
"W. c #CC9400",
"Q. c #C89617",
"!. c #CC9824",
"~. c #B99743",
"^. c #B9A64A",
"/. c #CB9E4D",
"(. c #C99A78",
"). c #DB9477",
"_. c #E89178",
"`. c #D8A276",
"'. c #E3A07D",
"]. c #636A82",
"[. c #C87D82",
"{. c #B38E8B",
"}. c #BEAB8E",
"|. c #9993A4",
" X c #A397A2",
".X c #B6AFAB",
"XX c #B7A7B7",
"oX c #C99988",
"OX c #D79C86",
"+X c #D39D96",
"@X c #E59F83",
"#X c #CEA485",
"$X c #C6A68A",
"%X c #D6A789",
"&X c #C9A696",
"*X c #D8A99B",
"=X c #CDB799",
"-X c #CC9DB5",
";X c #C8AABB",
":X c #D0B2B0",
">X c #B0C0B8",
",X c #DFD2B9",
"<X c #EBC7B7",
"1X c #F8CBBC",
"2X c #E5D7B7",
"3X c #F4D1B0",
"4X c #F9E1BD",
"5X c #B9AFCA",
"6X c #CCB8D3",
"7X c #DFDECB",
"8X c #FECDC3",
"9X c #E9D7C2",
"0X c #FDD1C4",
"qX c #FAD8D4",
"wX c #EDE6D6",
"eX c #FEF8DC",
"rX c #E4D8EC",
"tX c #FEDFE1",
"yX c #EEDCF8",
"uX c #DBE9EC",
"iX c #DEE8FF",
"pX c #E6EBE5",
"aX c #FAE5E5",
"sX c #FFEBEC",
"dX c #E9F7EC",
"fX c #FEF2ED",
"gX c #F5FBE9",
"hX c #FEFCEC",
"jX c #EDECF5",
"kX c #F4EBF5",
"lX c #FEEEF4",
"zX c #F4E3FC",
"xX c #FDEDFF",
"cX c #EBF7F7",
"vX c #EDFEF3",
"bX c #EEFEFC",
"nX c #F4F5F2",
"mX c #FCF4F4",
"MX c #F6FDF5",
"NX c #FDFDF5",
"BX c #F5F4FD",
"VX c #FEF5FD",
"CX c #F5FEFD",
"ZX c #FFFFFEFF",
/* pixels */
"ZXZXZXZXZXZXZXZXZXZXZXZXZXZXZXZXZXZXZXZXZXZXZXZXZXZXZXZXZXZXZXZXZXZXZXZXZXZXZXZXZXZXZXZXZXZXZXZXZXZXZXZXZXZXZXZXZXZXZXZXZXZXZXZX",
"ZXZXZXZXZXZXZXZXZXZXZXZXZXZXZXZXZXZXZXZXZXZXZXZXZXZXZXZXZXZXZXZXZXZXZXZXZXZXZXZXZXZXZXZXZXZXZXZXZXZXZXZXZXZXZXZXZXZXZXZXZXZXZXZX",
"ZXZXZXZXZXZXZXZXZXZXZXZXZXZXZXZXZXZXZXZXZXZXZXZXZXZXZXZXZXZXZXZXZXZXZXZXZXZXZXZXZXZXZXZXZXZXZXZXZXZXZXZXZXZXZXZXZXZXZXZXZXZXZXZX",
"ZXZXZXZXZXZXZXZXZXZXZXZXZXZXZXZXZXZXZXZXZXZXZXZXZXZXZXZXZXZXZXZXZXZXZXZXZXZXZXZXZXZXZXZXZXZXZXZXZXZXZXZXZXZXZXZXZXZXZXZXZXZXZXZX",
"ZXZXZXZXZXZXZXZXZXZXZXZXZXZXZXZXZXZXZXZXZXZXZXZXZXZXZXZXZXZXZXZXZXZXZXZXZXZXZXZXZXZXZXZXZXZXZXZXZXZXZXZXZXZXZXZXZXZXZXZXZXZXZXZX",
"ZXZXZXZXZXZXZXZXZXZXZXZXZXZXZXZXZXZXZXZXZXZXZXZXZXZXZXZXZXZXZXZXZXZXZXZXZXZXZXZXZXZXZXZXZXZXZXZXZXZXZXZXZXZXZXZXZXZXZXZXZXZXZXZX",
"ZXZXZXZXZXZXZXZXZXZXZXZXZXZXZXZXZXZXZXZXZXZXZXZXZXZXZXZXZXZXZXZXZXZXZXZXZXZXZXZXZXZXZXZXZXZXZXZXZXZXZXZXZXZXZXZXZXZXZXZXZXZXZXZX",
"ZXZXZXZXZXZXZXZXZXZXZXZXZXZXZXZXZXZXZXZXZXZXZXZXZXZXZXZXZXZXZXZXZXZXZXZXZXZXZXZXZXZXZXZXZXZXZXZXZXZXZXZXZXZXZXZXZXZXZXZXZXZXZXZX",
"ZXZXZXZXZXZXZXZXZXZXZXZXZXZXZXZXZXZXZXZXZXZXZXZXZXZXZXZXZXZXZXZXZXZXZXZXZXZXZXZXZXZXZXZXZXZXZXZXZXZXZXZXZXZXZXZXZXZXZXZXZXZXZXZX",
"ZXZXZXZXZXZXZXZXZXZXZXZXZXZXZXZXZXZXZXZXZXZXZXZXZXZXZXZXZXZXZXZXZXZXZXZXZXZXZXZXZXZXZXZXZXZXZXZXZXZXZXZXZXZXZXZXZXZXZXZXZXZXZXZX",
"ZXZXZXZXZXZXZXZXZXZXZXZXZXZXZXZXZXZXZXZXZXZXZXZX< < - < < u d d t e t p p = ZXZXZXZXZXZXZXZXZXZXZXZXZXZXZXZXZXZXZXZXZXZXZXZXZXZX",
"ZXZXZXZXZXZXZXZXZXZXZXZXZXZXZXZXZXZXZXZXZXZXZXZXu t e i y y 6 y j 6 j k e ! ZXZXZXZXZXZXZXZXZXZXZXZXZXZXZXZXZXZXZXZXZXZXZXZXZXZX",
"ZXZXZXZXZXZXZXZXZXZXZXZXZXZXZXZXZXZXZXZXH r e a {.A.A.A.S.C.C.C.C.A.A.A.;.1.e g ZXZXZXZXZXZXZXZXZXZXZXZXZXZXZXZXZXZXZXZXZXZXZXZX",
"ZXZXZXZXZXZXZXZXZXZXZXZXZXZXZXZXZXZXZXZXw l j 1 A.C.P.J.D.F.F.L.L.l.J.S.9.d.j y ZXZXZXZXZXZXZXZXZXZXZXZXZXZXZXZXZXZXZXZXZXZXZXZX",
"ZXZXZXZXZXZXZXZXZXZXZXZXZXZXZXZXZXZXg y y.3.C.K.Z.V.D.F.F.F.H.G.H.H.c.m.Z.P.w.d.s : ZXZXZXZXZXZXZXZXZXZXZXZXZXZXZXZXZXZXZXZXZXZX",
"ZXZXZXZXZXZXZXZXZXZXZXZXZXZXZXZXZXZX= k 7.h.H.l.z.z.F.b.F.v.m.G.G.H.M.m.m.l.O.3.a w ZXZXZXZXZXZXZXZXZXZXZXZXZXZXZXZXZXZXZXZXZXZX",
"ZXZXZXZXZXZXZXZXZXZXZXZXZXZXZXZXZXZXe j N.D.D.H.m.m.M.v.v.F.m.G.v.m.n.n.P.L.J.[.l G ZXZXZXZXZXZXZXZXZXZXZXZXZXZXZXZXZXZXZXZXZXZX",
"ZXZXZXZXZXZXZXZXZXZXZXZXZXZXZXZXZXZXa j P.P.v.H.m.m.M.M.v.F.m.G.H.H.n.x.D.C.l.A.s : ZXZXZXZXZXZXZXZXZXZXZXZXZXZXZXZXZXZXZXZXZXZX",
"ZXZXZXZXZXZXZXZXZXZXZXZXZXZXZXZX, g ,.u.C.c.F.v.M.v.M.v.F.F.m.m.c.v.M.K.P.C.P.A.:XXXK p ZXZXZXZXZXZXZXZXZXZXZXZXZXZXZXZXZXZXZXZX",
"ZXZXZXZXZXZXZXZXZXZXZXZXZXZXZXZX, = d.6.C.J.H.c.v.v.v.m.M.F.M.G.v.D.H.c.z.k.S.[.:X6X: ; ZXZXZXZXZXZXZXZXZXZXZXZXZXZXZXZXZXZXZXZX",
"ZXZXZXZXZXZXZXZXZXZXZXZXZXZXZXZX> f u.=.P.J.c.L.b.b.H.G.M.v.m.G.c.G.D.F.n._.1XtX<.p.) ].D * ZXZXZXZXZXZXZXZXZXZXZXZXZXZXZXZXZXZX",
"ZXZXZXZXZXZXZXZXZXZXZXZXZXZXZXZX< e r.j.N.J.G.x.b.b.G.G.G.F.G.m.m.G.L.D.x._.0XsX>.d.( ]., , ZXZXZXZXZXZXZXZXZXZXZXZXZXZXZXZXZXZX",
"ZXZXZXZXZXZXZXZXZXZXZXZXZXZXZXZX= h r.t.e.5.l.H.F.F.G.V.G.H.G.G.B.L.D.L.%.@.aXaXp.,.zXiXuXpXH p ZXZXZXZXZXZXZXZXZXZXZXZXZXZXZXZX",
"ZXZXZXZXZXZXZXZXZXZXZXZXZXZXZXZX< h <.7.7.5.G.J.H.D.V.V.G.D.G.G.P.P.D.D.+.0.qXlXp.g.yXiXjXkX: H ZXZXZXZXZXZXZXZXZXZXZXZXZXZXZXZX",
"ZXZXZXZXZXZXZXZXZXZXZXZXZXZXZXZX> t d.j.7.4.5.+.5.5.#.5.5.5.5.5.' ' +.h.0.O.f.,.;XXXzXlXrXrXH ; ZXZXZXZXZXZXZXZXZXZXZXZXZXZXZXZX",
"ZXZXZXZXZXZXZXZXZXZXZXZXZXZXZXZX> e 2.u.O.7.5.5.5.0.4.4.5.5.5.4.j.e.@.O.9.9.6.<.6X5XzXyXzXzX, R ZXZXZXZXZXZXZXZXZXZXZXZXZXZXZXZX",
"ZXZXZXZXZXZXZXZXZXZXZXZXZXZXZXZXd e 2.2.4.h.q.e.8.8.6.4.4.4.0.8.O.4.0.#.i.i.3.f.I I zXzX5X5X; : ZXZXZXZXZXZXZXZXZXZXZXZXZXZXZXZX",
"ZXZXZXZXZXZXZXZXZXZXZXZXZXZXZXZXd d 1.2.i.7.O.O.9.9.w.w.e.e.0.0.6.0.@.@.3.i.o.d.I J aXrX5X6X; R ZXZXZXZXZXZXZXZXZXZXZXZXZXZXZXZX",
"ZXZXZXZXZXZXZXZXZXZXZXZXZXZXZXZX> r i k 3.7.e.i.>.>.6.6.6.w.8.8.w.w.O.3.6.i.` z -X6X6X6XJ ; ZXZXZXZXZXZXZXZXZXZXZXZXZXZXZXZXZXZX",
"ZXZXZXZXZXZXZXZXZXZXZXZXZXZXZXZXr u 7 i y.9.3.<.1.2.2.u.y.y.y.y.>.y.>.d.2.d.z z 6X;X-XXXF S ZXZXZXZXZXZXZXZXZXZXZXZXZXZXZXZXZXZX",
"ZXZXZXZXZXZXZXZXZXZXZXZXZXZXZXZX& 7 Z Z i y s G g G G G h e a r u = L w J G G H p g g r ZXZXZXZXZXZXZXZXZXZXZXZXZXZXZXZXZXZXZXZX",
"ZXZXZXZXZXZXZXZXZXZXZXZXZXZXZXZXm & Z ^ 5 y t p H K S d d e t i - > w G G S W D G p t r ZXZXZXZXZXZXZXZXZXZXZXZXZXZXZXZXZXZXZXZX",
"ZXZXZXZXZXZXZXZXZXZXZXZXZXZXZXZXZXZXt i :. .o.o.X.N B X.3 6 X.A 7 u ~ P  X|.o   E ! ~ ! ZXZXZXZXZXZXZXZXZXZXZXZXZXZXZXZXZXZXZXZX",
"ZXZXZXZXZXZXZXZXZXZXZXZXZXZXZXZXZXZXs y o. .o.{ o.{ | | 3 0 X.B 8 5 ! !  X X. . ! / P ! ZXZXZXZXZXZXZXZXZXZXZXZXZXZXZXZXZXZXZXZX",
"ZXZXZXZXZXZXZXZXZXZXZXZXZXZXZXZXZXZXO O i k  .| { | 9 0 (.(.(.%X4 q oX&XwXwXO O &XoXC V ZXZXZXZXZXZXZXZXZXZXZXZXZXZXZXZXZXZXZXZX",
"ZXZXZXZXZXZXZXZXZXZXZXZXZXZXZXZXZXZX  O 5 2 X.X.| ..4 2 %X%XoX#X3 0 OXoXeXwXO $ &X&XX.~ ZXZXZXZXZXZXZXZXZXZXZXZXZXZXZXZXZXZXZXZX",
"ZXZXZXZXZXZXZXZXZXZXZXZXZXZXZXZXZXZXZXZXu 8 A B | n 3 0 (.OX+XOX'.`.3X3X2X2X0X8X<X0XoXZXZXZXZXZXZXZXZXZXZXZXZXZXZXZXZXZXZXZXZXZX",
"ZXZXZXZXZXZXZXZXZXZXZXZXZXZXZXZXZXZXZXZX* r ^ ^ B $.3 6 +X*X(.'._._.3X3X2X2X1X8X0X1X*XZXZXZXZXZXZXZXZXZXZXZXZXZXZXZXZXZXZXZXZXZX",
"ZXZXZXZXZXZXZXZXZXZXZXZXZXZXZXZXZXZXZXZXZXZX. X + + A C z w `.`.'.).#X}.4X<X0X1XC C ZXZXZXZXZXZXZXZXZXZXZXZXZXZXZXZXZXZXZXZXZXZX",
"ZXZXZXZXZXZXZXZXZXZXZXZXZXZXZXZXZXZXZXZXZXZX. O O $ A A y 6 (.`.@X'.$X=X<X8X8X8XV ! ZXZXZXZXZXZXZXZXZXZXZXZXZXZXZXZXZXZXZXZXZXZX",
"ZXZXZXZXZXZXZXZXZXZXZXZXZXZXZXZXZXZXZXZXZXZX- & R.Y.4 6 4 6 4 3 OX+XV m C ;.k ! ZXZXZXZXZXZXZXZXZXZXZXZXZXZXZXZXZXZXZXZXZXZXZXZX",
"ZXZXZXZXZXZXZXZXZXZXZXZXZXZXZXZXZXZXZXZXZXZX2 v U.U.v 3 9 9 3 4 &X&XZ ! ~ ` ;.P ZXZXZXZXZXZXZXZXZXZXZXZXZXZXZXZXZXZXZXZXZXZXZXZX",
"ZXZXZXZXZXZXZXZXZXZXZXZXZXZXZXZXZXZXZXZXu 8 ~.U.I.E.E.!.} n T.T.=X.X.X.Xz ` ZXZXZXZXZXZXZXZXZXZXZXZXZXZXZXZXZXZXZXZXZXZXZXZXZXZX",
"ZXZXZXZXZXZXZXZXZXZXZXZXZXZXZXZXZXZXZXZX5 8 T.!.W.W.W.!.{ N ^.R.}..X>X.X` &.ZXZXZXZXZXZXZXZXZXZXZXZXZXZXZXZXZXZXZXZXZXZXZXZXZXZX",
"ZXZXZXZXZXZXZXZXZXZXZXZXZXZXZXZXZXZXZXZXO + ..] E.Q.[ n $ O 7 c R U U R a.=.P - ZXZXZXZXZXZXZXZXZXZXZXZXZXZXZXZXZXZXZXZXZXZXZXZX",
"ZXZXZXZXZXZXZXZXZXZXZXZXZXZXZXZXZXZXZXZX  O n ] Q.I...^ . o U , U D R s =.-.d R ZXZXZXZXZXZXZXZXZXZXZXZXZXZXZXZXZXZXZXZXZXZXZXZX",
"ZXZXZXZXZXZXZXZXZXZXZXZXZXZXZXZXZXZXZXZXo . T.Q.] b @ X H R , R o o L &.-.s.g c ZXZXZXZXZXZXZXZXZXZXZXZXZXZXZXZXZXZXZXZXZXZXZXZX",
"ZXZXZXZXZXZXZXZXZXZXZXZXZXZXZXZXZXZXZXZXo o ~.Q.[ ] . X , R d > o . I &.=.p.d , ZXZXZXZXZXZXZXZXZXZXZXZXZXZXZXZXZXZXZXZXZXZXZXZX",
"ZXZXZXZXZXZXZXZXZXZXZXZXZXZXZXZXZXZXZXZXo   $.] Q.^.@   7X,X9XaX. o _ Q Q ) ! / ZXZXZXZXZXZXZXZXZXZXZXZXZXZXZXZXZXZXZXZXZXZXZXZX",
"ZXZXZXZXZXZXZXZXZXZXZXZXZXZXZXZXZXZXZXZXX X M N /.>.X X 9X0X1X<X@ X Y T Y Q ~ P ZXZXZXZXZXZXZXZXZXZXZXZXZXZXZXZXZXZXZXZXZXZXZXZX",
"ZXZXZXZXZXZXZXZXZXZXZXZXZXZXZXZXZXZXZXZXU D O + + $ . . =X(.OX*X  o _ T U E <.<.h W ZXZXZXZXZXZXZXZXZXZXZXZXZXZXZXZXZXZXZXZXZXZX",
"ZXZXZXZXZXZXZXZXZXZXZXZXZXZXZXZXZXZXZXZXD U . + + O @ . =X#X(.$X    Q Q d a =.r.t < ZXZXZXZXZXZXZXZXZXZXZXZXZXZXZXZXZXZXZXZXZXZX",
"ZXZXZXZXZXZXZXZXZXZXZXZXZXZXZXZXZXZXZXZXF J l z *.P d -   . + X E f ,.a.r.a.s.=.+ . ZXZXZXZXZXZXZXZXZXZXZXZXZXZXZXZXZXZXZXZXZXZX",
"ZXZXZXZXZXZXZXZXZXZXZXZXZXZXZXZXZXZXZXZXF F ~ x L I g m     X   c t <.r.=.=.s.<.O @ ZXZXZXZXZXZXZXZXZXZXZXZXZXZXZXZXZXZXZXZXZXZX",
"ZXZXZXZXZXZXZXZXZXZXZXZXZXZXZXZXZXZXZXZXZXZX. @ @ . ZXZXZXZXZXZXZXZX$ % + + + O ZXZXZXZXZXZXZXZXZXZXZXZXZXZXZXZXZXZXZXZXZXZXZXZX",
"ZXZXZXZXZXZXZXZXZXZXZXZXZXZXZXZXZXZXZXZXZXZX# . o # ZXZXZXZXZXZXZXZX@ O .   X   ZXZXZXZXZXZXZXZXZXZXZXZXZXZXZXZXZXZXZXZXZXZXZXZX",
"ZXZXZXZXZXZXZXZXZXZXZXZXZXZXZXZXZXZXZXZXZXZXZXZXZXZXZXZXZXZXZXZXZXZXZXZXZXZXZXZXZXZXZXZXZXZXZXZXZXZXZXZXZXZXZXZXZXZXZXZXZXZXZXZX",
"ZXZXZXZXZXZXZXZXZXZXZXZXZXZXZXZXZXZXZXZXZXZXZXZXZXZXZXZXZXZXZXZXZXZXZXZXZXZXZXZXZXZXZXZXZXZXZXZXZXZXZXZXZXZXZXZXZXZXZXZXZXZXZXZX",
"ZXZXZXZXZXZXZXZXZXZXZXZXZXZXZXZXZXZXZXZXZXZXZXZXZXZXZXZXZXZXZXZXZXZXZXZXZXZXZXZXZXZXZXZXZXZXZXZXZXZXZXZXZXZXZXZXZXZXZXZXZXZXZXZX",
"ZXZXZXZXZXZXZXZXZXZXZXZXZXZXZXZXZXZXZXZXZXZXZXZXZXZXZXZXZXZXZXZXZXZXZXZXZXZXZXZXZXZXZXZXZXZXZXZXZXZXZXZXZXZXZXZXZXZXZXZXZXZXZXZX",
"ZXZXZXZXZXZXZXZXZXZXZXZXZXZXZXZXZXZXZXZXZXZXZXZXZXZXZXZXZXZXZXZXZXZXZXZXZXZXZXZXZXZXZXZXZXZXZXZXZXZXZXZXZXZXZXZXZXZXZXZXZXZXZXZX",
"ZXZXZXZXZXZXZXZXZXZXZXZXZXZXZXZXZXZXZXZXZXZXZXZXZXZXZXZXZXZXZXZXZXZXZXZXZXZXZXZXZXZXZXZXZXZXZXZXZXZXZXZXZXZXZXZXZXZXZXZXZXZXZXZX",
"ZXZXZXZXZXZXZXZXZXZXZXZXZXZXZXZXZXZXZXZXZXZXZXZXZXZXZXZXZXZXZXZXZXZXZXZXZXZXZXZXZXZXZXZXZXZXZXZXZXZXZXZXZXZXZXZXZXZXZXZXZXZXZXZX",
"ZXZXZXZXZXZXZXZXZXZXZXZXZXZXZXZXZXZXZXZXZXZXZXZXZXZXZXZXZXZXZXZXZXZXZXZXZXZXZXZXZXZXZXZXZXZXZXZXZXZXZXZXZXZXZXZXZXZXZXZXZXZXZXZX",
"ZXZXZXZXZXZXZXZXZXZXZXZXZXZXZXZXZXZXZXZXZXZXZXZXZXZXZXZXZXZXZXZXZXZXZXZXZXZXZXZXZXZXZXZXZXZXZXZXZXZXZXZXZXZXZXZXZXZXZXZXZXZXZXZX",
};
