/* XPM */
static char *_f5f4b280cac4bc0f7f31973e888a2e2d1soLOqUZLpquzzF[] = {
/* columns rows colors chars-per-pixel */
"64 65 236 2 ",
"   c #030301",
".  c #0C0201",
"X  c #010900",
"o  c #06050A",
"O  c #120101",
"+  c #1C0200",
"@  c #180508",
"#  c #061401",
"$  c #040814",
"%  c #1B0016",
"&  c #210000",
"*  c #382504",
"=  c #322F2C",
"-  c #382A33",
";  c #353233",
":  c #393235",
">  c #3C323B",
",  c #38363E",
"<  c #621F17",
"1  c #4D2B08",
"2  c #552A09",
"3  c #4B3407",
"4  c #553703",
"5  c #4A291B",
"6  c #572C19",
"7  c #473316",
"8  c #4D351B",
"9  c #51371E",
"0  c #632D05",
"q  c #653010",
"w  c #623919",
"e  c #471C26",
"r  c #661D26",
"t  c #492728",
"y  c #442B2C",
"u  c #4C2C2B",
"i  c #572929",
"p  c #532C2C",
"a  c #483528",
"s  c #59352A",
"d  c #472936",
"f  c #4A2C33",
"g  c #552B35",
"h  c #4A3536",
"j  c #45343C",
"k  c #563338",
"l  c #672A32",
"z  c #723232",
"x  c #374537",
"c  c #594107",
"v  c #4F431A",
"b  c #795A15",
"n  c #52472B",
"m  c #45433A",
"M  c #794B29",
"N  c #6E4E32",
"B  c #764B36",
"V  c #353142",
"C  c #393846",
"Z  c #4D2F47",
"A  c #493A45",
"S  c #563746",
"D  c #6B3945",
"F  c #6D354D",
"G  c #753F49",
"H  c #3B4747",
"J  c #3C6264",
"K  c #484547",
"L  c #56454C",
"P  c #494951",
"I  c #69434A",
"U  c #7A4948",
"Y  c #795742",
"T  c #705052",
"R  c #615F6D",
"E  c #586473",
"W  c #8E3236",
"Q  c #833837",
"!  c #8B4F12",
"~  c #925417",
"^  c #826300",
"/  c #874929",
"(  c #82532A",
")  c #8B532B",
"_  c #95502E",
"`  c #864E39",
"'  c #825834",
"]  c #A9493B",
"[  c #B84C3B",
"{  c #AD533D",
"}  c #B2523D",
"|  c #80643D",
" . c #C8473B",
".. c #883D47",
"X. c #A53A46",
"o. c #81444A",
"O. c #9A4544",
"+. c #855644",
"@. c #9A5649",
"#. c #894D59",
"$. c #8B5757",
"%. c #9D5254",
"&. c #965759",
"*. c #A94A47",
"=. c #B34E44",
"-. c #B44D4D",
";. c #B94A48",
":. c #AA5448",
">. c #B35344",
",. c #B5554B",
"<. c #A84B54",
"1. c #B94753",
"2. c #B54B52",
"3. c #A85858",
"4. c #B65756",
"5. c #996443",
"6. c #856057",
"7. c #956259",
"8. c #A76050",
"9. c #8E5962",
"0. c #975961",
"q. c #A65D63",
"w. c #8E6567",
"e. c #A56064",
"r. c #CC544C",
"t. c #EB5C54",
"y. c #DD6A5B",
"u. c #DE7258",
"i. c #E66956",
"p. c #E56C5B",
"a. c #EC6E5E",
"s. c #F66F5A",
"d. c #F36B5D",
"f. c #E67356",
"g. c #E4735B",
"h. c #EA725B",
"j. c #DC6967",
"k. c #CA786B",
"l. c #DB746D",
"z. c #D97869",
"x. c #C87976",
"c. c #D67873",
"v. c #EB6E63",
"b. c #E86A69",
"n. c #F56863",
"m. c #E37263",
"M. c #EA7164",
"N. c #E3716A",
"B. c #EB7868",
"V. c #F27566",
"C. c #E47373",
"Z. c #F27373",
"A. c #BC9B00",
"S. c #B59319",
"D. c #B79334",
"F. c #C69A05",
"G. c #C29418",
"H. c #C8A20B",
"J. c #D09329",
"K. c #C59537",
"L. c #C3A326",
"P. c #988F46",
"I. c #A69B4B",
"U. c #B6934E",
"Y. c #D4A55A",
"T. c #D59C66",
"R. c #D28F7C",
"E. c #C79D77",
"W. c #DAA469",
"Q. c #CCA774",
"!. c #D5A57A",
"~. c #555E86",
"^. c #446588",
"/. c #5D658A",
"(. c #E17F84",
"). c #938492",
"_. c #BB968B",
"`. c #AA97A6",
"'. c #BBAAA7",
"]. c #AAA6B4",
"[. c #B6ABBB",
"{. c #B7B6BD",
"}. c #CA9B89",
"|. c #DC9A8D",
" X c #CC9796",
".X c #D49997",
"XX c #C9A489",
"oX c #D9A885",
"OX c #C6AD98",
"+X c #D5A299",
"@X c #E2A998",
"#X c #D1ABAA",
"$X c #C9A9B5",
"%X c #D1ADB8",
"&X c #C2B2BD",
"*X c #F0B7B0",
"=X c #FDDDAE",
"-X c #E9CBB6",
";X c #FBC9BB",
":X c #E4D0BE",
">X c #F9D6B7",
",X c #B5B1C0",
"<X c #C3B8CA",
"1X c #D2BBCB",
"2X c #DACEC2",
"3X c #E9D6C9",
"4X c #F9D7C9",
"5X c #FBD6D0",
"6X c #FFE9D9",
"7X c #FEF9DA",
"8X c #DEDFF5",
"9X c #E6DAEC",
"0X c #FCDEE7",
"qX c #EBEDEA",
"wX c #FBE3E4",
"eX c #FDFEE4",
"rX c #FEF3EC",
"tX c #F6F9E9",
"yX c #FEFDEC",
"uX c #EBE8F8",
"iX c #F8EAF6",
"pX c #FEEDFD",
"aX c #EBF7F6",
"sX c #EDFEFD",
"dX c #F3F5F5",
"fX c #FBF4F5",
"gX c #F2FCF5",
"hX c #FDFEF5",
"jX c #F4F4FB",
"kX c #FFF5FD",
"lX c #F5FEFE",
"zX c #FFFBFE",
"xX c #FDFDFD",
"cX c #FFFFFD",
"vX c #FDFFFF",
"bX c #FFFFFFFF",
/* pixels */
"bXbXbXbXbXbXbXbXbXbXbXbXbXbXbXbXbXbXbXbXbXbXbXbXbXbXbXbXbXbXbXbXbXbXbXbXbXbXbXbXbXbXbXbXbXbXbXbXbXbXbXbXbXbXbXbXbXbXbXbXbXbXbXbX",
"bXbXbXbXbXbXbXbXbXbXbXbXbXbXbXbXbXbXbXbXbXbXbXbXbXbXbXbXbXbXbXbXbXbXbXbXbXbXbXbXbXbXbXbXbXbXbXbXbXbXbXbXbXbXbXbXbXbXbXbXbXbXbXbX",
"bXbXbXbXbXbXbXbXbXbXbXbXbXbXbXbXbXbXbXbXbXbXbXbXbXbXbXbXbXbXbXbXbXbXbXbXbXbXbXbXbXbXbXbXbXbXbXbXbXbXbXbXbXbXbXbXbXbXbXbXbXbXbXbX",
"bXbXbXbXbXbXbXbXbXbXbXbXbXbXbXbXbXbXbXbXbXbXbXbXbXbXbXbXbXbXbXbXbXbXbXbXbXbXbXbXbXbXbXbXbXbXbXbXbXbXbXbXbXbXbXbXbXbXbXbXbXbXbXbX",
"bXbXbXbXbXbXbXbXbXbXbXbXbXbXbXbXbXbXbXbXbXbXbXbXbXbXbXbXbXbXbXbXbXbXbXbXbXbXbXbXbXbXbXbXbXbXbXbXbXbXbXbXbXbXbXbXbXbXbXbXbXbXbXbX",
"bXbXbXbXbXbXbXbXbXbXbXbXbXbXbXbXbXbXbXbXbXbXbXbXbXbXbXbXbXbXbXbXbXbXbXbXbXbXbXbXbXbXbXbXbXbXbXbXbXbXbXbXbXbXbXbXbXbXbXbXbXbXbXbX",
"bXbXbXbXbXbXbXbXbXbXbXbXbXbXbXbXbXbXbXbXbXbXbXbXbXbXbXbXbXbXbXbXbXbXbXbXbXbXbXbXbXbXbXbXbXbXbXbXbXbXbXbXbXbXbXbXbXbXbXbXbXbXbXbX",
"bXbXbXbXbXbXbXbXbXbXbXbXbXbXbXbXbXbXbXbXbXbXbXbXbXbXbXbXbXbXbXbXbXbXbXbXbXbXbXbXbXbXbXbXbXbXbXbXbXbXbXbXbXbXbXbXbXbXbXbXbXbXbXbX",
"bXbXbXbXbXbXbXbXbXbXbXbXbXbXbXbXbXbXbXbXbXbXbXbXbXbXbXbXbXbXbXbXbXbXbXbXbXbXbXbXbXbXbXbXbXbXbXbXbXbXbXbXbXbXbXbXbXbXbXbXbXbXbXbX",
"bXbXbXbXbXbXbXbXbXbXbXbXbXbXbXbXbXbXbXbXbXbXbXbXbXbXbXbXbXbXbXbXbXbXbXbXbXbXbXbXbXbXbXbXbXbXbXbXbXbXbXbXbXbXbXbXbXbXbXbXbXbXbXbX",
"bXbXbXbXbXbXbXbXbXbXbXbXbXbXbXbXbXbXbXbXbXbXbXbXbX: : : : : : : : ; ; ; : ; K bXbXbXbXbXbXbXbXbXbXbXbXbXbXbXbXbXbXbXbXbXbXbXbXbX",
"bXbXbXbXbXbXbXbXbXbXbXbXbXbXbXbXbXbXbXbXbXbXbXbXbXf u p p p p u u i k t s y y bXbXbXbXbXbXbXbXbXbXbXbXbXbXbXbXbXbXbXbXbXbXbXbXbX",
"bXbXbXbXbXbXbXbXbXbXbXbXbXbXbXbXbXbXbXbXbXd y u i R.x.l.l.l.z.k.k.l.l.l.k.@.7.f j bXbXbXbXbXbXbXbXbXbXbXbXbXbXbXbXbXbXbXbXbXbXbX",
"bXbXbXbXbXbXbXbXbXbXbXbXbXbXbXbXbXbXbXbXbXk p i < z.j.v.d.n.v.m.m.V.a.a.u.} @.i t bXbXbXbXbXbXbXbXbXbXbXbXbXbXbXbXbXbXbXbXbXbXbX",
"bXbXbXbXbXbXbXbXbXbXbXbXbXbXbXbXbXbXbX- k #.$.R.x.z.j.h.d.d.a.m.j.u.i.a.Z.m.c.7.6.g f bXbXbXbXbXbXbXbXbXbXbXbXbXbXbXbXbXbXbXbXbX",
"bXbXbXbXbXbXbXbXbXbXbXbXbXbXbXbXbXbXbXh p 0.3.k.k.z.g.a.d.d.v.m.g.B.g.g.M.j.j.:.&.g Z bXbXbXbXbXbXbXbXbXbXbXbXbXbXbXbXbXbXbXbXbX",
"bXbXbXbXbXbXbXbXbXbXbXbXbXbXbXbXbXbXbXf r x.x.l.z.m.g.h.d.d.v.v.u.u.f.g.M.Z.Z.b.c.g V bXbXbXbXbXbXbXbXbXbXbXbXbXbXbXbXbXbXbXbXbX",
"bXbXbXbXbXbXbXbXbXbXbXbXbXbXbXbXbXbXbXg r (.C.N.g.f.g.f.h.a.v.M.m.f.f.m.b.b.b.n.C.Z C bXbXbXbXbXbXbXbXbXbXbXbXbXbXbXbXbXbXbXbXbX",
"bXbXbXbXbXbXbXbXbXbXbXbXbXbXbXbXbX= > 9.q.j.Z.i.V.f.f.f.h.a.v.b.M.g.f.M.B.N.b.n.C.<X].> j bXbXbXbXbXbXbXbXbXbXbXbXbXbXbXbXbXbXbX",
"bXbXbXbXbXbXbXbXbXbXbXbXbXbXbXbXbX, j 0.X.C.n.d.i.f.f.g.h.v.v.v.M.i.f.h.g.N.b.N.c.#X[.A ; bXbXbXbXbXbXbXbXbXbXbXbXbXbXbXbXbXbXbX",
"bXbXbXbXbXbXbXbXbXbXbXbXbXbXbXbXbX, f 0.<.Z.n.s.s.f.f.g.m.v.v.v.M.a.M.V.i.B.R.4X0X&.w.R E V C bXbXbXbXbXbXbXbXbXbXbXbXbXbXbXbXbX",
"bXbXbXbXbXbXbXbXbXbXbXbXbXbXbXbXbX> f q.1.b.t.d.i.f.g.g.m.M.N.M.M.p.i.i.i.u.k.5X0X#.0.L E V C bXbXbXbXbXbXbXbXbXbXbXbXbXbXbXbXbX",
"bXbXbXbXbXbXbXbXbXbXbXbXbXbXbXbXbXj t 0.X.r.r.s.V.g.z.m.N.N.M.N.b.V.V.a.g.} @.wXwX7.&.kX8XuX8X- > bXbXbXbXbXbXbXbXbXbXbXbXbXbXbX",
"bXbXbXbXbXbXbXbXbXbXbXbXbXbXbXbXbXj e 3.*. . .d.p.g.l.l.N.N.N.m.m.y.y.M.f.{ 3.wXwX9.$.0XuXjXuXC : bXbXbXbXbXbXbXbXbXbXbXbXbXbXbX",
"bXbXbXbXbXbXbXbXbXbXbXbXbXbXbXbXbXj t q.4.;.[  .} =.>.-.;.;.;.} [ r.;.>.} ] O.e.0.1X`.iX0X8X8XA C bXbXbXbXbXbXbXbXbXbXbXbXbXbXbX",
"bXbXbXbXbXbXbXbXbXbXbXbXbXbXbXbXbXf p %.:.=.[ [ } =.-.-.2.;.=.>.} :.] :.=.,.r.2.<.%X<XpXiXpXuXC , bXbXbXbXbXbXbXbXbXbXbXbXbXbXbX",
"bXbXbXbXbXbXbXbXbXbXbXbXbXbXbXbXbXf i %.:.:.>.} ,.:.2.2.2.;.=.{ { :.8.:.2.1.2.;.<.F Z 0X9X].[.A V bXbXbXbXbXbXbXbXbXbXbXbXbXbXbX",
"bXbXbXbXbXbXbXbXbXbXbXbXbXbXbXbXbXy g 9.&.,.,.:.:.:.-.2.1.-.=.} { { :.] 4.2.1.r.&.F F pXiX<X,XV ; bXbXbXbXbXbXbXbXbXbXbXbXbXbXbX",
"bXbXbXbXbXbXbXbXbXbXbXbXbXbXbXbXbXy u k l q.O.4.*.=.=.2.-.-.*.:.>.-.4.<.%.4.<.W l $X<X[.<X- j bXbXbXbXbXbXbXbXbXbXbXbXbXbXbXbXbX",
"bXbXbXbXbXbXbXbXbXbXbXbXbXbXbXbXbXh a p e 0.e.<.3.3.3.%.%.q.3.@.@.<.<.$.&.0.0...D 1X].<X].Z j bXbXbXbXbXbXbXbXbXbXbXbXbXbXbXbXbX",
"bXbXbXbXbXbXbXbXbXbXbXbXbXbXbXbXbXa 2 +.U g g t g e g Z Z d g d k g i u u t d g S - P - Z bXbXbXbXbXbXbXbXbXbXbXbXbXbXbXbXbXbXbX",
"bXbXbXbXbXbXbXbXbXbXbXbXbXbXbXbXbX8 w B +.t t t h m A j A - f g u h a u - A A > A Z - A j bXbXbXbXbXbXbXbXbXbXbXbXbXbXbXbXbXbXbX",
"bXbXbXbXbXbXbXbXbXbXbXbXbXbXbXbXbXbXbX8 1 ' 5./ M M M ' ( 6 6 ` ` t u I T ).).% o I D I A bXbXbXbXbXbXbXbXbXbXbXbXbXbXbXbXbXbXbX",
"bXbXbXbXbXbXbXbXbXbXbXbXbXbXbXbXbXbXbXa 8 M M b ' ( ) ~ ! q 2 ` ` 9 i o.F `.`.o o I T U T bXbXbXbXbXbXbXbXbXbXbXbXbXbXbXbXbXbXbX",
"bXbXbXbXbXbXbXbXbXbXbXbXbXbXbXbXbXbXbX  O 7 9 6.B Y M 3 w E.E.@X}.2 q |..X0X9Xo O  X Xz n bXbXbXbXbXbXbXbXbXbXbXbXbXbXbXbXbXbXbX",
"bXbXbXbXbXbXbXbXbXbXbXbXbXbXbXbXbXbXbX    7 7 I +.M B 1 5 oXQ.XX}.q 2 |..X0XwX. .  X@XB N bXbXbXbXbXbXbXbXbXbXbXbXbXbXbXbXbXbXbX",
"bXbXbXbXbXbXbXbXbXbXbXbXbXbXbXbXbXbXbXbXbX5 6 / _ ) _ 0 0 !.oX}.oXQ.!.>X-X3X3X2X3X-X;XXXbXbXbXbXbXbXbXbXbXbXbXbXbXbXbXbXbXbXbXbX",
"bXbXbXbXbXbXbXbXbXbXbXbXbXbXbXbXbXbXbXbXbXk s / ) _ / q 0 R.!.!.Q.!.U.=X>X-X3X4X:X>X>XXXbXbXbXbXbXbXbXbXbXbXbXbXbXbXbXbXbXbXbXbX",
"bXbXbXbXbXbXbXbXbXbXbXbXbXbXbXbXbXbXbXbXbXbXbXO . O + B M 9 2 T.W.W.T.!.E.;X>X4X4Xz Y bXbXbXbXbXbXbXbXbXbXbXbXbXbXbXbXbXbXbXbXbX",
"bXbXbXbXbXbXbXbXbXbXbXbXbXbXbXbXbXbXbXbXbXbXbXO # O # N Y 6 6 T.W.W.oX!.@X*X;X*X;XN n bXbXbXbXbXbXbXbXbXbXbXbXbXbXbXbXbXbXbXbXbX",
"bXbXbXbXbXbXbXbXbXbXbXbXbXbXbXbXbXbXbXbXbXbXbX* 3 I.P.8 = 8 3 4 4 oX|.z Q Q O.....bXbXbXbXbXbXbXbXbXbXbXbXbXbXbXbXbXbXbXbXbXbXbX",
"bXbXbXbXbXbXbXbXbXbXbXbXbXbXbXbXbXbXbXbXbXbXbXc c S.S.v 8 3 2 4 4  X*Xo.o.Q z z U bXbXbXbXbXbXbXbXbXbXbXbXbXbXbXbXbXbXbXbXbXbXbX",
"bXbXbXbXbXbXbXbXbXbXbXbXbXbXbXbXbXbXbXbXbXa 3 S.A.F.F.G.K.~ ~ J.D.'.[.'.$XD U bXbXbXbXbXbXbXbXbXbXbXbXbXbXbXbXbXbXbXbXbXbXbXbXbX",
"bXbXbXbXbXbXbXbXbXbXbXbXbXbXbXbXbXbXbXbXbXu 4 L.F.F.F.F.J.! ! K.U.'.{.&X$XF D bXbXbXbXbXbXbXbXbXbXbXbXbXbXbXbXbXbXbXbXbXbXbXbXbX",
"bXbXbXbXbXbXbXbXbXbXbXbXbXbXbXbXbXbXbXbXbX@ O b ^ F.F.G.K.+ O v v x x   O #.#.k j bXbXbXbXbXbXbXbXbXbXbXbXbXbXbXbXbXbXbXbXbXbXbX",
"bXbXbXbXbXbXbXbXbXbXbXbXbXbXbXbXbXbXbXbXbX. & b ^ H.A.D.I.+ . x x 7 n . . $.#.j K bXbXbXbXbXbXbXbXbXbXbXbXbXbXbXbXbXbXbXbXbXbXbX",
"bXbXbXbXbXbXbXbXbXbXbXbXbXbXbXbXbXbXbXbXbXO + K.S.! ~ ~ M O   C H 3X-X-X2XO @ ; C bXbXbXbXbXbXbXbXbXbXbXbXbXbXbXbXbXbXbXbXbXbXbX",
"bXbXbXbXbXbXbXbXbXbXbXbXbXbXbXbXbXbXbXbXbX. + D.J.! / ( +.O o H , 4X;X4X4X. . x x bXbXbXbXbXbXbXbXbXbXbXbXbXbXbXbXbXbXbXbXbXbXbX",
"bXbXbXbXbXbXbXbXbXbXbXbXbXbXbXbXbXbXbXbXbX. . | b K.Y.+ O h K ; : +X|.}._.O . ; K bXbXbXbXbXbXbXbXbXbXbXbXbXbXbXbXbXbXbXbXbXbXbX",
"bXbXbXbXbXbXbXbXbXbXbXbXbXbXbXbXbXbXbXbXbX  X T n I.I.. % C C P m _..X+X#X.   m ; bXbXbXbXbXbXbXbXbXbXbXbXbXbXbXbXbXbXbXbXbXbXbX",
"bXbXbXbXbXbXbXbXbXbXbXbXbXbXbXbXbXbXbXbXbXbXbX  # X # X $ ^.^.^.J #   . . x x bXbXbXbXbXbXbXbXbXbXbXbXbXbXbXbXbXbXbXbXbXbXbXbXbX",
"bXbXbXbXbXbXbXbXbXbXbXbXbXbXbXbXbXbXbXbXbXbXbX  X X   $ $ /.~.E E X . O . x x bXbXbXbXbXbXbXbXbXbXbXbXbXbXbXbXbXbXbXbXbXbXbXbXbX",
"bXbXbXbXbXbXbXbXbXbXbXbXbXbXbXbXbXbXbXbXbXbXbXbXbXbXbXo % G l %.O.X.-.X.$.. X bXbXbXbXbXbXbXbXbXbXbXbXbXbXbXbXbXbXbXbXbXbXbXbXbX",
"bXbXbXbXbXbXbXbXbXbXbXbXbXbXbXbXbXbXbXbXbXbXbXbXbXbXbX% @ l Q W >.1.X.<.o.  # bXbXbXbXbXbXbXbXbXbXbXbXbXbXbXbXbXbXbXbXbXbXbXbXbX",
"bXbXbXbXbXbXbXbXbXbXbXbXbXbXbXbXbXbXbXbXbXbXbXbXbXbXbXbXbX% o . + + & + O bXbXbXbXbXbXbXbXbXbXbXbXbXbXbXbXbXbXbXbXbXbXbXbXbXbXbX",
"bXbXbXbXbXbXbXbXbXbXbXbXbXbXbXbXbXbXbXbXbXbXbXbXbXbXbXbXbXo o     .   .   bXbXbXbXbXbXbXbXbXbXbXbXbXbXbXbXbXbXbXbXbXbXbXbXbXbXbX",
"bXbXbXbXbXbXbXbXbXbXbXbXbXbXbXbXbXbXbXbXbXbXbXbXbXbXbXbXbXbXbXbXbXbXbXbXbXbXbXbXbXbXbXbXbXbXbXbXbXbXbXbXbXbXbXbXbXbXbXbXbXbXbXbX",
"bXbXbXbXbXbXbXbXbXbXbXbXbXbXbXbXbXbXbXbXbXbXbXbXbXbXbXbXbXbXbXbXbXbXbXbXbXbXbXbXbXbXbXbXbXbXbXbXbXbXbXbXbXbXbXbXbXbXbXbXbXbXbXbX",
"bXbXbXbXbXbXbXbXbXbXbXbXbXbXbXbXbXbXbXbXbXbXbXbXbXbXbXbXbXbXbXbXbXbXbXbXbXbXbXbXbXbXbXbXbXbXbXbXbXbXbXbXbXbXbXbXbXbXbXbXbXbXbXbX",
"bXbXbXbXbXbXbXbXbXbXbXbXbXbXbXbXbXbXbXbXbXbXbXbXbXbXbXbXbXbXbXbXbXbXbXbXbXbXbXbXbXbXbXbXbXbXbXbXbXbXbXbXbXbXbXbXbXbXbXbXbXbXbXbX",
"bXbXbXbXbXbXbXbXbXbXbXbXbXbXbXbXbXbXbXbXbXbXbXbXbXbXbXbXbXbXbXbXbXbXbXbXbXbXbXbXbXbXbXbXbXbXbXbXbXbXbXbXbXbXbXbXbXbXbXbXbXbXbXbX",
"bXbXbXbXbXbXbXbXbXbXbXbXbXbXbXbXbXbXbXbXbXbXbXbXbXbXbXbXbXbXbXbXbXbXbXbXbXbXbXbXbXbXbXbXbXbXbXbXbXbXbXbXbXbXbXbXbXbXbXbXbXbXbXbX",
"bXbXbXbXbXbXbXbXbXbXbXbXbXbXbXbXbXbXbXbXbXbXbXbXbXbXbXbXbXbXbXbXbXbXbXbXbXbXbXbXbXbXbXbXbXbXbXbXbXbXbXbXbXbXbXbXbXbXbXbXbXbXbXbX",
"bXbXbXbXbXbXbXbXbXbXbXbXbXbXbXbXbXbXbXbXbXbXbXbXbXbXbXbXbXbXbXbXbXbXbXbXbXbXbXbXbXbXbXbXbXbXbXbXbXbXbXbXbXbXbXbXbXbXbXbXbXbXbXbX",
"bXbXbXbXbXbXbXbXbXbXbXbXbXbXbXbXbXbXbXbXbXbXbXbXbXbXbXbXbXbXbXbXbXbXbXbXbXbXbXbXbXbXbXbXbXbXbXbXbXbXbXbXbXbXbXbXbXbXbXbXbXbXbXbX",
};
