/* XPM */
static char *result[] = {
/* columns rows colors chars-per-pixel */
"64 65 238 2 ",
"   c #030301",
".  c #0C0201",
"X  c #010900",
"o  c #06050A",
"O  c #120101",
"+  c #1C0200",
"@  c #180508",
"#  c #061401",
"$  c #040814",
"%  c #1B0016",
"&  c #210000",
"*  c #382504",
"=  c #352B2D",
"-  c #2D382A",
";  c #382A33",
":  c #353233",
">  c #393235",
",  c #3C323B",
"<  c #38363E",
"1  c #4D2B08",
"2  c #552A09",
"3  c #4B3407",
"4  c #553703",
"5  c #4A291B",
"6  c #572C19",
"7  c #473316",
"8  c #4D351B",
"9  c #51371E",
"0  c #632D05",
"q  c #66310B",
"w  c #642E1B",
"e  c #623919",
"r  c #471C26",
"t  c #661D26",
"y  c #492728",
"u  c #442B2C",
"i  c #4C2C2B",
"p  c #572929",
"a  c #532C2C",
"s  c #483528",
"d  c #59352A",
"f  c #472936",
"g  c #4A2C33",
"h  c #552B35",
"j  c #4A3536",
"k  c #45343C",
"l  c #563338",
"z  c #672A32",
"x  c #723232",
"c  c #374537",
"v  c #594107",
"b  c #4F431A",
"n  c #7A4F0C",
"m  c #795A15",
"M  c #52472B",
"N  c #45433A",
"B  c #794B29",
"V  c #6E4E32",
"C  c #764B36",
"Z  c #353142",
"A  c #393846",
"S  c #452C42",
"D  c #493A45",
"F  c #55334D",
"G  c #6B3945",
"H  c #6D354D",
"J  c #753F49",
"K  c #3B4747",
"L  c #3C6264",
"P  c #484547",
"I  c #56454C",
"U  c #494951",
"Y  c #69434A",
"T  c #7A4948",
"R  c #795742",
"E  c #705052",
"W  c #625C68",
"Q  c #586473",
"!  c #606677",
"~  c #8E3236",
"^  c #833837",
"/  c #8B4E10",
"(  c #8D5218",
")  c #925417",
"_  c #826300",
"`  c #874929",
"'  c #82532A",
"]  c #8B532B",
"[  c #95502E",
"{  c #864E39",
"}  c #825834",
"|  c #A9493B",
" . c #B84C3B",
".. c #AD533D",
"X. c #B2523D",
"o. c #80643D",
"O. c #C8473B",
"+. c #883D47",
"@. c #A53A46",
"#. c #B23E4A",
"$. c #81444A",
"%. c #9A4544",
"&. c #855644",
"*. c #9A5649",
"=. c #894D59",
"-. c #8B5757",
";. c #9D5254",
":. c #965759",
">. c #A94A47",
",. c #B34E44",
"<. c #B44D4D",
"1. c #B94A48",
"2. c #AA5448",
"3. c #B35344",
"4. c #B5554B",
"5. c #A84B54",
"6. c #B94753",
"7. c #B54B52",
"8. c #A85858",
"9. c #B65756",
"0. c #996443",
"q. c #956259",
"w. c #8E5962",
"e. c #975961",
"r. c #A65D63",
"t. c #8E6567",
"y. c #A56064",
"u. c #CC544C",
"i. c #EB5C54",
"p. c #DD6A5B",
"a. c #DE7258",
"s. c #E66956",
"d. c #E56C5B",
"f. c #EC6E5E",
"g. c #F66F5A",
"h. c #F36B5D",
"j. c #E67356",
"k. c #E4735B",
"l. c #EA725B",
"z. c #DC6967",
"x. c #CA786B",
"c. c #DB746D",
"v. c #D97869",
"b. c #C87976",
"n. c #D67873",
"m. c #EB6E63",
"M. c #E86A69",
"N. c #F56863",
"B. c #E37263",
"V. c #EA7164",
"C. c #E3716A",
"Z. c #EB7868",
"A. c #F27566",
"S. c #E47373",
"D. c #F27373",
"F. c #BC9B00",
"G. c #B59319",
"H. c #B79334",
"J. c #C69A05",
"K. c #C29418",
"L. c #C8A20B",
"P. c #D09329",
"I. c #C59537",
"U. c #C3A326",
"Y. c #988F46",
"T. c #A69B4B",
"R. c #B6934E",
"E. c #CF9642",
"W. c #C3A04E",
"Q. c #D59C66",
"!. c #D28F7C",
"~. c #C79D77",
"^. c #DAA469",
"/. c #CCA774",
"(. c #D5A57A",
"). c #E5A966",
"_. c #555E86",
"`. c #446588",
"'. c #5D658A",
"]. c #E17F84",
"[. c #938492",
"{. c #BB968B",
"}. c #AA97A6",
"|. c #BBAAA7",
" X c #AAA6B4",
".X c #B6ABBB",
"XX c #B7B6BD",
"oX c #CA9B89",
"OX c #DC9A8D",
"+X c #CC9796",
"@X c #D49997",
"#X c #C9A489",
"$X c #D9A885",
"%X c #C6AD98",
"&X c #D5A299",
"*X c #E2A998",
"=X c #CDA5AE",
"-X c #D4AFA9",
";X c #C9A9B5",
":X c #D1ADB8",
">X c #F0B7B0",
",X c #FDDDAE",
"<X c #E9CBB6",
"1X c #FBC9BB",
"2X c #E4D0BE",
"3X c #F9D6B7",
"4X c #B5B1C0",
"5X c #C3B8CA",
"6X c #D2BBCB",
"7X c #DACEC2",
"8X c #FFCCC5",
"9X c #E9D6C9",
"0X c #F9D7C9",
"qX c #FADBD6",
"wX c #FFE9D9",
"eX c #FEF9DA",
"rX c #DEDFF5",
"tX c #E6DAEC",
"yX c #FCDEE7",
"uX c #EBEDEA",
"iX c #FBE3E4",
"pX c #FDFEE4",
"aX c #FEF3EC",
"sX c #F6F9E9",
"dX c #FEFDEC",
"fX c #EBE8F8",
"gX c #F8EAF6",
"hX c #FEEDFD",
"jX c #EBF7F6",
"kX c #EDFEFD",
"lX c #F3F5F5",
"zX c #FBF4F5",
"xX c #F2FCF5",
"cX c #FDFEF5",
"vX c #F4F4FB",
"bX c #FFF5FD",
"nX c #F5FEFE",
"mX c #FFFFFFFF",
/* pixels */
"mXmXmXmXmXmXmXmXmXmXmXmXmXmXmXmXmXmXmXmXmXmXmXmXmXmXmXmXmXmXmXmXmXmXmXmXmXmXmXmXmXmXmXmXmXmXmXmXmXmXmXmXmXmXmXmXmXmXmXmXmXmXmXmX",
"mXmXmXmXmXmXmXmXmXmXmXmXmXmXmXmXmXmXmXmXmXmXmXmXmXmXmXmXmXmXmXmXmXmXmXmXmXmXmXmXmXmXmXmXmXmXmXmXmXmXmXmXmXmXmXmXmXmXmXmXmXmXmXmX",
"mXmXmXmXmXmXmXmXmXmXmXmXmXmXmXmXmXmXmXmXmXmXmXmXmXmXmXmXmXmXmXmXmXmXmXmXmXmXmXmXmXmXmXmXmXmXmXmXmXmXmXmXmXmXmXmXmXmXmXmXmXmXmXmX",
"mXmXmXmXmXmXmXmXmXmXmXmXmXmXmXmXmXmXmXmXmXmXmXmXmXmXmXmXmXmXmXmXmXmXmXmXmXmXmXmXmXmXmXmXmXmXmXmXmXmXmXmXmXmXmXmXmXmXmXmXmXmXmXmX",
"mXmXmXmXmXmXmXmXmXmXmXmXmXmXmXmXmXmXmXmXmXmXmXmXmXmXmXmXmXmXmXmXmXmXmXmXmXmXmXmXmXmXmXmXmXmXmXmXmXmXmXmXmXmXmXmXmXmXmXmXmXmXmXmX",
"mXmXmXmXmXmXmXmXmXmXmXmXmXmXmXmXmXmXmXmXmXmXmXmXmXmXmXmXmXmXmXmXmXmXmXmXmXmXmXmXmXmXmXmXmXmXmXmXmXmXmXmXmXmXmXmXmXmXmXmXmXmXmXmX",
"mXmXmXmXmXmXmXmXmXmXmXmXmXmXmXmXmXmXmXmXmXmXmXmXmXmXmXmXmXmXmXmXmXmXmXmXmXmXmXmXmXmXmXmXmXmXmXmXmXmXmXmXmXmXmXmXmXmXmXmXmXmXmXmX",
"mXmXmXmXmXmXmXmXmXmXmXmXmXmXmXmXmXmXmXmXmXmXmXmXmXmXmXmXmXmXmXmXmXmXmXmXmXmXmXmXmXmXmXmXmXmXmXmXmXmXmXmXmXmXmXmXmXmXmXmXmXmXmXmX",
"mXmXmXmXmXmXmXmXmXmXmXmXmXmXmXmXmXmXmXmXmXmXmXmXmXmXmXmXmXmXmXmXmXmXmXmXmXmXmXmXmXmXmXmXmXmXmXmXmXmXmXmXmXmXmXmXmXmXmXmXmXmXmXmX",
"mXmXmXmXmXmXmXmXmXmXmXmXmXmXmXmXmXmXmXmXmXmXmXmXmXmXmXmXmXmXmXmXmXmXmXmXmXmXmXmXmXmXmXmXmXmXmXmXmXmXmXmXmXmXmXmXmXmXmXmXmXmXmXmX",
"mXmXmXmXmXmXmXmXmXmXmXmXmXmXmXmXmXmXmXmXmXmXmXmX> > > > ; > > > > : : > = P mXmXmXmXmXmXmXmXmXmXmXmXmXmXmXmXmXmXmXmXmXmXmXmXmXmX",
"mXmXmXmXmXmXmXmXmXmXmXmXmXmXmXmXmXmXmXmXmXmXmXmXg i a a a a a a p l y a s = mXmXmXmXmXmXmXmXmXmXmXmXmXmXmXmXmXmXmXmXmXmXmXmXmXmX",
"mXmXmXmXmXmXmXmXmXmXmXmXmXmXmXmXmXmXmXmXf y d d b.b.c.C.c.c.x.x.v.c.n.x.*.q.y k mXmXmXmXmXmXmXmXmXmXmXmXmXmXmXmXmXmXmXmXmXmXmXmX",
"mXmXmXmXmXmXmXmXmXmXmXmXmXmXmXmXmXmXmXmXl p p t x.c.A.N.h.f.B.v.m.h.f.a.X.*.y y mXmXmXmXmXmXmXmXmXmXmXmXmXmXmXmXmXmXmXmXmXmXmXmX",
"mXmXmXmXmXmXmXmXmXmXmXmXmXmXmXmXmXmX; l -.-.!.y.v.B.f.h.h.m.B.k.d.s.f.D.B.!.8.t.h y mXmXmXmXmXmXmXmXmXmXmXmXmXmXmXmXmXmXmXmXmXmX",
"mXmXmXmXmXmXmXmXmXmXmXmXmXmXmXmXmXmXf h y.r.x.x.v.k.f.h.h.f.B.v.B.k.k.V.p.z.2.-.h F mXmXmXmXmXmXmXmXmXmXmXmXmXmXmXmXmXmXmXmXmXmX",
"mXmXmXmXmXmXmXmXmXmXmXmXmXmXmXmXmXmXa t b.b.c.c.v.j.f.g.h.m.C.k.a.j.d.Z.D.D.M.n.f Z mXmXmXmXmXmXmXmXmXmXmXmXmXmXmXmXmXmXmXmXmXmX",
"mXmXmXmXmXmXmXmXmXmXmXmXmXmXmXmXmXmXh t ].S.B.z.k.j.s.l.f.m.m.B.j.j.B.V.M.M.N.S.F A mXmXmXmXmXmXmXmXmXmXmXmXmXmXmXmXmXmXmXmXmXmX",
"mXmXmXmXmXmXmXmXmXmXmXmXmXmXmXmX= > w.8.z.D.s.V.j.j.l.l.f.m.m.V.j.k.V.Z.C.M.N.S.:X X, k mXmXmXmXmXmXmXmXmXmXmXmXmXmXmXmXmXmXmXmX",
"mXmXmXmXmXmXmXmXmXmXmXmXmXmXmXmXA k e.5.D.N.g.s.j.j.k.l.m.m.m.m.j.j.d.B.C.z.S.b.=X.XD , mXmXmXmXmXmXmXmXmXmXmXmXmXmXmXmXmXmXmXmX",
"mXmXmXmXmXmXmXmXmXmXmXmXmXmXmXmX< f :.5.D.h.h.g.j.j.j.B.V.M.m.m.f.V.A.s.g.S.8XiXe.t.W W Z A mXmXmXmXmXmXmXmXmXmXmXmXmXmXmXmXmXmX",
"mXmXmXmXmXmXmXmXmXmXmXmXmXmXmXmX, f r.6.M.i.h.s.l.j.B.B.C.V.C.V.d.s.s.s.Q.y.wXwX-.e.I ! Z A mXmXmXmXmXmXmXmXmXmXmXmXmXmXmXmXmXmX",
"mXmXmXmXmXmXmXmXmXmXmXmXmXmXmXmXk i r.>.u.u.g.g.k.v.B.B.C.C.B.V.D.A.A.l. ...iXiXq.-.bXfXfXrX= < mXmXmXmXmXmXmXmXmXmXmXmXmXmXmXmX",
"mXmXmXmXmXmXmXmXmXmXmXmXmXmXmXmXk y ;.>.O.O.s.d.B.c.c.C.C.C.C.B.p.p.B.a...8.yXiX-.t.tXfXvXvXA < mXmXmXmXmXmXmXmXmXmXmXmXmXmXmXmX",
"mXmXmXmXmXmXmXmXmXmXmXmXmXmXmXmXk y r.9.1. .O. .,.3.1.<.1.1.X. .u.1.3. .| >.y.e.:X=XhXtXfXtXA A mXmXmXmXmXmXmXmXmXmXmXmXmXmXmXmX",
"mXmXmXmXmXmXmXmXmXmXmXmXmXmXmXmXg a :.<.3. .X.X.3.<.<.6.1.,.X.X.| | 3.,.4.9.7.8.=X5XhXgXhXfXA Z mXmXmXmXmXmXmXmXmXmXmXmXmXmXmXmX",
"mXmXmXmXmXmXmXmXmXmXmXmXmXmXmXmXj a ;.%.X.X.3.4.2.<.7.7.<.,.....2.2.4.<.6.#.1.7.H F gXtX X4XD Z mXmXmXmXmXmXmXmXmXmXmXmXmXmXmXmX",
"mXmXmXmXmXmXmXmXmXmXmXmXmXmXmXmXu l :.;.8.4.>.2.<.9.7.7.<.3.....2.2.*.9.6.u.9.5.H F hXtX5X.XZ Z mXmXmXmXmXmXmXmXmXmXmXmXmXmXmXmX",
"mXmXmXmXmXmXmXmXmXmXmXmXmXmXmXmXu i l z 8.>.9.,.>.,.9.<.<.>.2.3.<.9.5.;.r.#.+.z 5X5X.X5X, k mXmXmXmXmXmXmXmXmXmXmXmXmXmXmXmXmXmX",
"mXmXmXmXmXmXmXmXmXmXmXmXmXmXmXmXj s a r e.e.;.8.8.8.8.;.y.8.*.>.5.;.-.q.r.;.+.H 6X X5X.XS k mXmXmXmXmXmXmXmXmXmXmXmXmXmXmXmXmXmX",
"mXmXmXmXmXmXmXmXmXmXmXmXmXmXmXmX8 5 &.&.h l y h y f Z S f h g l a p a i y f h S ; D ; , mXmXmXmXmXmXmXmXmXmXmXmXmXmXmXmXmXmXmXmX",
"mXmXmXmXmXmXmXmXmXmXmXmXmXmXmXmX8 e C &.y y y i l D k S f g l f s u g u k D , F D f D k mXmXmXmXmXmXmXmXmXmXmXmXmXmXmXmXmXmXmXmX",
"mXmXmXmXmXmXmXmXmXmXmXmXmXmXmXmXmXmX8 1 { 0.B } B B ` ' 6 6 &.{ 5 a G E [.[.$ o E F Y I mXmXmXmXmXmXmXmXmXmXmXmXmXmXmXmXmXmXmXmX",
"mXmXmXmXmXmXmXmXmXmXmXmXmXmXmXmXmXmX8 8 B n ' B B ] ] n q 2 { { e p =.H }.}.o . H T E E mXmXmXmXmXmXmXmXmXmXmXmXmXmXmXmXmXmXmXmX",
"mXmXmXmXmXmXmXmXmXmXmXmXmXmXmXmXmXmX. . 8 b R R o.B 6 e ~.~.*XoX2 w +X@XyXtXo O +X+XV d mXmXmXmXmXmXmXmXmXmXmXmXmXmXmXmXmXmXmXmX",
"mXmXmXmXmXmXmXmXmXmXmXmXmXmXmXmXmXmXX   s 7 T &.B C 2 1 $X~.#X#Xq 2 OX@XyXiXO O +X*XC V mXmXmXmXmXmXmXmXmXmXmXmXmXmXmXmXmXmXmXmX",
"mXmXmXmXmXmXmXmXmXmXmXmXmXmXmXmXmXmXmXmXy 6 ` [ ) ( q 0 (.$X~.#X/.(.,X<X9X9X7XqX1X1X#XmXmXmXmXmXmXmXmXmXmXmXmXmXmXmXmXmXmXmXmXmX",
"mXmXmXmXmXmXmXmXmXmXmXmXmXmXmXmXmXmXmXmXl d B [ *.` q 0 !.$X$X/./.W.,X3X<X2X9X<X9X3X/.mXmXmXmXmXmXmXmXmXmXmXmXmXmXmXmXmXmXmXmXmX",
"mXmXmXmXmXmXmXmXmXmXmXmXmXmXmXmXmXmXmXmXmXmX. O O + C B e 2 Q.).^.(.(.~.1X0X1X0XV C mXmXmXmXmXmXmXmXmXmXmXmXmXmXmXmXmXmXmXmXmXmX",
"mXmXmXmXmXmXmXmXmXmXmXmXmXmXmXmXmXmXmXmXmXmX. # . # V C 5 2 Q.).Q.(.(.*X>X>X1X1XV M mXmXmXmXmXmXmXmXmXmXmXmXmXmXmXmXmXmXmXmXmXmX",
"mXmXmXmXmXmXmXmXmXmXmXmXmXmXmXmXmXmXmXmXmXmX* 3 T.Y.M = 9 4 3 1 *XOX^ ^ ~ +.+.+.mXmXmXmXmXmXmXmXmXmXmXmXmXmXmXmXmXmXmXmXmXmXmXmX",
"mXmXmXmXmXmXmXmXmXmXmXmXmXmXmXmXmXmXmXmXmXmXv v G.G.4 s 1 4 4 e oX-XJ +.+.x ^ J mXmXmXmXmXmXmXmXmXmXmXmXmXmXmXmXmXmXmXmXmXmXmXmX",
"mXmXmXmXmXmXmXmXmXmXmXmXmXmXmXmXmXmXmXmXs 1 G.F.J.L.G.I./ / P.H.%XXX|.=XG T mXmXmXmXmXmXmXmXmXmXmXmXmXmXmXmXmXmXmXmXmXmXmXmXmXmX",
"mXmXmXmXmXmXmXmXmXmXmXmXmXmXmXmXmXmXmXmXi 4 U.F.J.J.J.P./ / E.R.|.XXXX;XG G mXmXmXmXmXmXmXmXmXmXmXmXmXmXmXmXmXmXmXmXmXmXmXmXmXmX",
"mXmXmXmXmXmXmXmXmXmXmXmXmXmXmXmXmXmXmXmXO + m _ J.J.F.I.+ O b b M c   O =.=.l S mXmXmXmXmXmXmXmXmXmXmXmXmXmXmXmXmXmXmXmXmXmXmXmX",
"mXmXmXmXmXmXmXmXmXmXmXmXmXmXmXmXmXmXmXmXO + m n L.J.H.R.+   c c - M X O -.=.j P mXmXmXmXmXmXmXmXmXmXmXmXmXmXmXmXmXmXmXmXmXmXmXmX",
"mXmXmXmXmXmXmXmXmXmXmXmXmXmXmXmXmXmXmXmX. + I.K./ ) ( B O   K K 0X<X2X7XO @ - < mXmXmXmXmXmXmXmXmXmXmXmXmXmXmXmXmXmXmXmXmXmXmXmX",
"mXmXmXmXmXmXmXmXmXmXmXmXmXmXmXmXmXmXmXmX. + H.I./ ` ' &.O   U < 0X1X0X0X. . c K mXmXmXmXmXmXmXmXmXmXmXmXmXmXmXmXmXmXmXmXmXmXmXmX",
"mXmXmXmXmXmXmXmXmXmXmXmXmXmXmXmXmXmXmXmX. O R m H.W.@ O j P > > @X*XoX{.. . : P mXmXmXmXmXmXmXmXmXmXmXmXmXmXmXmXmXmXmXmXmXmXmXmX",
"mXmXmXmXmXmXmXmXmXmXmXmXmXmXmXmXmXmXmXmX.   R V T.T.@ @ A A U N {.#X&X-X.   N > mXmXmXmXmXmXmXmXmXmXmXmXmXmXmXmXmXmXmXmXmXmXmXmX",
"mXmXmXmXmXmXmXmXmXmXmXmXmXmXmXmXmXmXmXmXmXmX  # X # X $ `.`.`.L # X . . - c mXmXmXmXmXmXmXmXmXmXmXmXmXmXmXmXmXmXmXmXmXmXmXmXmXmX",
"mXmXmXmXmXmXmXmXmXmXmXmXmXmXmXmXmXmXmXmXmXmXX X X X $ $ '._.Q !   . O . c c mXmXmXmXmXmXmXmXmXmXmXmXmXmXmXmXmXmXmXmXmXmXmXmXmXmX",
"mXmXmXmXmXmXmXmXmXmXmXmXmXmXmXmXmXmXmXmXmXmXmXmXmXmXO % J z ;.%.@.6.@.=.X X mXmXmXmXmXmXmXmXmXmXmXmXmXmXmXmXmXmXmXmXmXmXmXmXmXmX",
"mXmXmXmXmXmXmXmXmXmXmXmXmXmXmXmXmXmXmXmXmXmXmXmXmXmX% % z ^ ~ >.1.@.5.$.X # mXmXmXmXmXmXmXmXmXmXmXmXmXmXmXmXmXmXmXmXmXmXmXmXmXmX",
"mXmXmXmXmXmXmXmXmXmXmXmXmXmXmXmXmXmXmXmXmXmXmXmXmXmXmXmX% o O O & & & O mXmXmXmXmXmXmXmXmXmXmXmXmXmXmXmXmXmXmXmXmXmXmXmXmXmXmXmX",
"mXmXmXmXmXmXmXmXmXmXmXmXmXmXmXmXmXmXmXmXmXmXmXmXmXmXmXmXo o   X .   O   mXmXmXmXmXmXmXmXmXmXmXmXmXmXmXmXmXmXmXmXmXmXmXmXmXmXmXmX",
"mXmXmXmXmXmXmXmXmXmXmXmXmXmXmXmXmXmXmXmXmXmXmXmXmXmXmXmXmXmXmXmXmXmXmXmXmXmXmXmXmXmXmXmXmXmXmXmXmXmXmXmXmXmXmXmXmXmXmXmXmXmXmXmX",
"mXmXmXmXmXmXmXmXmXmXmXmXmXmXmXmXmXmXmXmXmXmXmXmXmXmXmXmXmXmXmXmXmXmXmXmXmXmXmXmXmXmXmXmXmXmXmXmXmXmXmXmXmXmXmXmXmXmXmXmXmXmXmXmX",
"mXmXmXmXmXmXmXmXmXmXmXmXmXmXmXmXmXmXmXmXmXmXmXmXmXmXmXmXmXmXmXmXmXmXmXmXmXmXmXmXmXmXmXmXmXmXmXmXmXmXmXmXmXmXmXmXmXmXmXmXmXmXmXmX",
"mXmXmXmXmXmXmXmXmXmXmXmXmXmXmXmXmXmXmXmXmXmXmXmXmXmXmXmXmXmXmXmXmXmXmXmXmXmXmXmXmXmXmXmXmXmXmXmXmXmXmXmXmXmXmXmXmXmXmXmXmXmXmXmX",
"mXmXmXmXmXmXmXmXmXmXmXmXmXmXmXmXmXmXmXmXmXmXmXmXmXmXmXmXmXmXmXmXmXmXmXmXmXmXmXmXmXmXmXmXmXmXmXmXmXmXmXmXmXmXmXmXmXmXmXmXmXmXmXmX",
"mXmXmXmXmXmXmXmXmXmXmXmXmXmXmXmXmXmXmXmXmXmXmXmXmXmXmXmXmXmXmXmXmXmXmXmXmXmXmXmXmXmXmXmXmXmXmXmXmXmXmXmXmXmXmXmXmXmXmXmXmXmXmXmX",
"mXmXmXmXmXmXmXmXmXmXmXmXmXmXmXmXmXmXmXmXmXmXmXmXmXmXmXmXmXmXmXmXmXmXmXmXmXmXmXmXmXmXmXmXmXmXmXmXmXmXmXmXmXmXmXmXmXmXmXmXmXmXmXmX",
"mXmXmXmXmXmXmXmXmXmXmXmXmXmXmXmXmXmXmXmXmXmXmXmXmXmXmXmXmXmXmXmXmXmXmXmXmXmXmXmXmXmXmXmXmXmXmXmXmXmXmXmXmXmXmXmXmXmXmXmXmXmXmXmX",
"mXmXmXmXmXmXmXmXmXmXmXmXmXmXmXmXmXmXmXmXmXmXmXmXmXmXmXmXmXmXmXmXmXmXmXmXmXmXmXmXmXmXmXmXmXmXmXmXmXmXmXmXmXmXmXmXmXmXmXmXmXmXmXmX",
};
