/* XPM */
static char *result[] = {
/* columns rows colors chars-per-pixel */
"64 65 244 2 ",
"   c #030101",
".  c #0B0101",
"X  c #050907",
"o  c #02010B",
"O  c #130101",
"+  c #1A0000",
"@  c #11000C",
"#  c #020417",
"$  c #101011",
"%  c #230002",
"&  c #280005",
"*  c #370007",
"=  c #353008",
"-  c #120A28",
";  c #3C2A2B",
":  c #3C392D",
">  c #362B37",
",  c #2F3136",
"<  c #373637",
"1  c #3C3A32",
"2  c #4E1E05",
"3  c #691E1D",
"4  c #572708",
"5  c #423809",
"6  c #5A3709",
"7  c #492A14",
"8  c #5A2718",
"9  c #503017",
"0  c #64300C",
"q  c #612D18",
"w  c #65371A",
"e  c #4D1D2B",
"r  c #472829",
"t  c #4A2B2B",
"y  c #542A27",
"u  c #473629",
"i  c #57372A",
"p  c #452A36",
"a  c #4A2C33",
"s  c #582D37",
"d  c #433333",
"f  c #4C3232",
"g  c #473A39",
"h  c #583437",
"j  c #662827",
"k  c #643329",
"l  c #642B35",
"z  c #6B3838",
"x  c #78323B",
"c  c #3F421D",
"v  c #39452A",
"b  c #3A4439",
"n  c #524500",
"m  c #775708",
"M  c #79541D",
"N  c #454021",
"B  c #47423C",
"V  c #745428",
"C  c #694537",
"Z  c #774839",
"A  c #6D503F",
"S  c #775534",
"D  c #72632E",
"F  c #352B43",
"G  c #333A43",
"H  c #273D51",
"J  c #4B2C44",
"K  c #532A44",
"L  c #483745",
"P  c #523F41",
"I  c #4C3554",
"U  c #683A44",
"Y  c #753047",
"T  c #693A54",
"R  c #3C4444",
"E  c #394F54",
"W  c #3F5F7D",
"Q  c #3C6579",
"!  c #454445",
"~  c #4E484F",
"^  c #6B4A43",
"/  c #6A4549",
"(  c #764747",
")  c #7C514D",
"_  c #7D4F59",
"`  c #51556E",
"'  c #655774",
"]  c #4F666E",
"[  c #811E31",
"{  c #883137",
"}  c #AC3D33",
"|  c #854F04",
" . c #844F11",
".. c #856208",
"X. c #844A26",
"o. c #904F27",
"O. c #865526",
"+. c #844B36",
"@. c #865635",
"#. c #985438",
"$. c #A9483B",
"%. c #B7473B",
"&. c #AD513A",
"*. c #B1523E",
"=. c #CB4B35",
"-. c #8D3352",
";. c #AA3857",
":. c #B43B50",
">. c #BF3F67",
",. c #864548",
"<. c #934B47",
"1. c #865C44",
"2. c #995749",
"3. c #8A4C56",
"4. c #9A4A54",
"5. c #865859",
"6. c #985857",
"7. c #AA4A47",
"8. c #B44C43",
"9. c #BA4D42",
"0. c #B24C4A",
"q. c #B9494C",
"w. c #AB5044",
"e. c #A8554B",
"r. c #B45345",
"t. c #B95244",
"y. c #B3534B",
"u. c #BB534B",
"i. c #A54A54",
"p. c #BF4A55",
"a. c #A35455",
"s. c #A85759",
"d. c #B75656",
"f. c #955563",
"g. c #AF5062",
"h. c #A55963",
"j. c #A2626C",
"k. c #C9564E",
"l. c #C85759",
"z. c #CD695A",
"x. c #DB6C59",
"c. c #DE755D",
"v. c #E56A57",
"b. c #E36C5E",
"n. c #EB6E5E",
"m. c #F16C5F",
"M. c #E97057",
"N. c #E5725E",
"B. c #EA715D",
"V. c #CF6868",
"C. c #DB6B63",
"Z. c #DD7364",
"A. c #DC726C",
"S. c #C97876",
"D. c #D97974",
"F. c #E66B65",
"G. c #EC6E62",
"H. c #E47262",
"J. c #EA7263",
"K. c #E4746B",
"L. c #E8796B",
"P. c #F3736E",
"I. c #E57874",
"U. c #B8970F",
"Y. c #B4A30C",
"T. c #B1932F",
"R. c #B58C3B",
"E. c #CB9706",
"W. c #C89901",
"Q. c #C69919",
"!. c #C6A100",
"~. c #C99736",
"^. c #BB9648",
"/. c #A78F51",
"(. c #A9A442",
"). c #C19D56",
"_. c #CF9475",
"`. c #D49576",
"'. c #EC8476",
"]. c #CCA27A",
"[. c #D9A474",
"{. c #E5A17B",
"}. c #4A5E8B",
"|. c #526A8A",
" X c #636A82",
".X c #C87D82",
"XX c #B59189",
"oX c #BCA38F",
"OX c #9E91A4",
"+X c #A795A2",
"@X c #B8ACA2",
"#X c #B7A7B7",
"$X c #B7B1B3",
"%X c #C79B89",
"&X c #D19F97",
"*X c #C6A78A",
"=X c #D7A986",
"-X c #C5AC99",
";X c #D8A495",
":X c #E6A689",
">X c #CC9DB5",
",X c #CAAFB0",
"<X c #C8AAB8",
"1X c #D4B5B9",
"2X c #F5D0AD",
"3X c #FAC9BC",
"4X c #EBD5B8",
"5X c #B9AFCA",
"6X c #CCB8D3",
"7X c #DDCECB",
"8X c #EAC9C8",
"9X c #FECEC2",
"0X c #FACECC",
"qX c #E7D4CA",
"wX c #F6D6C3",
"eX c #EBDBD4",
"rX c #F8D7D4",
"tX c #F9E9D8",
"yX c #E4D8EC",
"uX c #F3DCF0",
"iX c #DEE8FF",
"pX c #DDF4F2",
"aX c #E5E8E6",
"sX c #FDE8E8",
"dX c #EBF9E8",
"fX c #FFF2E6",
"gX c #FDF4ED",
"hX c #F3FDEC",
"jX c #FDFCEC",
"kX c #EDECF5",
"lX c #F3EBF6",
"zX c #FFEEF3",
"xX c #F4E3FC",
"cX c #FDEDFE",
"vX c #EAF8F5",
"bX c #ECFEFD",
"nX c #F2F4F3",
"mX c #FDF4F4",
"MX c #F5FCF5",
"NX c #FDFDF4",
"BX c #F5F6FE",
"VX c #FDF5FC",
"CX c #F5FEFD",
"ZX c #FFFFFFFF",
/* pixels */
"ZXZXZXZXZXZXZXZXZXZXZXZXZXZXZXZXZXZXZXZXZXZXZXZXZXZXZXZXZXZXZXZXZXZXZXZXZXZXZXZXZXZXZXZXZXZXZXZXZXZXZXZXZXZXZXZXZXZXZXZXZXZXZXZX",
"ZXZXZXZXZXZXZXZXZXZXZXZXZXZXZXZXZXZXZXZXZXZXZXZXZXZXZXZXZXZXZXZXZXZXZXZXZXZXZXZXZXZXZXZXZXZXZXZXZXZXZXZXZXZXZXZXZXZXZXZXZXZXZXZX",
"ZXZXZXZXZXZXZXZXZXZXZXZXZXZXZXZXZXZXZXZXZXZXZXZXZXZXZXZXZXZXZXZXZXZXZXZXZXZXZXZXZXZXZXZXZXZXZXZXZXZXZXZXZXZXZXZXZXZXZXZXZXZXZXZX",
"ZXZXZXZXZXZXZXZXZXZXZXZXZXZXZXZXZXZXZXZXZXZXZXZXZXZXZXZXZXZXZXZXZXZXZXZXZXZXZXZXZXZXZXZXZXZXZXZXZXZXZXZXZXZXZXZXZXZXZXZXZXZXZXZX",
"ZXZXZXZXZXZXZXZXZXZXZXZXZXZXZXZXZXZXZXZXZXZXZXZXZXZXZXZXZXZXZXZXZXZXZXZXZXZXZXZXZXZXZXZXZXZXZXZXZXZXZXZXZXZXZXZXZXZXZXZXZXZXZXZX",
"ZXZXZXZXZXZXZXZXZXZXZXZXZXZXZXZXZXZXZXZXZXZXZXZXZXZXZXZXZXZXZXZXZXZXZXZXZXZXZXZXZXZXZXZXZXZXZXZXZXZXZXZXZXZXZXZXZXZXZXZXZXZXZXZX",
"ZXZXZXZXZXZXZXZXZXZXZXZXZXZXZXZXZXZXZXZXZXZXZXZXZXZXZXZXZXZXZXZXZXZXZXZXZXZXZXZXZXZXZXZXZXZXZXZXZXZXZXZXZXZXZXZXZXZXZXZXZXZXZXZX",
"ZXZXZXZXZXZXZXZXZXZXZXZXZXZXZXZXZXZXZXZXZXZXZXZXZXZXZXZXZXZXZXZXZXZXZXZXZXZXZXZXZXZXZXZXZXZXZXZXZXZXZXZXZXZXZXZXZXZXZXZXZXZXZXZX",
"ZXZXZXZXZXZXZXZXZXZXZXZXZXZXZXZXZXZXZXZXZXZXZXZXZXZXZXZXZXZXZXZXZXZXZXZXZXZXZXZXZXZXZXZXZXZXZXZXZXZXZXZXZXZXZXZXZXZXZXZXZXZXZXZX",
"ZXZXZXZXZXZXZXZXZXZXZXZXZXZXZXZXZXZXZXZXZXZXZXZX1 1 1 : 1 : d d t r t a d ; ZXZXZXZXZXZXZXZXZXZXZXZXZXZXZXZXZXZXZXZXZXZXZXZXZXZX",
"ZXZXZXZXZXZXZXZXZXZXZXZXZXZXZXZXZXZXZXZXZXZXZXZXu t t y y 8 y q j 8 y k t / ZXZXZXZXZXZXZXZXZXZXZXZXZXZXZXZXZXZXZXZXZXZXZXZXZXZX",
"ZXZXZXZXZXZXZXZXZXZXZXZXZXZXZXZXZXZXZXZXL r r s XXS.S.S.D.A.A.A.A.D.S.S.<.5.r g ZXZXZXZXZXZXZXZXZXZXZXZXZXZXZXZXZXZXZXZXZXZXZXZX",
"ZXZXZXZXZXZXZXZXZXZXZXZXZXZXZXZXZXZXZXZXe l j q S.S.K.K.F.P.G.G.P.C.K.D.e.s.j y ZXZXZXZXZXZXZXZXZXZXZXZXZXZXZXZXZXZXZXZXZXZXZXZX",
"ZXZXZXZXZXZXZXZXZXZXZXZXZXZXZXZXZXZXg t 4.q.C.L.Z.Z.G.G.G.G.G.H.G.H.c.H.Z.D.0.s.s p ZXZXZXZXZXZXZXZXZXZXZXZXZXZXZXZXZXZXZXZXZXZX",
"ZXZXZXZXZXZXZXZXZXZXZXZXZXZXZXZXZXZXr l 0.k.P.x.c.c.G.G.G.G.N.H.H.J.B.M.N.C.%.:.y p ZXZXZXZXZXZXZXZXZXZXZXZXZXZXZXZXZXZXZXZXZXZX",
"ZXZXZXZXZXZXZXZXZXZXZXZXZXZXZXZXZXZXr j V.b.b.B.c.N.n.m.n.H.N.N.b.G.M.B.K.'.A.%Xl J ZXZXZXZXZXZXZXZXZXZXZXZXZXZXZXZXZXZXZXZXZXZX",
"ZXZXZXZXZXZXZXZXZXZXZXZXZXZXZXZXZXZXs 3 I.P.F.J.B.N.n.n.G.n.N.H.P.J.M.v.C.A.C.S.s J ZXZXZXZXZXZXZXZXZXZXZXZXZXZXZXZXZXZXZXZXZXZX",
"ZXZXZXZXZXZXZXZXZXZXZXZXZXZXZXZX, P 3.d.D.C.G.n.B.n.n.B.n.J.H.B.v.v.N.L.L.A.K.S.<X$XL > ZXZXZXZXZXZXZXZXZXZXZXZXZXZXZXZXZXZXZXZX",
"ZXZXZXZXZXZXZXZXZXZXZXZXZXZXZXZX1 ; h.i.A.L.J.b.n.n.B.N.G.B.H.J.G.G.G.H.x.z.D..X1X<X> > ZXZXZXZXZXZXZXZXZXZXZXZXZXZXZXZXZXZXZXZX",
"ZXZXZXZXZXZXZXZXZXZXZXZXZXZXZXZX< a h.q.I.L.x.P.m.m.N.H.n.G.b.N.b.H.G.F.B.'.9XsX3.f.'  X, , ZXZXZXZXZXZXZXZXZXZXZXZXZXZXZXZXZXZX",
"ZXZXZXZXZXZXZXZXZXZXZXZXZXZXZXZX< p i.l.V.K.H.v.m.m.H.H.H.J.N.H.c.H.P.F.M.'.wXsX6.h.' ` G , ZXZXZXZXZXZXZXZXZXZXZXZXZXZXZXZXZXZX",
"ZXZXZXZXZXZXZXZXZXZXZXZXZXZXZXZX, h ;.p.k.8.C.G.G.G.H.H.H.J.H.H.x.K.F.P.=.&.tXuXs.f.xXiXpXaXL p ZXZXZXZXZXZXZXZXZXZXZXZXZXZXZXZX",
"ZXZXZXZXZXZXZXZXZXZXZXZXZXZXZXZX: s i.q.8.t.C.L.G.F.Z.Z.H.H.H.H.L.I.F.F.=.e.rXsXf.f.xXiXkXkX> g ZXZXZXZXZXZXZXZXZXZXZXZXZXZXZXZX",
"ZXZXZXZXZXZXZXZXZXZXZXZXZXZXZXZX: t h.d.q.9.9.%.9.9.9.9.9.9.%.8.%.} 8.l.u.w.g.5.1X#XcXxXyXyXL , ZXZXZXZXZXZXZXZXZXZXZXZXZXZXZXZX",
"ZXZXZXZXZXZXZXZXZXZXZXZXZXZXZXZXd r 6.s.7.9.9.t.8.r.8.t.9.9.9.8.l.k.&.$.&.e.0.4.6X5XuXuXxXxXG L ZXZXZXZXZXZXZXZXZXZXZXZXZXZXZXZX",
"ZXZXZXZXZXZXZXZXZXZXZXZXZXZXZXZXd t 6.a.0.u.9.u.w.w.w.8.8.8.8.8.$.$.t.*.y.d.7.j.T T xXxX5X5X> , ZXZXZXZXZXZXZXZXZXZXZXZXZXZXZXZX",
"ZXZXZXZXZXZXZXZXZXZXZXZXZXZXZXZXd a 5.2.y.q.$.$.e.e.y.0.u.u.r.y.7.w.*.&.0.d.<.s.T K uXyX5X5XF ! ZXZXZXZXZXZXZXZXZXZXZXZXZXZXZXZX",
"ZXZXZXZXZXZXZXZXZXZXZXZXZXZXZXZXd r f i 7.q.u.d.2.2.y.0.y.y.w.w.y.y.&.w.y.d.{ [ >X6X6X6XI F ZXZXZXZXZXZXZXZXZXZXZXZXZXZXZXZXZXZX",
"ZXZXZXZXZXZXZXZXZXZXZXZXZXZXZXZXu 9 = q a.e.4.4.6.1.6.s.s.a.a.a.2.6.4.s.6.i.Y Y 6X<X<X#XF F ZXZXZXZXZXZXZXZXZXZXZXZXZXZXZXZXZXZX",
"ZXZXZXZXZXZXZXZXZXZXZXZXZXZXZXZXc = D V k y s s d g a a s t s r u r h e K K J L p p a p ZXZXZXZXZXZXZXZXZXZXZXZXZXZXZXZXZXZXZXZX",
"ZXZXZXZXZXZXZXZXZXZXZXZXZXZXZXZXN 5 D D 7 y a p a ~ r d d a t f u 1 p K J F ~ G L t t t ZXZXZXZXZXZXZXZXZXZXZXZXZXZXZXZXZXZXZXZX",
"ZXZXZXZXZXZXZXZXZXZXZXZXZXZXZXZXZXZXr q @.X.2.+.Z Z S @.7 8 @.S u u / T OXOXo # / / ^ ^ ZXZXZXZXZXZXZXZXZXZXZXZXZXZXZXZXZXZXZXZX",
"ZXZXZXZXZXZXZXZXZXZXZXZXZXZXZXZXZXZXp y +.X.o.o.#.X.@.@.8 0 @.V 5 7 Z ) OX+X. . / ) ^ ^ ZXZXZXZXZXZXZXZXZXZXZXZXZXZXZXZXZXZXZXZX",
"ZXZXZXZXZXZXZXZXZXZXZXZXZXZXZXZXZXZX@ O s k M O.X.X.0 q ].].].=X6 w XX-XeXeXO O &X%XZ h ZXZXZXZXZXZXZXZXZXZXZXZXZXZXZXZXZXZXZXZX",
"ZXZXZXZXZXZXZXZXZXZXZXZXZXZXZXZXZXZX  . r 8 @.O.O.O.8 4 ;X=X].].4 0 =X*XfXtXO + ;X;X) ^ ZXZXZXZXZXZXZXZXZXZXZXZXZXZXZXZXZXZXZXZX",
"ZXZXZXZXZXZXZXZXZXZXZXZXZXZXZXZXZXZXZXZXu 6 M M M M 8 8 ].].[.[.{.`.2X2X4X4XwXwX3X3X%XZXZXZXZXZXZXZXZXZXZXZXZXZXZXZXZXZXZXZXZXZX",
"ZXZXZXZXZXZXZXZXZXZXZXZXZXZXZXZXZXZXZXZX= 5 S V S 5.8 8 %X{.).[.`.:X2X2X4X4X3XwX3X3X&XZXZXZXZXZXZXZXZXZXZXZXZXZXZXZXZXZXZXZXZXZX",
"ZXZXZXZXZXZXZXZXZXZXZXZXZXZXZXZXZXZXZXZXZXZX. . O & ) Z w 4 [.[.{._.=X].4X4X3X3XZ Z ZXZXZXZXZXZXZXZXZXZXZXZXZXZXZXZXZXZXZXZXZXZX",
"ZXZXZXZXZXZXZXZXZXZXZXZXZXZXZXZXZXZXZXZXZXZX  O + + C @.2 0 =X_.`.:X*X*X4XwX3XrXz ) ZXZXZXZXZXZXZXZXZXZXZXZXZXZXZXZXZXZXZXZXZXZX",
"ZXZXZXZXZXZXZXZXZXZXZXZXZXZXZXZXZXZXZXZXZXZX: = (.(.n 4 k k 7 w ;X%XC ^ Z Z Z z ZXZXZXZXZXZXZXZXZXZXZXZXZXZXZXZXZXZXZXZXZXZXZXZX",
"ZXZXZXZXZXZXZXZXZXZXZXZXZXZXZXZXZXZXZXZXZXZX5 n Y.Y.6 4 4 8 2 6 %X,Xk A ( z 3.^ ZXZXZXZXZXZXZXZXZXZXZXZXZXZXZXZXZXZXZXZXZXZXZXZX",
"ZXZXZXZXZXZXZXZXZXZXZXZXZXZXZXZXZXZXZXZXJ i ^.U.!.W.E.~.X.#.~.T.-X1X,X,X( -.ZXZXZXZXZXZXZXZXZXZXZXZXZXZXZXZXZXZXZXZXZXZXZXZXZXZX",
"ZXZXZXZXZXZXZXZXZXZXZXZXZXZXZXZXZXZXZXZXp h R.Q.W.E.E.~. .S T.(.@X$X,X,XT ,.ZXZXZXZXZXZXZXZXZXZXZXZXZXZXZXZXZXZXZXZXZXZXZXZXZXZX",
"ZXZXZXZXZXZXZXZXZXZXZXZXZXZXZXZXZXZXZXZXO O @.| E.W.W.T.+ . c v b ! . + 3.3.z h ZXZXZXZXZXZXZXZXZXZXZXZXZXZXZXZXZXZXZXZXZXZXZXZX",
"ZXZXZXZXZXZXZXZXZXZXZXZXZXZXZXZXZXZXZXZX. + )  .Q.!.U.^.O X b b R R   O _ 5.h d ZXZXZXZXZXZXZXZXZXZXZXZXZXZXZXZXZXZXZXZXZXZXZXZX",
"ZXZXZXZXZXZXZXZXZXZXZXZXZXZXZXZXZXZXZXZX. + ).T.m ..| #.+   b v 1 ! 1 !   . B b ZXZXZXZXZXZXZXZXZXZXZXZXZXZXZXZXZXZXZXZXZXZXZXZX",
"ZXZXZXZXZXZXZXZXZXZXZXZXZXZXZXZXZXZXZXZX. O R.T...M O.S . @ v v B B 1 <   X , ! ZXZXZXZXZXZXZXZXZXZXZXZXZXZXZXZXZXZXZXZXZXZXZXZX",
"ZXZXZXZXZXZXZXZXZXZXZXZXZXZXZXZXZXZXZXZXX + O.| R.^.O . X X X X : : qXeX7X7X.   ! ! ZXZXZXZXZXZXZXZXZXZXZXZXZXZXZXZXZXZXZXZXZXZX",
"ZXZXZXZXZXZXZXZXZXZXZXZXZXZXZXZXZXZXZXZX. O @.O.^./.    # # $ X b : eX8XrXeXO O d ; ZXZXZXZXZXZXZXZXZXZXZXZXZXZXZXZXZXZXZXZXZXZX",
"ZXZXZXZXZXZXZXZXZXZXZXZXZXZXZXZXZXZXZXZXT z + O O   R E |.}.Q Q     @X@X8X0X+ % U ( + O ZXZXZXZXZXZXZXZXZXZXZXZXZXZXZXZXZXZXZXZX",
"ZXZXZXZXZXZXZXZXZXZXZXZXZXZXZXZXZXZXZXZXY -.% O     E H |.}.W ] X X @X@XqX8X& & l U + O ZXZXZXZXZXZXZXZXZXZXZXZXZXZXZXZXZXZXZXZX",
"ZXZXZXZXZXZXZXZXZXZXZXZXZXZXZXZXZXZX+ * ;.;.x k i : ] |.# # - o       . + & l Y Y x % O ZXZXZXZXZXZXZXZXZXZXZXZXZXZXZXZXZXZXZXZX",
"ZXZXZXZXZXZXZXZXZXZXZXZXZXZXZXZXZXZX% * :.:.[ { q i ] ` # @ @ @ . X   . O O U U ^ U . . ZXZXZXZXZXZXZXZXZXZXZXZXZXZXZXZXZXZXZXZX",
"ZXZXZXZXZXZXZXZXZXZXZXZXZXZXZXZXZXZX  % i.:.>.;.7.<.@ # ZXZXZXZXZXZXZXZXZXZX  O . . ZXZXZXZXZXZXZXZXZXZXZXZXZXZXZXZXZXZXZXZXZXZX",
"ZXZXZXZXZXZXZXZXZXZXZXZXZXZXZXZXZXZXX O ,.i.-.g.0.<.O o ZXZXZXZXZXZXZXZXZXZX$     $ ZXZXZXZXZXZXZXZXZXZXZXZXZXZXZXZXZXZXZXZXZXZX",
"ZXZXZXZXZXZXZXZXZXZXZXZXZXZXZXZXZXZXZXZXO O .   O . ZXZXZXZXZXZXZXZXZXZXZXZXZXZXZXZXZXZXZXZXZXZXZXZXZXZXZXZXZXZXZXZXZXZXZXZXZXZX",
"ZXZXZXZXZXZXZXZXZXZXZXZXZXZXZXZXZXZXZXZX  X X X     ZXZXZXZXZXZXZXZXZXZXZXZXZXZXZXZXZXZXZXZXZXZXZXZXZXZXZXZXZXZXZXZXZXZXZXZXZXZX",
"ZXZXZXZXZXZXZXZXZXZXZXZXZXZXZXZXZXZXZXZXZXZXZXZXZXZXZXZXZXZXZXZXZXZXZXZXZXZXZXZXZXZXZXZXZXZXZXZXZXZXZXZXZXZXZXZXZXZXZXZXZXZXZXZX",
"ZXZXZXZXZXZXZXZXZXZXZXZXZXZXZXZXZXZXZXZXZXZXZXZXZXZXZXZXZXZXZXZXZXZXZXZXZXZXZXZXZXZXZXZXZXZXZXZXZXZXZXZXZXZXZXZXZXZXZXZXZXZXZXZX",
"ZXZXZXZXZXZXZXZXZXZXZXZXZXZXZXZXZXZXZXZXZXZXZXZXZXZXZXZXZXZXZXZXZXZXZXZXZXZXZXZXZXZXZXZXZXZXZXZXZXZXZXZXZXZXZXZXZXZXZXZXZXZXZXZX",
"ZXZXZXZXZXZXZXZXZXZXZXZXZXZXZXZXZXZXZXZXZXZXZXZXZXZXZXZXZXZXZXZXZXZXZXZXZXZXZXZXZXZXZXZXZXZXZXZXZXZXZXZXZXZXZXZXZXZXZXZXZXZXZXZX",
"ZXZXZXZXZXZXZXZXZXZXZXZXZXZXZXZXZXZXZXZXZXZXZXZXZXZXZXZXZXZXZXZXZXZXZXZXZXZXZXZXZXZXZXZXZXZXZXZXZXZXZXZXZXZXZXZXZXZXZXZXZXZXZXZX",
"ZXZXZXZXZXZXZXZXZXZXZXZXZXZXZXZXZXZXZXZXZXZXZXZXZXZXZXZXZXZXZXZXZXZXZXZXZXZXZXZXZXZXZXZXZXZXZXZXZXZXZXZXZXZXZXZXZXZXZXZXZXZXZXZX",
"ZXZXZXZXZXZXZXZXZXZXZXZXZXZXZXZXZXZXZXZXZXZXZXZXZXZXZXZXZXZXZXZXZXZXZXZXZXZXZXZXZXZXZXZXZXZXZXZXZXZXZXZXZXZXZXZXZXZXZXZXZXZXZXZX",
"ZXZXZXZXZXZXZXZXZXZXZXZXZXZXZXZXZXZXZXZXZXZXZXZXZXZXZXZXZXZXZXZXZXZXZXZXZXZXZXZXZXZXZXZXZXZXZXZXZXZXZXZXZXZXZXZXZXZXZXZXZXZXZXZX",
};
