/* XPM */
static char *result[] = {
/* columns rows colors chars-per-pixel */
"64 64 243 2 ",
"   c #020202",
".  c #0C0001",
"X  c #000A02",
"o  c #01010B",
"O  c #0C030D",
"+  c #030C0B",
"@  c #0A0908",
"#  c #140100",
"$  c #170507",
"%  c #1B0001",
"&  c #0B100F",
"*  c #030113",
"=  c #070318",
"-  c #230002",
";  c #3D2F11",
":  c #311E20",
">  c #392826",
",  c #39382C",
"<  c #3A2D35",
"1  c #283638",
"2  c #383437",
"3  c #3C3932",
"4  c #46191F",
"5  c #6C1E1F",
"6  c #472D1D",
"7  c #57271D",
"8  c #411C2B",
"9  c #492724",
"0  c #4B2E26",
"q  c #422B2D",
"w  c #4B2B2D",
"e  c #552A26",
"r  c #43322D",
"t  c #48372A",
"y  c #57342B",
"u  c #482A33",
"i  c #592F31",
"p  c #423433",
"a  c #4A3738",
"s  c #543638",
"d  c #672729",
"f  c #75312E",
"g  c #693738",
"h  c #374E0C",
"j  c #334329",
"k  c #364834",
"l  c #454A1C",
"z  c #454229",
"x  c #46443C",
"c  c #574F30",
"v  c #5A4738",
"b  c #72532F",
"n  c #694639",
"m  c #78473A",
"M  c #696337",
"N  c #3B2B46",
"B  c #2F3745",
"V  c #373A45",
"C  c #462B47",
"Z  c #483945",
"A  c #54344A",
"S  c #743D4A",
"D  c #693E51",
"F  c #5A3B63",
"G  c #35454F",
"H  c #39685D",
"J  c #3D4760",
"K  c #387070",
"L  c #494444",
"P  c #5D4348",
"I  c #524D4F",
"U  c #684847",
"Y  c #774747",
"T  c #665C48",
"R  c #775547",
"E  c #674D5B",
"W  c #774F52",
"Q  c #685559",
"!  c #7A5553",
"~  c #456157",
"^  c #6F635A",
"/  c #5A5E69",
"(  c #655760",
")  c #765668",
"_  c #4C6B6A",
"`  c #586667",
"'  c #43726A",
"]  c #746672",
"[  c #8F393C",
"{  c #AC3034",
"}  c #B83939",
"|  c #86531E",
" . c #AF4C16",
".. c #8B4B2F",
"X. c #A9452A",
"o. c #AA483C",
"O. c #BB4B39",
"+. c #B7513C",
"@. c #C4433E",
"#. c #833442",
"$. c #A83C46",
"%. c #BD3E42",
"&. c #894C4E",
"*. c #99484C",
"=. c #964856",
"-. c #875659",
";. c #975658",
":. c #AA4847",
">. c #B74948",
",. c #A8514F",
"<. c #B75548",
"1. c #A54757",
"2. c #B34C51",
"3. c #A75657",
"4. c #B55357",
"5. c #91615C",
"6. c #955D64",
"7. c #885474",
"8. c #9B5C75",
"9. c #A55969",
"0. c #B45062",
"q. c #996163",
"w. c #AC6B72",
"e. c #C3544A",
"r. c #C3524F",
"t. c #CE685B",
"y. c #DC6D57",
"u. c #DD755D",
"i. c #E8655B",
"p. c #E46B5C",
"a. c #EB6C5C",
"s. c #F0685D",
"d. c #E3735C",
"f. c #E7745C",
"g. c #DA6B6A",
"h. c #CA7469",
"j. c #D97768",
"k. c #DC746B",
"l. c #D36F71",
"z. c #C97976",
"x. c #D67975",
"c. c #E66A66",
"v. c #EE6D65",
"b. c #F46866",
"n. c #F46C64",
"m. c #E27464",
"M. c #E2746C",
"N. c #EB746B",
"B. c #E87968",
"V. c #F47367",
"C. c #F26C71",
"Z. c #E67574",
"A. c #A9931A",
"S. c #B29035",
"D. c #ABA031",
"F. c #CB912D",
"G. c #CBA43D",
"H. c #B68D77",
"J. c #C69769",
"K. c #CD8874",
"L. c #C7987A",
"P. c #D59D79",
"I. c #C9A779",
"U. c #D5A378",
"Y. c #387281",
"T. c #996C88",
"R. c #BA7F81",
"E. c #CC7E85",
"W. c #BB9385",
"Q. c #BDA38A",
"!. c #BAA199",
"~. c #AC9DAA",
"^. c #B5A3AC",
"/. c #B8A9B7",
"(. c #CB8483",
"). c #C89A8B",
"_. c #D59D88",
"`. c #E89A9C",
"'. c #C8A487",
"]. c #D6A787",
"[. c #D6B38C",
"{. c #C8A896",
"}. c #D2AA94",
"|. c #D5A8A7",
" X c #C9A7B9",
".X c #D2A7B7",
"XX c #DCB1B9",
"oX c #E9A9B6",
"OX c #F4B1B1",
"+X c #E7CAA4",
"@X c #EAC9A9",
"#X c #F5CAAA",
"$X c #EFD2AE",
"%X c #F2D4AA",
"&X c #EECCB6",
"*X c #FDCBB5",
"=X c #FACBB9",
"-X c #EDD3B9",
";X c #F8D6B6",
":X c #FFE1B9",
">X c #BCABC7",
",X c #A9BACD",
"<X c #B8B4C9",
"1X c #A6B9D8",
"2X c #B8B7D8",
"3X c #B4BDE5",
"4X c #CAA9C5",
"5X c #D5ACC2",
"6X c #C4B5CA",
"7X c #D5B7CA",
"8X c #C2B8D8",
"9X c #D6B5D5",
"0X c #E7B0C2",
"qX c #ADC4E3",
"wX c #B4C2E8",
"eX c #C8C5D1",
"rX c #FBCBC3",
"tX c #F8D5C6",
"yX c #F1CFD2",
"uX c #FEDDD3",
"iX c #FBDEDA",
"pX c #FFE9C3",
"aX c #FFE5D7",
"sX c #EFDBEC",
"dX c #D9EDFA",
"fX c #ECE9EB",
"gX c #F9E8E7",
"hX c #E8F8EB",
"jX c #F6F7EA",
"kX c #FDF3EC",
"lX c #FCFEEC",
"zX c #EBEAFA",
"xX c #F9ECF7",
"cX c #EBF9F8",
"vX c #EDFEFE",
"bX c #F5F5F5",
"nX c #FCF4F3",
"mX c #F4FEF5",
"MX c #FDFDF5",
"NX c #F5F5FD",
"BX c #FEF5FE",
"VX c #F5FEFD",
"CX c #FFFEFFFF",
/* pixels */
"CXCXCXCXCXCXCXCXCXCXCXCXCXCXCXVXVXVXVXVXCXCXVXCXCXCXCXCXCXCXBXBXBXBXBXBXBXBXCXBXCXCXCXCXMXCXMXCXCXCXCXCXCXCXCXCXCXCXCXCXCXCXCXCX",
"CXCXCXCXCXCXCXCXCXCXCXCXCXCXCXCXCXVXCXVXVXCXCXCXCXCXCXCXCXCXCXBXCXCXCXCXCXCXCXCXCXCXCXCXCXCXCXCXCXCXCXCXCXCXCXCXCXCXCXCXCXCXCXCX",
"CXCXCXCXCXCXCXCXCXCXCXCXCXCXCXCXBXCXCXBXCXCXCXCXCXCXCXCXCXCXCXVXBXVXVXCXCXCXCXCXCXCXCXCXCXCXCXCXCXCXCXCXCXCXCXCXCXCXCXCXCXCXCXCX",
"CXCXCXCXCXCXCXCXCXCXCXCXCXCXCXCXCXCXBXCXCXCXCXCXCXCXMXCXVXMXMXVXVXVXVXVXVXVXVXVXVXCXCXCXCXCXCXCXCXCXCXCXCXCXCXCXCXCXCXCXCXCXCXCX",
"CXCXCXCXCXCXCXCXCXCXCXCXCXCXCXCXCXCXCXCXCXCXCXVXMXMXMXVXmXmXmXmXvXmXmXVXMXVXMXVXBXVXCXCXCXCXCXCXCXCXCXCXCXCXCXCXCXCXCXCXCXCXCXCX",
"CXCXCXCXCXCXCXCXCXCXCXCXCXCXCXCXCXCXCXCXCXCXCXBXVXVXVXMXMXMXmXMXMXMXMXMXVXCXVXCXCXCXCXCXCXCXCXCXCXCXCXCXCXCXCXCXCXCXCXCXCXCXCXCX",
"CXCXCXCXCXCXCXCXCXCXCXCXCXCXCXCXCXVXCXVXVXCXCXCXCXCXCXCXCXCXCXMXMXMXCXMXCXCXCXCXCXCXCXCXCXCXCXCXCXCXCXCXCXCXCXCXCXCXCXCXCXCXCXCX",
"CXCXCXCXCXCXCXCXCXCXCXCXCXCXCXCXVXCXCXCXCXCXCXCXCXCXCXCXCXCXCXBXCXCXCXBXCXCXCXCXCXCXCXCXCXCXCXCXCXCXCXCXCXCXCXCXCXCXCXCXCXCXCXCX",
"CXCXCXCXCXCXCXCXCXCXCXCXCXCXCXCXCXBXCXBXCXCXCXCXBXCXBXBXBXBXBXBXBXBXCXBXCXxXCXCXCXCXCXCXkXCXMXCXCXCXCXCXCXCXCXCXCXCXCXCXCXCXCXCX",
"CXCXCXCXCXCXCXCXCXCXCXCXCXCXCXCXCXCXCXxXBXBXBXCXBXBXCXCXCXCXBXCXBXCXBXCXNXCXzXCXCXCXnXCXCXMXCXCXCXCXCXCXCXCXCXCXCXCXCXCXCXCXCXCX",
"CXCXCXCXCXCXCXCXCXCXCXCXCXCXCXCXnXnXCXCXCXCXBXCXCXVXCXVXVXVXVXCXVXVXNXVXVXNXVXNXVXCXCXCXCXkXCXCXCXCXCXCXCXCXCXCXCXCXCXCXCXCXCXCX",
"CXCXCXCXCXCXCXCXCXCXCXCXCXCXCXCXCXCXCXVXbXCXVXVXVXVXVXVXVXVXVXCXCXCXVXVXVXVXVXVXCXCXVXnXMXnXMXCXCXCXCXCXCXCXCXCXCXCXCXCXCXCXCXCX",
"CXCXCXCXCXCXCXCXCXCXCXCXCXCXCXVXVXVXbXVXVXMXCX3 p 3 3 3 r 3 t t r q < a > VXNXCXBXVXCXCXCXCXjXCXCXCXCXCXCXCXCXCXCXCXCXCXCXCXCXCX",
"CXCXCXCXCXCXCXCXCXCXCXCXCXCXCXVXVXVXCXBXCXCXCXw t e e e e 7 7 7 7 7 7 9 w nXBXBXbXCXCXVXjXCXCXCXCXCXCXCXCXCXCXCXCXCXCXCXCXCXCXCX",
"CXCXCXCXCXCXCXCXCXCXCXCXCXCXCXNXVXCXxXZ q 9 g R.w.z.z.j.k.k.k.j.Z.x.(.(.H.i u u Z fXCXVXVXVXVXCXCXCXCXCXCXCXCXCXCXCXCXCXCXCXCXCX",
"CXCXCXCXCXCXCXCXCXCXCXCXCXCXCXCXBXBXBX8 g d 5 x.K.k.M.N.v.v.c.V.p.M.k.x.x.5 d e w CXCXVXVXvXCXCXCXCXCXCXCXCXCXCXCXCXCXCXCXCXCXCX",
"CXCXCXCXCXCXCXCXCXCXCXCXCXCXVXVXCXp w q.*.Z.k.m.K.y.d.a.V.f.d.p.a.V.N.M.m.M.g.2.;.a V VXvXMXMXCXCXCXCXCXCXCXCXCXCXCXCXCXCXCXCXCX",
"CXCXMXCXCXCXCXCXCXCXVXCXCXVXCXCXCXp e ;.,.m.i.d.f.d.f.i.s.y.d.f.a.a.c.y.d.a.V.e.1.u 2 vXVXCXnXCXCXCXCXCXCXCXCXCXCXCXCXCXCXCXCXCX",
"MXCXMXCXCXCXCXCXCXCXCXCXCXVXCXVXbX< e 3.r.c.V.a.i.a.V.s.n.V.V.V.V.n.v.m.m.f.i.e.1.s V CXCXCXMXCXCXCXCXCXCXCXCXCXCXCXCXCXCXCXCXCX",
"CXCXCXCXCXCXCXCXCXCXCXCXCXCXCXcXCXa i z.k.c.b.n.s.s.n.s.a.n.s.p.p.b.b.m.u.f.f.a.z.s < CXCXgXnXCXCXCXCXCXCXCXCXCXCXCXCXCXCXCXCXCX",
"CXCXCXCXCXCXCXCXCXCXCXCXCXCXVXCXCX> 4 x.Z.c.v.v.v.b.v.M.Z.C.c.B.N.b.b.g.u.u.f.f.x.w < BXCXBXCXCXCXCXCXCXCXCXCXCXCXCXCXCXCXCXCXCX",
"CXCXCXCXCXCXCXCXCXCXCXCXCXCXCXCXxXA d Z.C.N.p.p.n.N.g.h.h.l.k.x.j.C.C.B.u.d.d.K.h.7 D xXBXCXfXCXCXCXCXCXCXCXCXCXCXCXCXCXCXCXCXCX",
"CXCXCXCXCXCXCXCXCXCXCXCXCXCXCXV C 4 f t.M.B.f.d.N.k.h.).H.z.K.z.l.g.c.g.m.f.d.f.h.f 4 u Z fXCXCXCXCXCXCXCXCXCXCXCXCXCXCXCXCXCXCX",
"CXCXCXCXCXCXCXCXCXCXCXCXCXCXCX2 q q.3.O.e.y.d.d.M.h.H.tXaXrXuXaXOX`.Z.g.j.d.d.O.e.*.6.s < CXVXCXCXCXCXCXCXCXCXCXCXCXCXCXCXCXCXCX",
"CXCXCXCXCXCXCXCXCXbXCXCXCXCXCX< s ;.4.<.+.d.u.B.h.w.H.aXaXiXuXaXuXE.E.E.C.M.y.@.>.2.9.p 2 VXVXCXCXCXCXCXCXCXCXCXCXCXCXCXCXCXCXCX",
"CXCXCXCXCXCXCXCXCXCXCXbXCXCXCX  % =.2.<.+.+.O.o.,.OX|.kXiX;.;.aXaXXX`.0.%.>.e.O.e.:.*.. + hXVXCXCXCXCXCXCXCXCXCXCXCXCXCXCXCXCXCX",
"CXCXCXCXCXCXCXCXbXCXCXCXCXCXbX@ # q.:.o.<.O.r.r.3.0XXXyXsX=.q.gXyXeX.X9.0.,.o.>.r.2.9.  X mXVXCXCXCXCXCXCXCXCXCXCXCXCXCXCXCXCXCX",
"CXCXCXCXCXCXCXCXMXCXbXCXCXCXCX  # 5.,.,.<.:.4.1.=.5X5X8.w.=.6.^ ] <X7X8.9.3.<.:.>.2.;.  X MXMXCXCXCXCXCXCXCXCXCXCXCXCXCXCXCXCXCX",
"VXCXCXCXCXCXCXbXCXCXCXCXnXMXCX  $ -.&.3.:.4.1.8.T.4X9X) 7.8.8.) ] <X8X7.7.-.;.2.4.3.-.X X lXnXCXCXCXCXCXCXCXCXCXCXCXCXCXCXCXCXCX",
"CXCXCXCXCXCXCXCXCXbXbXCXCXbXCX    r y ;.3.OX0X4X8X2X2X2X9X4X0X7X X8X8X4X9X0XoX3.*.d 6   @ gXnXCXCXCXCXCXCXCXCXCXCXCXCXCXCXCXCXCX",
"VXCXCXVXCXCXCXCXCXCXCXCXfXL < O @ p t ;.3.oX X<X3X3X3X3X8X>X7X7X6X8X2X2X8X X|.;.;.e t     n 0 CXCXCXCXCXCXCXCXCXCXCXCXCXCXCXCXCX",
"CXCXCXCXCXCXCXCXMXCXMXCXMX, , # # p w ;.6.0X4X2X3X1X3XqX2X8X<X X7X8X2XwX2X6X7Xq.5.9 t . # t q CXCXCXCXCXCXCXCXCXCXCXCXCXCXCXCXCX",
"CXCXCXCXCXCXCXCXMXCXCXCXCX@ # U.J.! E i s A C <X2XzXdXdXdXdXxXsXxXsXdX,X3XC A w 0 ! b P.P.. + CXCXCXCXCXCXCXCXCXCXCXCXCXCXCXCXCX",
"CXCXCXCXCXCXCXCXCXCXCXCXCX  . J.P.W E t > C C 2X6XsXxXcXdXNXsXxXyXzXNX<X>XF 8 q t U m ].].  o CXCXCXCXCXCXCXCXCXCXCXCXCXCXCXCXCX",
"CXCXCXCXCXCXCXbXCXCXCXCXCX  $ U.L.u V Q Q Q ( Q 7.W n t , < Z 2 V ( ( E ) F ) Q M t 7 K.K.. * VXCXCXCXCXCXCXCXCXCXCXCXCXCXCXCXCX",
"CXCXCXCXCXCXCXCXCXbXVXCXbX@   ).{.Z N Q v T T U W m m 6 6 t < a 2 Q ( E ( ) Q v M t 6 '.).  o CXCXCXCXCXCXCXCXCXCXCXCXCXCXCXCXCX",
"CXCXCXCXCXCXCXbXCXCXCXCXCXbXCX. O N a '.I.T T }.).e y {.}.}.).{.!.s N ^.^.W R I.[.; a # # CXVXCXCXCXCXCXCXCXCXCXCXCXCXCXCXCXCXCX",
"CXCXCXCXCXCXCXCXCXbXCXCXbXCXbX* = C r U.U.b R Q.Q.6 0 ).L.]._._.|.w 3 ~.~.n b I.H.x 2 o . CXCXCXCXCXCXCXCXCXCXCXCXCXCXCXCXCXCXCX",
"CXCXCXCXCXCXCXCXCXCXCXCXbXCXCXCXBX. % P.J.[.I.aXaX$ . ;X*X*X*X*X=X# . fXbXQ.].U.[.. * VXNXMXnXCXCXCXCXCXCXCXCXCXCXCXCXCXCXCXCXCX",
"CXCXCXCXCXCXCXCXCXCXbXCXCXbXCXMXCX. % ].U.J.Q.aXgX$ # ;X#X*XrX=X#X% . gXgX'.L.U.W.. o vXVXCXCXCXCXCXCXCXCXCXCXCXCXCXCXCXCXCXCXCX",
"CXCXCXCXCXCXCXCXCXCXCXCXCXCXMXlXlXkXnX# % '.'.yXyX-X$X%X%XtXrX-X$X%X#XtXrX}.).# # bXVXmXMXMXCXCXCXCXCXCXCXCXCXCXCXCXCXCXCXCXCXCX",
"CXCXCXCXCXCXCXCXCXCXCXCXCXCXMXjXlXkXCX& . {.}.;X&X-X;X%X;X;X;X@XpX+X#X*XOX_.|.$   CXmXmXmXgXCXCXCXCXCXCXCXCXCXCXCXCXCXCXCXCXCXCX",
"CXCXCXCXCXCXCXCXCXCXCXCXCXCXCXmXmXCXbX+   Y m L.[.@X@X:X;XL.].;X@X;X;X_.`.| b . o VXVXmXlXMXBXCXCXCXCXCXCXCXCXCXCXCXCXCXCXCXCXCX",
"CXCXCXCXCXCXCXCXCXCXCXCXCXCXVXVXVXVXVX=   &...].'.tXtX-X%XU.U.%X$X-X=X_._.| b #   CXCXmXlXMXMXCXCXCXCXCXCXCXCXCXCXCXCXCXCXCXCXCX",
"CXCXCXCXCXCXCXCXCXCXCXCXCXCXVXmXVXo = 1 , S.F.[ S q q Q.[.P.U.L.[.> 2 -.&.S.S.c 2 * * CXMXMXMXCXCXCXCXCXCXCXCXCXCXCXCXCXCXCXCXCX",
"CXCXCXCXCXCXCXCXCXCXCXCXCXCXCXBXbXo + 1 l G.F...&.a Z !.{.I.U.}.Q.L A #...F.A.h x = = CXCXkXCXCXCXCXCXCXCXCXCXCXCXCXCXCXCXCXCXCX",
"CXCXCXCXCXCXCXCXCXCXCXCXCXCXCXY -.3 k k l A.F. ... X<XC : v ; ; < ~.4X=.X.F.A.h j B Z P P BXBXCXCXCXCXCXCXCXCXCXCXCXCXCXCXCXCXCX",
"CXCXCXCXCXCXCXCXCXCXCXCXCXCXCXg m y z , l S.F. .O.|.4XC 2 , , 1 Z  X0X$.X.F.D.h k L A U U xXBXCXCXCXCXCXCXCXCXCXCXCXCXCXCXCXCXCX",
"CXCXCXCXCXCXCXCXCXCXnXBXBXP U rXtX).{.z z M | X.} $.3..X/.I B ,X>X=.>.} X.| b z t {.'.$XrXS D CXCXCXCXCXCXCXCXCXCXCXCXCXCXCXCXCX",
"CXCXCXCXCXVXCXCXCXCXCXxXCXU U &X$X`.).z z c R o.>.} $.|. XV J 1X>X2.{ >.:.R T a 6 '.I.@X*X&.S BXCXCXCXCXCXCXCXCXCXCXCXCXCXCXCXCX",
"CXCXCXVXCXCXCXCXnXCXBXkXCXP P tX=XrXrX# .   # [ { $.*.XXeX1 V 2X5X$.{ { ..#   O # tX;X$X;Xg Y CXCXCXCXCXCXCXCXCXCXCXCXCXCXCXCXCX",
"CXCXCXCXCXVXCXMXNXCXCXMXnXQ v -X#XrXyX#   &   S S *.=.^./.G G >X5X=.,.[ g o o o . -XtX;X@X-.s CXCXCXCXCXCXCXCXCXCXCXCXCXCXCXCXCX",
"CXCXCXCXVXCXCXVXCXCXnXBXCXkXBXn m [ g $ * _ ` O % - % @ @   * O O # # # @ ` ] * = S S f n kXMXCXCXCXCXCXCXCXCXCXCXCXCXCXCXCXCXCX",
"CXCXCXCXVXCXCXVXCXCXCXCXnXCXnXn m Y U   * _ _ * o . X X   O * * = o X   X ` / * O U R m W nXbXCXCXCXCXCXCXCXCXCXCXCXCXCXCXCXCXCX",
"CXCXCXCXCXVXCXCXVXbXCXCXCXCXkXlXkXlXVX+ + G B V V ~ ' K K I B Y.K H _ j , L V   + mXMXlXjXCXCXCXCXCXCXCXCXCXCXCXCXCXCXCXCXCXCXCX",
"CXCXCXCXCXCXCXVXCXCXVXMXCXCXCXMXCXMXmX+ + 2 I A a ` H K ' V G Y.Y.K ~ c 0 s s     mXmXVXVXBXCXCXCXCXCXCXCXCXCXCXCXCXCXCXCXCXCXCX",
"CXCXCXCXCXCXCXCXVXCXCXCXCXCXVXVXVXVXCX# - =.1.$.=.% X X + * * = = +   -.=.1.=.. X MXhXCXCXxXCXCXCXCXCXCXCXCXCXCXCXCXCXCXCXCXCXCX",
"CXCXCXCXCXCXCXVXVXCXCXVXVXCXVXVXVXVXCX# - =.1.1.=.% .   o = * = O   . ;.*.1.=.. & hXVXCXCXBXCXCXCXCXCXCXCXCXCXCXCXCXCXCXCXCXCXCX",
"CXCXCXCXCXCXCXCXCXCXVXCXCXVXCXVXNXBXCXnXMX. . . # MXnXCXCXxXBXBXBXMXCX. # % $ BXzXCXCXbXMXMXMXCXCXCXCXCXCXCXCXCXCXCXCXCXCXCXCXCX",
"CXCXCXCXCXCXCXCXCXCXCXCXCXCXCXCXCXCXCXMXjX  X X X MXnXCXxXBXBXnXbXCXlX      o VXVXNXCXCXMXMXlXCXCXCXCXCXCXCXCXCXCXCXCXCXCXCXCXCX",
"CXCXCXCXCXCXCXCXCXCXCXCXCXCXVXVXVXbXCXkXMXMXMXmXMXlXCXBXCXCXMXCXMXVXmXCXCXCXCXcXVXVXCXCXkXlXMXCXCXCXCXCXCXCXCXCXCXCXCXCXCXCXCXCX",
"CXMXCXCXCXCXCXCXCXCXCXCXCXCXCXVXVXCXBXCXMXmXMXVXVXCXBXkXCXhXmXVXmXhXMXbXCXCXNXcXVXNXBXBXBXnXlXCXCXCXCXCXCXCXCXCXCXCXCXCXCXCXCXCX",
"CXCXMXCXBXCXCXCXCXCXCXCXCXCXCXCXbXCXCXCXCXCXNXVXNXBXCXCXMXmXmXVXVXCXBXCXMXMXCXCXCXBXBXBXBXVXVXCXCXCXCXCXCXCXCXCXCXCXCXCXCXCXCXCX",
"CXMXCXCXCXCXCXCXCXCXCXCXCXCXCXCXCXCXbXCXCXbXCXCXCXCXbXCXMXhXVXVXVXCXCXCXMXMXlXMXCXxXCXBXCXVXvXCXCXCXCXCXCXCXCXCXCXCXCXCXCXCXCXCX"
};
