/* XPM */
static char *result[] = {
/* columns rows colors chars-per-pixel */
"63 64 239 2 ",
"   c #030201",
".  c #0C0101",
"X  c #020A01",
"o  c #07050B",
"O  c #130001",
"+  c #150706",
"@  c #1B0100",
"#  c #071100",
"$  c #070214",
"%  c #1F0010",
"&  c #220100",
"*  c #2B0000",
"=  c #260F19",
"-  c #2D301E",
";  c #382929",
":  c #3A3529",
">  c #392B32",
",  c #2B3C35",
"<  c #363333",
"1  c #393235",
"2  c #3B3A35",
"3  c #38393D",
"4  c #5D0B18",
"5  c #472C04",
"6  c #542D0A",
"7  c #4B3503",
"8  c #573509",
"9  c #4B2917",
"0  c #572818",
"q  c #4A3718",
"w  c #583418",
"e  c #662414",
"r  c #521D2C",
"t  c #671F30",
"y  c #482925",
"u  c #4B2C2C",
"i  c #562924",
"p  c #532C2C",
"a  c #473827",
"s  c #44342C",
"d  c #4C322C",
"f  c #553526",
"g  c #472A37",
"h  c #4C2D32",
"j  c #582937",
"k  c #443233",
"l  c #4C3332",
"z  c #473838",
"x  c #4A3C3D",
"c  c #533333",
"v  c #563938",
"b  c #632526",
"n  c #792A27",
"m  c #673429",
"M  c #7B352D",
"N  c #642B36",
"B  c #643838",
"V  c #753A33",
"C  c #3C431F",
"Z  c #37452C",
"A  c #2C4537",
"S  c #3C4636",
"D  c #494718",
"F  c #62410F",
"G  c #7D4A1A",
"H  c #484227",
"J  c #45423A",
"K  c #574432",
"L  c #794B29",
"P  c #7B532D",
"I  c #664639",
"U  c #784838",
"Y  c #665038",
"T  c #7B553A",
"R  c #3A3A45",
"E  c #4B2842",
"W  c #473945",
"Q  c #4F354C",
"!  c #623644",
"~  c #783747",
"^  c #2A4546",
"/  c #384C4E",
"(  c #474444",
")  c #5B4548",
"_  c #664B4A",
"`  c #764846",
"'  c #765541",
"]  c #6D515D",
"[  c #535B6D",
"{  c #665A70",
"}  c #4F6C74",
"|  c #6F6172",
" . c #843530",
".. c #964A04",
"X. c #8F510B",
"o. c #834C16",
"O. c #924B1B",
"+. c #845519",
"@. c #8B531B",
"#. c #A6590D",
"$. c #96601A",
"%. c #884A27",
"&. c #944A29",
"*. c #875628",
"=. c #914E35",
"-. c #885B35",
";. c #AB4C37",
":. c #B6493B",
">. c #A65538",
",. c #C9473A",
"<. c #9C3D4E",
"1. c #A13848",
"2. c #8A4847",
"3. c #98494C",
"4. c #895749",
"5. c #9B544E",
"6. c #9A4457",
"7. c #8A585A",
"8. c #995656",
"9. c #AA4A48",
"0. c #B34C46",
"q. c #B94945",
"w. c #B54E4B",
"e. c #AD5144",
"r. c #AA534A",
"t. c #B45143",
"y. c #B75449",
"u. c #BC534C",
"i. c #A84855",
"p. c #B44B55",
"a. c #A85656",
"s. c #A4535C",
"d. c #B45253",
"f. c #B9545B",
"g. c #8C6352",
"h. c #A76244",
"j. c #9B5267",
"k. c #A84C63",
"l. c #A94E6E",
"z. c #A95561",
"x. c #B05764",
"c. c #896560",
"v. c #986162",
"b. c #B8766C",
"n. c #C2544B",
"m. c #C75356",
"M. c #DC6D4F",
"N. c #DA695B",
"B. c #CE795B",
"V. c #DD765C",
"C. c #DA785B",
"Z. c #E86555",
"A. c #E46C5B",
"S. c #EC6C5D",
"D. c #F16B5C",
"F. c #E67458",
"G. c #E4735D",
"H. c #EA725D",
"J. c #F0775D",
"K. c #CE6B6D",
"L. c #DB6C69",
"P. c #CA786E",
"I. c #DD7462",
"U. c #DB746B",
"Y. c #D4796B",
"T. c #C77A77",
"R. c #D97975",
"E. c #E56867",
"W. c #E26D64",
"Q. c #EC6B62",
"!. c #ED6D6A",
"~. c #F36B63",
"^. c #F66866",
"/. c #E47263",
"(. c #EB7262",
"). c #E4726C",
"_. c #EB766B",
"`. c #F77468",
"'. c #E96A72",
"]. c #E57776",
"[. c #E97271",
"{. c #F47375",
"}. c #BA9A02",
"|. c #AF8E11",
" X c #B79415",
".X c #B7A90C",
"XX c #B0A717",
"oX c #BC8B26",
"OX c #B69926",
"+X c #AD9133",
"@X c #A99E32",
"#X c #B69736",
"$X c #C59B01",
"%X c #C38816",
"&X c #C49515",
"*X c #D4991A",
"=X c #D0A410",
"-X c #C6932E",
";X c #D0A52E",
":X c #B6964C",
">X c #BBA645",
",X c #B78D7A",
"<X c #D2906F",
"1X c #C78079",
"2X c #CDA57D",
"3X c #EC7B80",
"4X c #BB9D89",
"5X c #BFA294",
"6X c #C89C85",
"7X c #D1938C",
"8X c #CAA687",
"9X c #D9A48A",
"0X c #D3A997",
"qX c #E9A59C",
"wX c #EACDB9",
"eX c #F6CCB7",
"rX c #F9C7BC",
"tX c #F7CDC6",
"yX c #ECD2C3",
"uX c #FAD5C4",
"iX c #F7DAD5",
"pX c #FFF5D6",
"aX c #DCFDF1",
"sX c #FFFDE4",
"dX c #FCF6E8",
"fX c #F4FDED",
"gX c #FDFDEC",
"hX c #FAEDF6",
"jX c #E7FCF6",
"kX c #ECFEFF",
"lX c #F2F0F1",
"zX c #F5F5F4",
"xX c #FBF4F5",
"cX c #F3FDF3",
"vX c #FDFDF4",
"bX c #F4F5FD",
"nX c #FDF5FD",
"mX c #F4FEFE",
"MX c #FFFFFFFF",
/* pixels */
"MXMXMXMXMXMXMXMXMXMXMXMXMXMXMXMXMXMXMXMXMXMXMXMXMXMXMXMXMXMXMXMXMXMXMXMXMXMXMXMXMXMXMXMXMXMXMXMXMXMXMXMXMXMXMXMXMXMXMXMXMXMXMX",
"MXMXMXMXMXMXMXMXMXMXMXMXMXMXMXMXMXMXMXMXMXMXMXMXMXMXMXMXMXMXMXMXMXMXMXMXMXMXMXMXMXMXMXMXMXMXMXMXMXMXMXMXMXMXMXMXMXMXMXMXMXMXMX",
"MXMXMXMXMXMXMXMXMXMXMXMXMXMXMXMXMXMXMXMXMXMXMXMXMXMXMXMXMXMXMXMXMXMXMXMXMXMXMXMXMXMXMXMXMXMXMXMXMXMXMXMXMXMXMXMXMXMXMXMXMXMXMX",
"MXMXMXMXMXMXMXMXMXMXMXMXMXMXMXMXMXMXMXMXMXMXMXMXMXMXMXMXMXMXMXMXMXMXMXMXMXMXMXMXMXMXMXMXMXMXMXMXMXMXMXMXMXMXMXMXMXMXMXMXMXMXMX",
"MXMXMXMXMXMXMXMXMXMXMXMXMXMXMXMXMXMXMXMXMXMXMXMXMXMXMXMXMXMXMXMXMXMXMXMXMXMXMXMXMXMXMXMXMXMXMXMXMXMXMXMXMXMXMXMXMXMXMXMXMXMXMX",
"MXMXMXMXMXMXMXMXMXMXMXMXMXMXMXMXMXMXMXMXMXMXMXMXMXMXMXMXMXMXMXMXMXMXMXMXMXMXMXMXMXMXMXMXMXMXMXMXMXMXMXMXMXMXMXMXMXMXMXMXMXMXMX",
"MXMXMXMXMXMXMXMXMXMXMXMXMXMXMXMXMXMXMXMXMXMXMXMXMXMXMXMXMXMXMXMXMXMXMXMXMXMXMXMXMXMXMXMXMXMXMXMXMXMXMXMXMXMXMXMXMXMXMXMXMXMXMX",
"MXMXMXMXMXMXMXMXMXMXMXMXMXMXMXMXMXMXMXMXMXMXMXMXMXMXMXMXMXMXMXMXMXMXMXMXMXMXMXMXMXMXMXMXMXMXMXMXMXMXMXMXMXMXMXMXMXMXMXMXMXMXMX",
"MXMXMXMXMXMXMXMXMXMXMXMXMXMXMXMXMXMXMXMXMXMXMXMXMXMXMXMXMXMXMXMXMXMXMXMXMXMXMXMXMXMXMXMXMXMXMXMXMXMXMXMXMXMXMXMXMXMXMXMXMXMXMX",
"MXMXMXMXMXMXMXMXMXMXMXMXMXMXMXMXMXMXMXMXMXMXMXMXMXMXMXMXMXMXMXMXMXMXMXMXMXMXMXMXMXMXMXMXMXMXMXMXMXMXMXMXMXMXMXMXMXMXMXMXMXMXMX",
"MXMXMXMXMXMXMXMXMXMXMXMXMXMXMXMXMXMXMXMXMXMXMXMX1 1 1 1 1 1 1 1 1 < 1 1 > ( MXMXMXMXMXMXMXMXMXMXMXMXMXMXMXMXMXMXMXMXMXMXMXMXMX",
"MXMXMXMXMXMXMXMXMXMXMXMXMXMXMXMXMXMXMXMXMXMXMXMXk k u h p p p p p c y j y s MXMXMXMXMXMXMXMXMXMXMXMXMXMXMXMXMXMXMXMXMXMXMXMXMX",
"MXMXMXMXMXMXMXMXMXMXMXMXMXMXMXMXMXMXMXMX: : a a ,X,Xb.T.R.).Y.Y.).).R.K.R.1X9 d c ; MXMXMXMXMXMXMXMXMXMXMXMXMXMXMXMXMXMXMXMXMX",
"MXMXMXMXMXMXMXMXMXMXMXMXMXMXMXMXMXMXMXMXv 9 0 0 P.P.U./.^.D.S.H.Z.Q.`.!.].K.b i y h MXMXMXMXMXMXMXMXMXMXMXMXMXMXMXMXMXMXMXMXMX",
"MXMXMXMXMXMXMXMXMXMXMXMXMXMXMXMXMXMX> j 3.9.R.).).!.~.^.~.~.G.G.I./.Q.Q.).R.b.T.8.v.u 2 MXMXMXMXMXMXMXMXMXMXMXMXMXMXMXMXMXMXMX",
"MXMXMXMXMXMXMXMXMXMXMXMXMXMXMXMXMXMXh b x.m.L.A.!.~.^.^.D.S.G.V.C.I.S.~.W.U.R.R.a.8.p ; MXMXMXMXMXMXMXMXMXMXMXMXMXMXMXMXMXMXMX",
"MXMXMXMXMXMXMXMXMXMXMXMXMXMXMXMXMXMXu b K.'.)._././.Q.Q.G.V.F.C.B.B.S.`.(.A.W.L.L.7Xi p MXMXMXMXMXMXMXMXMXMXMXMXMXMXMXMXMXMXMX",
"MXMXMXMXMXMXMXMXMXMXMXMXMXMXMXMXMXMXp b 3X'.W.I.I.I.(.(.V.C.V.V.<XN.D.D.F.A.`.`.[.L.b i MXMXMXMXMXMXMXMXMXMXMXMXMXMXMXMXMXMXMX",
"MXMXMXMXMXMXMXMXMXMXMXMXMXMXMXMX; s 7.a.E.{.A./.I.V.G.G.G.G.S.F.C.F.J.Z.J.Z.Z.Z.Z.).r.7.v g MXMXMXMXMXMXMXMXMXMXMXMXMXMXMXMXMX",
"MXMXMXMXMXMXMXMXMXMXMXMXMXMXMXMXz h 8.i.[.~.Q.A.V.G.G.S.F.S.D.S.F.Z.`.Z.J.F.F.(.Q.{.9.8.p 1 MXMXMXMXMXMXMXMXMXMXMXMXMXMXMXMXMX",
"MXMXMXMXMXMXMXMXMXMXMXMXMXMXMXMX< s 8.p.E.~.`.D.S.(.A./.S.~.S.`.D.^.`.Z.J.M.V.F.Q.!.0.s.p 1 MXMXMXMXMXMXMXMXMXMXMXMXMXMXMXMXMX",
"MXMXMXMXMXMXMXMXMXMXMXMXMXMXMXMXJ l 8.f.!.!.`.Z.S.Q./.(.~.^.Z.Q.^.D.D.A.F.F.M.<XV.W.q.5.c 2 MXMXMXMXMXMXMXMXMXMXMXMXMXMXMXMXMX",
"MXMXMXMXMXMXMXMXMXMXMXMXMXMXMXMX; u z.p.w.:.A.`././.I.I.^.^.!.{.^.^.Q.Q.F.V.B.B.;.n.m.i.c < MXMXMXMXMXMXMXMXMXMXMXMXMXMXMXMXMX",
"MXMXMXMXMXMXMXMXMXMXMXMXMXMXMXMXx j z.p.w.y./.G./.I.).L.!.^.[.!.~.!.W._.N.I.B.C.t.w.9.8.c 1 MXMXMXMXMXMXMXMXMXMXMXMXMXMXMXMXMX",
"MXMXMXMXMXMXMXMXMXMXMXMXMXMXMXMXg t k.p.d.q.u.:.t.q.L.'.{.'.].R.R.Y.U.L.t.t.t.t.9.w.a.v.l ; MXMXMXMXMXMXMXMXMXMXMXMXMXMXMXMXMX",
"MXMXMXMXMXMXMXMXMXMXMXMXMXMXMXMXg j j.i.p.:.u.u.t.n.L.].R.K.1Xb.b.b.R.U.u.q.q.e.w.d.4.7.y z MXMXMXMXMXMXMXMXMXMXMXMXMXMXMXMXMX",
"MXMXMXMXMXMXMXMXMXMXMXMXMXMXJ < W > h i 5.w.r.e.y.e.w.r.m f H H H F 9.u.:.n.m.w.f.3.m v k ; _ ; MXMXMXMXMXMXMXMXMXMXMXMXMXMXMX",
"MXMXMXMXMXMXMXMXMXMXMXMXMXMX: < 1 < x h 8.r.;.t.e.e.a.v.l Z S Z H H 4.a.w.1.Z.1.w.a.f ; y d ; W MXMXMXMXMXMXMXMXMXMXMXMXMXMXMX",
"MXMXMXMXMXMXMXMXMXMXMXMXMXMX  . 8X4XQ Q 4.h.;.:.n.=.I s Z A Z Z C H x c 5.q.,.,.>.g.i y 0X5X  o MXMXMXMXMXMXMXMXMXMXMXMXMXMXMX",
"MXMXMXMXMXMXMXMXMXMXMXMXMXMX  . 8X2XE E c.-.y.:.t.=.B z J J a f w a W Q 5.y.:.y.8.c.u f 8X6Xo   MXMXMXMXMXMXMXMXMXMXMXMXMXMXMX",
"MXMXMXMXMXMXMXMXMXMXMXMXMXMX  + 2X9XE E ! j r N x.a.i.5.8.s.i.r.a.a.j.j.s.8.N j E > c 0 2X9X+ . MXMXMXMXMXMXMXMXMXMXMXMXMXMXMX",
"MXMXMXMXMXMXMXMXMXMXMXMXMXMXo . 8X8Xr E g y c r 7.8.s.s.k.x.f.a.p.z.l.l.j.7.u g g z f q 8X,X@ + MXMXMXMXMXMXMXMXMXMXMXMXMXMXMX",
"MXMXMXMXMXMXMXMXMXMXMXMXMXMXMXMXO @ N j 4.P 8 q d l l h g j E j p p E E k c 9 f ` U 5 q . + MXMXMXMXMXMXMXMXMXMXMXMXMXMXMXMXMX",
"MXMXMXMXMXMXMXMXMXMXMXMXMXMXMXMX. O h 9 P P 5 D a s s : k 1 g g d u z z ; w 6 w T T q a     MXMXMXMXMXMXMXMXMXMXMXMXMXMXMXMXMX",
"MXMXMXMXMXMXMXMXMXMXMXMXMXMXMXMXMXMX  # a a ' U 2.T P P T T ' ' ' Y T *.*.%.%.P 9 x .   MXMXMXMXMXMXMXMXMXMXMXMXMXMXMXMXMXMXMX",
"MXMXMXMXMXMXMXMXMXMXMXMXMXMXMXMXMXMXX   J z _ ' =.%.@.@.%.-.*.*.T L *.G O.O.=.T a 2     MXMXMXMXMXMXMXMXMXMXMXMXMXMXMXMXMXMXMX",
"MXMXMXMXMXMXMXMXMXMXMXMXMXMXMXMXMXMXMXMX  . u 0 L -.o.o.&.%.&.&.%.-.o.@.%.%.w q   X MXMXMXMXMXMXMXMXMXMXMXMXMXMXMXMXMXMXMXMXMX",
"MXMXMXMXMXMXMXMXMXMXMXMXMXMXMXMXMXMXMXMX  . K d T -.%.-.@.>.&.&.%.+.+.-.P g.9 :   # MXMXMXMXMXMXMXMXMXMXMXMXMXMXMXMXMXMXMXMXMX",
"MXMXMXMXMXMXMXMXMXMXMXMXMXMXMXMXMXMXMXMX) W       . y 9 G @.O.O.+.P 6 y   .   . : ( MXMXMXMXMXMXMXMXMXMXMXMXMXMXMXMXMXMXMXMXMX",
"MXMXMXMXMXMXMXMXMXMXMXMXMXMXMXMXMXMXMXMX( 1 o   . # l f P G *.@.G -.d y + .   + ( W MXMXMXMXMXMXMXMXMXMXMXMXMXMXMXMXMXMXMXMXMX",
"MXMXMXMXMXMXMXMXMXMXMXMXMXMXMXMXMXMX    S ( k H >X+X6 i 9 f 0 0 M 4 t M +X#XD - z ( $ $ MXMXMXMXMXMXMXMXMXMXMXMXMXMXMXMXMXMXMX",
"MXMXMXMXMXMXMXMXMXMXMXMXMXMXMXMXMXvXX X S x p w |.-X8 f w 5 5 8 e n t 0 -X Xw v 2 R o $ MXMXMXMXMXMXMXMXMXMXMXMXMXMXMXMXMXMXMX",
"MXMXMXMXMXMXMXMXMXMXMXMXMXMXMXMX    R ^ Z z B M ;XoXO   @X|.;X&X}.#XO +  X XL r J A / 3 + . MXMXMXMXMXMXMXMXMXMXMXMXMXMXMXMXMX",
"MXMXMXMXMXMXMXMXMXMXMXMXMXMXMXMX. . 3 R S x V n -X#X@ X XX.X}.$X.XXX. . @X-X .<.s Z Z a O O MXMXMXMXMXMXMXMXMXMXMXMXMXMXMXMXMX",
"MXMXMXMXMXMXMXMXMXMXMXMXMXMX_ ) yXwX8X0X  O k.<.& O :XOXXX.X}.$X}..X-X:X* * 1.l..   7X0XwXiXI _ MXMXMXMXMXMXMXMXMXMXMXMXMXMXMX",
"MXMXMXMXMXMXMXMXMXMXMXMXMXMX_ _ wXeX0X6X. O 6.k.@ @ -X-X}.}.$X}.}.$X|.#X@ * 1.<..   7XqXwXyXU ` MXMXMXMXMXMXMXMXMXMXMXMXMXMXMX",
"MXMXMXMXMXMXMXMXMXMXMXMXMXMX) _ iXtXeXuX  . V n w 6 @...&X.X*X*X$X=XX.+.w q n M O o tXrXyXuXV V MXMXMXMXMXMXMXMXMXMXMXMXMXMXMX",
"MXMXMXMXMXMXMXMXMXMXMXMXMXMX] ) tXtXrXtX  . N V 0 8 X.X.%X&XoX%X*X|.X.*.5 8 U B     iXtXrXrXU ` MXMXMXMXMXMXMXMXMXMXMXMXMXMXMX",
"MXMXMXMXMXMXMXMXMXMXMXMXMXMXMXMXI L ~ ! R R | | q 7 OX-X..#.#.X.O.$.oX-X7 w ] { A Z K V  .2.MXMXMXMXMXMXMXMXMXMXMXMXMXMXMXMXMX",
"MXMXMXMXMXMXMXMXMXMXMXMXMXMXMXMX_ I ~ ] ( ( [ [ - D @X-X......#...@.#X:X9 - [ } A J Y ' U B MXMXMXMXMXMXMXMXMXMXMXMXMXMXMXMXMX",
"MXMXMXMXMXMXMXMXMXMXMXMXMXMXMXMXMXMXMXMX$ $ ^ ^ } / # @ -X;X|.}.*X-XO X } } ^ A X   MXMXMXMXMXMXMXMXMXMXMXMXMXMXMXMXMXMXMXMXMX",
"MXMXMXMXMXMXMXMXMXMXMXMXMXMXMXMXMXMXMXMXo o ( 3 } | o . :X+X+X#X-X:X  $ } [ / z . . MXMXMXMXMXMXMXMXMXMXMXMXMXMXMXMXMXMXMXMXMX",
"MXMXMXMXMXMXMXMXMXMXMXMXMXMXMXMXMXMXMXMXO * 3.<.1.3.x ( W 1 K H a Z : K 2.8.6.6.* O MXMXMXMXMXMXMXMXMXMXMXMXMXMXMXMXMXMXMXMXMX",
"MXMXMXMXMXMXMXMXMXMXMXMXMXMXMXMXMXMXMXMX. @ 6.p.p.3.d < R Q W 3 , , J f 2.<.l.i.& = MXMXMXMXMXMXMXMXMXMXMXMXMXMXMXMXMXMXMXMXMX",
"MXMXMXMXMXMXMXMXMXMXMXMXMXMXMXMXMXMXMXMXMXMX  . O O MXMXMXMXMXMXMXMXMXMXO % % % MXMXMXMXMXMXMXMXMXMXMXMXMXMXMXMXMXMXMXMXMXMXMX",
"MXMXMXMXMXMXMXMXMXMXMXMXMXMXMXMXMXMXMXMXMXMXX   o o MXMXMXMXMXMXMXMXMXMXo $ $ $ MXMXMXMXMXMXMXMXMXMXMXMXMXMXMXMXMXMXMXMXMXMXMX",
"MXMXMXMXMXMXMXMXMXMXMXMXMXMXMXMXMXMXMXMXMXMXMXMXMXMXMXMXMXMXMXMXMXMXMXMXMXMXMXMXMXMXMXMXMXMXMXMXMXMXMXMXMXMXMXMXMXMXMXMXMXMXMX",
"MXMXMXMXMXMXMXMXMXMXMXMXMXMXMXMXMXMXMXMXMXMXMXMXMXMXMXMXMXMXMXMXMXMXMXMXMXMXMXMXMXMXMXMXMXMXMXMXMXMXMXMXMXMXMXMXMXMXMXMXMXMXMX",
"MXMXMXMXMXMXMXMXMXMXMXMXMXMXMXMXMXMXMXMXMXMXMXMXMXMXMXMXMXMXMXMXMXMXMXMXMXMXMXMXMXMXMXMXMXMXMXMXMXMXMXMXMXMXMXMXMXMXMXMXMXMXMX",
"MXMXMXMXMXMXMXMXMXMXMXMXMXMXMXMXMXMXMXMXMXMXMXMXMXMXMXMXMXMXMXMXMXMXMXMXMXMXMXMXMXMXMXMXMXMXMXMXMXMXMXMXMXMXMXMXMXMXMXMXMXMXMX",
"MXMXMXMXMXMXMXMXMXMXMXMXMXMXMXMXMXMXMXMXMXMXMXMXMXMXMXMXMXMXMXMXMXMXMXMXMXMXMXMXMXMXMXMXMXMXMXMXMXMXMXMXMXMXMXMXMXMXMXMXMXMXMX",
"MXMXMXMXMXMXMXMXMXMXMXMXMXMXMXMXMXMXMXMXMXMXMXMXMXMXMXMXMXMXMXMXMXMXMXMXMXMXMXMXMXMXMXMXMXMXMXMXMXMXMXMXMXMXMXMXMXMXMXMXMXMXMX",
"MXMXMXMXMXMXMXMXMXMXMXMXMXMXMXMXMXMXMXMXMXMXMXMXMXMXMXMXMXMXMXMXMXMXMXMXMXMXMXMXMXMXMXMXMXMXMXMXMXMXMXMXMXMXMXMXMXMXMXMXMXMXMX",
"MXMXMXMXMXMXMXMXMXMXMXMXMXMXMXMXMXMXMXMXMXMXMXMXMXMXMXMXMXMXMXMXMXMXMXMXMXMXMXMXMXMXMXMXMXMXMXMXMXMXMXMXMXMXMXMXMXMXMXMXMXMXMX",
};
