/* XPM */
static char *_177fa8a68964e9ad2eae0955e08dba65T8yhbx7Hu2iMdOg[] = {
/* columns rows colors chars-per-pixel */
"64 64 245 2 ",
"   c #020202",
".  c #0B0101",
"X  c #010B01",
"o  c #070A07",
"O  c #020309",
"+  c #0B010A",
"@  c #130100",
"#  c #1B0001",
"$  c #1B0707",
"%  c #040614",
"&  c #150414",
"*  c #151310",
"=  c #220000",
"-  c #2B0408",
";  c #230114",
":  c #372C13",
">  c #001023",
",  c #2F2F2F",
"<  c #382B2A",
"1  c #3A3927",
"2  c #3A2E36",
"3  c #2D3836",
"4  c #393435",
"5  c #3C3A33",
"6  c #601D1D",
"7  c #432B0E",
"8  c #552806",
"9  c #4D380B",
"0  c #583605",
"q  c #492914",
"w  c #59281A",
"e  c #4A3719",
"r  c #57361A",
"t  c #622906",
"y  c #643407",
"u  c #692716",
"i  c #643716",
"p  c #733111",
"a  c #501E25",
"s  c #472828",
"d  c #4C2A2D",
"f  c #542422",
"g  c #542C23",
"h  c #512C2B",
"j  c #58282A",
"k  c #43322D",
"l  c #483428",
"z  c #563429",
"x  c #442D32",
"c  c #4C2C33",
"v  c #492A39",
"b  c #522A33",
"n  c #562936",
"m  c #493636",
"M  c #443C3B",
"N  c #573636",
"B  c #652825",
"V  c #7D2E28",
"C  c #65332B",
"Z  c #632934",
"A  c #643737",
"S  c #743439",
"D  c #33410F",
"F  c #2A4929",
"G  c #3C4626",
"H  c #284236",
"J  c #394735",
"K  c #414211",
"L  c #7C4B05",
"P  c #7D5404",
"I  c #7A5A1A",
"U  c #464423",
"Y  c #49453A",
"T  c #465338",
"R  c #794A29",
"E  c #79572A",
"W  c #67453B",
"Q  c #715332",
"!  c #795637",
"~  c #373744",
"^  c #343E49",
"/  c #4D2D42",
"(  c #453745",
")  c #553B44",
"_  c #643F47",
"`  c #2A4347",
"'  c #344344",
"]  c #384845",
"[  c #354B55",
"{  c #3B6678",
"}  c #474645",
"|  c #544344",
" . c #5B4853",
".. c #535652",
"X. c #644442",
"o. c #674C49",
"O. c #774947",
"+. c #6D524D",
"@. c #775546",
"#. c #68545C",
"$. c #725454",
"%. c #4E5870",
"&. c #635E64",
"*. c #496876",
"=. c #586770",
"-. c #68626C",
";. c #8A3133",
":. c #B73F3A",
">. c #814F00",
",. c #855807",
"<. c #945D00",
"1. c #875319",
"2. c #995513",
"3. c #854C29",
"4. c #954A24",
"5. c #825324",
"6. c #8B5426",
"7. c #83522C",
"8. c #874D31",
"9. c #9A4D3C",
"0. c #875535",
"q. c #A64539",
"w. c #B3473D",
"e. c #B44C3D",
"r. c #B8493B",
"t. c #B85035",
"y. c #974648",
"u. c #8B5248",
"i. c #9B574A",
"p. c #9A4D53",
"a. c #8C535C",
"s. c #9B5656",
"d. c #A84B48",
"f. c #B34C44",
"g. c #BA4C47",
"h. c #A3534C",
"j. c #AC524B",
"k. c #B45347",
"l. c #BC534C",
"z. c #AA4D58",
"x. c #A45453",
"c. c #A85956",
"v. c #A3535C",
"b. c #B55452",
"n. c #B75855",
"m. c #9D605D",
"M. c #9A5563",
"N. c #AC4B63",
"B. c #AA5A65",
"V. c #BF6F70",
"C. c #C34B44",
"Z. c #C4524B",
"A. c #C45557",
"S. c #DD694F",
"D. c #D66E5B",
"F. c #D8765D",
"G. c #DC745D",
"H. c #ED6E56",
"J. c #E56858",
"K. c #ED6D5C",
"L. c #F56B5A",
"P. c #F26C5C",
"I. c #E57455",
"U. c #EC7152",
"Y. c #EA7154",
"T. c #E4735D",
"R. c #EB715B",
"E. c #D96C65",
"W. c #CA7668",
"Q. c #DD7365",
"!. c #D97A67",
"~. c #DC736B",
"^. c #CA7A76",
"/. c #D77973",
"(. c #E46D67",
"). c #EB6D65",
"_. c #EB6D6A",
"`. c #F16764",
"'. c #F36A63",
"]. c #E37264",
"[. c #E3726B",
"{. c #EA766A",
"}. c #F67665",
"|. c #E47070",
" X c #B68E0E",
".X c #B69901",
"XX c #B4932B",
"oX c #B69536",
"OX c #CB8E0E",
"+X c #C69804",
"@X c #C79718",
"#X c #C7A60B",
"$X c #C98E2B",
"%X c #C89827",
"&X c #C99539",
"*X c #C6A42E",
"=X c #A7944A",
"-X c #B29557",
";X c #B1A44D",
":X c #AB976C",
">X c #BDA17C",
",X c #D6996F",
"<X c #D58179",
"1X c #F08175",
"2X c #386A84",
"3X c #476C84",
"4X c #BA7F81",
"5X c #BC8F8A",
"6X c #B8AD86",
"7X c #D78A87",
"8X c #C99C89",
"9X c #C99E92",
"0X c #C4A28F",
"qX c #DAA288",
"wX c #C9A59A",
"eX c #D2AB93",
"rX c #E6AB90",
"tX c #FFC7BA",
"yX c #EED0B7",
"uX c #F6CDC6",
"iX c #F9D4C8",
"pX c #FBD8D5",
"aX c #FDFED8",
"sX c #ECEAEE",
"dX c #FCEBE9",
"fX c #EBF6EE",
"gX c #F4FEEC",
"hX c #F9F8E8",
"jX c #FEFEEC",
"kX c #F9EDFA",
"lX c #EEF6FB",
"zX c #EEFFFD",
"xX c #F5F4F5",
"cX c #FBF4F4",
"vX c #F4FEF6",
"bX c #FDFDF5",
"nX c #F5F4FC",
"mX c #FEF5FC",
"MX c #F5FEFD",
"NX c #FFFAFD",
"BX c #FFF9FF",
"VX c #FAFEFD",
"CX c #FBFFFF",
"ZX c #FDFEFD",
"AX c #FFFFFFFF",
/* pixels */
"AXAXAXAXAXAXAXAXAXAXAXAXAXAXAXAXAXAXAXAXAXAXAXAXAXAXAXAXAXAXAXAXAXAXAXAXAXAXAXAXAXAXAXAXAXAXAXAXAXAXAXAXAXAXAXAXAXAXAXAXAXAXAXAX",
"AXAXAXAXAXAXAXAXAXAXAXAXAXAXAXAXAXAXAXAXAXAXAXAXAXAXAXAXAXAXAXAXAXAXAXAXAXAXAXAXAXAXAXAXAXAXAXAXAXAXAXAXAXAXAXAXAXAXAXAXAXAXAXAX",
"AXAXAXAXAXAXAXAXAXAXAXAXAXAXAXAXAXAXAXAXAXAXAXAXAXAXAXAXAXAXAXAXAXAXAXAXAXAXAXAXAXAXAXAXAXAXAXAXAXAXAXAXAXAXAXAXAXAXAXAXAXAXAXAX",
"AXAXAXAXAXAXAXAXAXAXAXAXAXAXAXAXAXAXAXAXAXAXAXAXAXAXAXAXAXAXAXAXAXAXAXAXAXAXAXAXAXAXAXAXAXAXAXAXAXAXAXAXAXAXAXAXAXAXAXAXAXAXAXAX",
"AXAXAXAXAXAXAXAXAXAXAXAXAXAXAXAXAXAXAXAXAXAXAXAXAXAXAXAXAXAXAXAXAXAXAXAXAXAXAXAXAXAXAXAXAXAXAXAXAXAXAXAXAXAXAXAXAXAXAXAXAXAXAXAX",
"AXAXAXAXAXAXAXAXAXAXAXAXAXAXAXAXAXAXAXAXAXAXAXAXAXAXAXAXAXAXAXAXAXAXAXAXAXAXAXAXAXAXAXAXAXAXAXAXAXAXAXAXAXAXAXAXAXAXAXAXAXAXAXAX",
"AXAXAXAXAXAXAXAXAXAXAXAXAXAXAXAXAXAXAXAXAXAXAXAXAXAXAXAXAXAXAXAXAXAXAXAXAXAXAXAXAXAXAXAXAXAXAXAXAXAXAXAXAXAXAXAXAXAXAXAXAXAXAXAX",
"AXAXAXAXAXAXAXAXAXAXAXAXAXAXAXAXAXAXAXAXAXAXAXAXAXAXAXAXAXAXAXAXAXAXAXAXAXAXAXAXAXAXAXAXAXAXAXAXAXAXAXAXAXAXAXAXAXAXAXAXAXAXAXAX",
"AXAXAXAXAXAXAXAXAXAXAXAXAXAXAXAXAXAXAXAXAXAXAXAXAXAX5 4 5 5 k 5 k k m l k < m , AXAXAXAXAXAXAXAXAXAXAXAXAXAXAXAXAXAXAXAXAXAXAXAX",
"AXAXAXAXAXAXAXAXAXAXAXAXAXAXAXAXAXAXAXAXAXAXAXAXAXAXd l d h g w g g w B w w s s AXAXAXAXAXAXAXAXAXAXAXAXAXAXAXAXAXAXAXAXAXAXAXAX",
"AXAXAXAXAXAXAXAXAXAXAXAXAXAXAXAXAXAXAXAXAXAX( x s N <XV.^.^./.~.[.~.!././.7X7X4Xj c 2 ( AXAXAXAXAXAXAXAXAXAXAXAXAXAXAXAXAXAXAXAX",
"AXAXAXAXAXAXAXAXAXAXAXAXAXAXAXAXAXAXAXAXAXAXs Z B 6 <X^.~.|._._.'.'._.(.[.E.W.^.u B j b AXAXAXAXAXAXAXAXAXAXAXAXAXAXAXAXAXAXAXAX",
"AXAXAXAXAXAXAXAXAXAXAXAXAXAXAXAXAXAXAXAX( 2 a.z.(.{.].].(.|.|.).P.)._.[.I.I.T.G.F.!.z.M./ ~ AXAXAXAXAXAXAXAXAXAXAXAXAXAXAXAXAXAX",
"AXAXAXAXAXAXAXAXAXAXAXAXAXAXAXAXAXAXAXAX3 ) s.A.}.J.H.K.)._.[.(.K.K.[.[.I.U.Y.I.F.G.l.N./ / AXAXAXAXAXAXAXAXAXAXAXAXAXAXAXAXAXAX",
"AXAXAXAXAXAXAXAXAXAXAXAXAXAXAXAXAXAXAXAX< N ^.E.P.L.P.P.).).[.Q.G.].~.~.T.Y.H.H.I.T.~.^.a v AXAXAXAXAXAXAXAXAXAXAXAXAXAXAXAXAXAX",
"AXAXAXAXAXAXAXAXAXAXAXAXAXAXAXAXAXAXAXAXN j /.|.K.P.P.P.).(.].Q.Q.].~.[.T.R.R.Y.R.T.E.<XB Z AXAXAXAXAXAXAXAXAXAXAXAXAXAXAXAXAXAX",
"AXAXAXAXAXAXAXAXAXAXAXAXAXAXAXAXAXAXk N u.c.W.D.T.T.T.T.T.T.].).)._.).).].].T.T.T.].1XE.n.p.f m AXAXAXAXAXAXAXAXAXAXAXAXAXAXAXAX",
"AXAXAXAXAXAXAXAXAXAXAXAXAXAXAXAXAXAXm s c.d.!.F.!.G.].T.T.R.R.P.).'.'.'._.].G.T.].].E.E.Z.b.j 2 AXAXAXAXAXAXAXAXAXAXAXAXAXAXAXAX",
"AXAXAXAXAXAXAXAXAXAXAXAXAXAXAXAXAXAX4 c c.t.!.F.D.{.).'.R.Y.L.P.).).K.K.].[.T.R.'._.|.{.g.j.b , AXAXAXAXAXAXAXAXAXAXAXAXAXAXAXAX",
"AXAXAXAXAXAXAXAXAXAXAXAXAXAXAXAXAXAX~ s p.l.S.<X[.J.'.L.H.Y.Y.Y.].].H.H.)._.K.K.'._.E.<Xw.j.c 2 AXAXAXAXAXAXAXAXAXAXAXAXAXAXAXAX",
"AXAXAXAXAXAXAXAXAXAXAXAXAXAXAXAXAXAX~ 2 B.g.f.t.[.[.`.P.U.S.U.U.].).Y.R.T.{.H.}.)._.g.f.r.x.x ~ AXAXAXAXAXAXAXAXAXAXAXAXAXAXAXAX",
"AXAXAXAXAXAXAXAXAXAXAXAXAXAXAXAXAXAX~ x N.d.w.k.!.{._.J.1XI.U.U.].].S.S.].{.J.R.'._.l.d.k.c.v ~ AXAXAXAXAXAXAXAXAXAXAXAXAXAXAXAX",
"AXAXAXAXAXAXAXAXAXAXAXAXAXAXAXAXAXAX/ v B.c.b.f.w.w.g.r.D.D.G.Q.Q.Q.1X].~.Q.t.r.C.g.f.b.n.p.N 2 AXAXAXAXAXAXAXAXAXAXAXAXAXAXAXAX",
"AXAXAXAXAXAXAXAXAXAXAXAXAXAXAXAXAXAX/ / a.p.j.k.f.l.l.g.!.<XW.<X^.^.W.W.W.W.k.t.Z.l.b.h.c.M.x ( AXAXAXAXAXAXAXAXAXAXAXAXAXAXAXAX",
"AXAXAXAXAXAXAXAXAXAXAXAXAXAXAXAX} 5 4 m N C d.g.w.g.e.q.c.s.C z z z N W i.n.g.r.r.w.j.v.j b c s ) ( AXAXAXAXAXAXAXAXAXAXAXAXAXAX",
"AXAXAXAXAXAXAXAXAXAXAXAXAXAXAXAX, 4 k Y : j x.A.C.C.Z.c.m.$.N M Y k M ) @.i.n.g.k.w.h.p.m x s z : x AXAXAXAXAXAXAXAXAXAXAXAXAXAX",
"AXAXAXAXAXAXAXAXAXAXAXAXAXAXAXAX  . wX5XN g s.d.r.e.9.u.A ) ~ ~ ] J ^ ^ N C x.d.j.k.b.M.c v wXwX# . AXAXAXAXAXAXAXAXAXAXAXAXAXAX",
"AXAXAXAXAXAXAXAXAXAXAXAXAXAXAXAXo . wX0Xk s s.c.n.x.x.m.n ) ) 4 Y 2 ( ) C B x.x.i.s.v.M.N s eX8X# @ AXAXAXAXAXAXAXAXAXAXAXAXAXAX",
"AXAXAXAXAXAXAXAXAXAXAXAXAXAXAXAX  . 6XeX7 z h j d b v.N.B.s.s.i.i.i.s.s.c.y.b.j.w d n n d h qX8X@ + AXAXAXAXAXAXAXAXAXAXAXAXAXAX",
"AXAXAXAXAXAXAXAXAXAXAXAXAXAXAXAX* . 6X>Xg r s k M v M.N.v.v.c.h.h.i.i.x.c.x.c.p.h k N s N q 8X9X$ + AXAXAXAXAXAXAXAXAXAXAXAXAXAX",
"AXAXAXAXAXAXAXAXAXAXAXAXAXAXAXAXAXAX@ = 8 8 u.@.: e B Z n n v v v n n b d d v / c z Q Q : : o + AXAXAXAXAXAXAXAXAXAXAXAXAXAXAXAX",
"AXAXAXAXAXAXAXAXAXAXAXAXAXAXAXAXAXAX@ $ q r R ! e q f B h x x M m v b h d m M x z e Q E K , > % AXAXAXAXAXAXAXAXAXAXAXAXAXAXAXAX",
"AXAXAXAXAXAXAXAXAXAXAXAXAXAXAXAXAXAXAXAX# # n w @.! 7.6.E E Q ! O.u.8.8.! ! ! R 0.R y 0   X AXAXAXAXAXAXAXAXAXAXAXAXAXAXAXAXAXAX",
"AXAXAXAXAXAXAXAXAXAXAXAXAXAXAXAXAXAXAXAX. & d N @.R 1.1.I I I E 8.8.6.6.3.R 7.7.6.0.8 q @ o AXAXAXAXAXAXAXAXAXAXAXAXAXAXAXAXAXAX",
"AXAXAXAXAXAXAXAXAXAXAXAXAXAXAXAXAXAXAXAXAXAX. @ r r 5.1.1.7.1.4.4.4.R ! 0.! ! Q w w @ $ AXAXAXAXAXAXAXAXAXAXAXAXAXAXAXAXAXAXAXAX",
"AXAXAXAXAXAXAXAXAXAXAXAXAXAXAXAXAXAXAXAXAXAX  X l q E 7.E 5.5.4.4.4.0.R 0.Q ! @.f N . O AXAXAXAXAXAXAXAXAXAXAXAXAXAXAXAXAXAXAXAX",
"AXAXAXAXAXAXAXAXAXAXAXAXAXAXAXAXAXAX) &.4 H ] ]   . @ # 9 0 E 5.8.8.8.7.y 8 @ @ # # AXAXAXAXAXAXAXAXAXAXAXAXAXAXAXAXAXAXAXAXAXAX",
"AXAXAXAXAXAXAXAXAXAXAXAXAXAXAXAXAXAXO.X.| ] H [   . . @ 0 : ! 0.R u.3.R 8 8 @ + $ . AXAXAXAXAXAXAXAXAXAXAXAXAXAXAXAXAXAXAXAXAXAX",
"AXAXAXAXAXAXAXAXAXAXAXAXAXAXAXAX .o.rX,Xd 3 H J 1 r -X=X0 q r g f B u p u y XX;X: J X O AXAXAXAXAXAXAXAXAXAXAXAXAXAXAXAXAXAXAXAX",
"AXAXAXAXAXAXAXAXAXAXAXAXAXAXAXAX .W ,X,Xz T J Y A i -X=X0 y 8 y t t w u 8 8 XX;XD J X X AXAXAXAXAXAXAXAXAXAXAXAXAXAXAXAXAXAXAXAX",
"AXAXAXAXAXAXAXAXAXAXAXAXAXAXAXAX .X.rX,X>X>XF T B V 6 t &X X@X#XOX&X@ . ;X;X9 U G F H ` [ ~ AXAXAXAXAXAXAXAXAXAXAXAXAXAXAXAXAXAX",
"AXAXAXAXAXAXAXAXAXAXAXAXAXAXAXAX#.o.9X0XeX6XU l ;.;.u t $X#X+X+X+XOX$ @ ;X=X1 } F T ..3 ( } AXAXAXAXAXAXAXAXAXAXAXAXAXAXAXAXAXAX",
"AXAXAXAXAXAXAXAXAXAXAXAXAXAXAXAXAXAXX.+..   . = :.t.&X%X.X#X.X.X#X+X@XoX+ @ _ _ z z 9X5Xo X AXAXAXAXAXAXAXAXAXAXAXAXAXAXAXAXAXAX",
"AXAXAXAXAXAXAXAXAXAXAXAXAXAXAXAXAXAX+.| O O . = w.2.$X X@X.X#X.X+XOX+X%X= $ S S N N 7XrX. X AXAXAXAXAXAXAXAXAXAXAXAXAXAXAXAXAXAX",
"AXAXAXAXAXAXAXAXAXAXAXAXAXAXAXAXAXAXAXAXAXAX. = ;.V 8.1.&X+X+X+X+XOX<.L t u d.d.# # tXtXyXyXW +.AXAXAXAXAXAXAXAXAXAXAXAXAXAXAXAX",
"AXAXAXAXAXAXAXAXAXAXAXAXAXAXAXAXAXAXAXAXAXAX$ = z R 0.L &X%X@XOX@X$X>.4.8 u d.y.# @ tXtXyXyXO.A AXAXAXAXAXAXAXAXAXAXAXAXAXAXAXAX",
"AXAXAXAXAXAXAXAXAXAXAXAXAXAXAXAXAXAXAXAXAXAX( M e K XX%XP >.,.P ,.P -X-Xi 8 S _ @ . uXiXyXiXO.O.AXAXAXAXAXAXAXAXAXAXAXAXAXAXAXAX",
"AXAXAXAXAXAXAXAXAXAXAXAXAXAXAXAXAXAXAXAXAXAX[ ^ T K XX*XP ,.1.,.,.P =X:X7 q O.A @ . pXuXiXuXA X.AXAXAXAXAXAXAXAXAXAXAXAXAXAXAXAX",
"AXAXAXAXAXAXAXAXAXAXAXAXAXAXAXAXAXAXAXAXAXAX> > *.... # &X%X@XOX@X$X@ $ U M $.#.. . ) X.W +.AXAXAXAXAXAXAXAXAXAXAXAXAXAXAXAXAXAX",
"AXAXAXAXAXAXAXAXAXAXAXAXAXAXAXAXAXAXAXAXAXAXO % 3X*.  . =XXXXXXX$X&Xo X 5 Y &.-.* O #.| +.$.AXAXAXAXAXAXAXAXAXAXAXAXAXAXAXAXAXAX",
"AXAXAXAXAXAXAXAXAXAXAXAXAXAXAXAXAXAXAXAXAXAXX O ] ^ *.=.J G U 1 G G G J   O   O AXAXAXAXAXAXAXAXAXAXAXAXAXAXAXAXAXAXAXAXAXAXAXAX",
"AXAXAXAXAXAXAXAXAXAXAXAXAXAXAXAXAXAXAXAXAXAX    J ' *.{ [ ` ^ ^ [ ` ] 3 O O O % AXAXAXAXAXAXAXAXAXAXAXAXAXAXAXAXAXAXAXAXAXAXAXAX",
"AXAXAXAXAXAXAXAXAXAXAXAXAXAXAXAXAXAXAXAXAXAXAXAX+ X *.*.2X3X%   AXAXAXAXAXAXAXAXAXAXAXAXAXAXAXAXAXAXAXAXAXAXAXAXAXAXAXAXAXAXAXAX",
"AXAXAXAXAXAXAXAXAXAXAXAXAXAXAXAXAXAXAXAXAXAXAXAX+ X &.=.%.%.% . AXAXAXAXAXAXAXAXAXAXAXAXAXAXAXAXAXAXAXAXAXAXAXAXAXAXAXAXAXAXAXAX",
"AXAXAXAXAXAXAXAXAXAXAXAXAXAXAXAXAXAXAXAXAXAXAXAXO ; a.p.y.M.= @ AXAXAXAXAXAXAXAXAXAXAXAXAXAXAXAXAXAXAXAXAXAXAXAXAXAXAXAXAXAXAXAX",
"AXAXAXAXAXAXAXAXAXAXAXAXAXAXAXAXAXAXAXAXAXAXAXAX& $ p.;.j.h.= @ AXAXAXAXAXAXAXAXAXAXAXAXAXAXAXAXAXAXAXAXAXAXAXAXAXAXAXAXAXAXAXAX",
"AXAXAXAXAXAXAXAXAXAXAXAXAXAXAXAXAXAXAXAXAXAXAXAXAXAX@ - @ @ AXAXAXAXAXAXAXAXAXAXAXAXAXAXAXAXAXAXAXAXAXAXAXAXAXAXAXAXAXAXAXAXAXAX",
"AXAXAXAXAXAXAXAXAXAXAXAXAXAXAXAXAXAXAXAXAXAXAXAXAXAX+ .     AXAXAXAXAXAXAXAXAXAXAXAXAXAXAXAXAXAXAXAXAXAXAXAXAXAXAXAXAXAXAXAXAXAX",
"AXAXAXAXAXAXAXAXAXAXAXAXAXAXAXAXAXAXAXAXAXAXAXAXAXAXAXAXAXAXAXAXAXAXAXAXAXAXAXAXAXAXAXAXAXAXAXAXAXAXAXAXAXAXAXAXAXAXAXAXAXAXAXAX",
"AXAXAXAXAXAXAXAXAXAXAXAXAXAXAXAXAXAXAXAXAXAXAXAXAXAXAXAXAXAXAXAXAXAXAXAXAXAXAXAXAXAXAXAXAXAXAXAXAXAXAXAXAXAXAXAXAXAXAXAXAXAXAXAX",
"AXAXAXAXAXAXAXAXAXAXAXAXAXAXAXAXAXAXAXAXAXAXAXAXAXAXAXAXAXAXAXAXAXAXAXAXAXAXAXAXAXAXAXAXAXAXAXAXAXAXAXAXAXAXAXAXAXAXAXAXAXAXAXAX",
"AXAXAXAXAXAXAXAXAXAXAXAXAXAXAXAXAXAXAXAXAXAXAXAXAXAXAXAXAXAXAXAXAXAXAXAXAXAXAXAXAXAXAXAXAXAXAXAXAXAXAXAXAXAXAXAXAXAXAXAXAXAXAXAX",
"AXAXAXAXAXAXAXAXAXAXAXAXAXAXAXAXAXAXAXAXAXAXAXAXAXAXAXAXAXAXAXAXAXAXAXAXAXAXAXAXAXAXAXAXAXAXAXAXAXAXAXAXAXAXAXAXAXAXAXAXAXAXAXAX",
"AXAXAXAXAXAXAXAXAXAXAXAXAXAXAXAXAXAXAXAXAXAXAXAXAXAXAXAXAXAXAXAXAXAXAXAXAXAXAXAXAXAXAXAXAXAXAXAXAXAXAXAXAXAXAXAXAXAXAXAXAXAXAXAX",
};
