/* XPM */
static char *_33c8ac176c746dc95145c71d0b7ddbdsF5KMTgwU4kVYFnf[] = {
/* columns rows colors chars-per-pixel */
"64 64 233 2 ",
"   c #030201",
".  c #0C0101",
"X  c #020A01",
"o  c #07050B",
"O  c #130001",
"+  c #150706",
"@  c #1B0100",
"#  c #071100",
"$  c #070214",
"%  c #1F0010",
"&  c #220100",
"*  c #2B0000",
"=  c #260F19",
"-  c #2D301E",
";  c #382929",
":  c #3A3529",
">  c #392B32",
",  c #2B3C35",
"<  c #363333",
"1  c #393235",
"2  c #3B3A35",
"3  c #38393D",
"4  c #5D0B18",
"5  c #472C04",
"6  c #542D0A",
"7  c #4B3503",
"8  c #573509",
"9  c #4B2917",
"0  c #572818",
"q  c #4A3718",
"w  c #583418",
"e  c #662414",
"r  c #521D2C",
"t  c #671F30",
"y  c #482925",
"u  c #4B2C2C",
"i  c #562924",
"p  c #532C2C",
"a  c #473827",
"s  c #44342C",
"d  c #4C322C",
"f  c #553526",
"g  c #472A37",
"h  c #4C2D32",
"j  c #582937",
"k  c #443233",
"l  c #4C3332",
"z  c #48393A",
"x  c #553836",
"c  c #632526",
"v  c #792A27",
"b  c #673429",
"n  c #7B352D",
"m  c #642B36",
"M  c #643838",
"N  c #753A33",
"B  c #3C431F",
"V  c #37452C",
"C  c #2C4537",
"Z  c #3C4636",
"A  c #494718",
"S  c #62410F",
"D  c #7D4A1A",
"F  c #484227",
"G  c #45423A",
"H  c #574432",
"J  c #794B29",
"K  c #7B532D",
"L  c #664639",
"P  c #784838",
"I  c #665038",
"U  c #7B553A",
"Y  c #3A3A45",
"T  c #4B2842",
"R  c #473945",
"E  c #4F354C",
"W  c #623644",
"Q  c #783747",
"!  c #2A4546",
"~  c #384C4E",
"^  c #474444",
"/  c #5B4548",
"(  c #664B4A",
")  c #764846",
"_  c #765541",
"`  c #6D515D",
"'  c #535B6D",
"]  c #665A70",
"[  c #4F6C74",
"{  c #6F6172",
"}  c #843530",
"|  c #964A04",
" . c #8F510B",
".. c #834C16",
"X. c #924B1B",
"o. c #845519",
"O. c #8B531B",
"+. c #A6590D",
"@. c #884A27",
"#. c #944A29",
"$. c #875628",
"%. c #914E35",
"&. c #885B35",
"*. c #B6493B",
"=. c #A95037",
"-. c #C9473A",
";. c #9C3D4E",
":. c #A13848",
">. c #8A4847",
",. c #98494C",
"<. c #895749",
"1. c #9B544E",
"2. c #9A4457",
"3. c #8A585A",
"4. c #995656",
"5. c #AA4A48",
"6. c #B34C46",
"7. c #B94945",
"8. c #B54E4B",
"9. c #AD5144",
"0. c #AA534A",
"q. c #B45143",
"w. c #B75449",
"e. c #BC534C",
"r. c #A84855",
"t. c #B44B55",
"y. c #A85656",
"u. c #A4535C",
"i. c #B45253",
"p. c #B9545B",
"a. c #8C6352",
"s. c #9B5267",
"d. c #A84C63",
"f. c #A94E6E",
"g. c #A95561",
"h. c #B05764",
"j. c #896560",
"k. c #986162",
"l. c #B8766C",
"z. c #C2544B",
"x. c #C75356",
"c. c #DC6D4F",
"v. c #DA695B",
"b. c #CE795B",
"n. c #DD765C",
"m. c #DA785B",
"M. c #E86555",
"N. c #E46C5B",
"B. c #EC6C5D",
"V. c #F16B5C",
"C. c #E67458",
"Z. c #E4735D",
"A. c #EA725D",
"S. c #F0775D",
"D. c #CE6B6D",
"F. c #DB6C69",
"G. c #CA786E",
"H. c #DD7462",
"J. c #DB746B",
"K. c #D4796B",
"L. c #C77A77",
"P. c #D97975",
"I. c #E56867",
"U. c #E26D64",
"Y. c #EC6B62",
"T. c #ED6D6A",
"R. c #F36B63",
"E. c #F66866",
"W. c #E47263",
"Q. c #EB7262",
"!. c #E4726C",
"~. c #EB766B",
"^. c #F77468",
"/. c #E96A72",
"(. c #E77473",
"). c #F47375",
"_. c #BA9A02",
"`. c #AF8E11",
"'. c #B79415",
"]. c #B7A90C",
"[. c #B0A717",
"{. c #BC8B26",
"}. c #B69926",
"|. c #AD9133",
" X c #A99E32",
".X c #B69736",
"XX c #C59B01",
"oX c #C98F17",
"OX c #C49515",
"+X c #D0A410",
"@X c #C6932E",
"#X c #D0A52E",
"$X c #B6964C",
"%X c #BBA645",
"&X c #B78D7A",
"*X c #C29747",
"=X c #D2906F",
"-X c #C78079",
";X c #CDA57D",
":X c #BB9D89",
">X c #BFA294",
",X c #C89C85",
"<X c #D1938C",
"1X c #CAA687",
"2X c #D9A48A",
"3X c #D3A997",
"4X c #E9A59C",
"5X c #EACDB9",
"6X c #F6CCB7",
"7X c #F9C7BC",
"8X c #F7CDC6",
"9X c #ECD2C3",
"0X c #FAD5C4",
"qX c #F7DAD5",
"wX c #FFFDE4",
"eX c #FCF6E8",
"rX c #F4FDED",
"tX c #FDFDEC",
"yX c #FAEDF6",
"uX c #E7FCF6",
"iX c #ECFEFF",
"pX c #F2F0F1",
"aX c #F5F5F4",
"sX c #FBF4F5",
"dX c #F3FDF3",
"fX c #FDFDF4",
"gX c #F4F5FD",
"hX c #FDF5FD",
"jX c #F4FEFE",
"kX c #FFFBFE",
"lX c #F9FFFF",
"zX c #FDFEFD",
"xX c #FFFFFFFF",
/* pixels */
"xXxXxXxXxXxXxXxXxXxXxXxXxXxXxXxXxXxXxXxXxXxXxXxXxXxXxXxXxXxXxXxXxXxXxXxXxXxXxXxXxXxXxXxXxXxXxXxXxXxXxXxXxXxXxXxXxXxXxXxXxXxXxXxX",
"xXxXxXxXxXxXxXxXxXxXxXxXxXxXxXxXxXxXxXxXxXxXxXxXxXxXxXxXxXxXxXxXxXxXxXxXxXxXxXxXxXxXxXxXxXxXxXxXxXxXxXxXxXxXxXxXxXxXxXxXxXxXxXxX",
"xXxXxXxXxXxXxXxXxXxXxXxXxXxXxXxXxXxXxXxXxXxXxXxXxXxXxXxXxXxXxXxXxXxXxXxXxXxXxXxXxXxXxXxXxXxXxXxXxXxXxXxXxXxXxXxXxXxXxXxXxXxXxXxX",
"xXxXxXxXxXxXxXxXxXxXxXxXxXxXxXxXxXxXxXxXxXxXxXxXxXxXxXxXxXxXxXxXxXxXxXxXxXxXxXxXxXxXxXxXxXxXxXxXxXxXxXxXxXxXxXxXxXxXxXxXxXxXxXxX",
"xXxXxXxXxXxXxXxXxXxXxXxXxXxXxXxXxXxXxXxXxXxXxXxXxXxXxXxXxXxXxXxXxXxXxXxXxXxXxXxXxXxXxXxXxXxXxXxXxXxXxXxXxXxXxXxXxXxXxXxXxXxXxXxX",
"xXxXxXxXxXxXxXxXxXxXxXxXxXxXxXxXxXxXxXxXxXxXxXxXxXxXxXxXxXxXxXxXxXxXxXxXxXxXxXxXxXxXxXxXxXxXxXxXxXxXxXxXxXxXxXxXxXxXxXxXxXxXxXxX",
"xXxXxXxXxXxXxXxXxXxXxXxXxXxXxXxXxXxXxXxXxXxXxXxXxXxXxXxXxXxXxXxXxXxXxXxXxXxXxXxXxXxXxXxXxXxXxXxXxXxXxXxXxXxXxXxXxXxXxXxXxXxXxXxX",
"xXxXxXxXxXxXxXxXxXxXxXxXxXxXxXxXxXxXxXxXxXxXxXxXxXxXxXxXxXxXxXxXxXxXxXxXxXxXxXxXxXxXxXxXxXxXxXxXxXxXxXxXxXxXxXxXxXxXxXxXxXxXxXxX",
"xXxXxXxXxXxXxXxXxXxXxXxXxXxXxXxXxXxXxXxXxXxXxXxXxXxXxXxXxXxXxXxXxXxXxXxXxXxXxXxXxXxXxXxXxXxXxXxXxXxXxXxXxXxXxXxXxXxXxXxXxXxXxXxX",
"xXxXxXxXxXxXxXxXxXxXxXxXxXxXxXxXxXxXxXxXxXxXxXxXxX1 1 1 1 1 1 1 1 < > > < > ^ xXxXxXxXxXxXxXxXxXxXxXxXxXxXxXxXxXxXxXxXxXxXxXxXxX",
"xXxXxXxXxXxXxXxXxXxXxXxXxXxXxXxXxXxXxXxXxXxXxXxXxXk s h h p p p p p x y p u u xXxXxXxXxXxXxXxXxXxXxXxXxXxXxXxXxXxXxXxXxXxXxXxXxX",
"xXxXxXxXxXxXxXxXxXxXxXxXxXxXxXxXxXxXxXxXxX: - a q &Xl.-XL.P.J.J.K.!.!.P.D.L.L.9 p l ; xXxXxXxXxXxXxXxXxXxXxXxXxXxXxXxXxXxXxXxXxX",
"xXxXxXxXxXxXxXxXxXxXxXxXxXxXxXxXxXxXxXxXxXx w 0 0 G.G.J.W.R.R.B.W.M.Y.^.~.(.D.c i y h xXxXxXxXxXxXxXxXxXxXxXxXxXxXxXxXxXxXxXxXxX",
"xXxXxXxXxXxXxXxXxXxXxXxXxXxXxXxXxXxXxXg j ,.5.P.J.U.T.R.E.R.V.A.Z.W.W.Y.Y.I.P.G.L.k.a.h 2 xXxXxXxXxXxXxXxXxXxXxXxXxXxXxXxXxXxXxX",
"xXxXxXxXxXxXxXxXxXxXxXxXxXxXxXxXxXxXxXg m h.x.F.F.T.T.E.E.R.A.Z.m.m.H.Y.R.U.H.P.P.y.4.p ; xXxXxXxXxXxXxXxXxXxXxXxXxXxXxXxXxXxXxX",
"xXxXxXxXxXxXxXxXxXxXxXxXxXxXxXxXxXxXxXu c D./.!.~.H.W.R.B.Z.Z.m.m.b.c.B.^.S.M.~.v.F.<Xi d xXxXxXxXxXxXxXxXxXxXxXxXxXxXxXxXxXxXxX",
"xXxXxXxXxXxXxXxXxXxXxXxXxXxXxXxXxXxXxXu c )./.U.H.H.H.Q.Q.Z.m.C.n.=Xb.B.V.C.N.^.T.).F.e i xXxXxXxXxXxXxXxXxXxXxXxXxXxXxXxXxXxXxX",
"xXxXxXxXxXxXxXxXxXxXxXxXxXxXxXxXxX; g 3.u.I.).N.W.H.m.Z.Z.Z.Z.B.A.m.m.V.M.B.Z.M.M.M./.y.3.W k xXxXxXxXxXxXxXxXxXxXxXxXxXxXxXxXxX",
"xXxXxXxXxXxXxXxXxXxXxXxXxXxXxXxXxX2 l 4.5.).E.B.N.Z.n.Z.Z.A.B.V.V.A.N.^.M.S.C.N.Q.R.T.5.4.p 1 xXxXxXxXxXxXxXxXxXxXxXxXxXxXxXxXxX",
"xXxXxXxXxXxXxXxXxXxXxXxXxXxXxXxXxX< u 4.p.I.Y.^.V.B.~.N.Z.M.R.B.^.V.R.^.M.S.c.C.Z.Q.Q.8.u.p 1 xXxXxXxXxXxXxXxXxXxXxXxXxXxXxXxXxX",
"xXxXxXxXxXxXxXxXxXxXxXxXxXxXxXxXxXG l 4.x.!.T.^.M.M.Q.Z.~.R.E.B.V.V.E.R.M.C.m.m.n.c.U.7.,.x 2 xXxXxXxXxXxXxXxXxXxXxXxXxXxXxXxXxX",
"xXxXxXxXxXxXxXxXxXxXxXxXxXxXxXxXxX; u u.t.6.*.B.~.W.W.H.U.E.E.).^.E.E.Y.Z.C.n.b.b.*.x.x.r.l < xXxXxXxXxXxXxXxXxXxXxXxXxXxXxXxXxX",
"xXxXxXxXxXxXxXxXxXxXxXxXxXxXxXxXxXz j g.t.8.e.U.W.W.H.!.F.E.T.(.I.T.T.U.~.v.n.b.=Xw.0.5.,.l 2 xXxXxXxXxXxXxXxXxXxXxXxXxXxXxXxXxX",
"xXxXxXxXxXxXxXxXxXxXxXxXxXxXxXxXxXh c f.t.t.5.7.*.*.e.F./.)./.(.F.J.K.J.J.7.q.*.9.5.8.y.k.k ; xXxXxXxXxXxXxXxXxXxXxXxXxXxXxXxXxX",
"xXxXxXxXxXxXxXxXxXxXxXxXxXxXxXxXxXg W s.r.t.*.e.z.w.e.F.(.P.D.-Xl.&Xl.K.J.e.6.e.6.7.i.>.3.y k xXxXxXxXxXxXxXxXxXxXxXxXxXxXxXxXxX",
"xXxXxXxXxXxXxXxXxXxXxXxXxXxXxXG > z > h i y.8.0.=.0.q.8.r.b f H F F J ,.8.6.7.x.t.p.r.b L k ; ( ; xXxXxXxXxXxXxXxXxXxXxXxXxXxXxX",
"xXxXxXxXxXxXxXxXxXxXxXxXxXxXxX< < 2 < z h 4.0.=.q.9.0.y.k.a V V V B a <.y.8.7.x.*.t.1.f ; d u ; R xXxXxXxXxXxXxXxXxXxXxXxXxXxXxX",
"xXxXxXxXxXxXxXxXxXxXxXxXxXxXxX    1X:XE E <.0.=.*.z.%.M : V C Z V A a G l 1.*.-.z.=.4.u 9 3X>X  o xXxXxXxXxXxXxXxXxXxXxXxXxXxXxX",
"xXxXxXxXxXxXxXxXxXxXxXxXxXxXxX  . ;X;XT T j.&.w.*.6.%.M G Z G d a w d R W 1.q.*.q.4.a.d p 1X1X. o xXxXxXxXxXxXxXxXxXxXxXxXxXxXxX",
"xXxXxXxXxXxXxXxXxXxXxXxXxXxXxX  + ;X2Xj T E j r m g.y.y.y.4.u.0.9.0.u.s.s.u.4.m j T > d 0 ;X2X+   xXxXxXxXxXxXxXxXxXxXxXxXxXxXxX",
"xXxXxXxXxXxXxXxXxXxXxXxXxXxXxXo . 1X1Xr T g g x y 4.4.u.u.d.f.t.i.t.h.f.f.s.3.h > T x f w 1X&X@ . xXxXxXxXxXxXxXxXxXxXxXxXxXxXxX",
"xXxXxXxXxXxXxXxXxXxXxXxXxXxXxXxXxXO @ m j <.K 8 8 s k l l g j j j i p g E g x 9 w ) P 5 q . O xXxXxXxXxXxXxXxXxXxXxXxXxXxXxXxXxX",
"xXxXxXxXxXxXxXxXxXxXxXxXxXxXxXxXxX. O d 9 P K 5 8 a s s a 2 1 T g d u z k ; a 6 w U U q a     xXxXxXxXxXxXxXxXxXxXxXxXxXxXxXxXxX",
"xXxXxXxXxXxXxXxXxXxXxXxXxXxXxXxXxXxXxXX # s q <.P ) U K K K _ _ _ _ I U $.$.@.@.P 9 x     xXxXxXxXxXxXxXxXxXxXxXxXxXxXxXxXxXxXxX",
"xXxXxXxXxXxXxXxXxXxXxXxXxXxXxXxXxXxXxXX X Z 2 ( <.%.@.O.$.$.K @.K U J $...X.#.$.U s 2 X   xXxXxXxXxXxXxXxXxXxXxXxXxXxXxXxXxXxXxX",
"xXxXxXxXxXxXxXxXxXxXxXxXxXxXxXxXxXxXxXxXxX  . u i J &.D ..#.X.#.%.@.&...O.@.@.w q X X xXxXxXxXxXxXxXxXxXxXxXxXxXxXxXxXxXxXxXxXxX",
"xXxXxXxXxXxXxXxXxXxXxXxXxXxXxXxXxXxXxXxXxX  . x f _ &.$.&.X.=.X.#.@.D O.&.K a.9 y X X xXxXxXxXxXxXxXxXxXxXxXxXxXxXxXxXxXxXxXxXxX",
"xXxXxXxXxXxXxXxXxXxXxXxXxXxXxXxXxXxXxXxXxX^ ^     . . q 9 D O.X.O.o.&.7 q   .   . : ^ xXxXxXxXxXxXxXxXxXxXxXxXxXxXxXxXxXxXxXxXxX",
"xXxXxXxXxXxXxXxXxXxXxXxXxXxXxXxXxXxXxXxXxXR 1 +   X . d x K ..$.$.@.&.d y +   X o G R xXxXxXxXxXxXxXxXxXxXxXxXxXxXxXxXxXxXxXxXxX",
"xXxXxXxXxXxXxXxXxXxXxXxXxXxXxXxXxXxXxX    2 ^ k f %X|.6 y 9 f 9 0 v 4 c v |.%X8 ; z ^ $ $ xXxXxXxXxXxXxXxXxXxXxXxXxXxXxXxXxXxXxX",
"xXxXxXxXxXxXxXxXxXxXxXxXxXxXxXxXxXxXxXX X Z G h 0 `.#X8 f S 5 7 8 e v m e '.'.w H 2 3 o $ xXxXxXxXxXxXxXxXxXxXxXxXxXxXxXxXxXxXxX",
"xXxXxXxXxXxXxXxXxXxXxXxXxXxXxXxXxX    Y ~ , z M n #X'.O O  X[.@XoX'..X. . }.`.} j G V ~ Y O . xXxXxXxXxXxXxXxXxXxXxXxXxXxXxXxXxX",
"xXxXxXxXxXxXxXxXxXxXxXxXxXxXxXxXxX.   Y Z Z z Q v @X.XO   [.]._.XX_.[.+ . .X@X} Q z V 2 s O O xXxXxXxXxXxXxXxXxXxXxXxXxXxXxXxXxX",
"xXxXxXxXxXxXxXxXxXxXxXxXxXxXxX( / 9X5X3X3XX O d.;.& O .X'.[.]._.XX_.+X}.$X@ * ;.d.O X ,X3X5XqXL ( xXxXxXxXxXxXxXxXxXxXxXxXxXxXxX",
"xXxXxXxXxXxXxXxXxXxXxXxXxXxXxX/ ( 5X5X2X,X. O d.d.@ @ *X@X[._._._.]._.oX.X@ & r.r..   <X4X5X5XP ) xXxXxXxXxXxXxXxXxXxXxXxXxXxXxX",
"xXxXxXxXxXxXxXxXxXxXxXxXxXxXxX/ ( qX0X6X0X  O n v w 6 X. .XX_.oXOXXX+X| $.8 9 v v + . 8X8X8X8XN N xXxXxXxXxXxXxXxXxXxXxXxXxXxXxX",
"xXxXxXxXxXxXxXxXxXxXxXxXxXxXxX` / 8X7X7X0X  . x N 6 6 O.+.oXoXoXoXoX`. .$.5 8 P m $ . qX8X7X7XP ) xXxXxXxXxXxXxXxXxXxXxXxXxXxXxX",
"xXxXxXxXxXxXxXxXxXxXxXxXxXxXxXxXxXL P Q W Y Y ] { q A '.@X| | +.| X.O.@X.X8 w ` ] C C L N } >.xXxXxXxXxXxXxXxXxXxXxXxXxXxXxXxXxX",
"xXxXxXxXxXxXxXxXxXxXxXxXxXxXxXxXxXI L Q ` E ~ ' ' - A  X@X| | |  . .O..X$X5 ; ] [ C Z I _ P M xXxXxXxXxXxXxXxXxXxXxXxXxXxXxXxXxX",
"xXxXxXxXxXxXxXxXxXxXxXxXxXxXxXxXxXxXxXxXxX$ o ! ~ [ ~ # & {.#X'.'.oX@XO X [ [ ! C X   xXxXxXxXxXxXxXxXxXxXxXxXxXxXxXxXxXxXxXxXxX",
"xXxXxXxXxXxXxXxXxXxXxXxXxXxXxXxXxXxXxXxXxXo   ^ 3 ' { $ . $X.X X%X{.*X  $ [ ' ~ z . . xXxXxXxXxXxXxXxXxXxXxXxXxXxXxXxXxXxXxXxXxX",
"xXxXxXxXxXxXxXxXxXxXxXxXxXxXxXxXxXxXxXxXxXO * ,.r.;.,.x R R 1 H A F F : H ) 4.;.2.* O xXxXxXxXxXxXxXxXxXxXxXxXxXxXxXxXxXxXxXxXxX",
"xXxXxXxXxXxXxXxXxXxXxXxXxXxXxXxXxXxXxXxXxX. O ,.r.t.,.l , Y E R R C , G x >.;.p.2.& = xXxXxXxXxXxXxXxXxXxXxXxXxXxXxXxXxXxXxXxXxX",
"xXxXxXxXxXxXxXxXxXxXxXxXxXxXxXxXxXxXxXxXxXxXxX  . O O xXxXxXxXxXxXxXxXxXxX@ & % o xXxXxXxXxXxXxXxXxXxXxXxXxXxXxXxXxXxXxXxXxXxXxX",
"xXxXxXxXxXxXxXxXxXxXxXxXxXxXxXxXxXxXxXxXxXxXxXo X o   xXxXxXxXxXxXxXxXxXxX$ $ $ $ xXxXxXxXxXxXxXxXxXxXxXxXxXxXxXxXxXxXxXxXxXxXxX",
"xXxXxXxXxXxXxXxXxXxXxXxXxXxXxXxXxXxXxXxXxXxXxXxXxXxXxXxXxXxXxXxXxXxXxXxXxXxXxXxXxXxXxXxXxXxXxXxXxXxXxXxXxXxXxXxXxXxXxXxXxXxXxXxX",
"xXxXxXxXxXxXxXxXxXxXxXxXxXxXxXxXxXxXxXxXxXxXxXxXxXxXxXxXxXxXxXxXxXxXxXxXxXxXxXxXxXxXxXxXxXxXxXxXxXxXxXxXxXxXxXxXxXxXxXxXxXxXxXxX",
"xXxXxXxXxXxXxXxXxXxXxXxXxXxXxXxXxXxXxXxXxXxXxXxXxXxXxXxXxXxXxXxXxXxXxXxXxXxXxXxXxXxXxXxXxXxXxXxXxXxXxXxXxXxXxXxXxXxXxXxXxXxXxXxX",
"xXxXxXxXxXxXxXxXxXxXxXxXxXxXxXxXxXxXxXxXxXxXxXxXxXxXxXxXxXxXxXxXxXxXxXxXxXxXxXxXxXxXxXxXxXxXxXxXxXxXxXxXxXxXxXxXxXxXxXxXxXxXxXxX",
"xXxXxXxXxXxXxXxXxXxXxXxXxXxXxXxXxXxXxXxXxXxXxXxXxXxXxXxXxXxXxXxXxXxXxXxXxXxXxXxXxXxXxXxXxXxXxXxXxXxXxXxXxXxXxXxXxXxXxXxXxXxXxXxX",
"xXxXxXxXxXxXxXxXxXxXxXxXxXxXxXxXxXxXxXxXxXxXxXxXxXxXxXxXxXxXxXxXxXxXxXxXxXxXxXxXxXxXxXxXxXxXxXxXxXxXxXxXxXxXxXxXxXxXxXxXxXxXxXxX",
"xXxXxXxXxXxXxXxXxXxXxXxXxXxXxXxXxXxXxXxXxXxXxXxXxXxXxXxXxXxXxXxXxXxXxXxXxXxXxXxXxXxXxXxXxXxXxXxXxXxXxXxXxXxXxXxXxXxXxXxXxXxXxXxX",
"xXxXxXxXxXxXxXxXxXxXxXxXxXxXxXxXxXxXxXxXxXxXxXxXxXxXxXxXxXxXxXxXxXxXxXxXxXxXxXxXxXxXxXxXxXxXxXxXxXxXxXxXxXxXxXxXxXxXxXxXxXxXxXxX",
"xXxXxXxXxXxXxXxXxXxXxXxXxXxXxXxXxXxXxXxXxXxXxXxXxXxXxXxXxXxXxXxXxXxXxXxXxXxXxXxXxXxXxXxXxXxXxXxXxXxXxXxXxXxXxXxXxXxXxXxXxXxXxXxX",
};
