/* XPM */
static char *_179bbb2b3284b7bd23b50906bd59726z6jCXnxzXWEB0IRw[] = {
/* columns rows colors chars-per-pixel */
"64 64 237 2 ",
"   c #020201",
".  c #0B0000",
"X  c #010A02",
"o  c #070509",
"O  c #140101",
"+  c #1A0001",
"@  c #170A03",
"#  c #020212",
"$  c #0B0212",
"%  c #050915",
"&  c #130016",
"*  c #0C1415",
"=  c #230002",
"-  c #351917",
";  c #3B221C",
":  c #3B3815",
">  c #2F2F2F",
",  c #392928",
"<  c #3B3629",
"1  c #3A2E36",
"2  c #283B3A",
"3  c #3C3A33",
"4  c #383638",
"5  c #4A1B12",
"6  c #6C1C1B",
"7  c #432B00",
"8  c #4D2D0C",
"9  c #5C2501",
"0  c #562B08",
"q  c #4C3602",
"w  c #583502",
"e  c #462C1B",
"r  c #59291A",
"t  c #4A3619",
"y  c #563917",
"u  c #62370F",
"i  c #632719",
"p  c #501E25",
"a  c #492927",
"s  c #4C2C2C",
"d  c #532C23",
"f  c #572728",
"g  c #43322D",
"h  c #4A3528",
"j  c #583726",
"k  c #54342B",
"l  c #442C33",
"z  c #4C2C33",
"x  c #472939",
"c  c #542938",
"v  c #463637",
"b  c #443C3C",
"n  c #5A3432",
"m  c #573638",
"M  c #642525",
"N  c #7D2525",
"B  c #67362C",
"V  c #622837",
"C  c #663833",
"Z  c #773536",
"A  c #28411C",
"S  c #3D492A",
"D  c #284637",
"F  c #394835",
"G  c #484500",
"H  c #734B10",
"J  c #45452A",
"K  c #514A33",
"L  c #7A4A26",
"P  c #795528",
"I  c #7A5529",
"U  c #694139",
"Y  c #784A38",
"T  c #6E5A38",
"R  c #775538",
"E  c #173D51",
"W  c #2C3544",
"Q  c #363845",
"!  c #463644",
"~  c #4B3449",
"^  c #563B45",
"/  c #72344A",
"(  c #194558",
")  c #2E4C4D",
"_  c #374547",
"`  c #3E6D7C",
"'  c #474445",
"]  c #5B4344",
"[  c #4C5753",
"{  c #6A4843",
"}  c #6A4C4D",
"|  c #7C5545",
" . c #55645C",
".. c #64615B",
"X. c #425F62",
"o. c #6D5863",
"O. c #4A6566",
"+. c #546673",
"@. c #696171",
"#. c #8B363A",
"$. c #B53F35",
"%. c #845306",
"&. c #8D510D",
"*. c #884C17",
"=. c #885619",
"-. c #8E4A29",
";. c #914B28",
":. c #83532A",
">. c #864A38",
",. c #96493A",
"<. c #895335",
"1. c #A8473B",
"2. c #B3473D",
"3. c #B84739",
"4. c #B44C3D",
"5. c #B8523C",
"6. c #89344B",
"7. c #983A45",
"8. c #8A4F43",
"9. c #99484B",
"0. c #8A534A",
"q. c #995549",
"w. c #9D4E55",
"e. c #8B545D",
"r. c #9B5657",
"t. c #A84A48",
"y. c #B34C44",
"u. c #BA4C47",
"i. c #A5524B",
"p. c #AC524D",
"a. c #B45347",
"s. c #BC534C",
"d. c #A64B52",
"f. c #A55354",
"g. c #A95453",
"h. c #A75A57",
"j. c #A5535B",
"k. c #B45453",
"l. c #B75955",
"z. c #985962",
"x. c #AA5A65",
"c. c #9B6060",
"v. c #C34B44",
"b. c #C4524B",
"n. c #C45557",
"m. c #DD694F",
"M. c #D66E5B",
"N. c #D8765D",
"B. c #DC745D",
"V. c #ED6E56",
"C. c #E56858",
"Z. c #ED6D5C",
"A. c #F56B5A",
"S. c #F26C5C",
"D. c #E57455",
"F. c #EC7152",
"G. c #EA7154",
"H. c #E4735D",
"J. c #EB715B",
"K. c #D96C65",
"L. c #CA7668",
"P. c #DD7365",
"I. c #D97A67",
"U. c #DC736B",
"Y. c #CA7A76",
"T. c #D77973",
"R. c #E46D67",
"E. c #EB6D65",
"W. c #EB6D6A",
"Q. c #F16764",
"!. c #F36A63",
"~. c #E37264",
"^. c #E3726B",
"/. c #EA766A",
"(. c #F67665",
"). c #E47070",
"_. c #B6900C",
"`. c #B59818",
"'. c #B88C24",
"]. c #BB9429",
"[. c #A69231",
"{. c #B79937",
"}. c #B0A233",
"|. c #C18F05",
" X c #CD9401",
".X c #C79B05",
"XX c #D19508",
"oX c #D08F17",
"OX c #C69816",
"+X c #D49817",
"@X c #C5A310",
"#X c #C5952A",
"$X c #CC902C",
"%X c #C49337",
"&X c #C6A232",
"*X c #9A9A44",
"=X c #B6934D",
"-X c #DC9A67",
";X c #D58179",
":X c #C89D7C",
">X c #D49573",
",X c #F08175",
"<X c #3C6A8A",
"1X c #537883",
"2X c #BA7F81",
"3X c #BC8F8A",
"4X c #D3908A",
"5X c #C8A388",
"6X c #D5A98E",
"7X c #C9A597",
"8X c #ECA88C",
"9X c #DB9DA0",
"0X c #C8A6AA",
"qX c #EFC4BA",
"wX c #FCC9BD",
"eX c #F7D1C9",
"rX c #F9D0CC",
"tX c #ECEBEC",
"yX c #F2F2EF",
"uX c #F7FAEC",
"iX c #FEFEEB",
"pX c #FCECF8",
"aX c #EFF5FB",
"sX c #ECFFFE",
"dX c #F5F5F5",
"fX c #FCF4F4",
"gX c #F4FEF5",
"hX c #FDFDF5",
"jX c #F5F4FC",
"kX c #FEF5FD",
"lX c #F5FEFE",
"zX c #FFFAFD",
"xX c #FFFBFF",
"cX c #FAFEFD",
"vX c #FBFFFF",
"bX c #FDFFFD",
"nX c #FFFFFFFF",
/* pixels */
"nXnXnXnXnXnXnXnXnXnXnXnXnXnXnXnXnXnXnXnXnXnXnXnXnXnXnXnXnXnXnXnXnXnXnXnXnXnXnXnXnXnXnXnXnXnXnXnXnXnXnXnXnXnXnXnXnXnXnXnXnXnXnXnX",
"nXnXnXnXnXnXnXnXnXnXnXnXnXnXnXnXnXnXnXnXnXnXnXnXnXnXnXnXnXnXnXnXnXnXnXnXnXnXnXnXnXnXnXnXnXnXnXnXnXnXnXnXnXnXnXnXnXnXnXnXnXnXnXnX",
"nXnXnXnXnXnXnXnXnXnXnXnXnXnXnXnXnXnXnXnXnXnXnXnXnXnXnXnXnXnXnXnXnXnXnXnXnXnXnXnXnXnXnXnXnXnXnXnXnXnXnXnXnXnXnXnXnXnXnXnXnXnXnXnX",
"nXnXnXnXnXnXnXnXnXnXnXnXnXnXnXnXnXnXnXnXnXnXnXnXnXnXnXnXnXnXnXnXnXnXnXnXnXnXnXnXnXnXnXnXnXnXnXnXnXnXnXnXnXnXnXnXnXnXnXnXnXnXnXnX",
"nXnXnXnXnXnXnXnXnXnXnXnXnXnXnXnXnXnXnXnXnXnXnXnXnXnXnXnXnXnXnXnXnXnXnXnXnXnXnXnXnXnXnXnXnXnXnXnXnXnXnXnXnXnXnXnXnXnXnXnXnXnXnXnX",
"nXnXnXnXnXnXnXnXnXnXnXnXnXnXnXnXnXnXnXnXnXnXnXnXnXnXnXnXnXnXnXnXnXnXnXnXnXnXnXnXnXnXnXnXnXnXnXnXnXnXnXnXnXnXnXnXnXnXnXnXnXnXnXnX",
"nXnXnXnXnXnXnXnXnXnXnXnXnXnXnXnXnXnXnXnXnXnXnXnXnXnXnXnXnXnXnXnXnXnXnXnXnXnXnXnXnXnXnXnXnXnXnXnXnXnXnXnXnXnXnXnXnXnXnXnXnXnXnXnX",
"nXnXnXnXnXnXnXnXnXnXnXnXnXnXnXnXnXnXnXnXnXnXnXnX4 3 3 3 g g v v v h a , b > nXnXnXnXnXnXnXnXnXnXnXnXnXnXnXnXnXnXnXnXnXnXnXnXnXnX",
"nXnXnXnXnXnXnXnXnXnXnXnXnXnXnXnXnXnXnXnXnXnXnXnXg s h r d d r r r r r p a a nXnXnXnXnXnXnXnXnXnXnXnXnXnXnXnXnXnXnXnXnXnXnXnXnXnX",
"nXnXnXnXnXnXnXnXnXnXnXnXnXnXnXnXnXnXnXnX! a a c 2XY.Y.Y.T.T.U.U.K.T.T.4XT.3Xf z l ! nXnXnXnXnXnXnXnXnXnXnXnXnXnXnXnXnXnXnXnXnXnX",
"nXnXnXnXnXnXnXnXnXnXnXnXnXnXnXnXnXnXnXnXa V M 6 Y.T.).^.W.W.!.!.W.R./.K.L.Y.6 M f z nXnXnXnXnXnXnXnXnXnXnXnXnXnXnXnXnXnXnXnXnXnX",
"nXnXnXnXnXnXnXnXnXnXnXnXnXnXnXnXnXnX_ x e.d.^./.~.~.^.W.).W.S.Z.W.^.D.D.D.N.N.I.d.w.~ ! nXnXnXnXnXnXnXnXnXnXnXnXnXnXnXnXnXnXnXnX",
"nXnXnXnXnXnXnXnXnXnXnXnXnXnXnXnXnXnX> m z.n.(.C.V.J.E.R.).~.Z.J.).^.D.F.D.D.N.N.b.j.c ! nXnXnXnXnXnXnXnXnXnXnXnXnXnXnXnXnXnXnXnX",
"nXnXnXnXnXnXnXnXnXnXnXnXnXnXnXnXnXnX, n Y.R.A.A.A.Z.E.E.U.P.H.P.U.U.D.G.G.V.G.H.).Y.f x nXnXnXnXnXnXnXnXnXnXnXnXnXnXnXnXnXnXnXnX",
"nXnXnXnXnXnXnXnXnXnXnXnXnXnXnXnXnXnXk f Y./.S.!.S.V.E.E.R.~.P.~.U.U.E.J.J.G.J.~.K.;Xf V nXnXnXnXnXnXnXnXnXnXnXnXnXnXnXnXnXnXnXnX",
"nXnXnXnXnXnXnXnXnXnXnXnXnXnXnXnX1 m 0.h.L.M.B.B.H.~.H.~.E.E.E.E.E.E.R.~.H.H.H.~.,XK.k.w.f v nXnXnXnXnXnXnXnXnXnXnXnXnXnXnXnXnXnX",
"nXnXnXnXnXnXnXnXnXnXnXnXnXnXnXnXv a f.y.U.I.I.B.~.H.H.J.J.E.E.W.!.S.E.~.B.P.~.~.).K.n.d.f 1 nXnXnXnXnXnXnXnXnXnXnXnXnXnXnXnXnXnX",
"nXnXnXnXnXnXnXnXnXnXnXnXnXnXnXnX1 z h.2.,XN.M./.!.S.G.G.J.V.E.E.V.S.R.~.J.Z.E.W.^.^.u.y.z 1 nXnXnXnXnXnXnXnXnXnXnXnXnXnXnXnXnXnX",
"nXnXnXnXnXnXnXnXnXnXnXnXnXnXnXnX4 l q.a.M.B.^.C.!.!.V.G.F.A.E.~.V.J.E.W.J.Z.!.W.I.U.3.p.z 1 nXnXnXnXnXnXnXnXnXnXnXnXnXnXnXnXnXnX",
"nXnXnXnXnXnXnXnXnXnXnXnXnXnXnXnXQ 1 x.u.4.5.I.R.Q.S.Z.m.F.F.~.E.J.J.C./.C.(.!.W.y.a.y.g.z Q nXnXnXnXnXnXnXnXnXnXnXnXnXnXnXnXnXnX",
"nXnXnXnXnXnXnXnXnXnXnXnXnXnXnXnX! x j.t.4.5.P./.E.Z.J.V.(.D.~.B.m.D.~./.C.E.!.W.s.1.s.h.x 4 nXnXnXnXnXnXnXnXnXnXnXnXnXnXnXnXnXnX",
"nXnXnXnXnXnXnXnXnXnXnXnXnXnXnXnX~ c x.l.k.a.y.2.u.3.N.M.N.~.^.P.,X~.I.P.5.5.u.u.y.k.l.9.^ 1 nXnXnXnXnXnXnXnXnXnXnXnXnXnXnXnXnXnX",
"nXnXnXnXnXnXnXnXnXnXnXnXnXnXnXnX~ ~ e.9.g.a.y.u.s.a.I.;XL.L.Y.Y.L.L.L.L.5.4.v.b.k.d.h.z.z ! nXnXnXnXnXnXnXnXnXnXnXnXnXnXnXnXnXnX",
"nXnXnXnXnXnXnXnXnXnXnXnXnXnX' ! , x m B t.y.$.v.4.1.h.r.B k k k n C q.k.a.3.u.2.p.r.f z z , ^ b nXnXnXnXnXnXnXnXnXnXnXnXnXnXnXnX",
"nXnXnXnXnXnXnXnXnXnXnXnXnXnX> < g z ; d j.n.b.b.s.g.z.e.m b J 3 F ] | q.l.u.u.y.i.w.z l a k e g nXnXnXnXnXnXnXnXnXnXnXnXnXnXnXnX",
"nXnXnXnXnXnXnXnXnXnXnXnXnXnX  . 7X3XK h w.t.3.2.,.0.m ] Q W _ Q Q ! m B q.i.y.p.g.x.z z 7X7X+ . nXnXnXnXnXnXnXnXnXnXnXnXnXnXnXnX",
"nXnXnXnXnXnXnXnXnXnXnXnXnXnXo . 7X5Xh a r.h.l.p.h.r.j C ! v K v ~ ~ n M g.i.q.h.f.r.m , 9X5XO O nXnXnXnXnXnXnXnXnXnXnXnXnXnXnXnX",
"nXnXnXnXnXnXnXnXnXnXnXnXnXnX  . :X6X7 y a c c f r.i.p.p.f.f.r.j.r.z.z.9.k.d.f s M M a e 5X:XO . nXnXnXnXnXnXnXnXnXnXnXnXnXnXnXnX",
"nXnXnXnXnXnXnXnXnXnXnXnXnXnX* . 5X5Xy t s x ^ f e.r.i.d.f.f.f.d.j.z.h.w.h.q.h < C 5 k : 5X5X@ . nXnXnXnXnXnXnXnXnXnXnXnXnXnXnXnX",
"nXnXnXnXnXnXnXnXnXnXnXnXnXnXnXnX. O s a | 0.5 k k s c ~ c c c ~ ] V p f s h 8 t Y | r e & $ nXnXnXnXnXnXnXnXnXnXnXnXnXnXnXnXnXnX",
"nXnXnXnXnXnXnXnXnXnXnXnXnXnXnXnX% $ x c Y I 0 y d h v Q 1 v z z p f f k h e y q R | h , $ # nXnXnXnXnXnXnXnXnXnXnXnXnXnXnXnXnXnX",
"nXnXnXnXnXnXnXnXnXnXnXnXnXnXnXnXnXnXO O r 9 :.<.R >.T T R R R I P P T | R Y 0.Y j d . # nXnXnXnXnXnXnXnXnXnXnXnXnXnXnXnXnXnXnXnX",
"nXnXnXnXnXnXnXnXnXnXnXnXnXnXnXnXnXnX  @ 8 u <.L :.:.P :.:.:.=.=.=.=.P P L >.0.0.r e o % nXnXnXnXnXnXnXnXnXnXnXnXnXnXnXnXnXnXnXnX",
"nXnXnXnXnXnXnXnXnXnXnXnXnXnXnXnXnXnXnXnX  . y w :.:.;.&.=.*.-.;.-.:.<.I :.I 0 0 O @ nXnXnXnXnXnXnXnXnXnXnXnXnXnXnXnXnXnXnXnXnXnX",
"nXnXnXnXnXnXnXnXnXnXnXnXnXnXnXnXnXnXnXnX    y 8 R R ;.;.;.*.-.,.,.-.<.L R R 0 k     nXnXnXnXnXnXnXnXnXnXnXnXnXnXnXnXnXnXnXnXnXnX",
"nXnXnXnXnXnXnXnXnXnXnXnXnXnXnXnXnXnXnXnXnXnX. O O + m r <.-.>.,.,.<.0 8 + + . o _ D A S K ..nXnXnXnXnXnXnXnXnXnXnXnXnXnXnXnXnXnX",
"nXnXnXnXnXnXnXnXnXnXnXnXnXnXnXnXnXnXnXnXnXnX    . @ - k Y >.q.>.| Z B 7 = = . # ) D A J j / nXnXnXnXnXnXnXnXnXnXnXnXnXnXnXnXnXnX",
"nXnXnXnXnXnXnXnXnXnXnXnXnXnXnXnXnXnXnXnX@   4 J =X=XJ j 9 9 i d f k q q =X=Xh ! D ) S J 4X8X} / nXnXnXnXnXnXnXnXnXnXnXnXnXnXnXnX",
"nXnXnXnXnXnXnXnXnXnXnXnXnXnXnXnXnXnXnXnX  X D S *X}.7 q w 0 w w 0 w q G $X=Xj x 4 2 S j >X8X6.} nXnXnXnXnXnXnXnXnXnXnXnXnXnXnXnX",
"nXnXnXnXnXnXnXnXnXnXnXnXnXnXnXnXnXnX> [ ) ) ) 4 S G `.&X+ + }.`.OX`.@X`.G 9 #./ ~ ' 5X:X-X-XY U nXnXnXnXnXnXnXnXnXnXnXnXnXnXnXnX",
"nXnXnXnXnXnXnXnXnXnXnXnXnXnXnXnXnXnXQ _ 2 2 ! Q _ q {.'.+ + }.@X X X.X`.w 9 #.6.x ' 5X>X8X6XY U nXnXnXnXnXnXnXnXnXnXnXnXnXnXnXnX",
"nXnXnXnXnXnXnXnXnXnXnXnXnXnXnXnXnXnX  . 0X0Xk n ^ / + + &X`._..X X X_.@XoX-X3.#.@   . O K ] nXnXnXnXnXnXnXnXnXnXnXnXnXnXnXnXnXnX",
"nXnXnXnXnXnXnXnXnXnXnXnXnXnXnXnXnXnX. @ 9X4XB j Z / + + #X|.+XXX X X.XOX$X%X$.$.O     o ..K nXnXnXnXnXnXnXnXnXnXnXnXnXnXnXnXnXnX",
"nXnXnXnXnXnXnXnXnXnXnXnXnXnXnXnX{ U wXwXwXwX+ O w.d.f i &.&. X XXX X.X%X*.,.N Z O . nXnXnXnXnXnXnXnXnXnXnXnXnXnXnXnXnXnXnXnXnXnX",
"nXnXnXnXnXnXnXnXnXnXnXnXnXnXnXnXC 8.wXwXwXeX. O 9.7.i w &.%.+X+XoX+X#X{.*.-.Y L .   nXnXnXnXnXnXnXnXnXnXnXnXnXnXnXnXnXnXnXnXnXnX",
"nXnXnXnXnXnXnXnXnXnXnXnXnXnXnXnX{ Z qXqXeXeX@ . / 6.i w #X&XH =.%.H =.&.].}.G A ' Q nXnXnXnXnXnXnXnXnXnXnXnXnXnXnXnXnXnXnXnXnXnX",
"nXnXnXnXnXnXnXnXnXnXnXnXnXnXnXnX] { rXrXrXeXX   / V j q [.}.%.=.&.%.&.=.[.}.S F Q W nXnXnXnXnXnXnXnXnXnXnXnXnXnXnXnXnXnXnXnXnXnX",
"nXnXnXnXnXnXnXnXnXnXnXnXnXnXnXnXnXnX] { Y C O O o.@.' J # O =X$X+X+XoX'.@ X  .O.# o fXfXhXhXvXvXnXnXnXnXnXnXnXnXnXnXnXnXnXnXnXnX",
"nXnXnXnXnXnXnXnXnXnXnXnXnXnXnXnXnXnX} ] { } O . ...._ Q # o =X{.'.#X'.[.@ X O.+.  o nXnXnXnXnXnXnXnXnXnXnXnXnXnXnXnXnXnXnXnXnXnX",
"nXnXnXnXnXnXnXnXnXnXnXnXnXnXnXnXnXnXnXnXnXnXnXnX        4 J h t h K J _  .X.D D X X nXnXnXnXnXnXnXnXnXnXnXnXnXnXnXnXnXnXnXnXnXnX",
"nXnXnXnXnXnXnXnXnXnXnXnXnXnXnXnXnXnXnXnXnXnXnXnX        S J 4 _ W ) E ( 1XO.) D X % nXnXnXnXnXnXnXnXnXnXnXnXnXnXnXnXnXnXnXnXnXnX",
"nXnXnXnXnXnXnXnXnXnXnXnXnXnXnXnXnXnXnXnXnXnXnXnXnXnXnXnXnXnXnXnXo # <X<X` O.# $ nXnXnXnXnXnXnXnXnXnXnXnXnXnXnXnXnXnXnXnXnXnXnXnX",
"nXnXnXnXnXnXnXnXnXnXnXnXnXnXnXnXnXnXnXnXnXnXnXnXnXnXnXnXnXnXnXnX    @.+.+.@.& & nXnXnXnXnXnXnXnXnXnXnXnXnXnXnXnXnXnXnXnXnXnXnXnX",
"nXnXnXnXnXnXnXnXnXnXnXnXnXnXnXnXnXnXnXnXnXnXnXnXnXnXnXnXnXnXnXnX  O >.,.9.6.= O nXnXnXnXnXnXnXnXnXnXnXnXnXnXnXnXnXnXnXnXnXnXnXnX",
"nXnXnXnXnXnXnXnXnXnXnXnXnXnXnXnXnXnXnXnXnXnXnXnXnXnXnXnXnXnXnXnX  . q.1.t.x.= O nXnXnXnXnXnXnXnXnXnXnXnXnXnXnXnXnXnXnXnXnXnXnXnX",
"nXnXnXnXnXnXnXnXnXnXnXnXnXnXnXnXnXnXnXnXnXnXnXnXnXnXnXnXnXnXnXnXnXnX+ + + O nXnXnXnXnXnXnXnXnXnXnXnXnXnXnXnXnXnXnXnXnXnXnXnXnXnX",
"nXnXnXnXnXnXnXnXnXnXnXnXnXnXnXnXnXnXnXnXnXnXnXnXnXnXnXnXnXnXnXnXnXnX$ # o   nXnXnXnXnXnXnXnXnXnXnXnXnXnXnXnXnXnXnXnXnXnXnXnXnXnX",
"nXnXnXnXnXnXnXnXnXnXnXnXnXnXnXnXnXnXnXnXnXnXnXnXnXnXnXnXnXnXnXnXnXnXnXnXnXnXnXnXnXnXnXnXnXnXnXnXnXnXnXnXnXnXnXnXnXnXnXnXnXnXnXnX",
"nXnXnXnXnXnXnXnXnXnXnXnXnXnXnXnXnXnXnXnXnXnXnXnXnXnXnXnXnXnXnXnXnXnXnXnXnXnXnXnXnXnXnXnXnXnXnXnXnXnXnXnXnXnXnXnXnXnXnXnXnXnXnXnX",
"nXnXnXnXnXnXnXnXnXnXnXnXnXnXnXnXnXnXnXnXnXnXnXnXnXnXnXnXnXnXnXnXnXnXnXnXnXnXnXnXnXnXnXnXnXnXnXnXnXnXnXnXnXnXnXnXnXnXnXnXnXnXnXnX",
"nXnXnXnXnXnXnXnXnXnXnXnXnXnXnXnXnXnXnXnXnXnXnXnXnXnXnXnXnXnXnXnXnXnXnXnXnXnXnXnXnXnXnXnXnXnXnXnXnXnXnXnXnXnXnXnXnXnXnXnXnXnXnXnX",
"nXnXnXnXnXnXnXnXnXnXnXnXnXnXnXnXnXnXnXnXnXnXnXnXnXnXnXnXnXnXnXnXnXnXnXnXnXnXnXnXnXnXnXnXnXnXnXnXnXnXnXnXnXnXnXnXnXnXnXnXnXnXnXnX",
"nXnXnXnXnXnXnXnXnXnXnXnXnXnXnXnXnXnXnXnXnXnXnXnXnXnXnXnXnXnXnXnXnXnXnXnXnXnXnXnXnXnXnXnXnXnXnXnXnXnXnXnXnXnXnXnXnXnXnXnXnXnXnXnX",
"nXnXnXnXnXnXnXnXnXnXnXnXnXnXnXnXnXnXnXnXnXnXnXnXnXnXnXnXnXnXnXnXnXnXnXnXnXnXnXnXnXnXnXnXnXnXnXnXnXnXnXnXnXnXnXnXnXnXnXnXnXnXnXnX",
};
