/* XPM */
static char *_5a8c68925d44d2bdc75add680f6350etJlnYwjnrVJZ4ixz[] = {
/* columns rows colors chars-per-pixel */
"64 64 239 2 ",
"   c #201F1F",
".  c #12281B",
"X  c #093A1B",
"o  c #183A1B",
"O  c #1D1D25",
"+  c #231C25",
"@  c #192A26",
"#  c #0B3923",
"$  c #1A3928",
"%  c #1A3432",
"&  c #262528",
"*  c #232D2C",
"=  c #2A2C2D",
"-  c #24342B",
";  c #2A352D",
":  c #243A2B",
">  c #262C33",
",  c #2D2C33",
"<  c #2B2835",
"1  c #2D2D39",
"2  c #332D34",
"3  c #332D3A",
"4  c #372D3A",
"5  c #243636",
"6  c #2B3333",
"7  c #243A34",
"8  c #2B3A34",
"9  c #2D343A",
"0  c #2C3A3B",
"q  c #343235",
"w  c #33333B",
"e  c #3A333B",
"r  c #333B3B",
"t  c #363C38",
"y  c #17580C",
"u  c #0C4F1C",
"i  c #1C4319",
"p  c #175919",
"a  c #225212",
"s  c #245A16",
"d  c #1B6709",
"f  c #1B621B",
"g  c #266916",
"h  c #22651C",
"j  c #2D6E19",
"k  c #33771A",
"l  c #3B7C1D",
"z  c #0C4329",
"x  c #18462A",
"c  c #0E5924",
"v  c #145D23",
"b  c #195928",
"n  c #194A33",
"m  c #1D5537",
"M  c #1D5D32",
"N  c #26462B",
"B  c #265829",
"V  c #31552D",
"C  c #284937",
"Z  c #2B433A",
"A  c #33443C",
"S  c #334C3C",
"D  c #235C34",
"F  c #295836",
"G  c #25543C",
"H  c #2A543C",
"J  c #245B3C",
"K  c #32533C",
"L  c #35583A",
"P  c #176527",
"I  c #1B6324",
"U  c #1B622A",
"Y  c #1C6533",
"T  c #256827",
"R  c #21642D",
"E  c #346B28",
"W  c #2B7629",
"Q  c #367A27",
"!  c #3C7B2B",
"~  c #266637",
"^  c #386838",
"/  c #2D7B39",
"(  c #3C7E34",
")  c #337E3C",
"_  c #387838",
"`  c #457634",
"'  c #46793A",
"]  c #3A3842",
"[  c #423B44",
"{  c #284C45",
"}  c #394945",
"|  c #295747",
" . c #255B42",
".. c #2C5C43",
"X. c #335343",
"o. c #3C5245",
"O. c #335A45",
"+. c #395749",
"@. c #355852",
"#. c #2F6849",
"$. c #356445",
"%. c #357C43",
"&. c #3A7B46",
"*. c #444848",
"=. c #445449",
"-. c #425552",
";. c #436946",
":. c #477848",
">. c #537D4B",
",. c #497754",
"<. c #527A54",
"1. c #3B8119",
"2. c #398226",
"3. c #2E8138",
"4. c #3C8434",
"5. c #36853A",
"6. c #3D833C",
"7. c #44862B",
"8. c #448433",
"9. c #468939",
"0. c #539137",
"q. c #348243",
"w. c #318246",
"e. c #3C8444",
"r. c #3C854B",
"t. c #378848",
"y. c #478846",
"u. c #4D914C",
"i. c #4B8356",
"p. c #5FA758",
"a. c #67A748",
"s. c #6CAB4C",
"d. c #73AD45",
"f. c #74AC4B",
"g. c #78AC4A",
"h. c #6DB34A",
"j. c #74B44C",
"k. c #7AB649",
"l. c #7BB44D",
"z. c #73BA4C",
"x. c #68AA58",
"c. c #6CAC5B",
"v. c #76AD57",
"b. c #69B255",
"n. c #6DB35C",
"m. c #74B454",
"M. c #7BB353",
"N. c #7BBA53",
"B. c #74B35B",
"V. c #7AB45B",
"C. c #74B958",
"Z. c #7CBB5C",
"A. c #7A9376",
"S. c #7A9A79",
"D. c #5CA562",
"F. c #6AAD63",
"G. c #69AC69",
"H. c #76AB67",
"J. c #6CB364",
"K. c #6DB468",
"L. c #74B664",
"P. c #7CB463",
"I. c #76BA63",
"U. c #7BBD62",
"Y. c #72B36B",
"T. c #7CB36C",
"R. c #74BB6C",
"E. c #7CBD6A",
"W. c #6EA472",
"Q. c #79A778",
"!. c #6BB476",
"~. c #72B471",
"^. c #7CBE72",
"/. c #76B978",
"(. c #6EC05F",
"). c #7AC25A",
"_. c #7BC266",
"`. c #7BC176",
"'. c #87BA4D",
"]. c #82B457",
"[. c #82BA54",
"{. c #83BB59",
"}. c #849A7A",
"|. c #81AD6A",
" X c #83BA67",
".X c #84A676",
"XX c #85B477",
"oX c #83C35E",
"OX c #83C469",
"+X c #82C475",
"@X c #7D7F83",
"#X c #7C8987",
"$X c #7C9784",
"%X c #78AA86",
"&X c #FF888787",
"*X c #FF848A83",
"=X c #FF858C8B",
"-X c #FF8C8D8D",
";X c #FF928C84",
":X c #FF928E8E",
">X c #FF83938C",
",X c #FF8C928D",
"<X c #FF869A88",
"1X c #FF8B9A8D",
"2X c #FF94948D",
"3X c #FF97978C",
"4X c #FF8E8790",
"5X c #FF8D8C92",
"6X c #FF928D93",
"7X c #FF938B97",
"8X c #FF8D9493",
"9X c #FF899796",
"0X c #FF8C9A93",
"qX c #FF949493",
"wX c #FF959395",
"eX c #FF929595",
"rX c #FF949494",
"tX c #FF999494",
"yX c #FF939A94",
"uX c #FF9A9996",
"iX c #FF959299",
"pX c #FF94949A",
"aX c #FF9B969A",
"sX c #FF959A9B",
"dX c #FF9B9B9B",
"fX c #FFA19B9B",
"gX c #FF89A58A",
"hX c #FF8DAD8B",
"jX c #FF89A593",
"kX c #FF98A39A",
"lX c #FFA2A49E",
"zX c #FF9698A2",
"xX c #FF9D9CA2",
"cX c #FFA19DA3",
"vX c #FFA299A7",
"bX c #FF8CAEA0",
"nX c #FF99A4A3",
"mX c #FFA3A2A4",
"MX c #FFA4A4A8",
/* pixels */
"-X-X-X-X;X:X-X-X-X-X8X=X,X,X-X-X-X-X:X-X6X-X-X-X<X=X-X-X6X:X:X-X-X-X>X-X>X-X-X-X;X:X:X;X:X-X5X-X5X5X>X5X-X-X-X-X-X-X-X-X-X-X-X:X",
"qXqXqXwXwXqXqXqXqX8X8X8X8X8X8X8XqXqXqX7XwXqX8XrX2XqXqXwXwXwX7XwXqX2X2X1X1X,X8X2X2XwX6XwXqXwXqXqX8XeX8XqXqXqXqXqXqXqXqXqXqXqXqXqX",
":X:XwXwXwXwXrXqXqX8XpX8X0XpXeXeXqX2XtXiXiXeXeX8XqXqXqXqXtXwXwXrXqXqX8X8X0X0X1XrXwX2XwXqXwXwXwXwXqXqXpXqXrXrXrXrXrXrXrXrXwXwXqX,X",
"tXtXtXwXqXqXrXrXqXeXpXpXpXpXqXqX2X:XtXiXiXzXpX5XyX2X3X2X3XuX&XrX2XuX2X9XpX2XrXtXwXaX;X:XwXwXdX&XyX3XrXqXrXrXrXrXrXqXqXrXqXqXwXqX",
":XtXrXwXwXwXrXrXqXiXiXeXzXiXiXiXtX3X;XtXzXaXrX,XqX,X-X1X;X,XeXkX-X-X0XsX=X8X-XwX;X-XdXdXsXpXsXqX2X;X;XrXwXrXrXrXqXqXqXqXqXqXqXqX",
"2XtXrXpXqXwXrXrXqXiXeXiXiXiXiXwXtX;XtX;XrX2XrXfXdXuXsXpXsX8X9X9X0X0X0X9X$XkX,XyX2X,X1X5X=X=X8XsXqX2XtXqXrXrXrXrXqXqXwXqXqXqXqXqX",
"qXrXqXqXpXqXwXyX2XqXwXiXiXzXiXiXtXtXtX;X3X;X3XtX:X-X9X9XsXnX$X9X<XjX<XjXjX1X<X<X1XyX0XsXsX9XeXnXwXqXuXwXrXrXrXrXqXqXqXwXqXqXqXqX",
"qXqXqXpXpXqXqX2X2X2XqXiX7XiXiXiXtXtXtX3X3X}.uXaX5XpXzXzX#XjXjX$X;.;.,.;.,.$.gXgX<X<XjX<X>X>X>X0XqXqXiXwXrXrXrXrXwXqXqXqXqXqXrX8X",
"pX9XeXpXiXwXqX2X2X2X2XrXtXpXpXiXpXeXrX3X2X;XdXsXeXnX>X9X>XjXQ.W.y.:.y.' i.i..XS.gX<X$XhX0X$XbX9XsX8X5XqXrXrXrXrXqXqXqXqXqXqXyXqX",
"eXpXeXpXiXwX2X3X2X2X2XrXwXpXpXpXeXrXrXaXaX5XsX>X#X#X+.K <.:.' ` c.m.x.T.Y.G.E B >.:.:.;.V K <X#XkXzXxXpXqXrXrXrXqXqXqXwXqXqXqXqX",
"eXpXiXiXeXwXwX3X2X3X2XqXrXpXpXrX8XrX9X>X9X9XsX>XjXjXN B ' E 9.l ).z.z.E.p.`.h s ' ^ :.>.B V hX}.kX=X8XqXrXrXrXrXqXwXqXqXqXqXqXqX",
"xX5XxXeXeXwXqX2X2X3X2X2XeX,XeXsX0X0X9XjX$XbXC ..,.^ T.P.V.C.m.j.z.z.z.).g 8.0.Q T.T.T.H.T.XXV N jX>XsXqXfXyX-XaX-XyXwXqXqXqXqXqX",
"xX6XiXiXwXwXqX3X2X2X2XdXkX>X*X1X}.kX.XjX%X%XB p ' ` ).m.l.z.z.z.z.z.z.C.1.k k ` L.B.P.P.c.T.i ^ hX1X,X&XrXuX-XdX8XwXqXqXqXqXqX8X",
"aXaXwXwXwXqXwX2X2XrXqXyX8XyXkXgX=.<.:.^ :.y.( 8.OXa.h.z.j.z.j.m.B.B.m.z.(.).).m.7.` B.I.c. X|..XN o.=XdXaXnX-XqXqXwXqXqXqXqXwX6X",
"fXaXtXtXwX3XtXyXrXrX8X8X>XkXgXS.' :.` y.( E k 1.k.z.k.z.j.z.l.V.B.B.B.h.).h.h.N.l l m.Z.a.v.T.XXN =.kX>X&XqXrXdXdX:X8XqXqXqXwXqX",
"wXwXwX7XwXwXqXrXwXwXrXsX1X<X,.>.XXT.v.n.C.Z.).j.z.).d.k.l.l.M.v.V.V.v.N.).d.a.).m.{.Z.m.k 0.y V V . A.dXwX2XqXrXwX8XdXqXqXqXqXqX",
"qX:XtXqXqXwXwXwXwXpX8XsX>XgX;.` XXs.Z.m.j.N.N.M.a.].g.g.M.M.g.M.M.M.m.d.M.].].V.v.V.v.{.l 7.y a i N nX8XMXqXqXqXqXqXxXqXqXqXqXqX",
"qXqXuXqXwX2X2XwXpXpXpX9X$XjX>.:.8.k d.].g.M.g.].].].M.].M.].'.g.g.k.'.'.d.s.].P.P.m.Z.s.l.V. XXXV S * ; -X&XyXfXpXqX-XqXqXqXwX8X",
"wX6XqXqX2XwXtXtXiXpX9XjXjX%X^ 8.l 1.[.a.].].v.].|.].].].].].g.].'.d.k.d.].{.V.v. Xf.m.N.N.m.v.XXi ^ $ - MXqX8XqXqXaXqXqXqXqXwXqX",
"pXzXiXyX2X;XfX:X&XuX0X$X,.&.H.V.M.g.k.'.g.].].].].g.].].g.M.g.].[.d.l.v.s.Z.{.a.{.g.k.z.z.d.v.P.H.hXF V N $ >XkX&XcX5XqXqXqXqXqX",
"pXpXwX,XuX2X2XfXfXuX}.gX:._ L._.d.d.'.l.g.].g.g.].].g.M.].{.g.d.l.m.m.{.V.s.s.M.OXk.k.k.a.oXOXU.Y.~.B F X : >XnXsX6XaXqXqXqXqX2X",
"8X2X2XyXdX2XtX6X&X<X1XS.W.G.n.b.M.l.'.d.[.[.[.'.].{.g.'.g.g.oXoXm.M.s.f.U.Z. Xm.k l m.l.Z.h.j 7.s p :.&.^ +.. * zXzX5XpX8XqXqX2X",
"1X3X2X8XqX6XfXtX;XyXgXQ.%X`.`.b.m.g.[.k.[.d.d.d.d.[.l.l.{.f.a.d.z.Z.Z.Z.m.s.V.V.k 0.C.C.m.m.2.9.T h y.,.x O.: A 8X#XaXqXqXqXqX8X",
"1X1X0XpXpXaXwX4XdX1XV V _ W 4.2._.s.j.j.k.k.N.k.k.l.j.d.Z.l.Z.N.7.l C.m.v.b.m.V.x.m.! 2.n.+XI.F.p I %.:.,.<.. % zXxXsXqX8X2XqXqX",
"8X0XqXzXpXpXaX*X<X}.V B y.6.3.W OXB.Z.j.j.).k.k.oXj.j.M.l.m.C.C.1.j j.C.v.OXOXc.R. XQ Q R.F.R.K.p R r.&.<.,.: N >X,X&XqXqX2XyXqX",
"8XsXpX5X5X5XdXyX}.hXXXH.J.b.0.2.Q Q m.).h.h.1.1.h.f.Z.h.B.m.k l Z.)._.C.l k ! ! F.~.e.9.f f ~.D.e.y.v R ,.&.$ Z >XsXnXqX8XqXqX2X",
"0XeXqX5XMX8X;XhX}.H.|.T.b.J.4.2.Q 7.B.m.h.).2.2.Z.v.m.I.a.I.7.Q C.J.b.m.7.8.8._ ^.G.) 5.f f `.!.q.) R b ,.,.$ : =XeX8XqXqXqXqX2X",
"*XuX:XpXdXuX*X3X}..XH.L.7.2.d d C.n.C.n._.a.m.C.k 7.b.L.n.R.d f 9.W n._.k 0.H.Y.T b / %.t.) P P e.&.b M R m K o.7 > dXsXyX2X,XdX",
"2X3XfX:X:X2X}.}..X|.E.U.2.k d d b.I.B.n.n.+X`.L.8.9.L.R.L.R.W d j u.R.B.g 8.^.~.p ~ t.%.r.) I ~ r.&.M b D $.K Z 6 > =X=X,XqX,XuX",
"dXuX6XaXqX2X<X}.u.` ` Q )._.2.2.I.x.I.R.4.g x.K.! Q p h Y.Y.W 6.3.5.W 9.P.Y.G.G.p P P P t.r.R c b M M #.X # X.+.] 9 MXxXdXdX-X-X",
"iXaX7XtX2XyXgX.X' E 8.k b.C.k l I. XL.J.y.y.`.x._ y.f y Y.F.6.y.6.4.5.Q `.Y.~./.W ~ v P %.%.U b Y M m m # C { } } > =X4X*XqX2XyX",
"zXzXvX6X:X,X<X.X>.>.H.+Xn.J.+XI.! l c.Y.h 4.f g ^.K.4.9.T g 9.W p.R.R.J.g y G.!.Y t.T P R R M D ~ J G F X.X.% 5 > > xXxXqXqXqX2X",
"pX7X7XwXrX1X<XS.$._ K.F.^.J.x.B.8.9. X/.y.4.f f F.G.( ( g y 4.4._.D.K._.f f /./.y.q.v I p Y R b n  .G  .O.C 5 ] > ] zX6XMXqXqX5X",
"=XdXuX:XrXkXjXgX>.:.!.~.y h  X`.s s E Q T f J.!.Y.^.( ! `.J.4.Q 4.4.J.p.W f p P 5.) 5.r.I v R ~ $.O.$ # +.{ 0 5 ] < < 3 &X&XdXdX",
"sX&XtXtXrX1X>X<X,.:.Q.~.h h n.I.a j ` 4.h f G./.R.F.4.4.I.n.! 4.W 9.K.`.f I P f q./ r.r.v B ~ n G ..$ n { Z } @ > ] ] < nXqXyX2X",
"fX1X2X2XtXqXiXsX0X$XV T 8.Q 2.2.v.|.|.R.f I P Y !.D.9.8.m.V.s.E.g c Y P t./ 3.t.P u y.&.B $.$ o +.X.S { $ % ] - ] } % * 2XqXdXwX",
"2XqX2X,XkXwX&XxXmX1XF s 5.2.2.2.].|.|.H.T B u Y %X%X5.! V. X Xx.p Y c ~ t.w.t.3.P P %.&.J C $ N L C +.o.Z $ @ - =.A - t qX,XqX:X",
";XwXyX2X-X5XvX4X> : ;.u.J.(.(.a.v.v.|.XXp s i.&.Y Y b T s a v.Y.e.u.Y v c P %.w.w.t.Y M J m  ...n # { +.@ 6 } 6 *.=.; & &XuXuX-X",
"uX-XuXkXsXsXMXpX* : <._ p.(.(.h. X]. X|.B B <.,.b D D D R E /.W.y.w.c R M Y %.w.t.r.c M ~ m  . .# z ..@.* 0 6 * *.*.& A -XuXaXqX",
"wXsX,X>XpX5X5X8Xt C $.:.(.b.2.2.v.v.` ' o i $.&.J ..z X F F F p %.r.~ G ~ M Y c b Y M .. .m .. .m  .x 7 9 > * } t t yX*XuX-X:XaX",
"sXdX>XsXsXxXnXzX@ $ :.y.Y.c.2.4.E.L.' >.i i <.i.J m x n |  .m #.i.~ b F L B F F B F ~ N H X.O.{ { #.. 0 1 1 q , & = dXdXdX-X6XdX",
"sX9XsX8X9XeX5XzXq Z K N &.6.f T _ _ B V o i V B B J J m n z  .m D M ^ S : - S L x x . N o.o.7 $ Z +.Z > 1 ] 1 4 MXfX6X-X:XuXdXdX",
"=XzX0XqXqXaX5X7X6 8 C L ,.:.b R &.:.D F o x F B ~ R M m z z  . .m $.N o.* - o.S : : : : *.} * r =.A , 3 ] 1 4 < iX-XaXdXqXqX-XwX",
"pX9X8XqXqXcX6XaX6X1X; : H L i X X n F G G ~ D b e.r.&.%.Y  .m  .H H $ 8 @ 0 N $ L S : ; 6 t q 2 q q < < ] ] < < MX4XpXwXqXqXwXqX",
"pX&XfXtX:XfX:XfX:XaXe 6 } { % { # % | | m  .~ P 5.5.5.5.U M J ..H X.n % % 0 $ $ K S - 0 6 q w 2 4 q 2 ] < 4 ] 4 iXuXdXrXqXqXqXqX",
"pXaXtX:XwXtXtXtX4XtX& t 9 % % % @.| | | |  .Y v e.5.W 5.5.%.Y H | } % % { X.$ $ O.+.} } 6 1 w 3 2 q 4 2 4 [ ] + 6XaX:XrXqXqXqX8X",
"5X5X:XfXaX:X6X:XtXMXe < O 0 % % @.{ |  . .m m b %.) 3.3.5.t.b G O.-.5 % @.| % n H G X.+.0 > 9 1 1 q q e < = & q cXaXaXrX2XqXqXqX",
"xXiXvX:XaXtXtX:XtXtX& [ xXpX] 5 @.{ @...z # ~  .U v t.5./ ) U G $ 0 ] % @.@.C G x 7 +.} 0 > 1 1 1 9 w q 6XcX*.= qX&XqX1XqXqXrX8X",
"qXwX:X4XiXpXaX6XtX&X2 & tX:X& - S X.G F o X H ..D c &.w.q.5.I B $ % 6 5 o.X.+.+.$ : o.} 1 < ] 4 1 w 9 , aX8X  = mXuXyXqX2X1XwX8X",
"yXaXfXxXzX8X5X-XfXmX:XfX;XcXMX0XK L $ i V L C { @.m #.c w.t.v B O.o.0 > w 6 S *.$ @ 6 r 3 < ] 4 3 w 2 2 &XyXdXuX2X*X2XqXqXyXqXqX",
":XwXtXiX5XsXsXqX3X&XuXtX:XqX,XgXK L o o L L } C @.m m Y q.r.U D H Z - 6 9 = } =.8 q 2 2 4 ] e 4 4 e , t wX,XuX8X*XlX,X2X1XqXqX8X",
"wXwXwXiXpXpXqXqXqXqXwXwXuX-XyXdX  ; t ; =.A C $  .m  .Y M ~ x i F K { } A 6 * r & e 4 4 2 2 4 4 w e 6XwXrXrXrXqXqXqXrXrXqXqXqXqX",
"qXwXwXqXqXqXqXqXrXrXwX-XdXwXyXdXt 2 & - *.7 @ n ..G F ~ F G # n O.O.S S @ * 6 q = e + < e 4 4 & & q 2XqXqXqXpXqXqXqXqXqX6XwXwXqX",
"qXwXqXqXwXeXqXqXqXqXrXqXdX:X&XdX&XrXuXnXr A 9XjXX.H O.H G L C $ . % +.-.A r * r , 2 [ [ 2 e tXtX*.q uXrXqXqXqXqXqXqXqXqXqXqXqXqX",
"qXqXqXqXyXqXqXqXrXqXrXwXdXqX&XqXrX-X5X5X@ w 9X0XA X.S C C X.@ 7 0 ] ] } - @ q t 2 + 4 2 + 2 MX7X& & rXrXqXqXqXqXqXqXqXqXqXqXqXqX",
"qXqXqXqXwXqXwXqXrXrXqX-X5XdXdXdXmXqXiXvXzXeXpXeX6 7 } o.7 7 * 0 > > w 0 @ q r < dXvX2 [ [ 4 6XdX:X:XdXrXqXqXwXqXqXqXqXqXqXqXqXqX",
"qXwXqXqXqXqXqXqXqXrXqXdXqXqXqX&X,X&XdX6XiX7XpX5Xq } } } > 6 r 1 w 9 4 , r 6 q & qXdX& 2 2 2 pXqXqXsXsXqXrXqXqXqXqXqXqXqXqXqXqXqX",
"qXqXqXqXqXqXqXqXqXrXqXqX&XwXdXdXwXaXdX7X4XaXmXwX@X6X= = ] q O 3 vX7X3 , 6 & dXdXiXwXvXaXe + mXdX8X=XqXqXrXrXrXqXqXqXqXqXqXqXqXqX",
"qXqXqXqXqXqXqXqXrXqXqXuXqX2XqXwX&XdX5XwXaX6X6XwXwXuX2 ; r , 3 e vX7X] 2 t = iX-X6XiX:X:Xe = aX&XsXsXqXqXqXrXqXqXpXqXqXqXqXqXqXqX",
"wXsXqX6XqXqXqXqXqXqXqX8X5X8XqXqXqXqXqX2XwXqXqX:X2XqXrX&Xt 2 aX4XvX7XzX7XwX6XqXwX6XqX6XqX2XqXqXqXqX8X8X,XqXqXqXqXqXqXqXwXqX8XqXqX",
"qXwXqXqXwXyXuXwXyXwXyXwXwXwXyXwXwXyXwXyXyXtXrXtXqXrXrXtX2   :XfXzX&XaXiXiXpXwXwXtXrXtXrXwXsXqXeXpXsXqXpXwXyXwXwXwXyXwXyX5X-XwXrX",
"qXqXqXqXrXwXqXqXwXqXwXqXqXrXqXwXrXrXqXqX2X2X1X1X2X2XyX2XqXuXfX&XaXaXqXqXiXwXwXrXwXwXrXrXrXqXqXqXpX8X8XqXrXrXrXrXrXrXwXwXqXqXyXwX",
"qXyXqXqXwXyXyXwXqXqXwXwXwXwXqXqXwXrXyXqX2XyXqX2X2XrX2X2XuXuXqX2XwXyX1XqXpXwXwXrXrX2XrX2XrXrXwXqXqXwXpXqXwXrXqXwXrXrXwXwXqXqXwXwX",
"qXwXwXyXiXyXwXwXyXwXuXiXyXyXwXyXwXyXwXyXeXqXyXwXuXwXuXaX&X*X:XkXeX2XqXwXsXwXwXuXyXtXyXtXrXyXwXuXsXiXpXsXpXyXwXwXuXyXyXwXrXwXyXrX"
};
