/* XPM */
static char *_e256527dcbe429596febf944cf3e8882ZJZCIslmHR6qbeF[] = {
/* columns rows colors chars-per-pixel */
"64 64 64 1 ",
"  c black",
". c #140000",
"X c #1A0000",
"o c #1E0000",
"O c gray7",
"+ c #1B1B1B",
"@ c #210000",
"# c #290000",
"$ c #142726",
"% c #272D2D",
"& c gray18",
"* c #3D2E2E",
"= c #3A3A3A",
"- c #490001",
"; c #540001",
": c #5F0001",
"> c #640001",
", c #6B0001",
"< c #7D0002",
"1 c #6C2427",
"2 c #7E3A3C",
"3 c #354443",
"4 c gray25",
"5 c #585858",
"6 c #5F5F5F",
"7 c #717171",
"8 c #797979",
"9 c #7B7B7B",
"0 c #890002",
"q c #960003",
"w c #AF0004",
"e c #B70004",
"r c #B51620",
"t c #9B3438",
"y c #DC0005",
"u c #D1000E",
"i c #E60006",
"p c #EF0006",
"a c #FB0007",
"s c #FB0018",
"d c #FC1B2A",
"f c #FC3D46",
"g c #926B6C",
"h c #FC4D54",
"j c #F2585D",
"k c #FC6E72",
"l c #848484",
"z c gray55",
"x c gray57",
"c c #A38E8F",
"v c gray67",
"b c #AFAFAF",
"n c #FDAAAC",
"m c #FDB6B7",
"M c #C1C1C1",
"N c #C5C5C5",
"B c #FFFFFF",
"V c gray86",
"C c #FEC2C3",
"Z c gray90",
"A c gray93",
"S c #FEE3E4",
"D c #FFF0F0",
"F c #FFFFFFFF",
/* pixels */
"FFFFFFFFFFFFFFFFFFFFFFFFFFFFFFFFFFFFFFFFFFFFFFFFFFFFFFFFFFFFFFFF",
"FFFFFFFFFFFFFFFFFFFFFFFFFFFFFFFFFFFFFFFFFFFFFFFFFFFFFFFFFFFFFFFF",
"FFFFFFFFFFFFFFFFFFFFFFFFFFFFFFFFFFFFFFFFFFFFFFFFFFFFFFFFFFFFFFFF",
"FFFFFFFFFFFFFFFFFFFFFFFFFFFFFFFFFFFFFFFFFFFFFFFFFFFFFFFFFFFFFFFF",
"FFFFFFFFFFFFFFFFFFFFFFFFFFFFFFFFFFFFFFFFFFFFFFFFFFFFFFFFFFFFFFFF",
"FFFFFFFFFFFFFFFFFFFFFFFFFFFFFFFFFFFFFFFFFFFFFFFFFFFFFFFFFFFFFFFF",
"FFFFFFFFFFFFFFFFFFFFFFFFFFFFFFFFFFFFFFFFFFFFFFFFFFFFFFFFFFFFFFFF",
"FFFFFFFFFFFFFFFFFFFFFFFFFFFFFFFFFFFFFFFFFFFFFFFFFFFFFFFFFFFFFFFF",
"FFFFFFFFFFFFFFFFFFFFFFFFFFFFFFFFFFFFFFFFFFFFFFFFFFFFFFFFFFFFFFFF",
"FFFFFFFFFFFFFFFFFFFFFFFFFFFFFFFFFFFFFFFFFFFFFFFFFFFFFFFFFFFFFFFF",
"FFFFFFFFFFFFFFFFFFFFFFFFFFFFFFFFFFFFFFFFFFFFFFFFFFFFFFFFFFFFFFFF",
"FFFFFFFFFFFFFFFFFFFFFFFFFFFFFFFFFFFFFFFFFFFFFFFFFFFFFFFFFFFFFFFF",
"FFFFFFFFFFFFFFFFFFFFFFFFFFFFFFFFFFFFFFFFFFFFFFFFFFFFFFFFFFFFFFFF",
"FFFFFFFFFFFFFFFFFFFFFFFFFFFFFFFFFFFFFFFFFFFFFFFFFFFFFFFFFFFFFFFF",
"FFFFFFFFFFFFFFFFFFFFFFFFFFFFFFFFFFFFFFFFFFFFFFFFFFFFFFFFFFFFFFFF",
"FFFFFFFFFFFFFFFFFFFFFFFFFFFFFFFFFFFFFFFFFFFFFFFFFFFFFFFFFFFFFFFF",
"FFFFFFFFFFFFFFFFFFFFFFFFFFFFFFFFFFFFFFFFFFFFFFFFFFFFFFFFFFFFFFFF",
"FFFFFFFFFFFFFFFFFFFFFFFFFFFFFFFFFFFFFFFFFFFFFFFFFFFFFFFFFFFFFFFF",
"FFFFFFFFFFFFFFFFFFFFFFFFFFFFBBBBBBBBBNFFFFFFFFFFFFFFFFFFFFFFFFFF",
"FFFFFFFFFFFFFFFFFFFFFFFFFFFFO         FFFFFFFFFFFFFFFFFFFFFFFFFF",
"FFFFFFFFFFFFFFFFFFFFFFFFFFFF$         FFFFFFFFFFFFFFFFFFFFFFFFFF",
"FFFFFFFFFFFFFFFFFFFFFFF54443uyyyyyyyyi4444&FFFFFFFFFFFFFFFFFFFFF",
"FFFFFFFFFFFFFFFFFFFFFFF%    paaaaaaaaa     FFFFFFFFFFFFFFFFFFFFF",
"FFFFFFFFFFFFFFFFFFFFAMB1:::;jjfaaaaaaa::::;BMZFFFFFFFFFFFFFFFFFF",
"FFFFFFFFFFFFFFFFFFFFM  paaaaBBmaaaaaaaaaaaa  zFFFFFFFFFFFFFFFFFF",
"FFFFFFFFFFFFFFFFFFFFM  iaaaaDBnaaaaaaaaaaaa  xFFFFFFFFFFFFFFFFFF",
"FFFFFFFFFFFFFFFFFFFFM  iajDSBBDSDsaaaaaaaaa  xFFFFFFFFFFFFFFFFFF",
"FFFFFFFFFFFFFFFFFFFFN  iakBBBBBBBsaaaaaaaaa  xFFFFFFFFFFFFFFFFFF",
"FFFFFFFFFFFFFFFFFFNMc>:pahCmBBSmCsaaaaaaaaa>>gMbFFFFFFFFFFFFFFFF",
"FFFFFFFFFFFFFFFFFF& :aaaaaaaDBnaaaaaaaaaaaaaaq  FFFFFFFFFFFFFFFF",
"FFFFFFFFFFFFFFFFFF= >aaaaaaaBBmaaaaaaaaaaaaaaq  FFFFFFFFFFFFFFFF",
"FFFFFFFFFFFFFFFFFF= >aaaaaaaddro##@0aaaaaaaaaq  FFFFFFFFFFFFFFFF",
"FFFFFFFFFFFFFFFFFF= >aaaaaaaaaw    <aaaaaaaaaq  FFFFFFFFFFFFFFFF",
"FFFFFFFFFFFFFFFFFF= -ewpaaaaewt88552ewaaaaawe,  FFFFFFFFFFFFFFFF",
"FFFFFFFFFFFFFFFFFF=    iaaaa. 8BBBBl  aaaaa     FFFFFFFFFFFFFFFF",
"FFFFFFFFFFFFFFFFFF=    paaaa# 8BBNNl  aaaaa     FFFFFFFFFFFFFFFF",
"FFFFFFFFFFFFFFFFFF= 6BB*Xoo@  6BNMNl  @ooo BBx  FFFFFFFFFFFFFFFF",
"FFFFFFFFFFFFFFFFFF& 6BB%      5BNNBl       BBx  FFFFFFFFFFFFFFFF",
"FFFFFFFFFFFFFFFFFFx8zbbl8888888llll76666665bbx87FFFFFFFFFFFFFFFF",
"FFFFFFFFFFFFFFFFFFFFN  ABBBBBBb    6BNNNNNB  xFFFFFFFFFFFFFFFFFF",
"FFFFFFFFFFFFFFFFFFFFM  ABBBBBBv    5NMMMMMB  xFFFFFFFFFFFFFFFFFF",
"FFFFFFFFFFFFFFFFFFFFM  bMVBBBBBBBBBZMMMMMMB  xFFFFFFFFFFFFFFFFFF",
"FFFFFFFFFFFFFFFFFFFFM  bNVBBBBBBBBBZMMNNNNB  zFFFFFFFFFFFFFFFFFF",
"FFFFFFFFFFFFFFFFFFFFV8l88zvvZZZZZZZVMN88999llMFFFFFFFFFFFFFFFFFF",
"FFFFFFFFFFFFFFFFFFFFFFF&    bMMMMMMMMB     FFFFFFFFFFFFFFFFFFFFF",
"FFFFFFFFFFFFFFFFFFFFFFF+    MBBBBBBBBV     FFFFFFFFFFFFFFFFFFFFF",
"FFFFFFFFFFFFFFFFFFFFFFFFFFFF+         FFFFFFFFFFFFFFFFFFFFFFFFFF",
"FFFFFFFFFFFFFFFFFFFFFFFFFFFF+         FFFFFFFFFFFFFFFFFFFFFFFFFF",
"FFFFFFFFFFFFFFFFFFFFFFFFFFFFxzzzzzzzzlFFFFFFFFFFFFFFFFFFFFFFFFFF",
"FFFFFFFFFFFFFFFFFFFFFFFFFFFFFFFFFFFFFFFFFFFFFFFFFFFFFFFFFFFFFFFF",
"FFFFFFFFFFFFFFFFFFFFFFFFFFFFFFFFFFFFFFFFFFFFFFFFFFFFFFFFFFFFFFFF",
"FFFFFFFFFFFFFFFFFFFFFFFFFFFFFFFFFFFFFFFFFFFFFFFFFFFFFFFFFFFFFFFF",
"FFFFFFFFFFFFFFFFFFFFFFFFFFFFFFFFFFFFFFFFFFFFFFFFFFFFFFFFFFFFFFFF",
"FFFFFFFFFFFFFFFFFFFFFFFFFFFFFFFFFFFFFFFFFFFFFFFFFFFFFFFFFFFFFFFF",
"FFFFFFFFFFFFFFFFFFFFFFFFFFFFFFFFFFFFFFFFFFFFFFFFFFFFFFFFFFFFFFFF",
"FFFFFFFFFFFFFFFFFFFFFFFFFFFFFFFFFFFFFFFFFFFFFFFFFFFFFFFFFFFFFFFF",
"FFFFFFFFFFFFFFFFFFFFFFFFFFFFFFFFFFFFFFFFFFFFFFFFFFFFFFFFFFFFFFFF",
"FFFFFFFFFFFFFFFFFFFFFFFFFFFFFFFFFFFFFFFFFFFFFFFFFFFFFFFFFFFFFFFF",
"FFFFFFFFFFFFFFFFFFFFFFFFFFFFFFFFFFFFFFFFFFFFFFFFFFFFFFFFFFFFFFFF",
"FFFFFFFFFFFFFFFFFFFFFFFFFFFFFFFFFFFFFFFFFFFFFFFFFFFFFFFFFFFFFFFF",
"FFFFFFFFFFFFFFFFFFFFFFFFFFFFFFFFFFFFFFFFFFFFFFFFFFFFFFFFFFFFFFFF",
"FFFFFFFFFFFFFFFFFFFFFFFFFFFFFFFFFFFFFFFFFFFFFFFFFFFFFFFFFFFFFFFF",
"FFFFFFFFFFFFFFFFFFFFFFFFFFFFFFFFFFFFFFFFFFFFFFFFFFFFFFFFFFFFFFFF",
"FFFFFFFFFFFFFFFFFFFFFFFFFFFFFFFFFFFFFFFFFFFFFFFFFFFFFFFFFFFFFFFF"
};
