/* XPM */
static char *result[] = {
/* columns rows colors chars-per-pixel */
"64 64 231 2 ",
"   c #020201",
".  c #0C0100",
"X  c #010A01",
"o  c #01040B",
"O  c #090A09",
"+  c #130100",
"@  c #160607",
"#  c #1B0000",
"$  c #021402",
"%  c #050414",
"&  c #0F1213",
"*  c #230101",
"=  c #2B0007",
"-  c #283A20",
";  c #393A29",
":  c #353936",
">  c #3B3C3C",
",  c #583C17",
"<  c #63311E",
"1  c #542D2F",
"2  c #493829",
"3  c #553B2C",
"4  c #453D34",
"5  c #4A3938",
"6  c #563937",
"7  c #6D302E",
"8  c #643C3A",
"9  c #2D481D",
"0  c #33481F",
"q  c #3B4627",
"w  c #394636",
"e  c #324D31",
"r  c #3C463C",
"t  c #40431F",
"y  c #49442B",
"u  c #484737",
"i  c #4C4439",
"p  c #564F32",
"a  c #574439",
"s  c #695B3E",
"d  c #60673B",
"f  c #3D3E42",
"g  c #3B3848",
"h  c #463C45",
"j  c #50394C",
"k  c #3C4544",
"l  c #3D534C",
"z  c #424345",
"x  c #49444B",
"c  c #454848",
"v  c #4A4A4B",
"b  c #584447",
"n  c #495346",
"m  c #464B52",
"M  c #4F5A51",
"N  c #58585B",
"B  c #75554C",
"V  c #6A4B51",
"C  c #675A58",
"Z  c #765856",
"A  c #52654F",
"S  c #596657",
"D  c #696A4E",
"F  c #676558",
"G  c #746558",
"H  c #5D5C62",
"J  c #675B64",
"K  c #775C67",
"L  c #5A6964",
"P  c #656867",
"I  c #746665",
"U  c #706872",
"Y  c #86584A",
"T  c #925D4F",
"R  c #865857",
"E  c #B34E53",
"W  c #8E6253",
"Q  c #A7655A",
"!  c #A4755B",
"~  c #9E5D64",
"^  c #A95C66",
"/  c #B75468",
"(  c #916E74",
")  c #AC646A",
"_  c #B6616F",
"`  c #BA6475",
"'  c #C95357",
"]  c #CC605E",
"[  c #C85567",
"{  c #CA6571",
"}  c #E16E6B",
"|  c #E67A79",
" . c #5FA13F",
".. c #5D974B",
"X. c #6C9C59",
"o. c #769754",
"O. c #69A34F",
"+. c #6BA657",
"@. c #73A35C",
"#. c #71AD5E",
"$. c #6C9967",
"%. c #6F9069",
"&. c #78986A",
"*. c #7A8A79",
"=. c #7A9778",
"-. c #6EA262",
";. c #76A467",
":. c #77A676",
">. c #7CA472",
",. c #8B8B56",
"<. c #8C8C6E",
"1. c #869A66",
"2. c #869977",
"3. c #85947C",
"4. c #87A568",
"5. c #87A57A",
"6. c #CD8C77",
"7. c #D4A479",
"8. c #C8B678",
"9. c #D6B37A",
"0. c #8EDC7C",
"q. c #99D979",
"w. c #91E16B",
"e. c #98E479",
"r. c #A1E87E",
"t. c #A4F17E",
"y. c #7C8B82",
"u. c #789B85",
"i. c #7EA58A",
"p. c #898F85",
"a. c #879883",
"s. c #84928C",
"d. c #BF9F91",
"f. c #BBAF8C",
"g. c #A99FB9",
"h. c #9CACB6",
"j. c #B8BABE",
"k. c #D19A82",
"l. c #C8AB86",
"z. c #D5AB89",
"x. c #C9B987",
"c. c #CEB38E",
"v. c #D7B588",
"b. c #C9A998",
"n. c #D7AA98",
"m. c #CCB496",
"M. c #D7B596",
"N. c #E5AB89",
"B. c #E3B18A",
"V. c #E3B394",
"C. c #CDB0A9",
"Z. c #D5B3A6",
"A. c #D4BABB",
"S. c #9CD687",
"D. c #96DD89",
"F. c #A4DC83",
"G. c #A6DB8C",
"H. c #A9CE91",
"J. c #AAD998",
"K. c #96E287",
"L. c #A9E189",
"P. c #B0E29F",
"I. c #ACC9A4",
"U. c #ADD4A4",
"Y. c #B6CABA",
"T. c #BCD4B6",
"R. c #D8C29A",
"E. c #CAC9BD",
"W. c #D0C9B8",
"Q. c #F9D6A9",
"!. c #F7CCB6",
"~. c #EED5B0",
"^. c #F6D8B7",
"/. c #FEDBB4",
"(. c #FED5BD",
"). c #FDDBBC",
"_. c #FCE3BA",
"`. c #AFB1C9",
"'. c #CCBDC3",
"]. c #B9C6C4",
"[. c #BBD2C5",
"{. c #C7C6C7",
"}. c #C3CBCB",
"|. c #D7C5C8",
" X c #D4CECC",
".X c #C7D2C7",
"XX c #C6C4D3",
"oX c #CBC6D6",
"OX c #C7D5D3",
"+X c #D7D5D4",
"@X c #FECAC4",
"#X c #FBD8C6",
"$X c #FFCCD0",
"%X c #FED9D5",
"&X c #D5FACD",
"*X c #DDE8DD",
"=X c #D8F8D8",
"-X c #FBE4C6",
";X c #F2E3CD",
":X c #E3F8DC",
">X c #FFDDE4",
",X c #EBDFFF",
"<X c #DFE6EB",
"1X c #DCF7E6",
"2X c #E5E6E9",
"3X c #ECEBED",
"4X c #F6EBEA",
"5X c #E6F6EA",
"6X c #ECF4EB",
"7X c #FAFBED",
"8X c #E6E5F7",
"9X c #E6EAF3",
"0X c #ECECF4",
"qX c #ECE4FB",
"wX c #EDEAFC",
"eX c #F2E5FE",
"rX c #F3ECFD",
"tX c #F9EBF8",
"yX c #ECF3F3",
"uX c #EEFDF4",
"iX c #EEF3FC",
"pX c #E5F8F8",
"aX c #EDFDFC",
"sX c #F4F5F5",
"dX c #FBF4F5",
"fX c #F4FCF4",
"gX c #FDFDF5",
"hX c #F3F3FD",
"jX c #FCF4FE",
"kX c #F4FEFD",
"lX c #FFFFFFFF",
/* pixels */
"lXlXlXlXlXlXlXlXlXlXlXlXlXlXlXlXlXlXlXlXlXlXlXlXlXlXlXlXlXlXlXlXlXlXlXlXlXlXlXlXlXlXlXlXlXlXlXlXlXlXlXlXlXlXlXlXlXlXlXlXlXlXlXlX",
"lXlXlXlXlXlXlXlXlXlXlXlXlXlXlXlXlXlXlXlXlXlXlXlXlXlXlXlXlXlXlXlXlXlXlXlXlXlXlXlXlXlXlXlXlXlXlXlXlXlXlXlXlXlXlXlXlXlXlXlXlXlXlXlX",
"lXlXlXlXlXlXlXlXlXlXlXlXlXlXlXlXlXlXlXlXlXlXlXlXlXlXlXlXlXlXlXlXlXlXlXlXlXlXlXlXlXlXlXlXlXlXlXlXlXlXlXlXlXlXlXlXlXlXlXlXlXlXlXlX",
"lXlXlXlXlXlXlXlXlXlXlXlXlXlXlXlXlXlXlXlXlXlXlXlXlXlXlXlXlXlXlXlXlXlXlXlXlXlXlXlXlXlXlXlXlXlXlXlXlXlXlXlXlXlXlXlXlXlXlXlXlXlXlXlX",
"lXlXlXlXlXlXlXlXlXlXlXlXlXlXlXlXlXlXlXlXlXlXlXlXlXlXlXlXlXlXlXlXlXlXlXlXlXlXlXlXlXlXlXlXlXlXlXlXlXlXlXlXlXlXlXlXlXlXlXlXlXlXlXlX",
"lXlXlXlXlXlXlXlXlXlXlXlXlXlXlXlXlXlXlXlXlXlXlXlXlXlXlXlXlXlXlXlXlXlXlXlXlXlXlXlXlXlXlXlXlXlXlXlXlXlXlXlXlXlXlXlXlXlXlXlXlXlXlXlX",
"lXlXlXlXlXlXlXlXlXlXlXlXlXlXlXlXlXlXlXlXlXlXlXlXlXlXlXlXlXlXlXlXlXlX> z v > lXlXlXlXlXlXlXlXlXlXlXlXlXlXlXlXlXlXlXlXlXlXlXlXlXlX",
"lXlXlXlXlXlXlXlXlXlXlXlXlXlXlXlXlXlXlXlXlXlXlXlXlXlXlXlXlXlXlXlXlXlXx : x f lXlXlXlXlXlXlXlXlXlXlXlXlXlXlXlXlXlXlXlXlXlXlXlXlXlX",
"lXlXlXlXlXlXlXlXlXlXlXlXlXlXlXlXlXlXlXlXlXlXlXlXlXlXlXlXlXlXlXlXv z 0XsXx z lXlXlXlXlXlXlXlXlXlXlXlXlXlXlXlXlXlXlXlXlXlXlXlXlXlX",
"lXlXlXlXlXlXlXlXlXlXlXlXlXlXlXlXlXlXlXlXlXlXlXlXlXlXlXlXlXlXlXlX> > 0XsX: > lXlXlXlXlXlXlXlXlXlXlXlXlXlXlXlXlXlXlXlXlXlXlXlXlXlX",
"lXlXlXlXlXlXlXlXlXlXlXlXlXlXlXlXlXlXlXlXlXlXlXlXlXlXN z > > 4 x dXsXdX2X X`.z > h : : v lXlXlXlXlXlXlXlXlXlXlXlXlXlXlXlXlXlXlXlX",
"lXlXlXlXlXlXlXlXlXlXlXlXlXlXlXlXlXlXlXlXlXlXlXlXlXlX: > v z m f 0X3X0XkXj.{.v h k v z w lXlXlXlXlXlXlXlXlXlXlXlXlXlXlXlXlXlXlXlX",
"lXlXlXlXlXlXlXlXlXlXlXlXlXlXlXlXlXlXlXlXlXlXf k k c sXyXyXrXeXjX'.`.hXhX3XsX3XyXfX5Xw z lXlXlXlXlXlXlXlXlXlXlXlXlXlXlXlXlXlXlXlX",
"lXlXlXlXlXlXlXlXlXlXlXlXlXlXlXlXlXlXlXlXlXlXf f k k <X9XhXjXqXqX].oXwXhXrXjX9X6X*XuX: r lXlXlXlXlXlXlXlXlXlXlXlXlXlXlXlXlXlXlXlX",
"lXlXlXlXlXlXlXlXlXlXlXlXlXlXlXlXlXlXlXlXh g jXrXkX2XkX0X8XqXrXrXwX8XhXrXrX8XXX{.v r lXlXlXlXlXlXlXlXlXlXlXlXlXlXlXlXlXlXlXlXlXlX",
"lXlXlXlXlXlXlXlXlXlXlXlXlXlXlXlXlXlXlXlXx m 0XhX8X2XwXrXhXhXrXrXhXhXrXqXrXqXoXoXk m lXlXlXlXlXlXlXlXlXlXlXlXlXlXlXlXlXlXlXlXlXlX",
"lXlXlXlXlXlXlXlXlXlXlXlXlXlXlXlXlXlX  . 4X4X0X3XjXtX8X0X0XhX0X0X0XwXrXeXjXtXqXeXXXj.o   lXlXlXlXlXlXlXlXlXlXlXlXlXlXlXlXlXlXlXlX",
"lXlXlXlXlXlXlXlXlXlXlXlXlXlXlXlXlXlXX . 2X3XtX0X0XtX0XjXhXtX0X0X0XhXrXeXtXeXeXrXoX].& X lXlXlXlXlXlXlXlXlXlXlXlXlXlXlXlXlXlXlXlX",
"lXlXlXlXlXlXlXlXlXlXlXlXlXlXlXlXlXlX  o fXlX2XrXrXqXrXrXwXwXhXiX0X0XwXrXeXeXrXrXrX0Xo   lXlXlXlXlXlXlXlXlXlXlXlXlXlXlXlXlXlXlXlX",
"lXlXlXlXlXlXlXlXlXlXlXlXlXlXlXlXlXlX % yX2XhX0XrXqXjXeXwXwXiXiXiX0XrXjXeXwXjXqX8XiX  X klXlXlXlXlXlXlXlXlXlXlXlXlXlXlXlXlXlXlXlX",
"lXlXlXlXlXlXlXlXlXlXlXlXlXlXlXlXo o s.y.[.j.iXiXwXjX,XrXrX8XhX8X9XhX8XwXhXqXhX9X].}.*.y.X   lXlXlXlXlXlXlXlXlXlXlXlXlXlXlXlXlXlX",
"lXlXlXlXlXlXlXlXlXlXlXlXlXlXlXlXo   u.i.].[.5XpX9XqXrXwXqXwXiXiXiXsX0XiX9XhX5XkXY.Y.a.%.X X lXlXlXlXlXlXlXlXlXlXlXlXlXlXlXlXlXlX",
"lXlXlXlXlXlXlXlXlXlXlXlXlXlXlXlX  $ I.I.>.X.&.5.Y..X6XyX0XsX2XyXyXyXyXyX].Y.=.=.=.&.U.T.  X lXlXlXlXlXlXlXlXlXlXlXlXlXlXlXlXlXlX",
"lXlXlXlXlXlXlXlXlXlXlXlXlXlXlXlXX $ H.H.@.+.@.X.U.E.:X5X6X6X*X5XyXpXuX5XY.I.>.&.;.;.J.U.X X lXlXlXlXlXlXlXlXlXlXlXlXlXlXlXlXlXlX",
"lXlXlXlXlXlXlXlXlXlXlXlXlXlXlXlX. $ H.G.e.e.r.K.X.o.<.2.3.3.3.a.s.s.*.a.&.>.S.G.F.S.G.H.X X lXlXlXlXlXlXlXlXlXlXlXlXlXlXlXlXlXlX",
"lXlXlXlXlXlXlXlXlXlXlXlXlXlXlXlXX $ H.q.L.w.w.e.O.;.&.2.a.3.3.p.s.s.*.=.$.@.F.K.e.e.S.J.$   lXlXlXlXlXlXlXlXlXlXlXlXlXlXlXlXlXlX",
"lXlXlXlXlXlXlXlXlXlXlXlXlXlXlXlXu - >.@.K.e.0.0.G.U.&X:X2X5X}.].6X5X5X=XJ.S.e.w.w.t. .@.9 ; lXlXlXlXlXlXlXlXlXlXlXlXlXlXlXlXlXlX",
"lXlXlXlXlXlXlXlXlXlXlXlXlXlXlXlXu u 2.;.D.K.D.K.G.J.:X5XpXiX].}.pX1X=X&XS.L.q.r.e.e.O.;.q i lXlXlXlXlXlXlXlXlXlXlXlXlXlXlXlXlXlX",
"lXlXlXlXlXlXlXlXlXlXlXlXlXlXh 4 m.l.y e $.#.#.O.K.F.H.I.1XpX8X0X5X1XJ.q.S.S.O.#.+.-.9 y m.Z.j j lXlXlXlXlXlXlXlXlXlXlXlXlXlXlXlX",
"lXlXlXlXlXlXlXlXlXlXlXlXlXlXc i M.v.2 q 5.$.:.;.G.q.r.P.*XpXaX6XuX&XL.L.J.P.-.$.:.%.p 3 l.M.1 j lXlXlXlXlXlXlXlXlXlXlXlXlXlXlXlX",
"lXlXlXlXlXlXlXlXlXlXlXlXlXlX  . M.k.W R 2 k k k $.#.O...i.=.X.1.%.5.O.o.&.&.e e e w B Y v.M.. o lXlXlXlXlXlXlXlXlXlXlXlXlXlXlXlX",
"lXlXlXlXlXlXlXlXlXlXlXlXlXlX& . b.n.Y Y 8 b g l i.;.;.@.5.2.4.o.1.4.1.5.3.p.k w i y W Y z.m.  $ lXlXlXlXlXlXlXlXlXlXlXlXlXlXlXlX",
"lXlXlXlXlXlXlXlXlXlXlXlXlXlXlXlXo + R R n.d.5 g `.h.l q f.x.8.8.x.f.0 e h.`.b 3 M.n.R R # . lXlXlXlXlXlXlXlXlXlXlXlXlXlXlXlXlXlX",
"lXlXlXlXlXlXlXlXlXlXlXlXlXlXlXlXX   C Z M.M.a f `.`.h a c.8.v.9.9.v.u m `.g.V < V.n.R V + . lXlXlXlXlXlXlXlXlXlXlXlXlXlXlXlXlXlX",
"lXlXlXlXlXlXlXlXlXlXlXlXlXlXlXlXlXlX@ * 9.9.l.C.rXeX@ @ ^._././.Q.!.  o 8XtXn.N.7.B.# + lXlXlXlXlXlXlXlXlXlXlXlXlXlXlXlXlXlXlXlX",
"lXlXlXlXlXlXlXlXlXlXlXlXlXlXlXlXlXlX% + c.v.9.c.>XeX@ * #X).@X@X!.(.+   tX4Xk.N.B.c.#   lXlXlXlXlXlXlXlXlXlXlXlXlXlXlXlXlXlXlXlX",
"lXlXlXlXlXlXlXlXlXlXlXlXlXlXlXlXlXlXlXlX. + c.z.).#X@X%X@X@X>X$X@X#X#X;X#X#Xn.n.+ . lXlXlXlXlXlXlXlXlXlXlXlXlXlXlXlXlXlXlXlXlXlX",
"lXlXlXlXlXlXlXlXlXlXlXlXlXlXlXlXlXlXlXlX    m.v.Q./.-X@X%X@X@X$X@X#X~._._./.Z.C.    lXlXlXlXlXlXlXlXlXlXlXlXlXlXlXlXlXlXlXlXlXlX",
"lXlXlXlXlXlXlXlXlXlXlXlXlXlXlXlXlXlXlXlX% O 2 , v.7.~.^.~.-Xn.V.).^.-X~.v.c.3 h o o lXlXlXlXlXlXlXlXlXlXlXlXlXlXlXlXlXlXlXlXlXlX",
"lXlXlXlXlXlXlXlXlXlXlXlXlXlXlXlXlXlXlXlX% o 2 p v.M.#X-X~._.z.z.)._.~.~.M.m.a b % o lXlXlXlXlXlXlXlXlXlXlXlXlXlXlXlXlXlXlXlXlXlX",
"lXlXlXlXlXlXlXlXlXlXlXlXlXlXlXlXlXlX: M M S 2.<.t a a 2 v.B.7.B.v.M.y p 3 2 K V U L r r lXlXlXlXlXlXlXlXlXlXlXlXlXlXlXlXlXlXlXlX",
"lXlXlXlXlXlXlXlXlXlXlXlXlXlXlXlXlXlXu - L P 3.3.e u ; u x.v.z.V.m.f.u r 2 : ( U H S u n lXlXlXlXlXlXlXlXlXlXlXlXlXlXlXlXlXlXlXlX",
"lXlXlXlXlXlXlXlXlXlXlXlXlXlXlXlX  + l.R.C J U M $.&.=.3.y y 3 4 i u P J I I J N L F f.m.* + lXlXlXlXlXlXlXlXlXlXlXlXlXlXlXlXlXlX",
"lXlXlXlXlXlXlXlXlXlXlXlXlXlXlXlX. # v.z.B K H L 2.&.:.$.e y 5 6 i : I G B R K J F G c.c.* + lXlXlXlXlXlXlXlXlXlXlXlXlXlXlXlXlXlX",
"lXlXlXlXlXlXlXlXlXlXlXlXlXlX    ^._./.(.Z.A.4 a 6.6.;.+.4.,.Q Q B S D B | | 7 6 b.Z.-X/.#X#XX X lXlXlXlXlXlXlXlXlXlXlXlXlXlXlXlX",
"lXlXlXlXlXlXlXlXlXlXlXlXlXlX    _.Q.(.@XZ.b.i 6 | | ,.,.4.,.! T G F s s } | 7 6 C.d.#X).(.#XX X lXlXlXlXlXlXlXlXlXlXlXlXlXlXlXlX",
"lXlXlXlXlXlXlXlXlXlXlXlXlXlX  @ c.M.).#X4 n ; 8 E ' ' Q s d 4.a.*.p.) ' ' ] 2 u q w ;X#Xn.n.. @ lXlXlXlXlXlXlXlXlXlXlXlXlXlXlXlX",
"lXlXlXlXlXlXlXlXlXlXlXlXlXlXO   b.m.#X%Xi w 4 1 ) ' ' ] s A 2.=.u.<.[ [ E Q 6 w n e ;X#XZ.n.* . lXlXlXlXlXlXlXlXlXlXlXlXlXlXlXlX",
"lXlXlXlXlXlXlXlXlXlXlXlXlXlXlXlX@ . * * h c I Z 8 7 ' E a e z r c j [ ' 7 a C C w :   + # = lXlXlXlXlXlXlXlXlXlXlXlXlXlXlXlXlXlX",
"lXlXlXlXlXlXlXlXlXlXlXlXlXlXlXlX  . + @ : f I Z 2 3 ) Q i u : x : 6 _ ^ 5 q C P n l         lXlXlXlXlXlXlXlXlXlXlXlXlXlXlXlXlXlX",
"lXlXlXlXlXlXlXlXlXlXlXlXlXlXlXlXlXlX X}.$   5 5 F S G S S S k h I F Z G A S b 1     .X.XlXlXlXlXlXlXlXlXlXlXlXlXlXlXlXlXlXlXlXlX",
"lXlXlXlXlXlXlXlXlXlXlXlXlXlXlXlXlXlX].OXo   j j B G N A P N c j C I A S F C 8 8 .   .XY.lXlXlXlXlXlXlXlXlXlXlXlXlXlXlXlXlXlXlXlX",
"lXlXlXlXlXlXlXlXlXlXlXlXlXlXlXlXlXlX}.].O + ^ { / ^ # . .   o   . .     ( _ ^ ) + . A.|.lXlXlXlXlXlXlXlXlXlXlXlXlXlXlXlXlXlXlXlX",
"lXlXlXlXlXlXlXlXlXlXlXlXlXlXlXlXlXlX].OX. # ` / { ) #     .   . . .   + ~ ` ` ^ # @ A. XlXlXlXlXlXlXlXlXlXlXlXlXlXlXlXlXlXlXlXlX",
"lXlXlXlXlXlXlXlXlXlXlXlXlXlXlXlXlXlXlXlX{.A.# * + + Y.lXlXlXlXlXlXlXlXA.= * + + W.W.lXlXlXlXlXlXlXlXlXlXlXlXlXlXlXlXlXlXlXlXlXlX",
"lXlXlXlXlXlXlXlXlXlXlXlXlXlXlXlXlXlXlXlXlX|..   X   .XlXlXlXlXlXlXlXlX|.. .   X W. XlXlXlXlXlXlXlXlXlXlXlXlXlXlXlXlXlXlXlXlXlXlX",
"lXlXlXlXlXlXlXlXlXlXlXlXlXlXlXlXlXlXlXlXlXlXlXlXlXlXlXlXlXlXlXlXlXlXlXlXlXlXlXlXlXlXlXlXlXlXlXlXlXlXlXlXlXlXlXlXlXlXlXlXlXlXlXlX",
"lXlXlXlXlXlXlXlXlXlXlXlXlXlXlXlXlXlXlXlXlXlXlXlXlXlXlXlXlXlXlXlXlXlXlXlXlXlXlXlXlXlXlXlXlXlXlXlXlXlXlXlXlXlXlXlXlXlXlXlXlXlXlXlX",
"lXlXlXlXlXlXlXlXlXlXlXlXlXlXlXlXlXlXlXlXlXlXlXlXlXlXlXlXlXlXlXlXlXlXlXlXlXlXlXlXlXlXlXlXlXlXlXlXlXlXlXlXlXlXlXlXlXlXlXlXlXlXlXlX",
"lXlXlXlXlXlXlXlXlXlXlXlXlXlXlXlXlXlXlXlXlXlXlXlXlXlXlXlXlXlXlXlXlXlXlXlXlXlXlXlXlXlXlXlXlXlXlXlXlXlXlXlXlXlXlXlXlXlXlXlXlXlXlXlX",
"lXlXlXlXlXlXlXlXlXlXlXlXlXlXlXlXlXlXlXlXlXlXlXlXlXlXlXlXlXlXlXlXlXlXlXlXlXlXlXlXlXlXlXlXlXlXlXlXlXlXlXlXlXlXlXlXlXlXlXlXlXlXlXlX",
"lXlXlXlXlXlXlXlXlXlXlXlXlXlXlXlXlXlXlXlXlXlXlXlXlXlXlXlXlXlXlXlXlXlXlXlXlXlXlXlXlXlXlXlXlXlXlXlXlXlXlXlXlXlXlXlXlXlXlXlXlXlXlXlX",
"lXlXlXlXlXlXlXlXlXlXlXlXlXlXlXlXlXlXlXlXlXlXlXlXlXlXlXlXlXlXlXlXlXlXlXlXlXlXlXlXlXlXlXlXlXlXlXlXlXlXlXlXlXlXlXlXlXlXlXlXlXlXlXlX",
"lXlXlXlXlXlXlXlXlXlXlXlXlXlXlXlXlXlXlXlXlXlXlXlXlXlXlXlXlXlXlXlXlXlXlXlXlXlXlXlXlXlXlXlXlXlXlXlXlXlXlXlXlXlXlXlXlXlXlXlXlXlXlXlX",
};
