/* XPM */
static char *result[] = {
/* columns rows colors chars-per-pixel */
"64 64 224 2 ",
"   c #1F150D",
".  c #18171B",
"X  c #281D19",
"o  c #2E231D",
"O  c #32251D",
"+  c #1D1C26",
"@  c #211E25",
"#  c #26242B",
"$  c #28252A",
"%  c #342923",
"&  c #362C26",
"*  c #3D352A",
"=  c #262734",
"-  c #2C2C34",
";  c #2D2E3A",
":  c #322E34",
">  c #2D303C",
",  c #333236",
"<  c #34343D",
"1  c #38383C",
"2  c #3B3A3D",
"3  c #443A33",
"4  c #483D38",
"5  c #394123",
"6  c #4B4037",
"7  c #4E423C",
"8  c #525939",
"9  c #2F2F41",
"0  c #343542",
"q  c #363747",
"w  c #3C3B43",
"e  c #3C3D4B",
"r  c #3E3E52",
"t  c #413E46",
"y  c #3E414B",
"u  c #3E4253",
"i  c #424244",
"p  c #4F4442",
"a  c #43434B",
"s  c #48464C",
"d  c #4B4A4D",
"f  c #554A44",
"g  c #544C48",
"h  c #434552",
"j  c #454956",
"k  c #4D4D54",
"l  c #45465A",
"z  c #48465A",
"x  c #454A5A",
"c  c #4B4C5B",
"v  c #514F54",
"b  c #4F5154",
"n  c #4E525E",
"m  c #535255",
"M  c #53535C",
"N  c #58575B",
"B  c #5A595D",
"V  c #685D57",
"C  c #474C60",
"Z  c #4C4D61",
"A  c #514E60",
"S  c #4E5262",
"D  c #535564",
"F  c #565965",
"G  c #5B5B64",
"H  c #565669",
"J  c #575A6B",
"K  c #5B5D6B",
"L  c #5D5C71",
"P  c #605F6D",
"I  c #5F6164",
"U  c #5E616C",
"Y  c #5D6371",
"T  c #636265",
"R  c #63636C",
"E  c #69676C",
"W  c #6A6A6D",
"Q  c #756963",
"!  c #636573",
"~  c #686775",
"^  c #656974",
"/  c #6B6B74",
"(  c #65657A",
")  c #666A79",
"_  c #6B6C7B",
"`  c #6E7177",
"'  c #6E717D",
"]  c #747378",
"[  c #73747C",
"{  c #7B797E",
"}  c #82766E",
"|  c #8E9075",
" . c #6E6E81",
".. c #6E7282",
"X. c #737483",
"o. c #767883",
"O. c #797B83",
"+. c #78768A",
"@. c #76798A",
"#. c #7B7D8B",
"$. c #7C7E92",
"%. c #817F89",
"&. c #807F92",
"*. c #7D8086",
"=. c #7E818C",
"-. c #7E8293",
";. c #7E849A",
":. c #838285",
">. c #878789",
",. c #83848C",
"<. c #8B898E",
"1. c #848593",
"2. c #868995",
"3. c #8B8C94",
"4. c #83859A",
"5. c #888799",
"6. c #868A9B",
"7. c #8B8D9B",
"8. c #918F95",
"9. c #918F9A",
"0. c #8D909D",
"q. c #929296",
"w. c #94949C",
"e. c #98969A",
"r. c #99969B",
"t. c #9B9A9E",
"y. c #B0BA99",
"u. c #8B8DA2",
"i. c #898CA5",
"p. c #8D92A3",
"a. c #8F98A7",
"s. c #8E93AB",
"d. c #9395A4",
"f. c #9897A6",
"g. c #9699A5",
"h. c #9C9CA3",
"j. c #9395AA",
"k. c #959AAB",
"l. c #9B9CAC",
"z. c #959BB2",
"x. c #9799B4",
"c. c #9B9DB2",
"v. c #A09FA4",
"b. c #A09FAE",
"n. c #9FA0A5",
"m. c #9EA1AD",
"M. c #9DA2B3",
"N. c #9DA3BB",
"B. c #A2A1A5",
"V. c #A4A4AB",
"C. c #A8A6AC",
"Z. c #A6A8AA",
"A. c #ABAAAE",
"S. c #B0ADAF",
"D. c #A2A4B3",
"F. c #A6A9B5",
"G. c #ADACB2",
"H. c #A3A5BA",
"J. c #A8A7B9",
"K. c #A5AABB",
"L. c #ABACBC",
"P. c #B1AFB4",
"I. c #B1AEBB",
"U. c #AFB0B5",
"Y. c #ADB1BE",
"T. c #B3B2B6",
"R. c #B4B4BA",
"E. c #B8B7B9",
"W. c #B8B6BB",
"Q. c #BBBABD",
"!. c #BDC5A7",
"~. c #C5CDAE",
"^. c #C6CFB1",
"/. c #CBD3B4",
"(. c #CDD7B9",
"). c #D1DAB7",
"_. c #D3DCBC",
"`. c #D6E2BD",
"'. c #A1A6C0",
"]. c #A6ABC2",
"[. c #AAADC2",
"{. c #B2AFC1",
"}. c #AEB2C3",
"|. c #AFB7CC",
" X c #B2B4C4",
".X c #B8B7C5",
"XX c #B6B9C5",
"oX c #BCBCC3",
"OX c #B4B5C9",
"+X c #B6BACA",
"@X c #BBBDCC",
"#X c #B4BBD2",
"$X c #BDBED1",
"%X c #C0BFC4",
"&X c #C1BFCB",
"*X c #BFC1CB",
"=X c #BEC2D3",
"-X c #C3C2C6",
";X c #C4C4CB",
":X c #C8C6CD",
">X c #C7C9CF",
",X c #CAC9CE",
"<X c #CFD9C0",
"1X c #D3DCC2",
"2X c #C2C3D3",
"3X c #CCCBD2",
"4X c #C7C8D8",
"5X c #CBCCDB",
"6X c #D0CED3",
"7X c #CED1DA",
"8X c #D2D1D5",
"9X c #D5D4DB",
"0X c #D9D6DC",
"qX c #DAD9DE",
"wX c #DDE7C8",
"eX c #E2ECC9",
"rX c #E8F2CE",
"tX c #DCDBE2",
"yX c #DADAE6",
"uX c #E1DEE2",
"iX c #E2E1E5",
"pX c #E4E3EA",
"aX c #EAE8ED",
"sX c #ECEBF0",
/* pixels */
"_.iXyXqX6XuXuX0XuX%X~ &X&XuX0X6X6XiX,X;X0X-X9XT.i -X0XtXiX6X,XiX;XuX3XpX9X9Xr.c 2XtXpXyXyX3X>X9XtXpX9Xa ;X9X&X9X6X&XuXsX0X-XA.m ",
"wXh.%.%.C.t.C.v.r.W.} 0XC.C.r.r.B.C.v.q.A.A.%X-Xv qXB.t.8.3.v.v.B.D.h.<.9.w.C.R -Xq.w.w.v.P.B.V.v.-XqXE P.w.w.r.9.v.B.t.8.t.Q.m ",
"wXw.v.I.&Xv.v.b.A.6XQ %X} 8.r.C.W.D.C.t.Z.G.Q.qXG tXh.v.r.G.R.G.t.B.P.v.v.e.%XT Q.r.e.R.C.t.A.B.v.C.,X>.oX8.C.v.C.b.h.J.B.>.-XQ ",
"wXr.v.A.v.C.C.C.S.&XM &Xv.E.T.S.G.C.C.t.t.v.A.,X:.8XG.t.q.G.t.P.v.B.B.T.t.A.6XR 3X<.t.B.B.G.t.G.P.S.qXC.:X8.f.G.v.C.v.v.A.e.8Xm ",
"eXv.S.S.t.E.C.T.&XuX_ &X9.9.f.C.w.G.B.C.C.P.;XqXE W.T.h.v.G.w.B.B.B.t.R.v.Q.,XB oXT.e.A.Q.P.T.P.T.P.9X3.3XI.9.f.G.G.e.3.Z.t.-Xm ",
"eXr.E.C.P.^.Q.0XuX6Xt I.&XuXtX&X3XqX>X>XoXoX3XtXE 9X9X8XyX9XqXoXqX,X8X:X%XW.V.2 6X-X3X-X6X6XG.&XuX:XT.e B.9X&X3X.XoXn.n.Q.v.!.N ",
"eXt.C.B.T.W.t $ : t + L  .t t = - - - t a D D O.+ / k 1 ; 1 0 - e : a - k k m . [ v - : w i t 9 w v ! . M M < = I >XV.8.Z.A.,Xi ",
"/.B.B.E.C.8Xv 1 t H t H L t t t e - w e 0 t # v w K a e : c ; s > - h @ 0 e e = ~ e y e - 0 t t v h k + c 0 ; = w >Xn.t.Z.e.-Xd ",
").C.t.:.C.qX, # : : G ~ H ! L P ~ R R [ 0 < ! ~ / _ / ~ ] ' P _ ~ _ P ( H Z &.( ( t +.L H L _ A K R D U F e ' [ A oXV.h.%.t.E.4 ",
"_.W.^.6X0XP.< R z t ~ 9.l.7.7.l.o.l.l.6.c &Xd.h.f.l.w.f.5.3.D.f.4.u.j.A H i.[.OX&.z $.+.j.j.+.l.@.g.l.#.K .Xp.#.c 2XJ.tX,X%X6X1 ",
"8 :.<.Q B v @ I %.z M +.d.d.l.&.J.R.[ F @XF.9.l.V.l.l.d.D.J.p.b.H.x.L L &XOX4.D.'.L z &.s.u.H.4.Y.D.X.J 2XD.D.1.D < v ~ B E d i ",
"~.6X%XQ.,XT.t v 8.f.P D  .7.l.k. X6.c @XI.l.6.h.J.0.2.G.l.f.{.5.j.H ( N.OXi.j.u.'.'. .l +.j.4.L.}.-.c +XH.7.d.+.A ;X&X3XR.-XqXi ",
"_.C.%.q.B.Q.- M I [ ' ) 0 .. XL.c h  XL.u.f.#.p.g.l.m.6.x.I.9.b.z z  XK.$.k.D.x.J.x.L.+.q  .].M.n C =XK.a.c.6.7.H I.R.J.B.T.-Xd ",
"/.%XQ.v.3.3X1 G ..` 0.F.K ^ ..x A L.c.c.D.7.D.f.k.J.g.l.c.b.b.L ~ 4.J.p.m.J.h.7.&.b.l.l.X.H #.n u }.a.a.D.6.D.k._ &Xf.w.h.B.,Xg ",
"1Xv.S.C.h.3Xw I M [ *.n.*Xo.0 Y #Xf.j.k.p.D.f.j.j.D.l.l.&Xc.( ( 5XD.5.G.V.2.XXm.d.&.J.m.XXX.< F =XN.a.m.j.l.j.j.H 2Xd.v.P.r.:Xi ",
"_.r.S.S.G.>Xy B ) ^ N.Y.M.x U Y.d.f.l.l.b.x.D.x.p.d.d.[.J.~ L x.L.3.3.g.D.M.F.F.9.%.J..XD.j ! Y.p.p.s.M.M.j.H.b.D 6X.Xv.P.b.^.d ",
"~.C.S.v.S.6X3 G ] _ f.@Xr J 2Xp.6.c.M.N.M.a.M.4.u.&.J.&.A ( &XJ.M.a.m.M.K.M.m.;.K.0.K.}.u ) *Xk.;.N.N.'.a.;.K.;.F *Xm.R.B.8.T.d ",
").r.S.S.t.-Xt G _ ~ L.D J 2Xx.c.M.a.K.N.].N.i.M.j.OXH.A A t {.yXm.0.a.M.m.N.M.m.0.a.a.Y ..K.a.k.N.a.N.N.|.K.a.a.u !.Z.n.B.B.-Xi ",
"_.q.B.C.v.&Xv G ! ' o.D [.D.j.[.N.m.M.z.].K.i.s.x.{.( z f.%.t J.=XK.0.a.;.m.M.a.;.Y.;.u }.}.p.}.N.N.N.z.|.Y.;.;.J *Xm.n.T.t.Q.m ",
").S.S.S.%X6Xt ~ o.! = M.#Xd.H.z.K.N.m.a.k.x.x.M.'.( q j.5XOX&.t m.Y.M.p.0.K.M.0.*XY x M.M.M.a.N.'.].'.z.a.a.m.m.Y =XY.Z.E.e.Z.g ",
"/.E.E.W.Q.%Xt / ! ; o.l.7.N.}.M.|.a.L.M.p.N.N.OX( r &Xf.D.1.&Xb.> a.+Xa.a.m.N.}...y ;.M.p.D.m.M.|.;.].z.;.}.M.K.c 7X3XG.A.B.A.6 ",
"~.e.t.S.C.Q.v v < > d.J.0.6.N.}.0.}.;.N.K.j.[.H ( D.$.x.&.l.7..X-.u 6.4XM.m.Y.[ 9 S a.M.m.d.K.}.;.=X;.N.K.a.*XI n 5X;XC.r.B.R.N ",
"!.q.v.S.C.%Xs w s ^ q F.F.a.p.M.p.a.M.;.z.L.J u {.u.j.l.b.b.1.d.>X-.y 0.7XY.n x 6.U > *Xd.2.l.m.;.;.|.;.M.K.F u ! :XT.T.e.C.R.T ",
"y.,X8X,X%XW.w t o.[ K j F.g.0.a.k.N.p.p.M.( l i.k.4.f.f.D.l.f.l.k. XY F > j u K.7XY.U y }.k.0.d.|.'.;.z.N.) u -.F 3X;X-XB.-XE.2 ",
"8 } %.Q , , v [ ~ X.D.P n *X6.6.M.p.u.p.x J 6.+Xj.l.F.D.p.g.D.j.0.2.5XJ F c  XL.0.Y.F.G F  Xg.7.m.i.4.s.S j d.J.n G t { { ] m 4 ",
"| t.Q.%X6XT.t v G %.R.h.j n Y.n.-.6.j.S u u 0.}.g.l.l.M.l.0.7.h.=.k.XX1.j @Xd.G.0.m..Xd.c D D.m.4.4.i.D u q d.h.D tXtX.X,XqXqXb ",
").v.A.C.P.%Xt G R ^ 5.;Xw.Y ^ M.M.x.S ; ..^ F =.F.m.L. Xm.p.g.p.w.V.#./ m. Xm.0.g.0.1.2Xd.F / m.D.k.H 0 ) ! D +.K tXP.G.B.G.3XT ",
"/.r.C.A.v.&X: G / R w.=.=X0.b U L l q |.L.2XY e l.M.F.F.M.D.l.6.m.0.n m.7X3.L.h.g.w.d.,.;X1.U n F u t 2Xl.2XR a G 9Xh.G.B.U.:XT ",
"~.E.B.C.Q.uX, E ` ,.2.h.3.n.0.Y l x OXc.L.#.D.! n 2.F.M.n.0.7.M.[ D 2.7XZ.0.m.V.m.V.m.w.,.F.g.K n c L.D.J.1.v.R j oX.Xn.W.R.,XN ",
"!.S.A.S.P.6Xt M [ ] 0.Z.F.0.*XY Z x.J.k.p.l.g.G.U U 3.Y.m.a.D.p.D o.;Xh.m.m.m.h.V.7.n.F.F.w.T.! A l.J.l.p.v.f.L.N R.T.q.B.G.:X] ",
"eXB.W.E.t.&Xm E / *.3.V.m.F.^ n  X[.j.H.5.D.r.7.Y./ I -.N.+Xm.U ,.2XV.=.F. XV.V.7.G.w.V.F.h._ M I. Xd.J.7.l.l.q.c -XG.e.e.*X:XE ",
").v.E.C.P.0X4 G :.` ,.Y.*X*.U m.D.D.D.u.D.d.D.F.F.XX) j 0.2.S Y  Xh.<.3.F.w.L.V.h.g.l.F.R.7.A C.J.L.h.5. X7.G.f.T J.B.e.Q.R.-XN ",
"_.T.V.G.n.!.y B *.=.p.*Xx -.+X Xg.l.b.I.F.h.m.m.n.M.) U j n ' +X,.2.r.d.f.9.7.h.b.b.{.@Xz +.=XL.k.d.l.L.J.l.l.w.D 7XU.*XR.A.*XI ",
"_.e.C.!.t.,Xd I *.[ F.*.n =XH.c.p.w.J.D.J.L.0.Y.6.a.*X) n ) }.0.w.d.d.I.f.5.l.l.J.b.&X .K 2Xl.J.p.l.L.D.D.D.g.B.N oXn.G.Z.B.R.m ",
"^.e.B.T.A.0X, I ` ,.U ) =X].x.x.D.D.l.F.d.7.K.1.0.*XI > Y Y.2.0.0.7.g.b.J.I.D.d.x.b.H  .@X[.l.c.M.m.L.D.5.h.F.o.c :XU.U.G.-X>Xm ",
"/.G.S.G.Z.9X. I ,.R n K.p.k.s.c.g.L.L.l.G.g.=.m.=Xu n u n m.L.g.g.h.D.9.J.b.d.f.'. .Z OX4.c.u.M.p.}.M.M.L.g.2.,.K .Xh.W.Z.t.Z.i ",
"~.t.A.G.e.7Xy T 1 j K.K.s.z.s.i.l.m.m.g.g.g.g.*XF u ' a.t Z J.g.9.b.b.J.%.f.9.$XA  .&Xx.H.j.u.i.F.p.D.j.g.m.2.L.j tXE.Z.h.U.9Xy ",
"!.A.B.S.S.,X1 , < 2.=.;.x.s.N.'.D.j.d.k.=.g.+XJ y *Xg.2..Xc ! J.w.b.b.f.L.1.4X .H &Xi.&.u.x.x.].D.l.5.D.#.2.;XU a *XU.*XZ.G.6Xb ",
"/.8XQ.:X;XU.1 < o.X.1.p.|.i.x.s.6.m.F.p.K.Y.F e m.d.g.m.9.I.D X.D.9.I.f.&.5Xz q '.x.x.{.s.s.x.i.i.p.L.p.D.L.G k o.tX9X7XG.Q.!.M ",
"5 m W *.k , - s c 2.-.z.s.'.x.x.k.M.6.M.+XY S L.j.d.F.D.b.J.J.z _ J.5.u.OXt 9 Z +.J.x.&.'.x.j.x.j.H.6.F.XX! F l.n U W *.B b b > ",
"/.Q.3XuX-X;XG < y F 6.M.N.N.s.i.K.0.M.*XY Y Y.a.b.D.L.D.p.f.f.f.A D f.v.H t J.$.H &.'.'.].x.x.i.[.6.k.+X_ K Y.q.G F.*XtXqX6XqX, ",
").t.8.V.R.0XG m F Y @.p.N.s.s.N.;.K.}.;.J =X0.a.l.D.f.c.l.5.l.J._ z Z t A &.4XJ. .Z &.x.D.x.s.].6.K.F.p.U +Xw.3.R B.t.B.n.n.-Xy ",
"!.V.G.B.V.3Xs [ *.I u *.a.s.a.;.N.*X..F 7XN.a.M.c.j.l.7.b.[.p.b.b.L z A 4XJ.&.J.H. .r &.7.;.c.-.H. XX.D 5XJ.g.g.U F.t.V.n.t.E.y ",
"/.G.C.V.G.8Xi n *.a.Y n @.s.N.x.}.-.u =XK.0.a.;.l.D.6.l.J.b.J.u.&._ H {.&X&.f.u.J.'. .r ..M.p.D.[.-.x @XD.w.g.=.^ Q.n.w.n.e.E.d ",
"1XB.3.C.G.tXM k *.0.*.' 0 ) }.D.H h @XOXp.g.7.0.F.6.M.k.j.H.k.j.H L yXu.&.b.b.b.x.J.I._ h @.K.M.D u $X}.0.k.0.=./ *Xn.3.t.n.!.n ",
"1XV.w.oXV.-Xd G [ ` *.m.U Y @.S r {.f.p. X6.l.M.k.D.j.c.l.M.c.Y +.&XJ.J.b.b.f.f.b.&.D. X! c 2.y h OXk.0.Y.2.h.2.B *XG.t.Z.n.R.y ",
"<XG.h.V.n.:X, b ^ *.-.M.*X..q K $X[.f.u.c.l.u.k.j.m.M.k.K.M. .L 5Xb.&.x.J.d.OXx.u.+.b.b.oX` y U =XL.k.d.m.g.2.2.M Y.n.q.q.e.R.s ",
"/.&XR.8.8.tX2 / *.` F.!.F.u U [.f.p.c.l.H.j.L.k.p.k.p.K.+X) Z H.[.x.u.b.j.J.{.b.&.9.I.L.K.y Y F.p.7.k.k.M.n.L.0.M U.m.n.n.q.E.b ",
"^.h.T.V.G.3X0 / O.6.m.F.S J =Xa.;.z.N.'.N.s.s.i.a.-.x.7.z _ &XH.M.a.M.].m.].K.;.M.M.M.N.S Y }.z.6.k.].M.F.k.p.-.b XXT.G.<.v.S.s ",
"(.h.P.v.h.tX: X.@.1.M.Y J =Xa.a.z.s.'.N.N.].z.a.s.}.L.D H q OXyX].i.a.p.N.M.K.0.a.-.z.-.C =Xk.m.x.k.N.z.K.m.n.-.U G.B.t.B.e.!.g ",
"^.P.C.v.B.tXw O.o.d.@.n ].m.z.].z.=XN.a.=X'.;.z.j.J.( z x.' t H.=Xk.p.m.p.k.N.m.;.+X-.u |.}.6.K.K.N.N.M.L.N.d.*.{ .Xn.t.B.t.-Xv ",
"| %X8XuX9XP.1 n q.c y p.Y.z.K.k.'.N.a.z.s.;.N.N. X_ 9 l.5X&X&.t k.|.m.a.;.M.a.a.K.Y u m.K.a.N.m.N.M.M.k.k.g.d.5.' R.n.Q.T.E.W.E ",
"5 B v k i s $ O.b y y m.m.a.K.m. XM.K.p.M.+Xl.+X! e .Xl.l.3.oXb.0 w.+X2.m.n.M.Y...u 0.m.0.}.a.Y.Y.K.m.k.k.M.m.m.F ` E :.W I g   ",
"_.9X8XqXR.-X- n < q k.m.-.a.Y.Y.a.N.0.K.m.d.L.n K l.<.l.%.w.r.&X=.j 0.5XF.K.*X) y n g.a.0.2.F.m.m.m.p.k.g.d.o.U m e.-X,XiX9XT.y ",
"(.C.q.B.h.9X2 - j 2.U 0.g.a.a.a.0.0.L.2.g.M.F n B.,.h.w.h.8.,.w.>X*.y 2.*XZ.N y [ ` > Q.F.2.U.m.0.p.0.m.d.2.R k k G.C.e.n.A.-X5 ",
"/.E.t.t.C.9X] s / [ U G ,.' *.^ Y ' I ^ ` M N K ~ G T / / { E E I ` R y d y n [ =.` n M b I M M S I F ^ U R M M ! 3XZ.-XB.e.oXn ",
").S.C.h.C.6XqX,X>X>XR 5X.XF.-X9X0X6X&X9XR.R.3XW G.0X9XtX:XyXaXuXtXqXiX7XiXtXF.I h..XR.Q.3X>X>X3XiXyX*XU pXiX9X9XsXtXv.t.V.A.qX2 ",
"rXv.3..XQ.P.w.8.f.U.T 2XP.I.R.*X.XP.v.oXL.q.T.W Q.h.r.C.r.r.r.v.Z.n.h.V.U.Q.*X[ -XC.>.2.U.n.V.w.D.G.,X{ 7XC.w.t.V.G.oXA.T.B.:X, ",
").T.A.!.A.E.C.A.8.I.R %Xh.G.V.L.S.%X%XC.G.V.oXG 6Xh.A.C.C.P.P.E.Z.R.n.A.n.n.>XN v.r.P.W.,Xh.G.G.T.B.8X] *Xq.B.W.T.e.R.q.U.A.9X6 ",
"eXE.r.Z.t.C.t.B.v.!.N XXt.A.Q.%XP.S.S.W.Q.P.-XW Q.C.E.A.P.A.C.v.Z.m.h.,XE.B.,XB .Xr.f.w.C.q.G.R.A.h.;XB oXn.E.-XQ.T.qXR.E.n.>X, ",
"`.Q.S.E.E.-XE.Q.8.%XN :Xh.3.C.A.W.t.r.S.C.%X0X{ 6XQ.r.v.&XP.S.S.W.G.C.v.3.B.;Xb 6XG.v.v.G.R.T.G.B.A.,XB 0XQ.E.E.,X,X,XoXR.n.-X1 ",
"`.8X0X8X0XqX0XiX6X%Xt Q.6X6XsX8XuXuXuXaX,XuX&Xs v.:X6XqXtXW.%X%X;XqXaX6XW.3X*Xw %X3X0XuX9X9X:X-X8XqX,Xs ,XoX8XpXiXqX,XqX3XR.A.. ",
"y.I 7 y T , $ : 2 N $ >.E w 4 , t & o 3 t t m % E v - @ # s t @ v w w a 2 ; i $ / B k : i s i k $ i m   >.d i 2 d d i d s i T @ ",
"| V g * 8 3 3 3 3 7 % Q V 4 * 3 4 f t % f 4 7 O } 4 4 f % 4 4 3 % f 4 % O o 7 X g 4 p $ f 3 & * % & 6 & | 3 3 % 6 % & o * 3 7   "
};
