/* XPM */
static char *result[] = {
/* columns rows colors chars-per-pixel */
"64 64 255 2 ",
"   c #1A1B0A",
".  c #140D13",
"X  c #181413",
"o  c #161D14",
"O  c #1C1C15",
"+  c #1A161A",
"@  c #161D1A",
"#  c #1C1C1C",
"$  c #261B05",
"%  c #2A1E03",
"&  c #231D0D",
"*  c #2A1D0C",
"=  c #361B04",
"-  c #231C13",
";  c #2A1C14",
":  c #24171D",
">  c #221B1B",
",  c #291A1A",
"<  c #311E14",
"1  c #0E220F",
"2  c #1D2501",
"3  c #14230B",
"4  c #1D210E",
"5  c #142115",
"6  c #1B2113",
"7  c #172019",
"8  c #1B221B",
"9  c #252403",
"0  c #2C2203",
"q  c #252B05",
"w  c #24220C",
"e  c #2B230C",
"r  c #2D2B0D",
"t  c #332404",
"y  c #3C240C",
"u  c #362808",
"i  c #3A2B0C",
"p  c #2C3109",
"a  c #3A3707",
"s  c #33330C",
"d  c #242214",
"f  c #2A2513",
"g  c #242915",
"h  c #2C2A14",
"j  c #23221A",
"k  c #2B251B",
"l  c #232819",
"z  c #2C2B19",
"x  c #332513",
"c  c #392717",
"v  c #332C14",
"b  c #3D2D14",
"n  c #312D1B",
"m  c #2E3114",
"M  c #343215",
"N  c #3C3314",
"B  c #373619",
"V  c #3A331A",
"C  c #161D23",
"Z  c #1C1B22",
"A  c #231722",
"S  c #221B22",
"D  c #152020",
"F  c #272322",
"G  c #383422",
"H  c #521E00",
"J  c #492705",
"K  c #452A04",
"L  c #442B0C",
"P  c #532802",
"I  c #5A2D01",
"U  c #463707",
"Y  c #4D310D",
"T  c #583707",
"R  c #432C15",
"E  c #542B11",
"W  c #423414",
"Q  c #4C3413",
"!  c #443915",
"~  c #4B3B12",
"^  c #433419",
"/  c #4B351B",
"(  c #453A1C",
")  c #4B3C1C",
"_  c #563616",
"`  c #543A15",
"'  c #533B1C",
"]  c #5B3D1B",
"[  c #612D04",
"{  c #663605",
"}  c #723904",
"|  c #663D18",
" . c #733D13",
".. c #493922",
"X. c #583E23",
"o. c #484705",
"O. c #574605",
"+. c #4A5502",
"@. c #535D02",
"#. c #575907",
"$. c #4A4716",
"%. c #574518",
"&. c #4D541C",
"*. c #595719",
"=. c #664607",
"-. c #7D490B",
";. c #665904",
":. c #715909",
">. c #654618",
",. c #774618",
"<. c #66561B",
"1. c #775818",
"2. c #5B6707",
"3. c #596E0B",
"4. c #686807",
"5. c #77680C",
"6. c #677707",
"7. c #77780B",
"8. c #67671B",
"9. c #786718",
"0. c #677618",
"q. c #777A16",
"w. c #7C7C1D",
"e. c #4B4524",
"r. c #534523",
"t. c #5C4323",
"y. c #5A4A28",
"u. c #4E5220",
"i. c #575826",
"p. c #634423",
"a. c #6A4A26",
"s. c #644B2B",
"d. c #774B27",
"f. c #695527",
"g. c #775826",
"h. c #74532C",
"j. c #6A4C33",
"k. c #794E33",
"l. c #6A5434",
"z. c #765934",
"x. c #6B6829",
"c. c #766729",
"v. c #6D732B",
"b. c #777827",
"n. c #7A653B",
"m. c #777A36",
"M. c #7F7643",
"N. c #8F4D15",
"B. c #885818",
"V. c #84650A",
"C. c #886D16",
"Z. c #986D19",
"A. c #88751A",
"S. c #84552E",
"D. c #845828",
"F. c #955B26",
"G. c #975C33",
"H. c #856829",
"J. c #986628",
"K. c #897926",
"L. c #95792A",
"P. c #876538",
"I. c #986739",
"U. c #8A753A",
"Y. c #987738",
"T. c #A36A38",
"R. c #A57132",
"E. c #B27839",
"W. c #835E40",
"Q. c #886943",
"!. c #976E47",
"~. c #8A7548",
"^. c #997646",
"/. c #8F7455",
"(. c #A26A43",
"). c #A97647",
"_. c #B67949",
"`. c #A67E52",
"'. c #C57746",
"]. c #67870C",
"[. c #758A0D",
"{. c #729909",
"}. c #6C8313",
"|. c #6E8D15",
" X c #7B8414",
".X c #778A1B",
"XX c #779718",
"oX c #7B921C",
"OX c #75A50B",
"+X c #79A415",
"@X c #788727",
"#X c #758D2D",
"$X c #7B9826",
"%X c #7A8933",
"&X c #7DA327",
"*X c #7D8142",
"=X c #8E8C16",
"-X c #87861A",
";X c #83951B",
":X c #85A41A",
">X c #878826",
",X c #8A8C2C",
"<X c #96862A",
"1X c #879828",
"2X c #939828",
"3X c #878A38",
"4X c #978535",
"5X c #849433",
"6X c #879937",
"7X c #989938",
"8X c #A48625",
"9X c #A69528",
"0X c #A68739",
"qX c #B3853C",
"wX c #A69938",
"eX c #B4973F",
"rX c #88A525",
"tX c #84A32A",
"yX c #8BA32C",
"uX c #95A22A",
"iX c #91B12C",
"pX c #8CA534",
"aX c #97A536",
"sX c #C4833F",
"dX c #898846",
"fX c #8B9446",
"gX c #969848",
"hX c #96984C",
"jX c #998A56",
"kX c #A98A46",
"lX c #B88649",
"zX c #A89745",
"xX c #BA9A48",
"cX c #AB8556",
"vX c #B88957",
"bX c #95A84A",
"nX c #B8AE50",
"mX c #B68F63",
"MX c #BCA96A",
"NX c #C48547",
"BX c #C79B40",
"VX c #C78B56",
"CX c #CA9656",
"ZX c #D39C55",
"AX c #CFB058",
"SX c #DCA060",
"DX c #D2B26A",
"FX c #E5A865",
"GX c #EDB271",
"HX c #DCC96F",
"JX c #EBCB74",
"KX c #E8B682",
"LX c #FAC684",
"PX c #F5CE87",
"IX c #FFEA8C",
/* pixels */
"OXOXOX&X+XtX|.6.;X2X:XuX7.2X@Xq.2XaX,X>XK.7X,X5X#X5X].}.$X6.:X;X1X$X.XaX}.6X$X@X1X6X6X6X5X%X.X#XbX5XgX@Xb.hX3X%X$X6X;X].+X{.+XtX",
"OX{.+XiX|.6. X2.=X=X9X5.[.7.2.@Xo.=XwXq.o.+.2.3X6X#.@.4.q.nX7.1X6. X X2X7.2X[.4.;XuX1X;X1XpXoX Xp 2X7X7.2.;.4.1XuXXXOX:X{.OXOX$X",
":X:X:XoX>X2.K.A.HXJXAX9XC.L.<XO.V.GXDXE.=.T :.4X=.K ;.H.AXAXeXZ.A.eXxXxXV.C.V.V.AXIXDX8XV.A.A.=.V.HXDX8XK K 5.<X4.U 6.uX;X{.XXpX",
":XiXoX6.K.;.0XCXJXZXFXFXqX0XB.[ B.FXSXNXJ.[ I [ { I -.Y.JXCXJXE.J.Z.J.ZXZ.{ -.FXGXFXZXCXZXE.B.} Z.ZXFXJ.C.-.} kXJX8X8X=X=X[.{.q.",
":X;X6.;.;.T vXCX'.'.GXFXFXF. . .} NXVXCX_.I H  .,.P { I.lXSXVXI.F.I.G.N.[ } } E.CX'.LXGXCXF.} N.N.FX'.VXvXH _.GXJXFXBX8X4.[.oXpX",
"XXXX3.#.=.=._._.'.GXGXVXE.N.S. .,.T._.lX!.H I P.| J H d.d.mXD.,.,.[ {  . .} } _.).VXFXVXE.F.E.T.'.N.N.F.G. ._.GXLXsXsX8XHX2XpX@X",
"XX&X3.2.O.<.D.G._.G.G.G. .d.H | >.J.cX^.k.P _ P.z.s.J ` | d.h.h._ _ j.a.T T P S.S.mXvXmXS.I ^.).'.'._.I.,.I ,.VXVXE.B.JXnXpX].6X",
"&X$X0.v.t >.| [ k.W.| { P.a.J _ >.P.^.f.T K f./.Q.z.Y Q Q %._ ' ' / l.z.p.] Y S.P.P.!.>.= g.S.`.T.T.(.mX>.g.Y.I.N.R.J.FXwX.X&X$X",
"XX&X}.+.U | k.d.S.!.g.>.~.l.r %.%.>.a.>.Y Y a.~.k.X.Q Q X.p.] L / / j.y.' J = p.a.P.a.J J h.P.p.d.P.~.g.K m.~.^.T.SXlXR.2X-XtX$X",
"|.3.3.#.O.E _ p.k.W.t.t.n.u.s ..t.>.| Q J Q p.l.j.p./ _ X.p./ y < b y...Q W = J _ ] _ Y ] z.l.>.` f.%.$.o.~.~.cX_.'.F.E.V.q.].@X",
"&X|.0.9.>.T E k.k.j.' $.f.e.N ..t.X.Y y L ' r.' y.X./ / X...R = x x / c R / y L Y t K ' y.t.~ L ` %.U p $.n.z.I.(.T.H N.0X9X7.>X",
"@X$X X<.T J E j.j...W $.u.( W r.r./ i u i ) ) / W b b R R R y e ..v c c ( ^ y ../ t % ^ r.N t u N i u 0 $.y.f.d.S.d.[ _.JXAX7.,X",
"1XyX>X;.T J _ j.r.i v $...^ ^ ..( h e h M M B B e r v v M v h d G f f x B v r ( N e % v N r 9 x x $ t u ! Y s.p.d.H _ PXzXA.;.<X",
"yX1X8.o.K J L / ^ e r B V b R c G g g m h r M V r r h M z z f f d z n f v n x e e % w f r w w f n * x i y y s.t.p.= J ^.9.C.V.4X",
"pX&X0.o.$.) R V f e r h v x c c z k k f g e h h e r h h z g f f & n k ; x x f $ * e * e & - & - O - & e x i y.y.y = N x.MXDX7XK.",
"].XX6.a ~ r...V d g g g k c < < - > O   O g g & O - & d d - j d - , - ; k ; ; ; ; ; ; - ; ; d j O G   $ x $ < u = % u.MXHXnXA.-X",
"&X|.+.U %.t...M d # S S - - - > O # # # O # - # # o # # O # # > # - # > # - # > O # - > # # # # O # O - - - * % W Y P.CXHXDX X,X",
"+X|.+.U ` %.) v d D Z S S > > # # # # # # # # # # # # # # # # # # # # # # # # # # # # # # # # @ # @ # O O - & e i _ mXDXDXzXA.,X",
"rXXX2.U ` ' ) r O # S Z > > > # # # # # # # # # # # # # # # # # # # # # # # # # # # # # # # # # @ # > - O - d 0 r.Q.vXvX<X<X7.w.",
"rX1Xx.$.` Q ( r O Z Z A > > O # # # # # # # # # # # # # # # # # # # # # # # # # # # # # # # # # @ # > + O - 4 w ^ /.cXE.kXDXwX7X",
"XXtXb.%.Q W W r O # Z A : O # + # # # # # # # # # # # # # # # # # # # # # Z # # # # # # # # # 8 @ @ > > O - & $ ( z.Y.{ kX<X=X,X",
";XyX%Xf.` L i 0 O # # A : > O # # # # Z # # # # # # # Z # # # # # # # # # # # # # # # # # Z # # @ @ # # - O O w ( ] T I qX<X-XzX",
";XtXb.f.t.Q a 9 O 8 Z A # - o # # # # # # # # # # # # # Z # # # # # # # # # # # # # # Z # # # # @ # # > # + O   ..' { Y.L.L.6.>X",
"[.XX8.f.p.' W r 6 # Z A > O # # # # # # # # # # # # # # # # # # # # # # # # # # # # # # # # # 7 o + > > # O O & v Q z.cXV.5.,X7X",
"yX$X8.U L ' r.B 6 # # Z > > # # # # # # # # # # # # # # # # # # Z # # # # # # # # Z # # # # # # # # Z > # O 6 6 V / P.^.:.;.2Xw.",
"tXXX8.~ K ' %.r 4 8 Z # > - # @ # # # Z # # # # # # # # # # Z 8 # # # # # Z # # # # # # # # Z # @ # > > # # 8 6 n W h.H.1.:.q.7X",
"yX|.8.` L X.%.r 4 # + Z > # # @ # # # # Z # # # # # Z # # # # # # # # # # # # # # # # # # # # # # 8 # # # # l j x y.z.=.9.#.@.7X",
"1X6.x.%.L %.r.u 4 # # > O # # @ 8 # # # # # # # # # # # # # # # # # # # # # # # # # # # # # # # # # A > # # D l e ) ` =.xXDX7.w.",
"yX}.8.%.L Q ~ q 4 8 # Z + > # 7 # # # # # # # # # # # # # # # # # # Z # # # Z # # # # # # # # # 8 # S # Z @ D l n i = >.zXPX1X,X",
"pX.X<.%.Y Q i 9 4 o # # > O # @ # # # # # # # # # # # # # # # # # # # # # # # # Z # # # # # # # # # > S # Z D l n t K <.1.<Xq.6X",
"1X@X8.%.] Q t 9 4 6 # # # # # 7 # # # # # Z 8 # # # # # # # # Z # # # # # # # # # # # # # # # # 8 # # A Z @ 7 8 4 0 p.Y.Y.w. X>X",
".X}.*.` ] Q % 9 4 O # > - # # # Z # # # # # # # # # # Z # # # # # # # # # # # # # # # # # # # # # # > Z Z # 7 5 w ( !.jXY.5.1X3X",
"1X@X<.U ' L a   & > : A # o @ # # # # # # # # # # # # # 8 Z # # # # # # # # # # # # Z # # # # # # # Z # # # 7 5 2 ^ P.U.c.wX7X,X",
"rX6.o.Y s.W s 9 * , : > o # # # # # # # # # # # # Z # # # # # # # # # # # # # # # # # # # # # Z 8 # Z > # o 5 4 M % f.P.H.4.2.3X",
"tX3.K Y s.W p q - , : A # o # # # # # # # # # # # # # # # # # # # # Z # # # # # # # # # # # # @ # # > # # # @ 6 f W P.P.zXzX7X7X",
"$X.X*.Y ` W s q & , : > # 8 8 # # # # # # Z # # # # # # # # # # # # # # # # # Z # # # # # # # # # # # : # # 5 4 f ( z.H.Y.4Xq.3X",
"tX5Xx.` Q ! s 2 w > > # o 8 # @ Z # # # # # Z # # # # # # # # # Z # # # # # # # Z # # # # # # # @ # # > # # 8 o n y.h.P.:.;.+.gX",
"tX1X<.>.' ! s 2 O ; : A @ # @ # 8 # # # # # # # # # # # # # # # # # # # # # # # # # # # Z # # # # # > # Z # o 6 d / E T { Y.4.9.",
"$X@X<.s.' W q 2 4 > > Z @ 7 7 # Z # # # # # # # # # # # # Z # # # # # # # # # # # # # # 8 # # # @ # # # # # # O ..b J ,.J.kX;.;.",
".X1Xx.h.) W q 2 w > : Z @ 7 @ @ # # # # # # # # # # # Z # # # # # # # # # 8 Z # # # # # # # # Z # # # Z # # @ 6 f y p.D.g.9.O.b.",
"tX.X<.a.L W q q w > # + # 7 7 # # # # # Z # # # # # # # # # # # # # # # # # # # # # # # # # # @ # # # > # # 5 l f y Q.^.^.Y.<X4X",
"$X4.O._ _ u q 2 6 - : # # 7 # @ # # # # # # # # # # # # # # # # # # # # # # # # # # # # # # # # # # # Z # # 8 j v R ^.^.kXkX;.3X",
"1X4.g.] f.u p q 4 > A + # 8 # # # # # # # # # # # # # # # # # # # # # # # # # # # # Z # # # # # # @ # > # # 8 g & y./.D.=.H.w.>X",
"1Xw.U.%.p.u p 2 - > > # o 8 # + # # # # # # # # # # # # Z # # # # Z # # # # # # # # # # # # # # Z # + # # + 8 l e s.Q.D.=.:.7X7X",
"1X,XI.a.p.L 9 2 6 > : : # # # # # # # # # # # # # # # # # # # # # # # # # # # # # # # # # # # # # # # # # # 8 g w 0 %.1.L.q.#.<X",
"6X>Xg.k.j.) 9 q & O : # o O > # # # # # # Z # # # # # # # # # # # # # # # # # # # # # # # # # # D # # A # o 8 4 0 0 T Y.kXA. XaX",
">Xq.=.| a./ 9 2 O ; : : # j # > # # # # # # # # # # # # # # # # # # # # # # # # # # # # # # # # > D A S S # 5 6 2 t T cX0X7.aX,X",
",X,Xc.| s.X.s q & , # > # # > # > # # # # # # # # # # # # # # # # # # # # # # # # # # # # # # # D > > S > o o 4 r i s.DXHX<X6.w.",
"7Xb.O.f.j.l.e e 9 - # # Z > > - - # O O # - O # O O O O # O 6 6 # O O # O O O # O 8 # O # O O # > A > , , : > - < R X.KXmXDX6.3X",
"wX<Xb.>.y.y.R 0 $ O + # A Z > > > > > # # # > # # > O # O O o O O 6 # O 8 # # # # O # # 6 O # # > # : : , > - - , x L cXH.4..XaX",
"7X4.<.%.s.e.N e w O o Z Z Z O O > Z Z Z : Z Z Z Z Z Z # # Z Z Z # # # Z # Z Z Z # Z Z # Z # # # 7 @ # o o 8 o 3 z N Q U.#.o..X1X",
"1X2.2.O.y.( b $ w O O # D Z o + Z Z Z C Z Z Z Z Z Z Z Z Z Z Z Z Z Z Z Z Z Z Z Z Z Z Z Z Z Z Z Z D @ 7 8 5 1 1 3   r.z.c.o.@.XX1X",
"6X-Xb.*.! ( R $ - O + C C D 7 7 # Z Z Z Z Z Z Z Z Z Z Z Z Z Z Z Z Z Z Z Z Z Z Z Z Z Z Z Z Z Z Z @ @ # 8 5 1 1 3 r s.P { :.2X:X;X",
"rX.X0.*.a ( y e * O Z C D D 5 5 # # @ Z # # Z # Z # Z # Z Z S Z Z Z # Z # # Z # Z # # Z Z # # Z + Z > j o 1 3 w t Q.,.J.C.5.;XuX",
";X6.+.o.) ..= < ; > Z Z C D 5 5 8 # # o 8 # O O # O # # # > # # # # # # # # # O > # # # # # # > A A A > o O 4 e j.!.G.CXeX=X[.2X",
"XX1X@X&.r.r.x < * , Z Z C D 5 5 o o 8 8 O o o 8 O O O # # # # # # - # # O O - O O O O O O # # # A A A > o o g r /.S.(.VXZXBX;X1X",
"iX6.+.o.y.X.R y < ; > A Z # 8 6 # @ o X o > - # > O O F . > Z Z # X F o X j X 6 O O O X o > S # S S : + 5 1 8 e./.z.d.J.1.,X1XpX",
"pX}.+.o.U r.R t y < , , > X     > F F # o j o X O O O j @ # + @ > # F > > j X - O - > - # # j S Z S > + O 4 g B X.X.I { :.A.pX6X",
"&X6.2.*.$.` ~ Q u u e h f d $ d + . X > > X O k d k # > o > @ F + + # # # j O d O O # 8 # + + > + - - * f e i e.n.L T P O.4.|.6X",
"tXXX#Xb.*.$.<.<.U U N M v v u % c S , k k & ; h O z g d k d   5 j j > d - k g z n z g z f O X - z * % = y K ! l.j.p.=.H.4X5.2X6X",
"iXiXpX+.o.+.v.+.o.o.o.! U e.~ i w V x e e v ..N u.i.( p m p p m m m q m 9 M s s m q 9 2 m m n B B %.t.h.D.g.<.<.<.T H.K.K.-X[.>X",
"&X+X$X@.3.8.b.@.+.2.*.o.*.x.c.f.! N i i.i.$.x.m.M.m.x.&.$.$.&.i.&.u.$.i.i.m.%X*X*Xm.i.$.$.&.u.u.i.v.c.1.H.Y.Y.L.w.4XK.>X7.-XrX.X",
"&X&X&X&X$X5X@X.XoX.X0.x.x.m.U.K.x.*.O.b.c.o.;.%Xq.b.#X@X@X0.0.3.+.8.+.x.0.%XfX6X@X0.2.+.+.v.%Xm.+.0.b.K.0X0XL.7.0..X5XoX].rXXXoX",
"|.bXbXbX%X3X5X6XbX6Xm.m.m.M.dXjX/.jXdXjXdXK.gXdX3X3XfX%X%X*XhX*X*XfXm.fX%XdXdX3XhXhX3Xb.b.6XfXdXfXfX>X4X0X0XgXhXfX%X#X%X5X$X1X5X"
};
