/* XPM */
static char *_fcf395376304ee8de98b19e8633537cim4eVANwgWJEUvL8[] = {
/* columns rows colors chars-per-pixel */
"64 64 125 2 ",
"   c #578200",
".  c #5A8502",
"X  c #5E8902",
"o  c #5C8608",
"O  c #5D8F09",
"+  c #5F9103",
"@  c #628D04",
"#  c #688B04",
"$  c #628D09",
"%  c #659205",
"&  c #699505",
"*  c #6C9906",
"=  c #66920B",
"-  c #69950D",
";  c #659A0C",
":  c #6D9A0C",
">  c #759A07",
",  c #73960D",
"<  c #719D0C",
"1  c #799D0B",
"2  c #6A8711",
"3  c #648D12",
"4  c #6F8D11",
"5  c #679212",
"6  c #6B9513",
"7  c #679B13",
"8  c #6E9A13",
"9  c #6C9619",
"0  c #679919",
"q  c #6E991A",
"w  c #749515",
"e  c #729D14",
"r  c #7A9D16",
"t  c #75951C",
"y  c #729D1B",
"u  c #7B9D1B",
"i  c #6CA20D",
"p  c #75A30D",
"a  c #79A70F",
"s  c #6DA214",
"d  c #6FA319",
"f  c #75A215",
"g  c #79A615",
"h  c #75A915",
"j  c #7BA915",
"k  c #76A11B",
"l  c #79A51C",
"z  c #76AA1C",
"x  c #7DAA1C",
"c  c #7CB11E",
"v  c #759F21",
"b  c #7D9F25",
"n  c #76A221",
"m  c #7AA522",
"M  c #76AA21",
"N  c #7EA923",
"B  c #7CA529",
"V  c #7EA82A",
"C  c #7FA82F",
"Z  c #7CB024",
"A  c #7FB02A",
"S  c #81A517",
"D  c #82AC16",
"F  c #81AF17",
"G  c #83A71D",
"H  c #81AD1D",
"J  c #80AD1F",
"K  c #89AE1E",
"L  c #83B11B",
"P  c #83B21E",
"I  c #85B11E",
"U  c #86B41D",
"Y  c #819F25",
"T  c #80A322",
"R  c #83A723",
"E  c #87A623",
"W  c #82A724",
"Q  c #80AC21",
"!  c #81AD23",
"~  c #82AE23",
"^  c #80AB26",
"/  c #83AF25",
"(  c #8BAE23",
")  c #85A429",
"_  c #80AB28",
"`  c #84A828",
"'  c #82AD28",
"]  c #80A92F",
"[  c #82AC2F",
"{  c #84AF2D",
"}  c #89AD29",
"|  c #8CAD2B",
" . c #8CAE2D",
".. c #83B020",
"X. c #84B122",
"o. c #84B124",
"O. c #84B025",
"+. c #85B126",
"@. c #87B424",
"#. c #89B426",
"$. c #88B526",
"%. c #87B329",
"&. c #86B22B",
"*. c #87B22C",
"=. c #87B22D",
"-. c #86B12E",
";. c #8DB12E",
":. c #8AB52C",
">. c #89B42E",
",. c #8BB72E",
"<. c #8DB92E",
"1. c #8FBC2C",
"2. c #92B52B",
"3. c #82AB33",
"4. c #83AD31",
"5. c #86B132",
"6. c #88B233",
"7. c #89B432",
"8. c #88B237",
"9. c #8CB830",
"0. c #8EB934",
"q. c #93B233",
"w. c #92BE35",
"e. c #91BB3B",
"r. c #96C334",
/* pixels */
"6 3 k _ >.f f - - 9 N N +.g ! x X.k l Q : e 8 k f / e l k =.V 9 6 3 y / 6.f f 6 - 9 N N +.g H x ! k l x - e 8 f k ! f n n  .` 0 ",
"5 C y 7.=.  $ - e y N >./ 8 x x +.g X.x & e : e 8 l - 8 x >.m 8 5 ] y 6.>.  $ - e y m >.' e x x +.g X.x & f 8 e 6 x - 7 n 0.T 0 ",
"l m 9 q y m f +.e 8 y =.l / e - P P F j f * p x : N e f f j $.- l m 9 q v k f +.e 8 e >.l / 8 - P P x j a * * x : x f p f G ;.; ",
"^ [ [ v y m y m e g N N N ! < % F j p a F j j j f g x g p f X.f / ] ] n y m e Q e k N Q Q / : & F j a a F j L f f l j j 1 u / p ",
"{ N l e e 3.C C k ! H k N e = X g * < j a * * @ l : : p a g N N >.N k 8 y 3.] ] k ! X.k N e % X g * : j a * * @ l : : p g u ` h ",
"^ N f $ $ B B y 5 g g 6 N k $.! 1.: p j p * @ & +.: - p P x 8 y m Q f $ $ B m y 5 g g 6 N k :.! 1.< p x p * % & X.7 & p P E e i ",
"k _ 8.B y N e - - / { - 6   e f x & g * < X.e f l 8 8 x X.j < < g ] 8.B v N e - = / { 5 9   e e x & g * < @.< f l e : j P E w i ",
"- y 3.3.] >.x g k =.6.V n . y e g H r.: : x % < : y e l f H L L - y ] 3.] >.l g e >.8._ l . y e g H r.: : x % 8 : y e g 1 E } c ",
"- 5 $ e v V y N y l k 5 y q N y e x x x x e < 6 8 N ! f : @.>.O.6 6 o 8 v V y N k k k 5 y 8 V k e x x x x e - 8 8 N N p : | 7.x ",
"8 l   e m m 9 V m x N k C N n $ $ 5.' - ! k =.6 $ k ! f j :.y 6 e l   e m m 9 V V l _ y ] N y $ $ >.^ = / g >.6 @ y Z f j q.u ; ",
"N m >.y m N y C ] =.X m 8.5.y N =.0.- x - - w.m m N k g X.X.y y m m >.k m N y _ ] >.X m 8.8.q N { 0.- x - $ 0.N m N y g $.| y f ",
"m N [ m l v y m 6 N y e.v m { y $ N 5 . 6 6 y @ y N e @ - & @ 8 N N >.N m n y n 6 N y e.k N 4.e $ N 8 . - 9 y @ e N f % & 4 $ ; ",
"' =.C q v m x H 5 m ] 4.N m ] 6 $ n e   k y 8 @ 6 l e m m F x j ! =.B q v m N N - B ] =.B n [ 6 5 y y   k y 8 @ 0 n 8 g k ) ) z ",
"e m q 3 l m k ' k 3._ 9 6.y k m l 9 ' y l 8 m N l y y $ 6 g H f e m 9 5 v m y / k ] ] 9 6.y k m m e _ e l e m N l k f % < Y ] f ",
"m +.e e y 5 3 B v _ m y _ $ m { N y 0.y y 5 m ,.l N O.g x N 6.C m / : f y 6 3 B v V m y N = B *.m y 0.y y - m 6.l N / g m ) q.M ",
"m ! : g 5 o 3 3.9 9 8 N y e m 6 y =.m l l k k l e O.N :.! 6 m N m / : g 6 o 3 ] 9 6 8 m y 8 m 6 y { m l k l k l e / ! $.' t b z ",
"m w.>.8 y 8 y 6.9 9 y y 9 l k = y 7.$ m l N e - % x 8 e m $ < N m 0.>.8 y 8 y 6.9 6 y y 8 l m = y ,.$ l l N e - = N : f l 2 t M ",
"= l ' 9 6.' e N k ] { - $ 8 N &.- e - k = e 8 : @ k $ - ! : e g = m _ 8 6./ 8 ! k ] 4.= $ 8 m &.- e - y = e 8 : @ f @ ; / w u k ",
"$ 6 N x >.% x m y { ^ y < : g $.l e ! g x & ! e >.x < X.j x l - = 6 ^ N <.% x m k 4.V f < : g +.l e / g x = ! e >.x : P p K l ; ",
"6 - - / x f =.e 9 { y k : @ : H x p f X.:.f +.f X.' H j * < e 8 6 = - / x e &.e 8 4.q g : % : / F e g +.+.f X.g X.+.! j * 1 1 7 ",
"y 8 8 - $ f ! m m 8.{ l : X % g P f : g x x @.x f g f P < : = = e e 8 - $ f N m m 8.=.g : X % g H f : g H x X.x f l f c * > & % ",
"y l l - e l % &.m 3 _ x f : < H X.l 8 : g x x ! & : < X.g x e - y l l - k g % =.m 3 / m f : < x +.g : e l x x P & < < P g F < ; ",
"N y 8 f f g X N y   y m N / ' / ! x f x P l < x * j j j g :.! k N y 6 f f g X N 8 o y m H / / / ! N f x X.l < x & j j j g $.G f ",
"' m 8 x $ e : 8 k m m k l &.+.k f g f f P g : H < g g x g ! N m ' m 8 x $ e : 6 v m m k l *.*.k e g f f P g : x p f g j g K x z ",
"m m l >.e k x - y V m y e l l - = e e @ x f * F j f < j f N l k B l m >.e g x $ y B n y e k l - = e 8 % l f : H j p i j f F G d ",
"9 8 l N X.e k - y y ] m 6 e y $ = f f & X.f : x H F j % - &.' y 9 9 l N / e k 6 y v 3.m 6 8 y = = f f & @.g * j L x j % * ( ( 0 ",
"4.l m N e g / N o m y N / ^ @ = X f g :.x x x & x H f X.g >.n $ >.m m x e g ' x @ n y N / ^ @ $ $ f l @.x j x & x P f X.g ( g O ",
"y m m k e &.&.l . 6 5 6.N y 5 ! l k 8 g j f j & j P x P : 6 6 9 y m m y f +.=.l   6 5 5.N y 6 / l f 8 g g g j & j H x c : , - 0 ",
"y _ m y $ < e ' / m 5 m l N m ! - = e e x ! H f x F X.H e $ o m q _ m k $ : y / ' m 5 n l N l N = - e e x ! X.f x x X.N e # # n ",
"V ] N N e / g k N v m N m y e k - @ % f +.>.:.+.! g f ! +.y $ k V ' m N f / k k V k m N N k y k - X % f @.:.:.+.! j h N ^ r @ M ",
"4.9 N _ N ' k k { m ] 6 <.w.^ - X % k k N +.! &.x e : / >.*.y q 4.q m / x ' f k ' B [ 8 >.r.O.= X = k f N +.X.&.x e : V >.| w 0 ",
"m o m N l : e x 0.V ^ / :.x k x +.f - g f k f N l l e ^ l *.B 6 m o B ^ l : e N 0.N V X.&.l l x +.f - l e k f N l l e V l } N 7 ",
"9 $ k ^ >.f f - 5 6 N N &.g ! l ! k x H : e 8 f g N f l y =._ 9 6 3 v ^ >.f f 6 5 9 N m +.l ! l / k x x - e 8 k k ! f k k } ` 0 ",
"3 ] y 6.>.  $ - e y N >./ e x N @.g X.x & f : e 6 m - 8 x 0.m e 3 C y 6.>.  $ - e y N >.! e x x +.g / x & e < e 8 l ; 6 m 2.H 7 ",
"l m 9 y y m e &.e 6 e =.l / < * P X.j j f * p x : N f f e j $.- l m 9 y v l f +.e 8 e =.l / e * P P j j j * : x : N f f f S $.; ",
"/ 3.3.v y m y N y g N N N / : & F j p a L j j f f l l g 1 p X.f / [ ] y y m e N e g Q ^ ! ! : % F j a a F j F p f g l z f 1 / f ",
"] ! l 8 y { 3.V k ! X.k N e = X g * p j a * * X j : : p a j N B [ ! x 8 q ] ] ] y ! X.k N e % X g : < j a * * @ g : 0 f g r D l ",
"/ m f = $ B m y 5 g g - N k >.H 1.: p j p : % & +.: * p U ! e y / l k $ $ V m y 5 g g 6 N k >.! 1.* p x p * % - ' 8 & f @.D < f ",
"y 3.8.B y N e - = / =.5 6   e f l & j & : @.f f m 8 6 l X.j : < k _ 8.B v N e - = / { 3 8   e f x & g * : @.e f l e : z ( D < 8 ",
"* y V 3.] 6.g g f =.6.V m . y e l H r.: : l % : 6 f f l f j U F - y C 3.C >.l g f >.8.N m . y e g ! r.: : j & : : y f l 8 H X.N ",
"- 5 o 8 k N y N y l k 5 y q V y e x g N x e 8 8 8 ^ / e * $.>.! 6 6 o 8 v C y N y l y 5 y 8 V k e x l x x e : 8 9 N A f : $.$.Q ",
"y l . e m B 9 ] m N N k V N y $ = >./ - / f =.- $ y / f j >.k 9 8 l . e m m 9 _ N m m m ] N y $ $ >.' - Q l >.6 $ y V g g >.g ; ",
"m l >.k m B y ] 3.&.. m 8.8.y N / 0.= m - = 0.N m N k g X.' e y m N >.k m N y V ] =.X m 7.8.q N *.0.- l - = 0.N N N y n :.( 1 k ",
"m ^ *.m l m y k 6 N k e.y N ' y = N 6 X 6 6 k @ y N e @ & & $ - N N ' N n n y l 6 N y e.y B 5.e @ N 6 X 6 6 y $ e N y O & # # ; ",
"/ 3.C q y m x N 5 B ] =.B m ' 6 $ y y   k y 8 @ 8 l y m m H j x ! =.B q v m N N - N 3.3.m m 4.6 3 y y . k y 8 @ 0 n 8 k l G G z ",
"e m 9 5 v m g / k 3.V 9 8.y k m m y _ e l 8 m N k k y $ 8 g H f e m 9 5 v m k _ y 3.V 9 6.y l m m e ' 8 k 8 m N g k k $ 6 g W k ",
"m +.8 f y 3 3 B v N l y N 5 m =.m y 0.y e - m 0.m N / l l N 8._ m +.8 f y 5 3 B v V m y ^ = m ' m y 0.k y - N 7.m N / n m H >.N ",
"m ' : g 8 o 3 3.9 6 9 N y 8 m 6 y >.m k l k k l e / x @./ 8 v N m / : g : o 3 3.q 6 6 N y 8 m 6 y >.v l n g k l e / ^ >./ < l z ",
"x 7.>.8 y 8 y 8.9 6 y y 6 l y - e 7.$ l n N e 6 = x 8 y m $ 8 N N 9.8.8 y 6 y 6.9 6 q y 6 m k = y >.$ l m N e - = x e k m # e N ",
"= m ] 8 7./ 8 ^ k ] 4.- = e m &.- 8 : k = e e : @ f @ - / : p f - m ' 8 >.+.8 N k [ 4.- % 8 N &.- e - y = e e - @ k X ; N < e d ",
"= 6 / N ,.% m m y 4.^ y < : g $.l s N g x % ! e 1.N : X.f H x - $ - N N >.& N x k 4.V k e : g @.l e ! g x % ! f >.x : X.f D S ; ",
"6 = - ! x e :.e 8 4.y g : @ : ! x f g +.$.f X.f ! +.H j * < e : 6 - - ' x e *.e 8 4.8 g : @ : H x e g +.$.f X.f X.+.! j * 1 1 ; ",
"e e 8 - $ f N x m 6.=.l : X % j x f : g P x @.x f g f P < : = = e 8 8 - % k x m B 8./ l - X % x H f : g N x +.x f j f c : > & & ",
"y l l - f g & &.n 5 C l f : : x @.l : p g x x P & < < P j x e - y l l - f g = &.l 3 V x f : < x X.j : < l H x F & < i c j D < % ",
"N y 8 f f g X m y   y l N / +./ N N g l ! x : x & g x j g $.N k N y 6 f g k X m y   y m ! / ' / ! N f x X.x : x & g x h j ( H f ",
"V m e m $ e : 8 n m B k l $.&.g e g f g H g : x < g g x g / N m C l e N $ e : 8 v m m k x &.+.l f g f f H g : c < g j x g K l z ",
"m m l <.e k x = y V m y 9 k l - = e e @ l f : L j p < j f N N y m m l >.e k x - y N v y e y l - & e : % l f * L j f i z f K l k ",
"9 8 l N ! e f 8 y y ] N 6 e e $ = f f & U f * l H F x % * &./ q 8 9 m x +.e e - y y ] N 9 e e $ = e f - @.g * x F F x + * @./ 7 ",
"5.m m N e g ! N o m y N ' / @ = @ f l &.x l H & x L f X.g &.k $ >.v m N e g ' ! o m y N ' ^ @ = $ e l @.x l x & x P f o.k ( g O ",
"y n m f f *.,.l . 6 3 >.m y 6 _ g k 8 g j g j & g P x ! : 6 6 8 y m m k y +.&.l o 6 5 6.m y 6 / l k 8 g h g g & j H x N 8 , , 0 ",
"9 V N k $ < e ' ^ m 5 l l ^ x N & = e e x P H f x x X.! 8 $ o B q ' m k % < f / ' m 5 k m N l N - - e e x ! X.f l x Z Z e # @ n ",
"` ] m N f ! k k _ v m N m k e k - $ % e +.:.:.+.H g g ! &.f $ n V V m N e / k k _ v m V m k f k & X = f X.:.:.@.X.g g C { r $ n ",
"5.9 m / N ! k y { m [ 8 >.w./ - X % k k N +./ &.N e * / &.=.t q 4.y B / N +.k k =.n ' 8 ,.w.! = X % k f N X.X.:.l f : ' 4. .w 0 ",
"n o B N l : e m 0.N V / >.l l x +.f - g f k f N l l e N m =.V 6 v o B N g - e x 0.N V X.:.l l l :.f - l y f f N l l s _ m  .W 0 "
};
